<?xml version="1.0" encoding="UTF-8" standalone="no"?>
<svg
   xmlns:dc="http://purl.org/dc/elements/1.1/"
   xmlns:cc="http://creativecommons.org/ns#"
   xmlns:rdf="http://www.w3.org/1999/02/22-rdf-syntax-ns#"
   xmlns:svg="http://www.w3.org/2000/svg"
   xmlns="http://www.w3.org/2000/svg"
   xmlns:sodipodi="http://sodipodi.sourceforge.net/DTD/sodipodi-0.dtd"
   xmlns:inkscape="http://www.inkscape.org/namespaces/inkscape"
   width="200"
   height="80"
   viewBox="0 0 200 80"
   version="1.1"
   id="svg8"
   inkscape:version="1.0.2 (e86c870879, 2021-01-15)"
   sodipodi:docname="splash_branding.svg">
  <defs
     id="defs2" />
  <sodipodi:namedview
     id="base"
     pagecolor="#ffffff"
     bordercolor="#666666"
     borderopacity="1.0"
     inkscape:pageopacity="0.0"
     inkscape:pageshadow="2"
     inkscape:zoom="2.8"
     inkscape:cx="89.794089"
     inkscape:cy="60.364049"
     inkscape:document-units="px"
     inkscape:current-layer="layer1"
     inkscape:document-rotation="0"
     showgrid="false"
     units="px"
     inkscape:window-width="2560"
     inkscape:window-height="1016"
     inkscape:window-x="0"
     inkscape:window-y="27"
     inkscape:window-maximized="1" />
  <metadata
     id="metadata5">
    <rdf:RDF>
      <cc:Work
         rdf:about="">
        <dc:format>image/svg+xml</dc:format>
        <dc:type
           rdf:resource="http://purl.org/dc/dcmitype/StillImage" />
        <dc:title></dc:title>
      </cc:Work>
    </rdf:RDF>
  </metadata>
  <g
     inkscape:label="Layer 1"
     inkscape:groupmode="layer"
     id="layer1">
    <g
       id="g894"
       transform="matrix(0.7,0,0,0.7,29.980424,11.652797)"
       style="stroke-width:1.42857">
      <g
         aria-label="Trekarta"
         id="text835"
         style="font-style:normal;font-variant:normal;font-weight:normal;font-stretch:normal;font-size:40px;line-height:1.25;font-family:'Amiri Quran Colored';-inkscape-font-specification:'Amiri Quran Colored';letter-spacing:0px;word-spacing:0px;fill:#000000;fill-opacity:1;stroke:none;stroke-width:1.42857">
        <path
           d="m 18.383041,56.266655 h 3.552 v -32.256 h 8.112 v -3.216 h -19.776 v 3.216 h 8.112 z"
           style="font-style:normal;font-variant:normal;font-weight:normal;font-stretch:normal;font-size:48px;font-family:'URW Gothic';-inkscape-font-specification:'URW Gothic';stroke-width:1.42857"
           id="path837" />
        <path
           d="m 31.822933,56.266655 h 3.552 v -15.312 c -0.048,-4.752 2.592,-7.68 7.44,-8.064 v -3.504 c -3.792,0.192 -6.048,1.488 -7.44,4.368 v -3.744 h -3.552 z"
           style="font-style:normal;font-variant:normal;font-weight:normal;font-stretch:normal;font-size:48px;font-family:'URW Gothic';-inkscape-font-specification:'URW Gothic';stroke-width:1.42857"
           id="path839" />
        <path
           d="m 71.086863,44.314655 c 0,-3.6 -0.48,-5.808 -1.776,-8.112 -2.352,-4.224 -6.912,-6.816 -11.952,-6.816 -7.632,0 -13.584,6 -13.584,13.632 0,7.776 6.096,13.872 13.872,13.872 5.712,0 10.848,-3.696 12.768,-9.264 h -3.696 c -1.488,3.6 -5.184,6 -9.168,6 -5.424,0 -9.936,-4.128 -10.224,-9.312 z m -23.664,-3.216 c 0.96,-5.04 4.944,-8.448 9.936,-8.448 5.088,0 8.928,3.168 10.176,8.448 z"
           style="font-style:normal;font-variant:normal;font-weight:normal;font-stretch:normal;font-size:48px;font-family:'URW Gothic';-inkscape-font-specification:'URW Gothic';stroke-width:1.42857"
           id="path841" />
        <path
           d="m 76.222805,56.266655 h 3.552 v -5.424 l 4.128,-5.088 8.736,10.512 h 4.416 l -10.896,-13.056 10.224,-13.2 h -4.368 l -12.24,15.936 v -25.152 h -3.552 z"
           style="font-style:normal;font-variant:normal;font-weight:normal;font-stretch:normal;font-size:48px;font-family:'URW Gothic';-inkscape-font-specification:'URW Gothic';fill:#ff5722;fill-opacity:1;stroke-width:1.42857"
           id="path843" />
        <path
           d="m 125.75873,30.010655 h -3.552 v 4.656 c -2.64,-3.648 -5.808,-5.28 -10.368,-5.28 -7.872,0 -13.823998,5.952 -13.823998,13.824 0,7.872 5.999998,13.68 14.111998,13.68 4.464,0 7.248,-1.44 10.08,-5.232 v 4.608 h 3.552 z m -13.824,2.64 c 5.808,0 10.272,4.512 10.272,10.368 0,6 -4.416,10.608 -10.08,10.608 -5.952,0 -10.512,-4.656 -10.512,-10.656 0,-5.712 4.608,-10.32 10.32,-10.32 z"
           style="font-style:normal;font-variant:normal;font-weight:normal;font-stretch:normal;font-size:48px;font-family:'URW Gothic';-inkscape-font-specification:'URW Gothic';stroke-width:1.42857"
           id="path845" />
        <path
           d="m 131.80667,56.266655 h 3.552 v -15.312 c -0.048,-4.752 2.592,-7.68 7.44,-8.064 v -3.504 c -3.792,0.192 -6.048,1.488 -7.44,4.368 v -3.744 h -3.552 z"
           style="font-style:normal;font-variant:normal;font-weight:normal;font-stretch:normal;font-size:48px;font-family:'URW Gothic';-inkscape-font-specification:'URW Gothic';stroke-width:1.42857"
           id="path847" />
        <path
           d="m 150.95852,56.266655 h 3.552 v -23.04 h 5.904 v -3.216 h -5.904 v -9.216 h -3.552 v 9.216 h -5.664 v 3.216 h 5.664 z"
           style="font-style:normal;font-variant:normal;font-weight:normal;font-stretch:normal;font-size:48px;font-family:'URW Gothic';-inkscape-font-specification:'URW Gothic';stroke-width:1.42857"
           id="path849" />
        <path
           d="m 189.59845,30.010655 h -3.552 v 4.656 c -2.64,-3.648 -5.808,-5.28 -10.368,-5.28 -7.872,0 -13.824,5.952 -13.824,13.824 0,7.872 6,13.68 14.112,13.68 4.464,0 7.248,-1.44 10.08,-5.232 v 4.608 h 3.552 z m -13.824,2.64 c 5.808,0 10.272,4.512 10.272,10.368 0,6 -4.416,10.608 -10.08,10.608 -5.952,0 -10.512,-4.656 -10.512,-10.656 0,-5.712 4.608,-10.32 10.32,-10.32 z"
           style="font-style:normal;font-variant:normal;font-weight:normal;font-stretch:normal;font-size:48px;font-family:'URW Gothic';-inkscape-font-specification:'URW Gothic';stroke-width:1.42857"
           id="path851" />
      </g>
    </g>
  </g>
</svg>
