<?xml version="1.0" encoding="UTF-8"?>
<svg enable-background="new 0 0 100 100" version="1.1" viewBox="0 0 100 100" xml:space="preserve" xmlns="http://www.w3.org/2000/svg"><path d="m63.177 20.345c0 4.23-3.42 7.56-7.56 7.56s-7.56-3.42-7.56-7.56 3.42-7.56 7.56-7.56 7.56 3.42 7.56 7.56zm-19.26 9.72c0.45-1.53-0.54-3.6-2.52-3.69-1.08 0-3.33-0.09-5.04-0.09s-3.24 0.27-3.69 1.8l-7.2 19.89c-0.45 1.53 0.36 3.15 1.89 3.6l5.49 2.25c1.53 0.54 3.24-0.27 3.69-1.8zm29.25 17.46-0.72-0.36v-9.72h-2.7v8.37l-5.94-2.79-7.38-10.26c-1.17-2.34-3.33-4.14-6.84-3.6-3.24 0.45-4.41 4.05-5.22 8.01l-2.16 10.53-1.8 8.19c-0.09 0.36-0.09 0.63-0.09 0.9l-1.89 9.36-11.07 13.95c-1.26 1.53-0.99 3.87 0.63 5.04 0.63 0.54 1.35 0.72 2.16 0.81 1.08 0 2.16-0.45 2.88-1.35l11.52-14.67c0.36-0.45 0.54-0.9 0.72-1.44l1.8-8.28 6.93 9.18 0.72 14.4c0.09 1.89 1.62 3.42 3.51 3.42h0.27c1.98-0.09 3.51-1.8 3.42-3.78l-0.81-15.57c0-0.72-0.27-1.44-0.72-1.98l-6.57-8.73 3.06-14.49 2.88 4.05c0.27 0.36 0.63 0.63 0.99 0.9l8.91 4.23v34.29h2.7v-33.57c0.81-0.09 1.62-0.63 1.98-1.53 0.72-1.26 0.18-2.88-1.17-3.51z" fill="#ff395a" stroke="#fff" stroke-width="7"/><path d="m63.177 20.345c0 4.23-3.42 7.56-7.56 7.56s-7.56-3.42-7.56-7.56 3.42-7.56 7.56-7.56 7.56 3.42 7.56 7.56zm-19.26 9.72c0.45-1.53-0.54-3.6-2.52-3.69-1.08 0-3.33-0.09-5.04-0.09s-3.24 0.27-3.69 1.8l-7.2 19.89c-0.45 1.53 0.36 3.15 1.89 3.6l5.49 2.25c1.53 0.54 3.24-0.27 3.69-1.8zm29.25 17.46-0.72-0.36v-9.72h-2.7v8.37l-5.94-2.79-7.38-10.26c-1.17-2.34-3.33-4.14-6.84-3.6-3.24 0.45-4.41 4.05-5.22 8.01l-2.16 10.53-1.8 8.19c-0.09 0.36-0.09 0.63-0.09 0.9l-1.89 9.36-11.07 13.95c-1.26 1.53-0.99 3.87 0.63 5.04 0.63 0.54 1.35 0.72 2.16 0.81 1.08 0 2.16-0.45 2.88-1.35l11.52-14.67c0.36-0.45 0.54-0.9 0.72-1.44l1.8-8.28 6.93 9.18 0.72 14.4c0.09 1.89 1.62 3.42 3.51 3.42h0.27c1.98-0.09 3.51-1.8 3.42-3.78l-0.81-15.57c0-0.72-0.27-1.44-0.72-1.98l-6.57-8.73 3.06-14.49 2.88 4.05c0.27 0.36 0.63 0.63 0.99 0.9l8.91 4.23v34.29h2.7v-33.57c0.81-0.09 1.62-0.63 1.98-1.53 0.72-1.26 0.18-2.88-1.17-3.51z" fill="#ff062f" stroke-width=".9"/></svg>
