<?xml version="1.0" encoding="UTF-8" standalone="no"?>
<svg xmlns="http://www.w3.org/2000/svg" enable-background="new 0 0 24 24" xml:space="preserve" height="100" width="100" version="1.1" y="0px" x="0px" viewBox="0 0 100 100"><path d="m78.456 12.599c-3.8257 0-6.9171 3.0945-6.9171 6.9202 0 3.8163 3.0882 6.9171 6.9171 6.9171s6.9391-3.1008 6.9391-6.9171c0-3.8257-3.1102-6.9202-6.9391-6.9202zm-3.2451 68.885s0.82227 1.4845 0.82227 2.0306c0 1.3872-2.1624 1.2773-2.1624 1.2773h-17.867v2.608h18.856c4.0674 0 4.5601-3.7316 3.2169-5.0717-1.1863-1.1895-2.8654-0.84424-2.8654-0.84424zm-42.836 0.20086s-0.47076 1.6257-0.85365 2.0149c-0.97919 0.97919-2.4291-0.62768-2.4291-0.62768l-12.636-12.638-1.851 1.849 13.335 13.332c2.8779 2.8779 5.8689 0.58689 5.8689-1.3119 0-1.6696-1.4343-2.6174-1.4343-2.6174zm30.656-1.9144c0 2.3538 1.9113 4.2651 4.2777 4.2651 2.1467 0 4.2557-2.4919 4.2557-4.2651v-17.428c0-1.2208-0.50842-2.3067-1.3213-3.0976l-10.228-10.202 13.561-13.568c2.5484-3.1886 1.2052-7.0081 1.2052-7.0081-1.4029-4.2306-6.2141-4.3781-6.2141-4.3781l-34.968-0.0029c-1.8611 0-3.3801 1.5096-3.3801 3.3738 0 1.8862 1.5221 3.3801 3.3801 3.3801l24.15 0.03766-10.169 10.118c-1.4531 1.4908-2.1938 3.1604-2.1938 5.3542 0 1.5253 0.44879 2.925 1.2271 4.1019l-0.01562-0.01251-21.225 21.26c-1.519 1.2271-2.018 3.3832-1.1016 5.1878 1.0514 2.0651 3.5841 2.8874 5.6523 1.8266 0.2856-0.14436 0.53353-0.32012 0.78461-0.51784l21.668-21.69 10.633 10.737z" stroke="#fff" stroke-width="7" fill="#3596a4"/><path d="m78.456 12.599c-3.8257 0-6.9171 3.0945-6.9171 6.9202 0 3.8163 3.0882 6.9171 6.9171 6.9171s6.9391-3.1008 6.9391-6.9171c0-3.8257-3.1102-6.9202-6.9391-6.9202zm-3.2451 68.885s0.82227 1.4845 0.82227 2.0306c0 1.3872-2.1624 1.2773-2.1624 1.2773h-17.867v2.608h18.856c4.0674 0 4.5601-3.7316 3.2169-5.0717-1.1863-1.1895-2.8654-0.84424-2.8654-0.84424zm-42.836 0.20086s-0.47076 1.6257-0.85365 2.0149c-0.97919 0.97919-2.4291-0.62768-2.4291-0.62768l-12.636-12.638-1.851 1.849 13.335 13.332c2.8779 2.8779 5.8689 0.58689 5.8689-1.3119 0-1.6696-1.4343-2.6174-1.4343-2.6174zm30.656-1.9144c0 2.3538 1.9113 4.2651 4.2777 4.2651 2.1467 0 4.2557-2.4919 4.2557-4.2651v-17.428c0-1.2208-0.50842-2.3067-1.3213-3.0976l-10.228-10.202 13.561-13.568c2.5484-3.1886 1.2052-7.0081 1.2052-7.0081-1.4029-4.2306-6.2141-4.3781-6.2141-4.3781l-34.968-0.0029c-1.8611 0-3.3801 1.5096-3.3801 3.3738 0 1.8862 1.5221 3.3801 3.3801 3.3801l24.15 0.03766-10.169 10.118c-1.4531 1.4908-2.1938 3.1604-2.1938 5.3542 0 1.5253 0.44879 2.925 1.2271 4.1019l-0.01562-0.01251-21.225 21.26c-1.519 1.2271-2.018 3.3832-1.1016 5.1878 1.0514 2.0651 3.5841 2.8874 5.6523 1.8266 0.2856-0.14436 0.53353-0.32012 0.78461-0.51784l21.668-21.69 10.633 10.737z" stroke-width="3.1384" fill="#3596a4"/></svg>
