<?xml version="1.0" encoding="UTF-8" standalone="no"?>
<svg xmlns="http://www.w3.org/2000/svg" enable-background="new 0 0 100 100" xml:space="preserve" version="1.1" y="0px" x="0px" viewBox="0 0 100 100"><g transform="matrix(.9025 0 0 .9025 4.8752 4.875)" stroke="#fff" stroke-width="7.7562" fill="#3b3280"><path d="m84.162 52.906 0.233-2.788c0.23-0.929-0.465-1.863-1.628-1.863-0.932-0.232-1.863 0.465-1.863 1.398l-0.464 2.789c0 1.631-1.164 3.025-2.56 3.721l-69.767 34.419c-0.929 0.463-1.394 1.631-0.929 2.326 0.466 0.697 0.929 1.162 1.631 1.162 0.232 0 0.465-0.233 0.695-0.233l70-34.417c2.555-1.393 4.187-3.723 4.652-6.514z"/><path d="m70.906 19.885c2.09 0 3.721-0.695 5.115-2.095 1.394-1.626 2.091-3.254 2.091-5.347 0-2.097-0.697-3.721-2.091-5.349-1.394-1.393-3.025-2.094-5.115-2.094-2.095 0-3.721 0.701-5.348 2.095-1.398 1.628-2.093 3.252-2.093 5.349 0 2.093 0.695 3.721 2.093 5.347 1.627 1.399 3.253 2.094 5.348 2.094z"/><path d="m91.372 51.976c-0.932 0-1.861 0.699-1.861 1.628l-0.466 2.558c-0.233 1.399-0.929 2.56-2.326 3.259l-65.113 32.09c-0.932 0.463-1.398 1.631-0.932 2.326 0.463 0.7 0.932 1.163 1.627 1.163 0.233 0 0.465-0.233 0.932-0.233l65.113-32.09c2.325-1.166 3.954-3.489 4.186-6.047l0.466-2.557c0-1.167-0.697-1.864-1.626-2.097z"/><path d="m18.117 82.441c1.163 0.464 2.323 0.697 3.489 0.233 1.161-0.465 2.089-1.162 2.788-2.323l15.351-30.466 26.278-17.21c1.628-1.161 2.788-2.792 3.252-4.65 0.47-2.097 0-3.954-0.929-5.584-1.161-1.86-2.555-3.022-4.65-3.489-1.86-0.465-3.723 0-5.349 1.166l-19.531 12.558c-1.166 0.699-2.097 1.628-2.56 2.788l-20.234 40.468c-0.697 1.161-0.697 2.555-0.463 3.717 0.463 1.166 1.16 2.095 2.558 2.792z"/></g><g fill="#3b3280" transform="matrix(.9025 0 0 .9025 4.8752 4.875)"><path d="m84.162 52.906 0.233-2.788c0.23-0.929-0.465-1.863-1.628-1.863-0.932-0.232-1.863 0.465-1.863 1.398l-0.464 2.789c0 1.631-1.164 3.025-2.56 3.721l-69.767 34.419c-0.929 0.463-1.394 1.631-0.929 2.326 0.466 0.697 0.929 1.162 1.631 1.162 0.232 0 0.465-0.233 0.695-0.233l70-34.417c2.555-1.393 4.187-3.723 4.652-6.514z"/><path d="m70.906 19.885c2.09 0 3.721-0.695 5.115-2.095 1.394-1.626 2.091-3.254 2.091-5.347 0-2.097-0.697-3.721-2.091-5.349-1.394-1.393-3.025-2.094-5.115-2.094-2.095 0-3.721 0.701-5.348 2.095-1.398 1.628-2.093 3.252-2.093 5.349 0 2.093 0.695 3.721 2.093 5.347 1.627 1.399 3.253 2.094 5.348 2.094z"/><path d="m91.372 51.976c-0.932 0-1.861 0.699-1.861 1.628l-0.466 2.558c-0.233 1.399-0.929 2.56-2.326 3.259l-65.113 32.09c-0.932 0.463-1.398 1.631-0.932 2.326 0.463 0.7 0.932 1.163 1.627 1.163 0.233 0 0.465-0.233 0.932-0.233l65.113-32.09c2.325-1.166 3.954-3.489 4.186-6.047l0.466-2.557c0-1.167-0.697-1.864-1.626-2.097z"/><path d="m18.117 82.441c1.163 0.464 2.323 0.697 3.489 0.233 1.161-0.465 2.089-1.162 2.788-2.323l15.351-30.466 26.278-17.21c1.628-1.161 2.788-2.792 3.252-4.65 0.47-2.097 0-3.954-0.929-5.584-1.161-1.86-2.555-3.022-4.65-3.489-1.86-0.465-3.723 0-5.349 1.166l-19.531 12.558c-1.166 0.699-2.097 1.628-2.56 2.788l-20.234 40.468c-0.697 1.161-0.697 2.555-0.463 3.717 0.463 1.166 1.16 2.095 2.558 2.792z"/></g></svg>
