<?xml version="1.0" encoding="UTF-8" standalone="no"?>
<svg
   xmlns:dc="http://purl.org/dc/elements/1.1/"
   xmlns:cc="http://creativecommons.org/ns#"
   xmlns:rdf="http://www.w3.org/1999/02/22-rdf-syntax-ns#"
   xmlns:svg="http://www.w3.org/2000/svg"
   xmlns="http://www.w3.org/2000/svg"
   xmlns:sodipodi="http://sodipodi.sourceforge.net/DTD/sodipodi-0.dtd"
   xmlns:inkscape="http://www.inkscape.org/namespaces/inkscape"
   version="1.1"
   x="0px"
   y="0px"
   viewBox="0 0 100 100"
   enable-background="new 0 0 100 100"
   xml:space="preserve"
   id="svg26"
   sodipodi:docname="lit.svg"
   width="100"
   height="100"
   inkscape:version="0.92.1 r15371"><metadata
     id="metadata32"><rdf:RDF><cc:Work
         rdf:about=""><dc:format>image/svg+xml</dc:format><dc:type
           rdf:resource="http://purl.org/dc/dcmitype/StillImage" /><dc:title></dc:title></cc:Work></rdf:RDF></metadata><defs
     id="defs30" /><sodipodi:namedview
     pagecolor="#ffffff"
     bordercolor="#666666"
     borderopacity="1"
     objecttolerance="10"
     gridtolerance="10"
     guidetolerance="10"
     inkscape:pageopacity="0"
     inkscape:pageshadow="2"
     inkscape:window-width="2560"
     inkscape:window-height="1016"
     id="namedview28"
     showgrid="false"
     inkscape:zoom="3.776"
     inkscape:cx="47.476735"
     inkscape:cy="41.780853"
     inkscape:window-x="0"
     inkscape:window-y="27"
     inkscape:window-maximized="1"
     inkscape:current-layer="svg26" /><path
     style="fill:#ffdbdb;stroke:#ffffff;stroke-opacity:1;stroke-width:4;stroke-miterlimit:4;stroke-dasharray:none;fill-opacity:1"
     inkscape:connector-curvature="0"
     id="path4522"
     d="m 60.3,70.05 c 7.5,-3.9 12.2,-11.5 12.2,-20 0,-12.8 -10.8,-23.1 -23.7,-22.5 -11.7,0.6 -21.2,10.7 -21.3,22.4 0,8.5 4.6,16.1 12.2,20 1.7,0.9 2.8,2.8 2.8,4.8 0,0.1 0,0.1 0,0.2 H 40 v 10 c 0,5.5 4.5,10 10,10 5.5,0 10,-4.5 10,-10 v -9.9 h -2.5 v -0.2 c 0,-2.1 1.1,-3.9 2.8,-4.8 z m -7.8,4.8 v 0.2 h -5 c 0,-0.1 0,-0.1 0,-0.2 0,-3.9 -2.1,-7.5 -5.5,-9.3 -5.9,-3 -9.5,-9 -9.5,-15.6 0,-9.1 7.4,-16.9 16.5,-17.4 0.3,0 0.6,0 1,0 9.7,0 17.5,7.9 17.5,17.5 0,6.6 -3.6,12.5 -9.5,15.5 -3.4,1.8 -5.5,5.3 -5.5,9.3 z" /><path
     style="fill:#ffffff;stroke-width:1.5;fill-opacity:1"
     inkscape:connector-curvature="0"
     id="path4524"
     d="m 26.875,50.05 c 0,-2.1 -1.65,-3.75 -3.75,-3.75 H 4.375 c -2.1,0 -3.75,1.65 -3.75,3.75 0,2.1 1.65,3.75 3.75,3.75 h 18.75 c 2.1,0 3.75,-1.65 3.75,-3.75 z" /><path
     style="fill:#ffffff;stroke-width:1.5;fill-opacity:1"
     inkscape:connector-curvature="0"
     id="path4526"
     d="m 95.625,46.3 h -18.75 c -2.1,0 -3.75,1.65 -3.75,3.75 0,2.1 1.65,3.75 3.75,3.75 h 18.75 c 2.1,0 3.75,-1.65 3.75,-3.75 0,-2.1 -1.65,-3.75 -3.75,-3.75 z" /><path
     style="fill:#ffffff;stroke-width:1.5;fill-opacity:1"
     inkscape:connector-curvature="0"
     id="path4528"
     d="m 61.611111,30.061111 c 0.6,0.3 1.2,0.45 1.8,0.45 1.35,0 2.55,-0.6 3.3,-1.95 l 9.45,-16.2 c 1.05,-1.8 0.45,-4.0499999 -1.35,-5.0999999 -1.8,-1.05 -4.05,-0.45 -5.1,1.35 l -9.45,16.1999999 c -1.2,1.95 -0.45,4.2 1.35,5.25 z" /><path
     style="fill:#ffffff;stroke-width:1.5;fill-opacity:1"
     inkscape:connector-curvature="0"
     id="path4530"
     d="m 33.3,28.636111 c 0.75,1.2 1.95,1.95 3.3,1.95 0.6,0 1.35,-0.15 1.8,-0.45 1.8,-1.05 2.4,-3.3 1.35,-5.1 L 30.3,8.8361111 c -1.05,-1.8 -3.3,-2.4 -5.1,-1.35 -1.8,1.05 -2.4,3.2999999 -1.35,5.0999999 z" /><path
     style="fill:#ffffff;stroke-width:1.5;fill-opacity:1"
     inkscape:connector-curvature="0"
     id="path4532"
     d="m 29.975,61.636111 c -1.05,-1.8 -3.3,-2.4 -5.1,-1.35 l -16.2,9.45 c -1.8,1.05 -2.4,3.3 -1.35,5.1 0.75,1.2 1.95,1.95 3.3,1.95 0.6,0 1.35,-0.15 1.8,-0.45 l 16.2,-9.45 c 1.8,-1.2 2.4,-3.6 1.35,-5.25 z" /><path
     style="fill:#ffffff;stroke-width:1.5;fill-opacity:1"
     inkscape:connector-curvature="0"
     id="path4534"
     d="m 70.025,38.511111 c 0.75,1.2 1.95,1.95 3.3,1.95 0.6,0 1.35,-0.15 1.8,-0.45 l 16.2,-9.45 c 1.8,-1.05 2.4,-3.3 1.35,-5.1 -1.05,-1.8 -3.3,-2.4 -5.1,-1.35 l -16.2,9.45 c -1.8,0.75 -2.4,3.15 -1.35,4.95 z" /><path
     style="fill:#ffffff;stroke-width:1.5;fill-opacity:1"
     inkscape:connector-curvature="0"
     id="path4536"
     d="m 8.575,30.486111 16.2,9.45 c 0.6,0.3 1.2,0.45 1.8,0.45 1.35,0 2.55,-0.6 3.3,-1.95 1.05,-1.8 0.45,-4.05 -1.35,-5.1 l -16.2,-9.45 c -1.8,-1.05 -4.05,-0.45 -5.1,1.35 -1.05,1.95 -0.45,4.2 1.35,5.25 z" /><path
     style="fill:#ffffff;stroke-width:1.5;fill-opacity:1"
     inkscape:connector-curvature="0"
     id="path4538"
     d="m 91.425,69.661111 -16.2,-9.45 c -1.8,-1.05 -4.05,-0.45 -5.1,1.35 -1.05,1.8 -0.45,4.05 1.35,5.1 l 16.2,9.45 c 0.6,0.3 1.2,0.45 1.8,0.45 1.35,0 2.55,-0.6 3.3,-1.95 1.05,-1.65 0.45,-3.9 -1.35,-4.95 z" /><path
     style="fill:#ffffff;stroke-width:1.5;fill-opacity:1"
     inkscape:connector-curvature="0"
     id="path4540"
     d="m 50,26.925 c 2.1,0 3.75,-1.65 3.75,-3.75 V 4.425 c 0,-2.1 -1.65,-3.75 -3.75,-3.75 -2.1,0 -3.75,1.65 -3.75,3.75 v 18.75 c 0,2.1 1.65,3.75 3.75,3.75 z" /><g
     id="g4520"
     transform="translate(0,25.05)"><path
       inkscape:connector-curvature="0"
       id="path2"
       d="M 60.3,45 C 67.8,41.1 72.5,33.5 72.5,25 72.5,12.2 61.7,1.9 48.8,2.5 37.1,3.1 27.6,13.2 27.5,24.9 c 0,8.5 4.6,16.1 12.2,20 1.7,0.9 2.8,2.8 2.8,4.8 0,0.1 0,0.1 0,0.2 H 40 v 10 c 0,5.5 4.5,10 10,10 5.5,0 10,-4.5 10,-10 V 50 h -2.5 v -0.2 c 0,-2.1 1.1,-3.9 2.8,-4.8 z m -7.8,4.8 V 50 h -5 c 0,-0.1 0,-0.1 0,-0.2 0,-3.9 -2.1,-7.5 -5.5,-9.3 -5.9,-3 -9.5,-9 -9.5,-15.6 0,-9.1 7.4,-16.9 16.5,-17.4 0.3,0 0.6,0 1,0 9.7,0 17.5,7.9 17.5,17.5 0,6.6 -3.6,12.5 -9.5,15.5 -3.4,1.8 -5.5,5.3 -5.5,9.3 z" /><path
       inkscape:connector-curvature="0"
       id="path4"
       d="m 22.5,25 c 0,-1.4 -1.1,-2.5 -2.5,-2.5 H 7.5 C 6.1,22.5 5,23.6 5,25 c 0,1.4 1.1,2.5 2.5,2.5 H 20 c 1.4,0 2.5,-1.1 2.5,-2.5 z" /><path
       inkscape:connector-curvature="0"
       id="path6"
       d="M 92.5,22.5 H 80 c -1.4,0 -2.5,1.1 -2.5,2.5 0,1.4 1.1,2.5 2.5,2.5 h 12.5 c 1.4,0 2.5,-1.1 2.5,-2.5 0,-1.4 -1.1,-2.5 -2.5,-2.5 z" /><path
       inkscape:connector-curvature="0"
       id="path8"
       d="m 63.8,1.2 c 0.4,0.2 0.8,0.3 1.2,0.3 0.9,0 1.7,-0.4 2.2,-1.3 l 6.3,-10.8 c 0.7,-1.2 0.3,-2.7 -0.9,-3.4 -1.2,-0.7 -2.7,-0.3 -3.4,0.9 l -6.3,10.8 c -0.8,1.3 -0.3,2.8 0.9,3.5 z" /><path
       inkscape:connector-curvature="0"
       id="path10"
       d="m 32.8,0.3 c 0.5,0.8 1.3,1.3 2.2,1.3 0.4,0 0.9,-0.1 1.2,-0.3 1.2,-0.7 1.6,-2.2 0.9,-3.4 l -6.3,-10.8 c -0.7,-1.2 -2.2,-1.6 -3.4,-0.9 -1.2,0.7 -1.6,2.2 -0.9,3.4 z" /><path
       inkscape:connector-curvature="0"
       id="path12"
       d="M 26.2,38.8 C 25.5,37.6 24,37.2 22.8,37.9 L 12,44.2 c -1.2,0.7 -1.6,2.2 -0.9,3.4 0.5,0.8 1.3,1.3 2.2,1.3 0.4,0 0.9,-0.1 1.2,-0.3 l 10.8,-6.3 c 1.2,-0.8 1.6,-2.4 0.9,-3.5 z" /><path
       inkscape:connector-curvature="0"
       id="path14"
       d="m 73.8,11.3 c 0.5,0.8 1.3,1.3 2.2,1.3 0.4,0 0.9,-0.1 1.2,-0.3 L 88,6 C 89.2,5.3 89.6,3.8 88.9,2.6 88.2,1.4 86.7,1 85.5,1.7 L 74.7,8 c -1.2,0.5 -1.6,2.1 -0.9,3.3 z" /><path
       inkscape:connector-curvature="0"
       id="path16"
       d="m 11.9,5.9 10.8,6.3 c 0.4,0.2 0.8,0.3 1.2,0.3 0.9,0 1.7,-0.4 2.2,-1.3 C 26.8,10 26.4,8.5 25.2,7.8 L 14.4,1.5 C 13.2,0.8 11.7,1.2 11,2.4 10.3,3.7 10.7,5.2 11.9,5.9 Z" /><path
       inkscape:connector-curvature="0"
       id="path18"
       d="M 88.1,44.1 77.3,37.8 c -1.2,-0.7 -2.7,-0.3 -3.4,0.9 -0.7,1.2 -0.3,2.7 0.9,3.4 l 10.8,6.3 c 0.4,0.2 0.8,0.3 1.2,0.3 0.9,0 1.7,-0.4 2.2,-1.3 0.7,-1.1 0.3,-2.6 -0.9,-3.3 z" /><path
       inkscape:connector-curvature="0"
       id="path20"
       d="m 50,-2.5 c 1.4,0 2.5,-1.1 2.5,-2.5 v -12.5 c 0,-1.4 -1.1,-2.5 -2.5,-2.5 -1.4,0 -2.5,1.1 -2.5,2.5 V -5 c 0,1.4 1.1,2.5 2.5,2.5 z" /></g></svg>