<?xml version="1.0" encoding="UTF-8"?>
<svg enable-background="new 0 0 100 100" version="1.1" viewBox="0 0 100 100" xml:space="preserve" xmlns="http://www.w3.org/2000/svg"><path d="m60.3 70.05c7.5-3.9 12.2-11.5 12.2-20 0-12.8-10.8-23.1-23.7-22.5-11.7 0.6-21.2 10.7-21.3 22.4 0 8.5 4.6 16.1 12.2 20 1.7 0.9 2.8 2.8 2.8 4.8v0.2h-2.5v10c0 5.5 4.5 10 10 10s10-4.5 10-10v-9.9h-2.5v-0.2c0-2.1 1.1-3.9 2.8-4.8zm-7.8 4.8v0.2h-5v-0.2c0-3.9-2.1-7.5-5.5-9.3-5.9-3-9.5-9-9.5-15.6 0-9.1 7.4-16.9 16.5-17.4h1c9.7 0 17.5 7.9 17.5 17.5 0 6.6-3.6 12.5-9.5 15.5-3.4 1.8-5.5 5.3-5.5 9.3z" fill="#ffdbdb" stroke="#fff" stroke-width="4"/><path d="m26.875 50.05c0-2.1-1.65-3.75-3.75-3.75h-18.75c-2.1 0-3.75 1.65-3.75 3.75s1.65 3.75 3.75 3.75h18.75c2.1 0 3.75-1.65 3.75-3.75z" fill="#fff" stroke-width="1.5"/><path d="m95.625 46.3h-18.75c-2.1 0-3.75 1.65-3.75 3.75s1.65 3.75 3.75 3.75h18.75c2.1 0 3.75-1.65 3.75-3.75s-1.65-3.75-3.75-3.75z" fill="#fff" stroke-width="1.5"/><path d="m61.611 30.061c0.6 0.3 1.2 0.45 1.8 0.45 1.35 0 2.55-0.6 3.3-1.95l9.45-16.2c1.05-1.8 0.45-4.05-1.35-5.1s-4.05-0.45-5.1 1.35l-9.45 16.2c-1.2 1.95-0.45 4.2 1.35 5.25z" fill="#fff" stroke-width="1.5"/><path d="m33.3 28.636c0.75 1.2 1.95 1.95 3.3 1.95 0.6 0 1.35-0.15 1.8-0.45 1.8-1.05 2.4-3.3 1.35-5.1l-9.45-16.2c-1.05-1.8-3.3-2.4-5.1-1.35s-2.4 3.3-1.35 5.1z" fill="#fff" stroke-width="1.5"/><path d="m29.975 61.636c-1.05-1.8-3.3-2.4-5.1-1.35l-16.2 9.45c-1.8 1.05-2.4 3.3-1.35 5.1 0.75 1.2 1.95 1.95 3.3 1.95 0.6 0 1.35-0.15 1.8-0.45l16.2-9.45c1.8-1.2 2.4-3.6 1.35-5.25z" fill="#fff" stroke-width="1.5"/><path d="m70.025 38.511c0.75 1.2 1.95 1.95 3.3 1.95 0.6 0 1.35-0.15 1.8-0.45l16.2-9.45c1.8-1.05 2.4-3.3 1.35-5.1s-3.3-2.4-5.1-1.35l-16.2 9.45c-1.8 0.75-2.4 3.15-1.35 4.95z" fill="#fff" stroke-width="1.5"/><path d="m8.575 30.486 16.2 9.45c0.6 0.3 1.2 0.45 1.8 0.45 1.35 0 2.55-0.6 3.3-1.95 1.05-1.8 0.45-4.05-1.35-5.1l-16.2-9.45c-1.8-1.05-4.05-0.45-5.1 1.35-1.05 1.95-0.45 4.2 1.35 5.25z" fill="#fff" stroke-width="1.5"/><path d="m91.425 69.661-16.2-9.45c-1.8-1.05-4.05-0.45-5.1 1.35s-0.45 4.05 1.35 5.1l16.2 9.45c0.6 0.3 1.2 0.45 1.8 0.45 1.35 0 2.55-0.6 3.3-1.95 1.05-1.65 0.45-3.9-1.35-4.95z" fill="#fff" stroke-width="1.5"/><path d="m50 26.925c2.1 0 3.75-1.65 3.75-3.75v-18.75c0-2.1-1.65-3.75-3.75-3.75s-3.75 1.65-3.75 3.75v18.75c0 2.1 1.65 3.75 3.75 3.75z" fill="#fff" stroke-width="1.5"/><g transform="translate(0,25.05)"><path d="m60.3 45c7.5-3.9 12.2-11.5 12.2-20 0-12.8-10.8-23.1-23.7-22.5-11.7 0.6-21.2 10.7-21.3 22.4 0 8.5 4.6 16.1 12.2 20 1.7 0.9 2.8 2.8 2.8 4.8v0.2h-2.5v10c0 5.5 4.5 10 10 10s10-4.5 10-10v-9.9h-2.5v-0.2c0-2.1 1.1-3.9 2.8-4.8zm-7.8 4.8v0.2h-5v-0.2c0-3.9-2.1-7.5-5.5-9.3-5.9-3-9.5-9-9.5-15.6 0-9.1 7.4-16.9 16.5-17.4h1c9.7 0 17.5 7.9 17.5 17.5 0 6.6-3.6 12.5-9.5 15.5-3.4 1.8-5.5 5.3-5.5 9.3z"/><path d="m22.5 25c0-1.4-1.1-2.5-2.5-2.5h-12.5c-1.4 0-2.5 1.1-2.5 2.5s1.1 2.5 2.5 2.5h12.5c1.4 0 2.5-1.1 2.5-2.5z"/><path d="m92.5 22.5h-12.5c-1.4 0-2.5 1.1-2.5 2.5s1.1 2.5 2.5 2.5h12.5c1.4 0 2.5-1.1 2.5-2.5s-1.1-2.5-2.5-2.5z"/><path d="m63.8 1.2c0.4 0.2 0.8 0.3 1.2 0.3 0.9 0 1.7-0.4 2.2-1.3l6.3-10.8c0.7-1.2 0.3-2.7-0.9-3.4s-2.7-0.3-3.4 0.9l-6.3 10.8c-0.8 1.3-0.3 2.8 0.9 3.5z"/><path d="m32.8 0.3c0.5 0.8 1.3 1.3 2.2 1.3 0.4 0 0.9-0.1 1.2-0.3 1.2-0.7 1.6-2.2 0.9-3.4l-6.3-10.8c-0.7-1.2-2.2-1.6-3.4-0.9s-1.6 2.2-0.9 3.4z"/><path d="m26.2 38.8c-0.7-1.2-2.2-1.6-3.4-0.9l-10.8 6.3c-1.2 0.7-1.6 2.2-0.9 3.4 0.5 0.8 1.3 1.3 2.2 1.3 0.4 0 0.9-0.1 1.2-0.3l10.8-6.3c1.2-0.8 1.6-2.4 0.9-3.5z"/><path d="m73.8 11.3c0.5 0.8 1.3 1.3 2.2 1.3 0.4 0 0.9-0.1 1.2-0.3l10.8-6.3c1.2-0.7 1.6-2.2 0.9-3.4s-2.2-1.6-3.4-0.9l-10.8 6.3c-1.2 0.5-1.6 2.1-0.9 3.3z"/><path d="m11.9 5.9 10.8 6.3c0.4 0.2 0.8 0.3 1.2 0.3 0.9 0 1.7-0.4 2.2-1.3 0.7-1.2 0.3-2.7-0.9-3.4l-10.8-6.3c-1.2-0.7-2.7-0.3-3.4 0.9-0.7 1.3-0.3 2.8 0.9 3.5z"/><path d="m88.1 44.1-10.8-6.3c-1.2-0.7-2.7-0.3-3.4 0.9s-0.3 2.7 0.9 3.4l10.8 6.3c0.4 0.2 0.8 0.3 1.2 0.3 0.9 0 1.7-0.4 2.2-1.3 0.7-1.1 0.3-2.6-0.9-3.3z"/><path d="m50-2.5c1.4 0 2.5-1.1 2.5-2.5v-12.5c0-1.4-1.1-2.5-2.5-2.5s-2.5 1.1-2.5 2.5v12.5c0 1.4 1.1 2.5 2.5 2.5z"/></g></svg>
