<?xml version="1.0" encoding="UTF-8"?>
<svg width="100" height="100" version="1.1" xmlns="http://www.w3.org/2000/svg">
 <path d="m36.986 25.034c4.3631-2.0671 3.1525-8.1206 8.3596-8.1206s5.9331 6.4655 9.9077 8.3332" fill="none" opacity=".3" stroke="#000" stroke-width="3.8561"/>
 <path d="m15.869 84.871c4.3631-2.0671 3.1525-8.1206 8.3596-8.1206s5.9331 6.4655 9.9077 8.3332" fill="none" opacity=".3" stroke="#000" stroke-width="3.8561"/>
 <path d="m72.18 65.939c4.3631-2.0671 3.1525-8.1206 8.3596-8.1206s5.9331 6.4655 9.9077 8.3332" fill="none" opacity=".3" stroke="#000" stroke-width="3.8561"/>
 <path d="m5.1895 52.832c4.3631-2.0671 3.1525-8.1206 8.3596-8.1206s5.9331 6.4655 9.9077 8.3332" fill="none" opacity=".3" stroke="#000" stroke-width="3.8561"/>
 <path d="m78.248 14.482c4.3631-2.0671 3.1525-8.1206 8.3596-8.1206s5.9331 6.4655 9.9077 8.3332" fill="none" opacity=".3" stroke="#000" stroke-width="3.8561"/>
 <path d="m53.49 94.822c4.3631-2.0671 3.1525-8.1206 8.3596-8.1206s5.9331 6.4655 9.9077 8.3332" fill="none" opacity=".3" stroke="#000" stroke-width="3.8561"/>
 <path d="m40.384 55.987c4.3631-2.0671 3.1525-8.1206 8.3596-8.1206s5.9331 6.4655 9.9077 8.3332" fill="none" opacity=".3" stroke="#000" stroke-width="3.8561"/>
 <path d="m6.6458 13.026c4.3631-2.0671 3.1525-8.1206 8.3596-8.1206s5.9331 6.4655 9.9077 8.3332" fill="none" opacity=".3" stroke="#000" stroke-width="3.8561"/>
 <path d="m70.723 38.026c4.3631-2.0671 3.1525-8.1206 8.3596-8.1206s5.9331 6.4655 9.9077 8.3332" fill="none" opacity=".3" stroke="#000" stroke-width="3.8561"/>
</svg>
