<?xml version="1.0" encoding="UTF-8"?>
<svg enable-background="new 0 0 100 94.095" version="1.0" viewBox="0 0 100 100" xml:space="preserve" xmlns="http://www.w3.org/2000/svg"><g transform="translate(-5e-4 -2.9531)" fill="#28685f" stroke="#fff"><path d="m87.97 84.767c-0.0089 2.0793-1.7318 3.7568-3.8021 3.7471h-61.785v2.5483h61.777c3.4814 0.01782 6.322-2.7678 6.3407-6.2678z" stroke-width="7"/><path d="m69.499 27.26c3.4263 0 6.203-2.7848 6.203-6.2119s-2.7767-6.2038-6.203-6.2038c-3.4271 0-6.2127 2.7759-6.2127 6.203s2.7848 6.2127 6.2127 6.2127z" stroke-width="7"/><path d="m30.153 80.697-20.653-20.717 0.00891 3.6191 19.224 19.297c2.2081 2.3911 5.9924-0.37584 5.9924-0.37584l-1.8144-1.9424s-1.7869 1.1729-2.7127 0.17415z" stroke-width="7"/><rect x="9.6742" y="41.623" width="21.139" height="2.524" stroke-width="7"/><polygon transform="matrix(.81 0 0 .81 9.5001 14.844)" points="70.204 86.504 66.923 86.504 96.855 25.616 99.831 26.866" stroke-width="8.642"/><path d="m48.131 31.869-9.6576 11.151c-0.56781 0.70551-1.4386 1.1413-2.4098 1.1413-1.7318 0-3.1242-1.3972-3.1242-3.1201 0-0.93474 0.40338-1.7682 1.0538-2.3409l10.409-11.99c0.57672-0.68688 1.4386-1.1316 2.4098-1.1316l15.072-4e-3c1.1089 0 2.0979 0.44469 2.8318 1.1494l9.6115 9.6074 7.9623-7.9485c0.5589-0.47142 1.283-0.75573 2.0712-0.75573 1.7869 0 3.2254 1.4483 3.2254 3.2254 0 0.77922-0.26568 1.4847-0.72414 2.0428l-9.6026 9.6746c-2.9144 2.9095-5.2593 0.43983-5.2593 0.43983l-5.8911-5.9195-9.2097 10.648 8.4394 8.4386s1.7771 1.65 0.75978 4.9394l-4.728 21.075c-0.37584 1.8322-1.9975 3.2068-3.9309 3.2068-2.2178 0-4.0136-1.7966-4.0136-4.0136 0-0.3483 0.03645-0.68769 0.12798-1.0076l3.8848-17.295-9.5831-9.3199-8.2466 9.1951s-1.3373 1.65-4.8746 1.5212l-16.722 0.02754c-1.8695 0.03645-3.5648-1.2458-3.986-3.1379-0.49491-2.1627 0.84321-4.2792 3.0051-4.7604 0.33939-0.07857 0.67797-0.1053 1.0084-0.09639l14.386 0.04131 21.267-24.657z" stroke-width="7"/></g><g transform="translate(-5e-4 -2.9531)" fill="#28685f"><path d="m87.97 84.767c-0.0089 2.0793-1.7318 3.7568-3.8021 3.7471h-61.785v2.5483h61.777c3.4814 0.01782 6.322-2.7678 6.3407-6.2678z" stroke-width=".81"/><path d="m69.499 27.26c3.4263 0 6.203-2.7848 6.203-6.2119s-2.7767-6.2038-6.203-6.2038c-3.4271 0-6.2127 2.7759-6.2127 6.203s2.7848 6.2127 6.2127 6.2127z" stroke-width=".81"/><path d="m30.153 80.697-20.653-20.717 0.00891 3.6191 19.224 19.297c2.2081 2.3911 5.9924-0.37584 5.9924-0.37584l-1.8144-1.9424s-1.7869 1.1729-2.7127 0.17415z" stroke-width=".81"/><rect x="9.6742" y="41.623" width="21.139" height="2.524" stroke-width=".81"/><polygon transform="matrix(.81 0 0 .81 9.5001 14.844)" points="70.204 86.504 66.923 86.504 96.855 25.616 99.831 26.866"/><path d="m48.131 31.869-9.6576 11.151c-0.56781 0.70551-1.4386 1.1413-2.4098 1.1413-1.7318 0-3.1242-1.3972-3.1242-3.1201 0-0.93474 0.40338-1.7682 1.0538-2.3409l10.409-11.99c0.57672-0.68688 1.4386-1.1316 2.4098-1.1316l15.072-4e-3c1.1089 0 2.0979 0.44469 2.8318 1.1494l9.6115 9.6074 7.9623-7.9485c0.5589-0.47142 1.283-0.75573 2.0712-0.75573 1.7869 0 3.2254 1.4483 3.2254 3.2254 0 0.77922-0.26568 1.4847-0.72414 2.0428l-9.6026 9.6746c-2.9144 2.9095-5.2593 0.43983-5.2593 0.43983l-5.8911-5.9195-9.2097 10.648 8.4394 8.4386s1.7771 1.65 0.75978 4.9394l-4.728 21.075c-0.37584 1.8322-1.9975 3.2068-3.9309 3.2068-2.2178 0-4.0136-1.7966-4.0136-4.0136 0-0.3483 0.03645-0.68769 0.12798-1.0076l3.8848-17.295-9.5831-9.3199-8.2466 9.1951s-1.3373 1.65-4.8746 1.5212l-16.722 0.02754c-1.8695 0.03645-3.5648-1.2458-3.986-3.1379-0.49491-2.1627 0.84321-4.2792 3.0051-4.7604 0.33939-0.07857 0.67797-0.1053 1.0084-0.09639l14.386 0.04131 21.267-24.657z" stroke-width=".81"/></g></svg>
