<?xml version="1.0" encoding="UTF-8"?>
<svg version="1.1" viewBox="0 0 100 100" xml:space="preserve" xmlns="http://www.w3.org/2000/svg"><style type="text/css">
	.st0{fill:none;stroke:#000000;stroke-width:8;stroke-miterlimit:10;}
	.st1{fill:none;stroke:#000000;stroke-width:5;stroke-miterlimit:10;}
	.st2{fill:none;}
	.st3{stroke:#000000;stroke-miterlimit:10;}
	.st4{fill:none;stroke:#000000;stroke-width:10;stroke-miterlimit:10;}
	.st5{fill:none;stroke:#000000;stroke-width:6;stroke-miterlimit:10;}
	.st6{fill:none;stroke:#000000;stroke-miterlimit:10;}
	.st7{stroke:#000000;stroke-width:5;stroke-miterlimit:10;}
	.st8{fill:#FFFFFF;stroke:#020000;stroke-width:5;stroke-miterlimit:10;}
	.st9{fill:#3F91B2;stroke:#000000;stroke-width:5;stroke-miterlimit:10;}
	.st10{stroke:#020000;stroke-width:5;stroke-miterlimit:10;}
</style><g transform="translate(8.3642e-6)" fill="#74b322" stroke="#fff" stroke-width="7"><path d="m72.062 51.427c-0.228-1.573-1.169-3.007-2.723-4.146-0.026-0.02-7.633-4.582-10.826-6.498-2.2543 1.9968-5.2353 3.2258-8.5128 3.2258-3.2883 0-6.2794-1.2371-8.5364-3.2459-3.1908 1.9302-10.721 6.4865-10.74 6.4992-1.5719 1.0939-2.5326 2.4936-2.7773 4.0487-0.23867 1.5188 0.20842 3.0745 1.2929 4.4991 1.4065 1.8482 4.0957 3.0046 6.5167 1.6351 0.58626-0.33145 2.5575-1.4656 4.1058-2.3585v2.339c-0.68374 0.43431-2.0028 1.2888-4.5979 2.9898-1.7756 1.1739-2.8345 3.1464-2.8318 5.2756l0.0094 7.8849c4e-3 3.4799 2.8385 6.311 6.3244 6.311 3.4846-4e-3 6.315-2.8419 6.311-6.3251l-0.0053-4.3815s1.8166-1.3655 1.8663-1.4018c1.0138 0.26489 5.0155 0.26556 6.0757 6.73e-4 0.08201 0.06051 1.949 1.2982 1.949 1.2982l-0.0061 4.485c-4e-3 3.4832 2.8264 6.3204 6.3177 6.3244 3.4792 0 6.3137-2.8311 6.317-6.311l0.0094-7.8849c0.0028-2.1292-1.0562-4.1018-2.8365-5.279-2.5924-1.6989-3.9095-2.5528-4.5932-2.9871v-2.3309c1.4172 0.82022 3.2089 1.8515 4.0917 2.343 2.3262 1.2976 5.1486 0.19161 6.5315-1.627 1.0461-1.3715 1.4831-2.8876 1.2673-4.3828zm-14.578 6.3318-4.9966 7.4835c-0.90628 0.23934-3.9532 0.2501-5.0504-0.04571l-4.885-7.4707v-0.34086h14.932zm3.4409-26.72c0 6.034-4.8911 10.925-10.925 10.925-6.034 0-10.925-4.8911-10.925-10.925 0-6.034 4.8917-10.925 10.925-10.925s10.925 4.8917 10.925 10.925z"/><path d="m88.111 13.613c-3.0585-0.5393-5.9743 1.503-6.5136 4.5616l-10.879 61.699c-0.53916 3.0577 1.5032 5.9735 4.5609 6.5127 3.0577 0.53916 5.9735-1.5032 6.5125-4.5601l10.88-61.7c0.5393-3.0585-1.5021-5.975-4.5598-6.5141zm-4.1131 43.318-6.8374-1.2056c-0.51497-0.0908-0.83845-0.69536-0.72289-1.3507 0.11555-0.65534 0.6271-1.1127 1.1413-1.022l6.8366 1.2055c0.51417 0.09066 0.83764 0.69522 0.72209 1.3506-0.11475 0.65548-0.62629 1.1128-1.1397 1.0223zm1.8132-10.283-6.8374-1.2056c-0.51497-0.0908-0.83845-0.69536-0.72289-1.3507s0.6271-1.1127 1.1413-1.022l6.8366 1.2055c0.51417 0.09066 0.83764 0.69522 0.72209 1.3506-0.11475 0.65548-0.62629 1.1128-1.1397 1.0223z"/><path d="m11.889 13.613c-3.0581 0.539-5.0995 3.456-4.5602 6.514l10.879 61.7c0.53916 3.0577 3.4556 5.0991 6.5133 4.56 3.0577-0.53916 5.0991-3.4556 4.5601-6.5125l-10.879-61.699c-0.5393-3.0585-3.4551-5.1009-6.5128-4.5617zm10.951 42.112-6.8374 1.2056c-0.51497 0.0908-1.0257-0.36666-1.1413-1.022-0.11556-0.65534 0.20872-1.26 0.72289-1.3507l6.8366-1.2055c0.51417-0.09066 1.0249 0.3668 1.1405 1.0221 0.11636 0.6552-0.20792 1.2599-0.72129 1.3504zm-1.8132-10.283-6.8374 1.2056c-0.51497 0.0908-1.0257-0.36666-1.1413-1.022-0.11556-0.65534 0.20872-1.26 0.72289-1.3507l6.836-1.206c0.51417-0.09066 1.0249 0.3668 1.1405 1.0221 0.11636 0.6552-0.20792 1.2599-0.72129 1.3504z"/></g><g transform="translate(8.3642e-6)" fill="#74b322"><path d="m72.062 51.427c-0.228-1.573-1.169-3.007-2.723-4.146-0.026-0.02-7.633-4.582-10.826-6.498-2.2543 1.9968-5.2353 3.2258-8.5128 3.2258-3.2883 0-6.2794-1.2371-8.5364-3.2459-3.1908 1.9302-10.721 6.4865-10.74 6.4992-1.5719 1.0939-2.5326 2.4936-2.7773 4.0487-0.23867 1.5188 0.20842 3.0745 1.2929 4.4991 1.4065 1.8482 4.0957 3.0046 6.5167 1.6351 0.58626-0.33145 2.5575-1.4656 4.1058-2.3585v2.339c-0.68374 0.43431-2.0028 1.2888-4.5979 2.9898-1.7756 1.1739-2.8345 3.1464-2.8318 5.2756l0.0094 7.8849c4e-3 3.4799 2.8385 6.311 6.3244 6.311 3.4846-4e-3 6.315-2.8419 6.311-6.3251l-0.0053-4.3815s1.8166-1.3655 1.8663-1.4018c1.0138 0.26489 5.0155 0.26556 6.0757 6.73e-4 0.08201 0.06051 1.949 1.2982 1.949 1.2982l-0.0061 4.485c-4e-3 3.4832 2.8264 6.3204 6.3177 6.3244 3.4792 0 6.3137-2.8311 6.317-6.311l0.0094-7.8849c0.0028-2.1292-1.0562-4.1018-2.8365-5.279-2.5924-1.6989-3.9095-2.5528-4.5932-2.9871v-2.3309c1.4172 0.82022 3.2089 1.8515 4.0917 2.343 2.3262 1.2976 5.1486 0.19161 6.5315-1.627 1.0461-1.3715 1.4831-2.8876 1.2673-4.3828zm-14.578 6.3318-4.9966 7.4835c-0.90628 0.23934-3.9532 0.2501-5.0504-0.04571l-4.885-7.4707v-0.34086h14.932zm3.4409-26.72c0 6.034-4.8911 10.925-10.925 10.925-6.034 0-10.925-4.8911-10.925-10.925 0-6.034 4.8917-10.925 10.925-10.925s10.925 4.8917 10.925 10.925z" stroke-width=".67231"/><path d="m88.111 13.613c-3.0585-0.5393-5.9743 1.503-6.5136 4.5616l-10.879 61.699c-0.53916 3.0577 1.5032 5.9735 4.5609 6.5127 3.0577 0.53916 5.9735-1.5032 6.5125-4.5601l10.88-61.7c0.5393-3.0585-1.5021-5.975-4.5598-6.5141zm-4.1131 43.318-6.8374-1.2056c-0.51497-0.0908-0.83845-0.69536-0.72289-1.3507 0.11555-0.65534 0.6271-1.1127 1.1413-1.022l6.8366 1.2055c0.51417 0.09066 0.83764 0.69522 0.72209 1.3506-0.11475 0.65548-0.62629 1.1128-1.1397 1.0223zm1.8132-10.283-6.8374-1.2056c-0.51497-0.0908-0.83845-0.69536-0.72289-1.3507s0.6271-1.1127 1.1413-1.022l6.8366 1.2055c0.51417 0.09066 0.83764 0.69522 0.72209 1.3506-0.11475 0.65548-0.62629 1.1128-1.1397 1.0223z" stroke-width=".81451"/><path d="m11.889 13.613c-3.0581 0.539-5.0995 3.456-4.5602 6.514l10.879 61.7c0.53916 3.0577 3.4556 5.0991 6.5133 4.56 3.0577-0.53916 5.0991-3.4556 4.5601-6.5125l-10.879-61.699c-0.5393-3.0585-3.4551-5.1009-6.5128-4.5617zm10.951 42.112-6.8374 1.2056c-0.51497 0.0908-1.0257-0.36666-1.1413-1.022-0.11556-0.65534 0.20872-1.26 0.72289-1.3507l6.8366-1.2055c0.51417-0.09066 1.0249 0.3668 1.1405 1.0221 0.11636 0.6552-0.20792 1.2599-0.72129 1.3504zm-1.8132-10.283-6.8374 1.2056c-0.51497 0.0908-1.0257-0.36666-1.1413-1.022-0.11556-0.65534 0.20872-1.26 0.72289-1.3507l6.836-1.206c0.51417-0.09066 1.0249 0.3668 1.1405 1.0221 0.11636 0.6552-0.20792 1.2599-0.72129 1.3504z" stroke-width=".81451"/></g></svg>
