<?xml version="1.0" encoding="UTF-8" standalone="no"?>
<svg xmlns="http://www.w3.org/2000/svg" enable-background="new 0 0 100 100" xml:space="preserve" height="100" width="100" version="1.1" y="0px" x="0px" viewBox="0 0 100 100"><g transform="matrix(.9 0 0 .9 5.9254 4.6922)" stroke="#fff" stroke-width="7.7778" fill="#bb3200"><path d="m21.118 43.226c-2.512 0-4.548-2.098-4.548-4.609v-13.871c0-2.512 2.036-4.548 4.548-4.548s4.548 2.036 4.548 4.548v13.871c0 2.511-2.037 4.609-4.548 4.609z"/><circle cy="11.785" cx="32.336" r="6.443"/><path d="m89.746 49.797-2.363 1.364c0.918 1.589 0.371 3.629-1.218 4.547l-24.678 14.248c0.059-0.136 0.119-0.272 0.163-0.419 0.449-1.513-0.143-3.076-1.347-3.958l12.077-6.972c2.892-1.669 3.886-5.381 2.217-8.274l-2.363 1.364c0.917 1.589 0.37 3.629-1.219 4.547l-14.048 8.111-2.052-0.609-2.729-16.885c-0.279-1.725-1.744-3.008-3.49-3.056l-10.903-0.305v-12.451l6.124 6.124c0.622 0.621 1.436 0.932 2.251 0.932s1.63-0.311 2.251-0.932l7.277-7.276c1.244-1.243 1.244-3.259 0-4.502-1.243-1.243-3.258-1.243-4.502 0l-5.026 5.026-9.724-9.725c-0.507-0.506-1.143-0.795-1.801-0.889-0.702-0.328-1.482-0.517-2.307-0.517-3.014 0-5.457 2.444-5.457 5.457v33.541l-10.2 15.46c-0.543 0.823-0.729 1.832-0.514 2.795 0.214 0.963 0.811 1.797 1.653 2.312l5.4 3.304c0.592 0.362 1.248 0.536 1.895 0.536 0.033 0 0.066-0.005 0.099-0.006l-17.825 10.29 1.364 2.363 43.137-24.905 5.24 1.554c0.207 0.061 0.415 0.098 0.623 0.121l-24.051 13.886 1.364 2.363 52.465-30.29c2.893-1.67 3.887-5.382 2.217-8.274zm-61.524 31.153c1.045-1.714 0.506-3.95-1.207-4.998l-2.189-1.339 8.728-13.229c0.392-0.595 0.601-1.292 0.601-2.004v-8.702l11.328 0.317 2.613 16.17c0.111 0.688 0.414 1.313 0.856 1.817z"/><path d="m48.594 45.622" stroke-linecap="round"/></g><g fill="#bb3200" transform="matrix(.9 0 0 .9 5.9254 4.6922)"><path d="m21.118 43.226c-2.512 0-4.548-2.098-4.548-4.609v-13.871c0-2.512 2.036-4.548 4.548-4.548s4.548 2.036 4.548 4.548v13.871c0 2.511-2.037 4.609-4.548 4.609z"/><circle cy="11.785" cx="32.336" r="6.443"/><path d="m89.746 49.797-2.363 1.364c0.918 1.589 0.371 3.629-1.218 4.547l-24.678 14.248c0.059-0.136 0.119-0.272 0.163-0.419 0.449-1.513-0.143-3.076-1.347-3.958l12.077-6.972c2.892-1.669 3.886-5.381 2.217-8.274l-2.363 1.364c0.917 1.589 0.37 3.629-1.219 4.547l-14.048 8.111-2.052-0.609-2.729-16.885c-0.279-1.725-1.744-3.008-3.49-3.056l-10.903-0.305v-12.451l6.124 6.124c0.622 0.621 1.436 0.932 2.251 0.932s1.63-0.311 2.251-0.932l7.277-7.276c1.244-1.243 1.244-3.259 0-4.502-1.243-1.243-3.258-1.243-4.502 0l-5.026 5.026-9.724-9.725c-0.507-0.506-1.143-0.795-1.801-0.889-0.702-0.328-1.482-0.517-2.307-0.517-3.014 0-5.457 2.444-5.457 5.457v33.541l-10.2 15.46c-0.543 0.823-0.729 1.832-0.514 2.795 0.214 0.963 0.811 1.797 1.653 2.312l5.4 3.304c0.592 0.362 1.248 0.536 1.895 0.536 0.033 0 0.066-0.005 0.099-0.006l-17.825 10.29 1.364 2.363 43.137-24.905 5.24 1.554c0.207 0.061 0.415 0.098 0.623 0.121l-24.051 13.886 1.364 2.363 52.465-30.29c2.893-1.67 3.887-5.382 2.217-8.274zm-61.524 31.153c1.045-1.714 0.506-3.95-1.207-4.998l-2.189-1.339 8.728-13.229c0.392-0.595 0.601-1.292 0.601-2.004v-8.702l11.328 0.317 2.613 16.17c0.111 0.688 0.414 1.313 0.856 1.817z"/><path d="m48.594 45.622" stroke="#000" stroke-linecap="round" stroke-miterlimit="10" stroke-width="8"/></g></svg>
