<?xml version="1.0" encoding="UTF-8" standalone="no"?>
<svg xmlns="http://www.w3.org/2000/svg" enable-background="new 0 0 360 360" xml:space="preserve" height="100" width="100" version="1.1" y="0px" x="0px" viewBox="0 0 100 100"><g transform="matrix(.28243 0 0 .28243 -.20936 -3.7259)" stroke="#fff" stroke-width="24.785" fill="#639010"><path d="m317.46 299.84c-2.016-4.754-7.443-6.988-12.199-5.043-23.078 9.727-40.08 9.848-56.795 0.48-2.809-1.561-8.908-5.115-17.193-9.99l18.154-12.943c3.723 2.232 7.229 4.299 10.518 6.195 1.441 0.912 3.123 1.297 4.707 1.297 3.219 0 6.316-1.633 8.021-4.562 2.643-4.443 1.152-10.135-3.289-12.752-5.572-3.266-11.889-7.012-18.684-11.07 0.648-1.609 1.08-3.434 1.08-5.332v-55.53c0-7.709-6.291-13.977-14-13.977h-33.789l14.721-12.607c12.729-10.855 14.193-29.971 3.289-42.676-10.854-12.703-29.945-14.191-42.674-3.312l-41.713 35.686c-7.301 6.291-10.855 15.273-10.494 24.207-18.611-11.07-31.172-18.564-31.557-18.779-4.418-2.666-10.133-1.201-12.775 3.193-2.641 4.418-1.201 10.109 3.219 12.775 0.287 0.145 5.475 3.266 13.951 8.334l-18.198 13c-17.842-10.64-29.826-17.8-30.281-18.06-4.42-2.641-10.135-1.199-12.777 3.219-2.641 4.395-1.199 10.135 3.195 12.752 7.275 4.371 177.56 106.05 197.45 117.19 11.166 6.244 22.406 9.367 34.533 9.367 11.863 0 24.494-2.979 38.592-8.861 4.73-2.018 6.965-7.445 4.994-12.201zm-93.66-64.31c-16.81-10.01-34.89-20.72-51.99-30.93h51.992zm-106.31-41.64c30.643 18.275 77.928 46.445 114.36 68.059l-18.156 12.969c-32.18-19.02-79.248-47.07-114.48-68.059z"/><path d="m261.46 122.35c17.314 0 31.387-14.025 31.387-31.387 0-17.34-14.072-31.412-31.387-31.412-17.363 0-31.387 14.072-31.387 31.412 0 17.361 14.024 31.387 31.387 31.387z"/></g><g fill="#639010" transform="matrix(.28243 0 0 .28243 -.20936 -3.7259)"><path d="m317.46 299.84c-2.016-4.754-7.443-6.988-12.199-5.043-23.078 9.727-40.08 9.848-56.795 0.48-2.809-1.561-8.908-5.115-17.193-9.99l18.154-12.943c3.723 2.232 7.229 4.299 10.518 6.195 1.441 0.912 3.123 1.297 4.707 1.297 3.219 0 6.316-1.633 8.021-4.562 2.643-4.443 1.152-10.135-3.289-12.752-5.572-3.266-11.889-7.012-18.684-11.07 0.648-1.609 1.08-3.434 1.08-5.332v-55.53c0-7.709-6.291-13.977-14-13.977h-33.789l14.721-12.607c12.729-10.855 14.193-29.971 3.289-42.676-10.854-12.703-29.945-14.191-42.674-3.312l-41.713 35.686c-7.301 6.291-10.855 15.273-10.494 24.207-18.611-11.07-31.172-18.564-31.557-18.779-4.418-2.666-10.133-1.201-12.775 3.193-2.641 4.418-1.201 10.109 3.219 12.775 0.287 0.145 5.475 3.266 13.951 8.334l-18.198 13c-17.842-10.64-29.826-17.8-30.281-18.06-4.42-2.641-10.135-1.199-12.777 3.219-2.641 4.395-1.199 10.135 3.195 12.752 7.275 4.371 177.56 106.05 197.45 117.19 11.166 6.244 22.406 9.367 34.533 9.367 11.863 0 24.494-2.979 38.592-8.861 4.73-2.018 6.965-7.445 4.994-12.201zm-93.66-64.31c-16.81-10.01-34.89-20.72-51.99-30.93h51.992zm-106.31-41.64c30.643 18.275 77.928 46.445 114.36 68.059l-18.156 12.969c-32.18-19.02-79.248-47.07-114.48-68.059z"/><path d="m261.46 122.35c17.314 0 31.387-14.025 31.387-31.387 0-17.34-14.072-31.412-31.387-31.412-17.363 0-31.387 14.072-31.387 31.412 0 17.361 14.024 31.387 31.387 31.387z"/></g></svg>
