<?xml version="1.0" encoding="UTF-8" standalone="no"?>
<svg xmlns="http://www.w3.org/2000/svg" enable-background="new 17.8 -25.9 100 100" xml:space="preserve" height="100" width="100" version="1.1" y="0px" x="0px" viewBox="17.8 -25.9 100 100"><path d="m37.204 22.526c-0.18-1.08 0-1.98 0.54-2.88l4.05-5.94s1.62-2.34 2.34-3.33c1.17-1.71 4.77-1.44 5.85 0.45 0 0 0.27 0.45 0.36 1.17l2.34 5.58 4.59 2.79c0.81 0.45 1.08 1.53 0.54 2.25-0.45 0.81-1.53 1.08-2.25 0.54l-5.94-3.6-1.26-2.7-3.78 5.58 6.48 5.58c1.44 1.08 1.08 2.88 1.08 2.88l-1.71 9c0 0.18-0.09 0.27-0.18 0.45-0.54 0.99-1.8 1.44-2.88 0.9-0.9-0.45-1.35-1.53-1.08-2.43l1.35-7.56-7.11-4.95-0.27-0.18-1.53-1.08c-0.72-0.63-1.26-1.53-1.53-2.52zm2.61 8.91c0.36-0.99 0.72-2.34 1.08-3.42l-2.79-1.98c-0.54-0.36-0.99-0.81-1.26-1.26l-0.99 5.04-7.02 2.97c-0.9 0.27-1.53 1.26-1.44 2.25 0.09 1.17 1.17 1.98 2.34 1.89 0.18 0 0.27-0.09 0.45-0.09l8.46-3.51c-0.18 0 0.63-0.27 1.17-1.89zm11.79-21.96c1.89-0.36 3.15-2.16 2.79-4.05s-2.16-3.15-4.05-2.79-3.15 2.16-2.79 4.05 2.16 3.15 4.05 2.79zm56.066 35.28c-0.18 0.45-0.54 0.72-0.99 0.81-0.36 0.09-0.72 0.09-1.17-0.09l-14.22-6.48-4.59 4.14c-0.18 0.18-0.36 0.27-0.63 0.36-0.54 0.18-1.26 0-1.62-0.45-0.27-0.36-0.45-0.81-0.36-1.17l-1.35 1.26c-0.18 0.18-0.36 0.27-0.63 0.36-0.54 0.18-1.26 0-1.62-0.45-0.63-0.63-0.54-1.62 0.09-2.25l2.7-2.43-13.86 0.63v3.42h0.63s0.72 0.09 0.72-0.63v-0.72h1.35s0.27 2.43-1.53 2.7h-35.19v-1.35h19.98v-18.45l11.88 12.06 18.99-0.45 0.09-0.09s-7.11-5.04-2.16-9.27c0.36-0.36 3.33 6.66 3.33 6.66l9.81 0.09 2.07-0.99-0.45-6.66 2.16 2.52 7.11 3.24-1.17 1.98-3.78 0.27-0.72 3.6 3.96 1.17c0.81 0.27 1.35 1.17 1.08 1.98-0.18 0.54-0.54 0.9-1.08 1.08-0.27 0.09-0.63 0.09-0.9 0l-4.23-1.26-0.18 0.27 5.58 2.61c0.9 0.27 1.26 1.26 0.9 1.98zm-23.58-7.2 1.44-1.26-17.55 0.45 1.53 1.53v0.09z" stroke="#fff" stroke-width="7" fill="#5c25a1"/><path d="m37.204 22.526c-0.18-1.08 0-1.98 0.54-2.88l4.05-5.94s1.62-2.34 2.34-3.33c1.17-1.71 4.77-1.44 5.85 0.45 0 0 0.27 0.45 0.36 1.17l2.34 5.58 4.59 2.79c0.81 0.45 1.08 1.53 0.54 2.25-0.45 0.81-1.53 1.08-2.25 0.54l-5.94-3.6-1.26-2.7-3.78 5.58 6.48 5.58c1.44 1.08 1.08 2.88 1.08 2.88l-1.71 9c0 0.18-0.09 0.27-0.18 0.45-0.54 0.99-1.8 1.44-2.88 0.9-0.9-0.45-1.35-1.53-1.08-2.43l1.35-7.56-7.11-4.95-0.27-0.18-1.53-1.08c-0.72-0.63-1.26-1.53-1.53-2.52zm2.61 8.91c0.36-0.99 0.72-2.34 1.08-3.42l-2.79-1.98c-0.54-0.36-0.99-0.81-1.26-1.26l-0.99 5.04-7.02 2.97c-0.9 0.27-1.53 1.26-1.44 2.25 0.09 1.17 1.17 1.98 2.34 1.89 0.18 0 0.27-0.09 0.45-0.09l8.46-3.51c-0.18 0 0.63-0.27 1.17-1.89zm11.79-21.96c1.89-0.36 3.15-2.16 2.79-4.05s-2.16-3.15-4.05-2.79-3.15 2.16-2.79 4.05 2.16 3.15 4.05 2.79zm56.066 35.28c-0.18 0.45-0.54 0.72-0.99 0.81-0.36 0.09-0.72 0.09-1.17-0.09l-14.22-6.48-4.59 4.14c-0.18 0.18-0.36 0.27-0.63 0.36-0.54 0.18-1.26 0-1.62-0.45-0.27-0.36-0.45-0.81-0.36-1.17l-1.35 1.26c-0.18 0.18-0.36 0.27-0.63 0.36-0.54 0.18-1.26 0-1.62-0.45-0.63-0.63-0.54-1.62 0.09-2.25l2.7-2.43-13.86 0.63v3.42h0.63s0.72 0.09 0.72-0.63v-0.72h1.35s0.27 2.43-1.53 2.7h-35.19v-1.35h19.98v-18.45l11.88 12.06 18.99-0.45 0.09-0.09s-7.11-5.04-2.16-9.27c0.36-0.36 3.33 6.66 3.33 6.66l9.81 0.09 2.07-0.99-0.45-6.66 2.16 2.52 7.11 3.24-1.17 1.98-3.78 0.27-0.72 3.6 3.96 1.17c0.81 0.27 1.35 1.17 1.08 1.98-0.18 0.54-0.54 0.9-1.08 1.08-0.27 0.09-0.63 0.09-0.9 0l-4.23-1.26-0.18 0.27 5.58 2.61c0.9 0.27 1.26 1.26 0.9 1.98zm-23.58-7.2 1.44-1.26-17.55 0.45 1.53 1.53v0.09z" stroke-width="0.9" fill="#5c25a1"/></svg>
