<?xml version="1.0" encoding="UTF-8" standalone="no"?>
<svg xmlns="http://www.w3.org/2000/svg" enable-background="new 0 0 100 100" xml:space="preserve" height="100" width="100" version="1.1" y="0px" x="0px" viewBox="0 0 100 100"><g transform="matrix(.9 0 0 .9 5.0001 3.8466)" stroke="#fff" stroke-width="7.7778" fill="#083c74"><g stroke="#fff" stroke-width="7.7778" fill="#083c74"><g stroke="#fff" stroke-width="7.7778" fill="#083c74"><path d="m15.402 38.097s-1.081-1.512-1.521-2.859c-0.296-0.914-0.915-2.35-0.813-3.022 0.107-0.671 1.053-2.291 1.84-2.443 0.788-0.152 1.02 0.466 1.335 1.166 0.316 0.699 20.037 34.032 20.037 34.032l12.504 21.269s1.709 2.894 2.696 3.975c0.983 1.08 2.93 2.685 2.926 3.352-0.003 0.669-1.233 0.544-1.932 0.484s-2.286-0.896-3.219-2.063c-0.929-1.166-33.853-53.891-33.853-53.891z"/><circle cy="14.56" cx="56.587" r="6.098"/><path d="m86.943 16.395c0-1.802-1.46-3.262-3.264-3.262-0.36 0-0.7 0.072-1.024 0.18l-10.823 3.599c-0.458 0.155-0.989 0.418-3.065 1.481-1.514 0.775-4.663 2.388-5.366 2.605-0.895 0.196-5.132 0.525-12.6 0.976-0.942 0.057-1.608 0.098-1.829 0.116-1.759 0.139-9.974 3.068-11.676 4.052-1.56 0.902-7.601 5.74-9.416 7.202-1.407 1.133-1.629 3.192-0.495 4.598 0.646 0.803 1.593 1.219 2.548 1.219 0.721 0 1.446-0.236 2.049-0.724 3.505-2.822 7.784-6.161 8.583-6.63 0.752-0.422 3.819-1.545 6.22-2.35l-2.016 3.841-6.081 3.039-13.488 8.653c-1.899 1.221-2.448 3.751-1.226 5.649 1.221 1.898 3.75 2.449 5.65 1.227l12.919-8.314 2.842-1.42 2.317 2.053c1.065 4.744 2.161 9.924 2.511 12.019-1.43 2.441-6.178 9.467-10.476 15.617-1.293 1.851-0.842 4.399 1.009 5.692 0.713 0.499 1.53 0.737 2.338 0.737 1.29 0 2.56-0.608 3.355-1.746 11.834-16.935 11.933-18.047 12.037-19.227 0.058-0.646 0.165-1.848-3.09-16.184l-0.229-1.013 9.581-12.685c0.137-0.027 0.261-0.055 0.36-0.083 1.215-0.338 3.421-1.446 6.647-3.097 0.898-0.461 2.02-1.034 2.175-1.105l10.636-3.587c1.375-0.385 2.387-1.632 2.387-3.128z"/></g></g></g><g fill="#083c74" transform="matrix(.9 0 0 .9 5.0001 3.8466)"><g fill="#083c74"><g fill="#083c74"><path d="m15.402 38.097s-1.081-1.512-1.521-2.859c-0.296-0.914-0.915-2.35-0.813-3.022 0.107-0.671 1.053-2.291 1.84-2.443 0.788-0.152 1.02 0.466 1.335 1.166 0.316 0.699 20.037 34.032 20.037 34.032l12.504 21.269s1.709 2.894 2.696 3.975c0.983 1.08 2.93 2.685 2.926 3.352-0.003 0.669-1.233 0.544-1.932 0.484s-2.286-0.896-3.219-2.063c-0.929-1.166-33.853-53.891-33.853-53.891z"/><circle cy="14.56" cx="56.587" r="6.098"/><path d="m86.943 16.395c0-1.802-1.46-3.262-3.264-3.262-0.36 0-0.7 0.072-1.024 0.18l-10.823 3.599c-0.458 0.155-0.989 0.418-3.065 1.481-1.514 0.775-4.663 2.388-5.366 2.605-0.895 0.196-5.132 0.525-12.6 0.976-0.942 0.057-1.608 0.098-1.829 0.116-1.759 0.139-9.974 3.068-11.676 4.052-1.56 0.902-7.601 5.74-9.416 7.202-1.407 1.133-1.629 3.192-0.495 4.598 0.646 0.803 1.593 1.219 2.548 1.219 0.721 0 1.446-0.236 2.049-0.724 3.505-2.822 7.784-6.161 8.583-6.63 0.752-0.422 3.819-1.545 6.22-2.35l-2.016 3.841-6.081 3.039-13.488 8.653c-1.899 1.221-2.448 3.751-1.226 5.649 1.221 1.898 3.75 2.449 5.65 1.227l12.919-8.314 2.842-1.42 2.317 2.053c1.065 4.744 2.161 9.924 2.511 12.019-1.43 2.441-6.178 9.467-10.476 15.617-1.293 1.851-0.842 4.399 1.009 5.692 0.713 0.499 1.53 0.737 2.338 0.737 1.29 0 2.56-0.608 3.355-1.746 11.834-16.935 11.933-18.047 12.037-19.227 0.058-0.646 0.165-1.848-3.09-16.184l-0.229-1.013 9.581-12.685c0.137-0.027 0.261-0.055 0.36-0.083 1.215-0.338 3.421-1.446 6.647-3.097 0.898-0.461 2.02-1.034 2.175-1.105l10.636-3.587c1.375-0.385 2.387-1.632 2.387-3.128z"/></g></g></g></svg>
