<?xml version="1.0" encoding="UTF-8"?>
<svg version="1.1" viewBox="0 0 16 16" xmlns="http://www.w3.org/2000/svg">
<rect width="16" height="16" fill="none" visibility="hidden"/>
<path transform="translate(1,1)" d="m11.719 0.5c-0.71027-0.10067-2.513 1.0161-4.6875 3.0938 0.72203 0.038118 1.4397 0.7752 1.375 1.4375 2.1453-2.0497 3.3896-3.7839 3.3125-4.5312zm-9.7814 2.75c-0.60952 0.021754-1.0629 0.10325-1.2813 0.28125 0.30578 0.64893 2.1947 1.5418 5.1251 2.2188-0.3645-0.62441-0.12035-1.628 0.46876-1.9375-1.8069-0.41741-3.2967-0.59876-4.3125-0.5625zm5.0626 1.25c-0.27614 0-0.50001 0.22386-0.50001 0.5s0.22386 0.5 0.50001 0.5c0.27614 0 0.50001-0.22386 0.50001-0.5s-0.22386-0.5-0.50001-0.5zm1.3125 1.0312c-0.20195 0.63407-1.1653 1.0312-1.8438 0.78125 1.178 2.7672 2.4014 4.4684 3.0938 4.6562 0.36577-0.65622-0.087871-2.7075-1.25-5.4375zm-1.9063 2.2188-0.40625 5.25h-2v1h6.0001v-1h-2l-0.21875-2.7812c-0.44853-0.72891-0.90275-1.5465-1.375-2.4688z"/>
</svg>
