<?xml version="1.0" encoding="UTF-8"?>
<svg version="1.1" viewBox="0 0 14 14" xmlns="http://www.w3.org/2000/svg" xmlns:cc="http://creativecommons.org/ns#" xmlns:dc="http://purl.org/dc/elements/1.1/" xmlns:rdf="http://www.w3.org/1999/02/22-rdf-syntax-ns#">
<metadata>
<rdf:RDF>
<cc:Work rdf:about="">
<dc:format>image/svg+xml</dc:format>
<dc:type rdf:resource="http://purl.org/dc/dcmitype/StillImage"/>
<dc:title/>
</cc:Work>
</rdf:RDF>
</metadata>
<rect width="14" height="14" fill="none" visibility="hidden"/>
<path d="m7 0-7 3.5v2l1.5-0.65039v9.1504h1.5v-9.8008l4-1.6992 4 1.6992v9.8008h1.5v-9.1504l1.5 0.65039v-2l-7-3.5zm-0.027344 5.0488c-0.38856 0-0.70508 0.31422-0.70508 0.70312 0 0.38978 0.31652 0.70312 0.70508 0.70312 0.38838 0 0.70312-0.31334 0.70312-0.70312 0-0.38891-0.31491-0.70312-0.70312-0.70312zm-1.9238 1.1387c-0.10945-0.024961-0.21758 0.038609-0.24219 0.14648l-0.49219 2.041c-0.026532 0.10822 0.039689 0.21496 0.14844 0.24219l0.58594 0.14062c0.10683 0.0281 0.21758-0.038258 0.24219-0.14648l0.49219-2.0391c0.026358-0.10822-0.04018-0.21708-0.14648-0.24414l-0.58789-0.14062zm1.7188 0.37695c-0.57376-0.01449-0.71875 0.58789-0.71875 0.58789l-1.4883 6.2539c-0.00524 0.03334-0.0078125 0.066269-0.0078125 0.099609 0 0.2744 0.22169 0.49414 0.49609 0.49414 0.22326 0 0.41226-0.14981 0.47266-0.35352l0.85156-3.5195 0.80859 3.498c0.052366 0.21627 0.24918 0.375 0.48047 0.375 0.27335 0 0.49219-0.21992 0.49219-0.49414 0-0.03736-0.0017025-0.073941-0.0078125-0.10938l-1.1133-4.6484 0.09375-0.4082 0.072266 0.32227c0.065982 0.20999 0.25781 0.22852 0.25781 0.22852l1.1445 0.29297c0.02339 0.0039999 0.046752 0.0058593 0.070312 0.0058593 0.18747 0 0.33789-0.14881 0.33789-0.33594 0-0.16007-0.10947-0.2966-0.25977-0.33203l-0.99219-0.24805-0.27148-1.1074c-0.12987-0.6174-0.71875-0.60156-0.71875-0.60156zm3.0625 0.71484c-0.08222 0-0.14288 0.061555-0.16016 0.14062l-1.1816 6.4063c0 0.0042-0.0019531 0.007665-0.0019531 0.009766 0 0.089549 0.072912 0.16211 0.16211 0.16211 0.08117 0 0.15094-0.062603 0.16211-0.14062l1.1797-6.4063v-0.011719c0-0.08728-0.070963-0.16016-0.16016-0.16016z" fill="#0092da" stroke-width=".17455"/>
</svg>
