<?xml version="1.0" encoding="UTF-8"?>
<svg version="1.1" viewBox="0 0 16 16" xmlns="http://www.w3.org/2000/svg" xmlns:cc="http://creativecommons.org/ns#" xmlns:dc="http://purl.org/dc/elements/1.1/" xmlns:rdf="http://www.w3.org/1999/02/22-rdf-syntax-ns#">
<metadata>
<rdf:RDF>
<cc:Work rdf:about="">
<dc:format>image/svg+xml</dc:format>
<dc:type rdf:resource="http://purl.org/dc/dcmitype/StillImage"/>
<dc:title/>
</cc:Work>
</rdf:RDF>
</metadata>
<rect width="16" height="16" fill="none" visibility="hidden"/>
<path transform="translate(1,1)" d="m2 2c-1 0-2 1-2 2v4c0 1 1 2 2 2h1.0625c0.23312-1.1392 1.2294-2 2.4375-2s2.2044 0.86079 2.4375 2h6.0625s0-1-1-1h-1.5v-5c0-0.96066-1.0243-2-2-2zm0.84375 2c0.09375-0.015625 0.15625 0 0.15625 0h2s1 0 1 1-1 1-1 1h-2s-1 0-1-1c0-0.75 0.5625-0.95312 0.84375-1zm5.1562 0h0.5s1 0 1 1-1 1-1 1h-0.5s-1 0-1-1 1-1 1-1zm-2.5 5c-0.82843 0-1.5 0.67157-1.5 1.5s0.67157 1.5 1.5 1.5 1.5-0.67157 1.5-1.5-0.67157-1.5-1.5-1.5z" fill="#0092da"/>
</svg>
