<?xml version="1.0" encoding="UTF-8"?>
<svg version="1.1" viewBox="0 0 14 14" xmlns="http://www.w3.org/2000/svg">
<path d="m4.2422 0.7334-4.2422 3.8594h0.49023v6.6289h2.5957v-3.7148h2.3125v2.7402l-2.252 2.5879c-0.14032 0.16141-0.026373 0.41305 0.1875 0.41406l10.414 0.01758c0.1788 1e-3 0.30085-0.18051 0.23242-0.3457l-3.375-8.1074c-0.03944-0.095231-0.13328-0.15649-0.23633-0.1543-0.07059 0.00144-0.13727 0.032655-0.18359 0.085937l-2.1914 2.5176v-2.6699h0.49023zm6.0547 4.6445 3.0762 7.3887-9.4902-0.01758 1.5156-1.7422v0.21484h2.5957v-3.1973z" stroke-width=".015269"/>
<path d="m10.297 5.3779-2.3027 2.6465v3.1973h-2.5957v-0.21484l-1.5156 1.7422 9.4902 0.01758z" fill-opacity=".2"/>
</svg>
