<?xml version="1.0" encoding="UTF-8"?>
<svg version="1.1" viewBox="0 0 16 16" xmlns="http://www.w3.org/2000/svg" xmlns:cc="http://creativecommons.org/ns#" xmlns:dc="http://purl.org/dc/elements/1.1/" xmlns:rdf="http://www.w3.org/1999/02/22-rdf-syntax-ns#">
<metadata>
<rdf:RDF>
<cc:Work rdf:about="">
<dc:format>image/svg+xml</dc:format>
<dc:type rdf:resource="http://purl.org/dc/dcmitype/StillImage"/>
<dc:title/>
</cc:Work>
</rdf:RDF>
</metadata>
<rect y="2" width="14" height="14" fill="none" visibility="hidden"/>
<path d="m0.57227 0c-0.31657 0-0.57227 0.25569-0.57227 0.57227v0.57031 5.7148h1.1426v-1.1426h13.715v1.1426h1.1426v-4.5723-0.57031c0-0.31657-0.25569-0.57227-0.57227-0.57227-0.31657 0-0.57031 0.25569-0.57031 0.57227v0.57031 2.2871h-13.715v-3.4297-0.57031c0-0.31657-0.25374-0.57227-0.57031-0.57227zm3.4277 0c-0.94677 0-1.7148 0.76807-1.7148 1.7148 0 0.94677 0.76807 1.7129 1.7148 1.7129s1.7148-0.76612 1.7148-1.7129c0-0.94677-0.76807-1.7148-1.7148-1.7148zm2.8574 1.1426v2.2852h6.8574c0-1.1429-1.1856-2.2852-2.2871-2.2852h-4.5703z" fill="#0092da" stroke-width="1.1429"/>
<path d="m7.9999 6.6415-5.4722 3.1948h1.8241v6.1637h2.7362v-3.8524h1.8241v3.8524h2.7362v-6.1637h1.8241z" fill="#0092da" stroke-width=".0128"/>
</svg>
