<?xml version="1.0" encoding="UTF-8"?>
<svg version="1.1" viewBox="0 0 14 14" xmlns="http://www.w3.org/2000/svg">
<rect width="14" height="14" fill="none" visibility="hidden"/>
<path d="m3.5 1c-0.82843 0-1.5 0.67157-1.5 1.5s0.67157 1.5 1.5 1.5 1.5-0.67157 1.5-1.5-0.67157-1.5-1.5-1.5zm2.5 1v2h6c0-1-1.0362-2-2-2zm-2.5 5c-0.82843 0-1.5 0.67157-1.5 1.5s0.67157 1.5 1.5 1.5 1.5-0.67157 1.5-1.5-0.67157-1.5-1.5-1.5zm2.5 1v2l6 0.01288c0-1.0129-1.0362-2.0129-2-2.0129z"/>
<rect y="1" width="1" height="13" style="paint-order:markers stroke fill"/>
<rect x="-5.9605e-8" width="1" height="13" ry=".5" style="paint-order:markers stroke fill"/>
<rect x="13" y="4" width="1" height="10" style="paint-order:markers stroke fill"/>
<rect x="13" y="2" width="1" height="12" ry=".5" style="paint-order:markers stroke fill"/>
<rect transform="rotate(90)" x="5" y="-13" width="1" height="13" style="paint-order:markers stroke fill"/>
<rect transform="rotate(90)" x="11" y="-13" width="1" height="13" style="paint-order:markers stroke fill"/>
</svg>
