<?xml version="1.0" encoding="UTF-8"?>
<svg version="1.1" viewBox="0 0 16 16" xmlns="http://www.w3.org/2000/svg" xmlns:cc="http://creativecommons.org/ns#" xmlns:dc="http://purl.org/dc/elements/1.1/" xmlns:rdf="http://www.w3.org/1999/02/22-rdf-syntax-ns#">
<metadata>
<rdf:RDF>
<cc:Work rdf:about="">
<dc:format>image/svg+xml</dc:format>
<dc:type rdf:resource="http://purl.org/dc/dcmitype/StillImage"/>
<dc:title/>
</cc:Work>
</rdf:RDF>
</metadata>
<rect y="2" width="14" height="14" fill="none" visibility="hidden"/>
<path d="m0.57143 3.3571c-0.31657 0-0.57143 0.25486-0.57143 0.57143v8.5714h1.1429v-2.2857h13.714v2.2857h1.1429v-6.2857c0-0.31657-0.25486-0.57143-0.57142-0.57143-0.31658 0-0.57144 0.25486-0.57144 0.57143v2.8571h-13.714v-5.1429c0-0.31657-0.25486-0.57143-0.57143-0.57143zm3.4286 1.1429c-0.94677 0-1.7143 0.76751-1.7143 1.7143 0 0.94677 0.76751 1.7143 1.7143 1.7143s1.7143-0.76751 1.7143-1.7143c0-0.94678-0.76751-1.7143-1.7143-1.7143zm2.8571 1.1429v2.2857h6.8571c0-1.1429-1.1842-2.2857-2.2857-2.2857z" fill="#0092da" stroke-width="1.1429"/>
</svg>
