<?xml version="1.0" encoding="UTF-8"?>
<svg version="1.1" viewBox="0 0 16 16" xmlns="http://www.w3.org/2000/svg" xmlns:cc="http://creativecommons.org/ns#" xmlns:dc="http://purl.org/dc/elements/1.1/" xmlns:rdf="http://www.w3.org/1999/02/22-rdf-syntax-ns#">
<metadata>
<rdf:RDF>
<cc:Work rdf:about="">
<dc:format>image/svg+xml</dc:format>
<dc:type rdf:resource="http://purl.org/dc/dcmitype/StillImage"/>
<dc:title/>
</cc:Work>
</rdf:RDF>
</metadata>
<rect y="2" width="14" height="14" fill="none" visibility="hidden"/>
<path d="m0.57143 0c-0.31657 0-0.57143 0.25486-0.57143 0.57143v6.2857h1.1429v-1.1429h13.714v1.1429h1.1429v-5.1429c0-0.31657-0.25486-0.57143-0.57143-0.57143-0.31657 0-0.57143 0.25486-0.57143 0.57143v2.8571h-13.714v-4c0-0.31657-0.25486-0.57143-0.57143-0.57143zm3.4286 0c-0.94677 0-1.7143 0.76751-1.7143 1.7143s0.76751 1.7143 1.7143 1.7143 1.7143-0.76751 1.7143-1.7143-0.76751-1.7143-1.7143-1.7143zm2.8571 1.1429v2.2857h6.8571c0-1.1429-1.1842-2.2857-2.2857-2.2857zm-2.2857 5.7143-1.1429 3.4286c-0.54019 0-1.1429 0.4392-1.1429 1.1429v3.4286h1.1429s0 1.1429 1.1429 1.1429c1.1429 0 1.1429-1.1429 1.1429-1.1429h4.5714s0 1.1429 1.1429 1.1429c1.1429 0 1.1429-1.1429 1.1429-1.1429h1.1429v-3.4286c0-0.59498-0.52049-1.1429-1.1429-1.1429l-1.1429-3.4286zm1.1429 1.1429h4.5714l0.71429 2.2857h-6zm-1.1429 3.7143c0.47339 0 0.85714 0.38376 0.85714 0.85714 0 0.47339-0.38376 0.85714-0.85714 0.85714-0.47339 0-0.85714-0.38376-0.85714-0.85714 0-0.47339 0.38376-0.85714 0.85714-0.85714zm6.8571 0c0.47339 0 0.85714 0.38376 0.85714 0.85714 0 0.47339-0.38376 0.85714-0.85714 0.85714-0.47339 0-0.85714-0.38376-0.85714-0.85714 0-0.47339 0.38376-0.85714 0.85714-0.85714z" fill="#0092da" stroke-width="1.1429"/>
</svg>
