<?xml version="1.0" encoding="UTF-8"?>
<svg version="1.1" viewBox="0 0 14 14" xmlns="http://www.w3.org/2000/svg">
<rect width="14" height="14" fill="none" visibility="hidden"/>
<path d="m0.5 0c-0.277 0-0.5 0.223-0.5 0.5v5.5h1v-1h12v1h1v-4.5c0-0.277-0.223-0.5-0.5-0.5s-0.5 0.223-0.5 0.5v2.5h-12v-3.5c0-0.277-0.223-0.5-0.5-0.5zm3 0c-0.82843 0-1.5 0.67157-1.5 1.5s0.67157 1.5 1.5 1.5 1.5-0.67157 1.5-1.5-0.67157-1.5-1.5-1.5zm2.5 1v2h6c0-1-1.0362-2-2-2zm-2 5-1 3c-0.47267 0-1 0.3843-1 1v3h1s0 1 1 1 1-1 1-1h4s0 1 1 1 1-1 1-1h1v-3c0-0.52061-0.45542-1-1-1l-1-3zm1 1h4l0.625 2h-5.25zm-1 3.25c0.41421 0 0.75 0.33579 0.75 0.75s-0.33579 0.75-0.75 0.75-0.75-0.33579-0.75-0.75 0.33579-0.75 0.75-0.75zm6 0c0.41421 0 0.75 0.33579 0.75 0.75s-0.33579 0.75-0.75 0.75-0.75-0.33579-0.75-0.75 0.33579-0.75 0.75-0.75z"/>
</svg>
