<?xml version="1.0" encoding="UTF-8"?>
<svg version="1.1" viewBox="0 0 14 14" xmlns="http://www.w3.org/2000/svg">
<rect width="14" height="14" fill="none" visibility="hidden"/>
<path d="m4.0078 0-1 2h0.46875l1.0469-2h-0.51562zm4 0-1 2h0.46875l1.0469-2h-0.51562zm4 0-1 2h0.46875l1.0469-2h-0.51563zm-11.008 2-1 2h0.46875l1.0488-2h-0.51758zm4.0078 0-1 2h0.46875l1.0469-2h-0.51562zm4 0-1 2h0.46875l1.0469-2h-0.51562zm4 0-1 2h0.46875l1.0469-2h-0.51563zm-10.508 2-1 2h0.46875l1.0488-2h-0.51758zm7.9824 0-1 2h0.46875l1.0488-2h-0.51758zm-3.4824 1-7 4h2l1-0.40039v4.9004a0.5 0.5 0 0 0 0.24023 0.42773 0.5 0.5 0 0 0 0.50391 0.007813 0.5 0.5 0 0 0 0.25586-0.43555v-5.3008l3-1.1992 3 1.1992v5.3008a0.5 0.5 0 0 0 0.24023 0.42773 0.5 0.5 0 0 0 0.50391 0.007813 0.5 0.5 0 0 0 0.25586-0.43555v-4.9004l1 0.40039h2l-7-4z" fill-rule="evenodd"/>
</svg>
