<?xml version="1.0" encoding="UTF-8"?>
<svg version="1.1" viewBox="0 0 14 14" xmlns="http://www.w3.org/2000/svg">
<rect width="14" height="14" fill="none" visibility="hidden"/>
<path d="m0 0v10h2.0001v-3.5h2.5001c1.9762 3e-7 3.5001-1 3.5001-3.25s-1.5132-3.25-3.0314-3.25zm2.0001 2h2.5001c0.96361 0 1.5001 0.52543 1.5001 1.25s-0.6318 1.25-1.5001 1.25h-2.5001zm6.9999 5v0.59386l0.50037 0.40614v0.75h-3.0001v-0.25h0.50002c0.47941 0 0.45544-0.5 0-0.5h-1.5001c-0.50002 0-0.50002 0.45206 0 0.5h0.50002v0.25l-0.56252 1.2812c-0.14133-0.029814-0.28975-0.03125-0.43752-0.03125-1.0218 0-2.0001 0.79393-2.0001 2s0.97826 2 2.0001 2 1.9376-0.85643 1.9376-2.0625c0-0.15076-0.0039-0.30208-0.03125-0.4375h0.84378l1.8219-2 0.36564 0.78125c-0.5546 0.33459-0.93754 0.94843-0.93754 1.7188 0 1.2061 0.97826 2 2.0001 2 1.0218 0 1.9376-0.85643 1.9376-2.0625s-0.91575-1.9375-1.9376-1.9375c-0.15008 0-0.29228 0.02946-0.43752 0.0625l-0.56252-1.3125-3.86e-4 -0.95zm-2.5935 2.5h2.1938l-1.1938 1.25h-0.84378c-0.14012-0.18658-0.30449-0.34864-0.50002-0.46875zm-1.4063 1.5c0.6351 0 1 0.54922 1 1s-0.36494 1-1 1-1-0.54922-1-1 0.36494-1 1-1zm6.0002 0c0.6351 0 1 0.54922 1 1s-0.36494 1-1 1c-0.6351 0-1-0.54922-1-1s0.36494-1 1-1z"/>
</svg>
