<?xml version="1.0" encoding="UTF-8"?>
<svg version="1.1" viewBox="0 0 14 14" xmlns="http://www.w3.org/2000/svg">
<g transform="translate(1.552 2.8104)">
<path transform="translate(-1.552 -2.8104)" d="m2.7441 0c-0.71026 3.935e-4 -1.3701 0.41171-1.7441 1h2.3691l0.62305 1-0.62305 1h-2.3672c0.37368 0.58774 1.0326 0.99897 1.7422 1 0.75824-1e-7 1.4121-0.40423 1.7676-1h4.666c0.35542 0.59592 1.0112 1 1.7695 1 1.1337 2e-7 2.0527-0.89543 2.0527-2 0-1.1046-0.91904-2-2.0527-2-0.75836-2.6757e-7 -1.4141 0.40408-1.7695 1h-4.666c-0.35546-0.59577-1.0093-1-1.7676-1zm7.5781 1h1.25l0.62305 1-0.62305 1h-1.25l-0.62305-1 0.62305-1zm-2.3398 4.4512 0.03125 0.99805 0.96484 0.5625v0.99805h-3.9882v-0.99805h0.49805c0.9974 0 0.9974-0.99805 0-0.99805h-1.9941c-0.9974 0-0.9974 0.99805 0 0.99805h0.49805v0.99805l-0.56055 1.373c-0.041538-0.00226-0.082956 0-0.125 0-1.2672 0-2.3066 1.0401-2.3066 2.3086s1.0394 2.3086 2.3066 2.3086 2.3066-1.0401 2.3066-2.3086c0-0.23963-0.05561-0.46895-0.125-0.6875h1.4961l2.1504-1.9961 0.28125 0.71875c-0.63798 0.41624-1.0605 1.1562-1.0605 1.9648 0 1.2685 1.0394 2.3086 2.3066 2.3086s2.3379-1.0401 2.3379-2.3086-1.0707-2.3086-2.3379-2.3086c-0.042061 0-0.083457-0.00226-0.125 0l-0.56055-1.373v-1.373l-1.9941-1.1855zm-3.1484 3.5566h3.1035l-1.3027 1.248h-1.5508c-0.15346-0.18742-0.32799-0.39668-0.53125-0.5293l0.28125-0.71875zm-1.5273 1.498c0.66078 0 1.1836 0.52411 1.1836 1.1855 0 0.66144-0.52281 1.1855-1.1836 1.1855-0.66078 0-1.1836-0.5241-1.1836-1.1855 0-0.66144 0.52281-1.1855 1.1836-1.1855zm7.3555 0c0.66078 0 1.1855 0.52411 1.1855 1.1855 0 0.66144-0.52477 1.1855-1.1855 1.1855-0.66078 0-1.1523-0.5241-1.1523-1.1855 0-0.66144 0.49156-1.1855 1.1523-1.1855z" stroke-width=".9979"/>
</g>
</svg>
