<?xml version="1.0" encoding="UTF-8"?>
<svg version="1.0" viewBox="0 0 14 14" xmlns="http://www.w3.org/2000/svg" xmlns:cc="http://creativecommons.org/ns#" xmlns:dc="http://purl.org/dc/elements/1.1/" xmlns:rdf="http://www.w3.org/1999/02/22-rdf-syntax-ns#">
<metadata>
<rdf:RDF>
<cc:Work rdf:about="">
<dc:format>image/svg+xml</dc:format>
<dc:type rdf:resource="http://purl.org/dc/dcmitype/StillImage"/>
<cc:license rdf:resource="http://web.resource.org/cc/PublicDomain"/>
<dc:language>en</dc:language>
<dc:title/>
</cc:Work>
</rdf:RDF>
</metadata>
<path d="m7 0.46194c-1.2054 0.00954-2.8398 0.35073-3.5215 0.63477-0.69142 0.2881-1.1509 0.57468-1.2949 1.2949l-0.51953 3.9941v5.502h0.89453v0.86133c0 1.052 1.5371 1.052 1.5371 0v-0.86133h5.8066v0.86133c0 1.052 1.5391 1.052 1.5391 0v-0.86133h0.89453v-5.502l-0.51953-3.9941c-0.14406-0.72024-0.60348-1.0068-1.2949-1.2949-0.68172-0.28406-2.316-0.62528-3.5215-0.63477zm-2.1953 1.0078h4.3906c0.43216 6e-6 0.43216 0.64844 0 0.64844h-4.3906c-0.43216 0-0.43216-0.64844 0-0.64844zm-1.166 1.3027h6.7207c0.45651 0 0.57739 0.23408 0.63281 0.58594l0.40234 2.8965c0.03761 0.27758-0.04227 0.55078-0.42578 0.55078h-7.9375c-0.38349 0-0.46342-0.2732-0.42578-0.55078l0.40234-2.8965c0.05542-0.35186 0.17436-0.58594 0.63086-0.58594zm-0.31055 5.9141c0.40781 0 0.73828 0.33046 0.73828 0.73828 1e-6 0.40783-0.33047 0.73633-0.73828 0.73633-0.40782 0-0.73828-0.3285-0.73828-0.73633 0-0.40782 0.33047-0.73828 0.73828-0.73828zm7.3438 0c0.40781 0 0.73828 0.33046 0.73828 0.73828 0 0.40783-0.33047 0.73633-0.73828 0.73633-0.40782 0-0.73828-0.3285-0.73828-0.73633 0-0.40782 0.33047-0.73828 0.73828-0.73828z" fill="#fff"/>
<path d="m1.5678 0.0015409c-1.0039 0-1.5678 0.51703-1.5678 1.5757v10.914c0 0.99026 0.50787 1.5089 1.5108 1.5089h10.978c1.0032 0 1.5108-0.49266 1.5108-1.5089v-10.914c0-1.0329-0.50766-1.5757-1.5422-1.5757-9.6e-5 0-10.893-0.003467-10.89 0zm5.4322 0.45974c1.2054 0.00949 2.8389 0.35054 3.5206 0.6346 0.69143 0.2881 1.1526 0.57449 1.2967 1.2947l0.51867 3.9942v5.5012h-0.89391v0.8625c0 1.052-1.5403 1.052-1.5403 0v-0.8625h-5.8055v0.8625c0 1.052-1.5383 1.052-1.5383 0v-0.8625h-0.89391v-5.5012l0.51866-3.9942c0.14403-0.72024 0.60524-1.0066 1.2967-1.2947 0.68166-0.28403 2.3152-0.62505 3.5206-0.6346zm-2.1945 1.0079c-0.43216 0-0.43216 0.64835 0 0.64835h4.389c0.43216 0 0.43216-0.64834 0-0.64835h-2.2475zm-1.167 1.3026c-0.4565 0-0.57523 0.23362-0.63065 0.58548l-0.40275 2.896c-0.037637 0.27758 0.042832 0.55208 0.42633 0.55208h7.9371c0.38351 0 0.46394-0.2745 0.42633-0.55208l-0.40275-2.896c-0.055425-0.35186-0.17611-0.58548-0.63261-0.58548h-3.4165zm-0.31041 5.9137c-0.40782 0-0.7387 0.33091-0.7387 0.73873 0 0.40783 0.33089 0.73676 0.7387 0.73676s0.7387-0.32893 0.7387-0.73676c0-0.40782-0.33089-0.73873-0.7387-0.73873zm7.3438 0c-0.40782 0-0.7387 0.33091-0.7387 0.73873 0 0.40783 0.33089 0.73676 0.7387 0.73676s0.7387-0.32893 0.7387-0.73676c0-0.40782-0.3309-0.73873-0.7387-0.73873z" fill="#0092da"/>
</svg>
