<?xml version="1.0" encoding="UTF-8"?>
<svg version="1.0" viewBox="0 0 14 14" xmlns="http://www.w3.org/2000/svg">
<path d="m7 0.46194c-1.2054 0.00954-2.8398 0.35073-3.5215 0.63477-0.69142 0.2881-1.1509 0.57468-1.2949 1.2949l-0.51953 3.9941v5.502h0.89453v0.86133c0 1.052 1.5371 1.052 1.5371 0v-0.86133h5.8066v0.86133c0 1.052 1.5391 1.052 1.5391 0v-0.86133h0.89453v-5.502l-0.51953-3.9941c-0.14406-0.72024-0.60348-1.0068-1.2949-1.2949-0.68172-0.28406-2.316-0.62528-3.5215-0.63477zm-2.1953 1.0078h4.3906c0.43216 6e-6 0.43216 0.64844 0 0.64844h-4.3906c-0.43216 0-0.43216-0.64844 0-0.64844zm-1.166 1.3027h6.7207c0.45651 0 0.57739 0.23408 0.63281 0.58594l0.40234 2.8965c0.03761 0.27758-0.04227 0.55078-0.42578 0.55078h-7.9375c-0.38349 0-0.46342-0.2732-0.42578-0.55078l0.40234-2.8965c0.05542-0.35186 0.17436-0.58594 0.63086-0.58594zm-0.31055 5.9141c0.40781 0 0.73828 0.33046 0.73828 0.73828 1e-6 0.40783-0.33047 0.73633-0.73828 0.73633-0.40782 0-0.73828-0.3285-0.73828-0.73633 0-0.40782 0.33047-0.73828 0.73828-0.73828zm7.3438 0c0.40781 0 0.73828 0.33046 0.73828 0.73828 0 0.40783-0.33047 0.73633-0.73828 0.73633-0.40782 0-0.73828-0.3285-0.73828-0.73633 0-0.40782 0.33047-0.73828 0.73828-0.73828z"/>
</svg>
