<?xml version="1.0" encoding="UTF-8"?>
<svg width="580" height="580" version="1.0" xmlns="http://www.w3.org/2000/svg">
<path id="c" d="m288.7 38.913c6.55 0.06 3.81-0.03 0 0zm-142.74 28.642c-23.62 8.671-41.09 30.692-41.58 56.105-6.029 49.21-13.386 98.33-18.579 147.59v208.25h34.309c1.33 17.27-3.77 36.2 5.45 51.82 14.27 21.52 53.11 11.79 53.48-14.86 0.37-12.31 0.1-24.64 0.17-36.96h222.96c1.33 17.27-3.77 36.2 5.46 51.82 14.27 21.52 53.11 11.8 53.49-14.86 0.37-12.31 0.1-24.64 0.17-36.96h34.32c-0.22-71.57 0.45-143.19-0.33-214.73-7.09-52.11-12.81-104.48-20.76-156.44-9.2-34.529-47.69-45.869-78.21-54.395-83.63-21.242-177.05-17.09-250.35 13.62zm15.69 60.505c87.07 0.1 174.15-0.14 261.22 0.1 20.56-0.1 21.22 22.65 23.26 37.84 4.48 33.41 9.58 66.77 13.67 100.23 1.74 18.89-19.24 17.87-32.29 17.33h-289.24c-20.42 0.77-17.01-22-14.38-35.48 5.46-35.55 8.81-71.52 15.76-106.77 2.78-9.69 12.69-13.66 22-13.25z" fill="none" opacity=".8" stroke="#fff" stroke-linecap="round" stroke-linejoin="round" stroke-width="40"/>
<path id="d" d="m114.09 117.02h355.52v316.5h-355.52v-316.5z" fill="#fff" opacity=".765" stroke-linecap="round" stroke-linejoin="round" stroke-opacity=".737" stroke-width="11.8"/>
<path id="a" d="m184.75 69.913h210.52v39.747h-210.52v-39.747z" fill="#fff" opacity=".765" stroke-linecap="round" stroke-linejoin="round" stroke-opacity=".737" stroke-width="11.8"/>
<path id="b" d="m288.7 38.913c6.55 0.06 3.81-0.03 0 0zm1.99 0.03c-49.12 2.057-99.29 9.031-144.73 28.612-23.62 8.671-41.09 30.692-41.58 56.105-6.029 49.21-13.386 98.33-18.579 147.59v208.25h34.309c1.33 17.27-3.77 36.2 5.45 51.82 14.27 21.52 53.11 11.79 53.48-14.86 0.37-12.31 0.1-24.64 0.17-36.96h222.96c1.33 17.27-3.77 36.2 5.46 51.82 14.27 21.52 53.11 11.8 53.49-14.86 0.37-12.31 0.1-24.64 0.17-36.96h34.32c-0.22-71.57 0.45-143.19-0.33-214.73-7.09-52.11-12.81-104.48-20.76-156.44-9.2-34.529-47.69-45.869-78.21-54.395-34.53-8.601-69.99-14.356-105.62-14.992zm-84.29 38.869c57.17 0.187 109.29-1.099 166.44-0.444 14.91 0.06 18 23.982-2.14 24.702-52.83-0.19-114.4 1.1-167.21 0.45-14.24-2.525-11.55-25.692 2.91-24.708zm-44.75 50.248c87.07 0.1 174.15-0.14 261.22 0.1 20.56-0.1 21.22 22.65 23.26 37.84 4.48 33.41 9.58 66.77 13.67 100.23 1.74 18.89-19.24 17.87-32.29 17.33h-289.24c-20.42 0.77-17.01-22-14.38-35.48 5.46-35.55 8.81-71.52 15.76-106.77 2.78-9.69 12.69-13.66 22-13.25zm-11.96 227.98c24.35-1.28 38.11 32.33 20.05 48.62-16.26 18.21-49.79 4.17-48.43-20.14-0.32-15.27 13.08-28.8 28.38-28.48zm282.03 0c24.35-1.27 38.1 32.34 20.04 48.62-16.25 18.21-49.78 4.17-48.42-20.14-0.32-15.27 13.08-28.8 28.38-28.48z" fill="#0092da"/>
</svg>
