<?xml version="1.0" encoding="UTF-8"?>
<svg enable-background="new 0 0 90 90" version="1.1" viewBox="0 0 55.703 76.078" xml:space="preserve" xmlns="http://www.w3.org/2000/svg"><g transform="translate(-14.736 -5.8498)" fill="#0092da" stroke="#fff" stroke-width="4"><path d="m32.112 24.437c2.501-0.792 3.908-3.567 3.127-6.189-0.775-2.622-3.445-4.084-5.946-3.295-2.519 0.796-3.935 3.548-3.154 6.166 0.779 2.625 3.453 4.114 5.973 3.318"/><path d="m65.511 58.22c0 0.953-0.722 1.711-1.638 1.711h-10.031c-0.908 0-1.657-0.758-1.657-1.711v-10.461c0-0.941 0.749-1.699 1.657-1.699h10.031c0.916 0 1.638 0.758 1.638 1.699zm-16.188 0c0 0.953-0.74 1.711-1.657 1.711h-10.011c-0.917 0-1.658-0.758-1.658-1.711v-10.461c0-0.941 0.741-1.699 1.658-1.699h10.011c0.917 0 1.657 0.758 1.657 1.699zm-16.313 0.13c0 0.949-0.729 1.73-1.638 1.73h-10.039c-0.909 0-1.658-0.781-1.658-1.73v-10.438c0-0.949 0.749-1.727 1.658-1.727h10.038c0.909 0 1.638 0.777 1.638 1.727v10.438zm32.377-18.089h-21.225v-17.745l-2.964 1.033v16.712h-21.417c-1.677 0-3.045 1.424-3.045 3.177v33.309c0 1.753 1.368 3.181 3.045 3.181h45.605c1.68 0 3.053-1.428 3.053-3.181v-33.309c0-1.753-1.377-3.177-3.052-3.177"/><path d="m42.968 21.007c2.513-0.792 3.919-3.571 3.141-6.193-0.781-2.625-3.455-4.115-5.966-3.322-2.498 0.792-3.908 3.567-3.129 6.193 0.78 2.625 3.454 4.107 5.954 3.322"/><path d="m53.836 17.57c2.514-0.789 3.92-3.568 3.139-6.193-0.778-2.626-3.452-4.111-5.965-3.319-2.496 0.792-3.908 3.567-3.127 6.193 0.78 2.626 3.452 4.107 5.953 3.319"/></g><g transform="translate(-14.736 -5.8498)" fill="#0092da"><path d="m32.112 24.437c2.501-0.792 3.908-3.567 3.127-6.189-0.775-2.622-3.445-4.084-5.946-3.295-2.519 0.796-3.935 3.548-3.154 6.166 0.779 2.625 3.453 4.114 5.973 3.318"/><path d="m65.511 58.22c0 0.953-0.722 1.711-1.638 1.711h-10.031c-0.908 0-1.657-0.758-1.657-1.711v-10.461c0-0.941 0.749-1.699 1.657-1.699h10.031c0.916 0 1.638 0.758 1.638 1.699zm-16.188 0c0 0.953-0.74 1.711-1.657 1.711h-10.011c-0.917 0-1.658-0.758-1.658-1.711v-10.461c0-0.941 0.741-1.699 1.658-1.699h10.011c0.917 0 1.657 0.758 1.657 1.699zm-16.313 0.13c0 0.949-0.729 1.73-1.638 1.73h-10.039c-0.909 0-1.658-0.781-1.658-1.73v-10.438c0-0.949 0.749-1.727 1.658-1.727h10.038c0.909 0 1.638 0.777 1.638 1.727v10.438zm32.377-18.089h-21.225v-17.745l-2.964 1.033v16.712h-21.417c-1.677 0-3.045 1.424-3.045 3.177v33.309c0 1.753 1.368 3.181 3.045 3.181h45.605c1.68 0 3.053-1.428 3.053-3.181v-33.309c0-1.753-1.377-3.177-3.052-3.177"/><path d="m42.968 21.007c2.513-0.792 3.919-3.571 3.141-6.193-0.781-2.625-3.455-4.115-5.966-3.322-2.498 0.792-3.908 3.567-3.129 6.193 0.78 2.625 3.454 4.107 5.954 3.322"/><path d="m53.836 17.57c2.514-0.789 3.92-3.568 3.139-6.193-0.778-2.626-3.452-4.111-5.965-3.319-2.496 0.792-3.908 3.567-3.127 6.193 0.78 2.626 3.452 4.107 5.953 3.319"/></g></svg>
