<?xml version="1.0" encoding="UTF-8" standalone="no"?>
<svg
   xmlns:dc="http://purl.org/dc/elements/1.1/"
   xmlns:cc="http://creativecommons.org/ns#"
   xmlns:rdf="http://www.w3.org/1999/02/22-rdf-syntax-ns#"
   xmlns:svg="http://www.w3.org/2000/svg"
   xmlns="http://www.w3.org/2000/svg"
   xmlns:sodipodi="http://sodipodi.sourceforge.net/DTD/sodipodi-0.dtd"
   xmlns:inkscape="http://www.inkscape.org/namespaces/inkscape"
   version="1.1"
   x="0px"
   y="0px"
   viewBox="0 0 55.702999 76.078232"
   enable-background="new 0 0 90 90"
   xml:space="preserve"
   id="svg16"
   sodipodi:docname="transportation-583813-cable-car.svg"
   inkscape:version="0.92.0 r"
   width="55.702999"
   height="76.078232"><metadata
     id="metadata22"><rdf:RDF><cc:Work
         rdf:about=""><dc:format>image/svg+xml</dc:format><dc:type
           rdf:resource="http://purl.org/dc/dcmitype/StillImage" /><dc:title></dc:title><cc:license
           rdf:resource="http://creativecommons.org/licenses/by/4.0/" /><dc:creator><cc:Agent><dc:title>johanna</dc:title></cc:Agent></dc:creator><dc:source>https://thenounproject.com/icon/583813/</dc:source></cc:Work><cc:License
         rdf:about="http://creativecommons.org/licenses/by/4.0/"><cc:permits
           rdf:resource="http://creativecommons.org/ns#Reproduction" /><cc:permits
           rdf:resource="http://creativecommons.org/ns#Distribution" /><cc:requires
           rdf:resource="http://creativecommons.org/ns#Notice" /><cc:requires
           rdf:resource="http://creativecommons.org/ns#Attribution" /><cc:permits
           rdf:resource="http://creativecommons.org/ns#DerivativeWorks" /></cc:License></rdf:RDF></metadata><defs
     id="defs20" /><sodipodi:namedview
     pagecolor="#ffffff"
     bordercolor="#666666"
     borderopacity="1"
     objecttolerance="10"
     gridtolerance="10"
     guidetolerance="10"
     inkscape:pageopacity="0"
     inkscape:pageshadow="2"
     inkscape:window-width="1920"
     inkscape:window-height="1135"
     id="namedview18"
     showgrid="false"
     inkscape:zoom="5.9334116"
     inkscape:cx="20.863064"
     inkscape:cy="28.17308"
     inkscape:window-x="0"
     inkscape:window-y="36"
     inkscape:window-maximized="1"
     inkscape:current-layer="svg16"
     fit-margin-top="0"
     fit-margin-left="0"
     fit-margin-right="0"
     fit-margin-bottom="0" /><g
     style="fill:#0092da;fill-opacity:1;stroke:#ffffff;stroke-width:4;stroke-miterlimit:4;stroke-dasharray:none;stroke-opacity:1"
     transform="translate(-14.736,-5.8497665)"
     id="g4494"><path
       style="fill:#0092da;fill-opacity:1;stroke:#ffffff;stroke-width:4;stroke-miterlimit:4;stroke-dasharray:none;stroke-opacity:1"
       inkscape:connector-curvature="0"
       id="path4486"
       d="m 32.112,24.437 c 2.501,-0.792 3.908,-3.567 3.127,-6.189 -0.775,-2.622 -3.445,-4.084 -5.946,-3.295 -2.519,0.796 -3.935,3.548 -3.154,6.166 0.779,2.625 3.453,4.114 5.973,3.318" /><path
       style="fill:#0092da;fill-opacity:1;stroke:#ffffff;stroke-width:4;stroke-miterlimit:4;stroke-dasharray:none;stroke-opacity:1"
       inkscape:connector-curvature="0"
       id="path4488"
       d="m 65.511,58.22 c 0,0.953 -0.722,1.711 -1.638,1.711 H 53.842 c -0.908,0 -1.657,-0.758 -1.657,-1.711 V 47.759 c 0,-0.941 0.749,-1.699 1.657,-1.699 h 10.031 c 0.916,0 1.638,0.758 1.638,1.699 z m -16.188,0 c 0,0.953 -0.74,1.711 -1.657,1.711 H 37.655 c -0.917,0 -1.658,-0.758 -1.658,-1.711 V 47.759 c 0,-0.941 0.741,-1.699 1.658,-1.699 h 10.011 c 0.917,0 1.657,0.758 1.657,1.699 z M 33.01,58.35 c 0,0.949 -0.729,1.73 -1.638,1.73 H 21.333 c -0.909,0 -1.658,-0.781 -1.658,-1.73 V 47.912 c 0,-0.949 0.749,-1.727 1.658,-1.727 h 10.038 c 0.909,0 1.638,0.777 1.638,1.727 V 58.35 Z M 65.387,40.261 H 44.162 V 22.516 l -2.964,1.033 V 40.261 H 19.781 c -1.677,0 -3.045,1.424 -3.045,3.177 v 33.309 c 0,1.753 1.368,3.181 3.045,3.181 h 45.605 c 1.68,0 3.053,-1.428 3.053,-3.181 V 43.438 c 0,-1.753 -1.377,-3.177 -3.052,-3.177" /><path
       style="fill:#0092da;fill-opacity:1;stroke:#ffffff;stroke-width:4;stroke-miterlimit:4;stroke-dasharray:none;stroke-opacity:1"
       inkscape:connector-curvature="0"
       id="path4490"
       d="m 42.968,21.007 c 2.513,-0.792 3.919,-3.571 3.141,-6.193 -0.781,-2.625 -3.455,-4.115 -5.966,-3.322 -2.498,0.792 -3.908,3.567 -3.129,6.193 0.78,2.625 3.454,4.107 5.954,3.322" /><path
       style="fill:#0092da;fill-opacity:1;stroke:#ffffff;stroke-width:4;stroke-miterlimit:4;stroke-dasharray:none;stroke-opacity:1"
       inkscape:connector-curvature="0"
       id="path4492"
       d="m 53.836,17.57 c 2.514,-0.789 3.92,-3.568 3.139,-6.193 -0.778,-2.626 -3.452,-4.111 -5.965,-3.319 -2.496,0.792 -3.908,3.567 -3.127,6.193 0.78,2.626 3.452,4.107 5.953,3.319" /></g><g
     id="g10"
     transform="translate(-14.736,-5.8497665)"
     style="fill:#0092da;fill-opacity:1"><path
       d="m 32.112,24.437 c 2.501,-0.792 3.908,-3.567 3.127,-6.189 -0.775,-2.622 -3.445,-4.084 -5.946,-3.295 -2.519,0.796 -3.935,3.548 -3.154,6.166 0.779,2.625 3.453,4.114 5.973,3.318"
       id="path2"
       inkscape:connector-curvature="0"
       style="fill:#0092da;fill-opacity:1" /><path
       d="m 65.511,58.22 c 0,0.953 -0.722,1.711 -1.638,1.711 H 53.842 c -0.908,0 -1.657,-0.758 -1.657,-1.711 V 47.759 c 0,-0.941 0.749,-1.699 1.657,-1.699 h 10.031 c 0.916,0 1.638,0.758 1.638,1.699 z m -16.188,0 c 0,0.953 -0.74,1.711 -1.657,1.711 H 37.655 c -0.917,0 -1.658,-0.758 -1.658,-1.711 V 47.759 c 0,-0.941 0.741,-1.699 1.658,-1.699 h 10.011 c 0.917,0 1.657,0.758 1.657,1.699 z M 33.01,58.35 c 0,0.949 -0.729,1.73 -1.638,1.73 H 21.333 c -0.909,0 -1.658,-0.781 -1.658,-1.73 V 47.912 c 0,-0.949 0.749,-1.727 1.658,-1.727 h 10.038 c 0.909,0 1.638,0.777 1.638,1.727 V 58.35 Z M 65.387,40.261 H 44.162 V 22.516 l -2.964,1.033 V 40.261 H 19.781 c -1.677,0 -3.045,1.424 -3.045,3.177 v 33.309 c 0,1.753 1.368,3.181 3.045,3.181 h 45.605 c 1.68,0 3.053,-1.428 3.053,-3.181 V 43.438 c 0,-1.753 -1.377,-3.177 -3.052,-3.177"
       id="path4"
       inkscape:connector-curvature="0"
       style="fill:#0092da;fill-opacity:1" /><path
       d="m 42.968,21.007 c 2.513,-0.792 3.919,-3.571 3.141,-6.193 -0.781,-2.625 -3.455,-4.115 -5.966,-3.322 -2.498,0.792 -3.908,3.567 -3.129,6.193 0.78,2.625 3.454,4.107 5.954,3.322"
       id="path6"
       inkscape:connector-curvature="0"
       style="fill:#0092da;fill-opacity:1" /><path
       d="m 53.836,17.57 c 2.514,-0.789 3.92,-3.568 3.139,-6.193 -0.778,-2.626 -3.452,-4.111 -5.965,-3.319 -2.496,0.792 -3.908,3.567 -3.127,6.193 0.78,2.626 3.452,4.107 5.953,3.319"
       id="path8"
       inkscape:connector-curvature="0"
       style="fill:#0092da;fill-opacity:1" /></g></svg>