<?xml version="1.0" encoding="UTF-8" standalone="no"?>
<svg
   xmlns:dc="http://purl.org/dc/elements/1.1/"
   xmlns:cc="http://creativecommons.org/ns#"
   xmlns:rdf="http://www.w3.org/1999/02/22-rdf-syntax-ns#"
   xmlns:svg="http://www.w3.org/2000/svg"
   xmlns="http://www.w3.org/2000/svg"
   xmlns:sodipodi="http://sodipodi.sourceforge.net/DTD/sodipodi-0.dtd"
   xmlns:inkscape="http://www.inkscape.org/namespaces/inkscape"
   version="1.0"
   x="0px"
   y="0px"
   viewBox="0 0 99.999995 100"
   enable-background="new 0 0 81.771 100"
   xml:space="preserve"
   id="svg12"
   sodipodi:docname="transportation-231-chair-lift.svg"
   inkscape:version="0.92.0 r"
   width="100"
   height="100"><metadata
     id="metadata18"><rdf:RDF><cc:Work
         rdf:about=""><dc:format>image/svg+xml</dc:format><dc:type
           rdf:resource="http://purl.org/dc/dcmitype/StillImage" /><dc:title></dc:title><cc:license
           rdf:resource="http://creativecommons.org/publicdomain/zero/1.0/" /><dc:source>https://thenounproject.com/icon/231/</dc:source></cc:Work><cc:License
         rdf:about="http://creativecommons.org/publicdomain/zero/1.0/"><cc:permits
           rdf:resource="http://creativecommons.org/ns#Reproduction" /><cc:permits
           rdf:resource="http://creativecommons.org/ns#Distribution" /><cc:permits
           rdf:resource="http://creativecommons.org/ns#DerivativeWorks" /></cc:License></rdf:RDF></metadata><defs
     id="defs16" /><sodipodi:namedview
     pagecolor="#cfcfcf"
     bordercolor="#666666"
     borderopacity="1"
     objecttolerance="10"
     gridtolerance="10"
     guidetolerance="10"
     inkscape:pageopacity="1"
     inkscape:pageshadow="2"
     inkscape:window-width="1920"
     inkscape:window-height="1135"
     id="namedview14"
     showgrid="true"
     inkscape:zoom="6.675088"
     inkscape:cx="35.427698"
     inkscape:cy="59.634442"
     inkscape:window-x="0"
     inkscape:window-y="36"
     inkscape:window-maximized="1"
     inkscape:current-layer="svg12"><inkscape:grid
       type="xygrid"
       id="grid4493" /></sodipodi:namedview><g
     transform="matrix(0.9,0,0,0.9,11.761086,5)"
     id="g4505"
     style="stroke:#fffffe;stroke-opacity:1;stroke-width:4.4444445;stroke-miterlimit:4;stroke-dasharray:none"><path
       d="m 76.863,75.347 c 3.758,-1.248 5.786,-5.326 4.542,-9.123 l -2.721,0.886 c 0.738,2.284 -0.494,4.729 -2.732,5.486 L 4.351,97.261 5.272,100 Z"
       id="path4495"
       style="fill:#0092da;fill-opacity:1;stroke:#fffffe;stroke-opacity:1;stroke-width:4.4444445;stroke-miterlimit:4;stroke-dasharray:none"
       inkscape:connector-curvature="0" /><path
       d="m 10.919,32.728 c 3.93,-1.166 6.178,-5.347 5.026,-9.33 -1.141,-3.987 -5.28,-6.26 -9.208,-5.094 -3.942,1.155 -6.212,5.348 -5.049,9.333 1.153,3.973 5.267,6.255 9.231,5.091"
       id="path4497"
       style="fill:#0092da;fill-opacity:1;stroke:#fffffe;stroke-opacity:1;stroke-width:4.4444445;stroke-miterlimit:4;stroke-dasharray:none"
       inkscape:connector-curvature="0" /><path
       d="m 7.877,43.155 c -3.918,-7.561 7.33,-13.677 11.467,-6.349 l 8.091,15.518 15.373,-4.415 c 2.536,-0.733 6.052,2.074 6.052,5.373 l 0.094,22.111 c 0.021,5.486 -8.046,5.511 -8.046,-0.046 -0.012,-5.138 -0.15,-16.113 -0.15,-16.113 l -16.053,4.87 c -3.504,1.023 -6.409,-0.745 -7.791,-3.366 z"
       id="path4499"
       style="fill:#0092da;fill-opacity:1;stroke:#fffffe;stroke-opacity:1;stroke-width:4.4444445;stroke-miterlimit:4;stroke-dasharray:none"
       inkscape:connector-curvature="0" /><path
       d="M 32.737,46.65 V 0 H 29.52 v 47.547 z"
       id="path4501"
       style="fill:#0092da;fill-opacity:1;stroke:#fffffe;stroke-opacity:1;stroke-width:4.4444445;stroke-miterlimit:4;stroke-dasharray:none"
       inkscape:connector-curvature="0" /><path
       d="m 0.502,53.232 c -2.213,-4.39 3.48,-7.303 5.693,-2.912 l 6.937,13.749 c 1.51,2.844 4.461,4.776 7.86,4.776 1.061,0 2.052,-0.278 3.02,-0.479 l 8.748,-2.597 c 4.644,-1.411 6.443,4.776 1.762,6.162 l -9.208,2.717 c -1.372,0.43 -2.857,0.648 -4.391,0.648 -5.924,0 -11.041,-3.387 -13.566,-8.339 z"
       id="path4503"
       style="fill:#0092da;fill-opacity:1;stroke:#fffffe;stroke-opacity:1;stroke-width:4.4444445;stroke-miterlimit:4;stroke-dasharray:none"
       inkscape:connector-curvature="0" /></g><path
     d="m 80.937786,72.8123 c 3.3822,-1.1232 5.2074,-4.7934 4.0878,-8.2107 l -2.4489,0.7974 c 0.6642,2.0556 -0.4446,4.2561 -2.4588,4.9374 l -64.4409,22.1985 0.8289,2.4651 z"
     id="path2"
     style="fill:#0092da;fill-opacity:1;stroke-width:0.89999998"
     inkscape:connector-curvature="0" /><path
     d="m 21.588186,34.4552 c 3.537,-1.0494 5.5602,-4.8123 4.5234,-8.397 -1.0269,-3.5883 -4.752,-5.634 -8.2872,-4.5846 -3.5478,1.0395 -5.5908,4.8132 -4.5441,8.3997 1.0377,3.5757 4.7403,5.6295 8.3079,4.5819"
     id="path4"
     style="fill:#0092da;fill-opacity:1;stroke-width:0.89999998"
     inkscape:connector-curvature="0" /><path
     d="m 18.850386,43.8395 c -3.5262,-6.8049 6.597,-12.3093 10.3203,-5.7141 l 7.2819,13.9662 13.8357,-3.9735 c 2.2824,-0.6597 5.4468,1.8666 5.4468,4.8357 l 0.0846,19.8999 c 0.0189,4.9374 -7.2414,4.9599 -7.2414,-0.0414 -0.0108,-4.6242 -0.135,-14.5017 -0.135,-14.5017 l -14.4477,4.383 c -3.1536,0.9207 -5.7681,-0.6705 -7.0119,-3.0294 z"
     id="path6"
     style="fill:#0092da;fill-opacity:1;stroke-width:0.89999998"
     inkscape:connector-curvature="0" /><path
     d="M 41.224386,46.985 V 5 h -2.8953 v 42.7923 z"
     id="path8"
     style="fill:#0092da;fill-opacity:1;stroke-width:0.89999998"
     inkscape:connector-curvature="0" /><path
     d="m 12.212886,52.9088 c -1.9917,-3.951 3.132,-6.5727 5.1237,-2.6208 l 6.2433,12.3741 c 1.359,2.5596 4.0149,4.2984 7.074,4.2984 0.9549,0 1.8468,-0.2502 2.718,-0.4311 l 7.8732,-2.3373 c 4.1796,-1.2699 5.7987,4.2984 1.5858,5.5458 l -8.2872,2.4453 c -1.2348,0.387 -2.5713,0.5832 -3.9519,0.5832 -5.3316,0 -9.9369,-3.0483 -12.2094,-7.5051 z"
     id="path10"
     style="fill:#0092da;fill-opacity:1;stroke-width:0.89999998"
     inkscape:connector-curvature="0" /></svg>