<?xml version="1.0" encoding="UTF-8" standalone="no"?>
<svg
   xmlns:dc="http://purl.org/dc/elements/1.1/"
   xmlns:cc="http://creativecommons.org/ns#"
   xmlns:rdf="http://www.w3.org/1999/02/22-rdf-syntax-ns#"
   xmlns:svg="http://www.w3.org/2000/svg"
   xmlns="http://www.w3.org/2000/svg"
   xmlns:sodipodi="http://sodipodi.sourceforge.net/DTD/sodipodi-0.dtd"
   xmlns:inkscape="http://www.inkscape.org/namespaces/inkscape"
   version="1.1"
   x="0px"
   y="0px"
   viewBox="0 0 125 125"
   xml:space="preserve"
   id="svg2"
   inkscape:version="0.91 r13725"
   sodipodi:docname="chair_lift.svg"
   width="125"
   height="125"><metadata
     id="metadata14"><rdf:RDF><cc:Work
         rdf:about=""><dc:format>image/svg+xml</dc:format><dc:type
           rdf:resource="http://purl.org/dc/dcmitype/StillImage" /><dc:title></dc:title></cc:Work></rdf:RDF></metadata><defs
     id="defs12" /><sodipodi:namedview
     pagecolor="#ffffff"
     bordercolor="#666666"
     borderopacity="1"
     objecttolerance="10"
     gridtolerance="10"
     guidetolerance="10"
     inkscape:pageopacity="0"
     inkscape:pageshadow="2"
     inkscape:window-width="1450"
     inkscape:window-height="744"
     id="namedview10"
     showgrid="false"
     inkscape:zoom="1.888"
     inkscape:cx="-15.942797"
     inkscape:cy="62.5"
     inkscape:window-x="0"
     inkscape:window-y="40"
     inkscape:window-maximized="0"
     inkscape:current-layer="svg2" /><path
     d="m 89.804237,84.882203 c 0.3,-1.1 0.3,-2.3 0,-3.5 l -5.3,-19.8 c -0.8,-2.9 -3.4,-4.9 -6.4,-4.9 l -7.2,0 c 2.3,-1 3.9,-3.4 3.9,-6.1 l 0,-14.2 c 0,-1.2 -0.3,-2.3 -0.9,-3.3 l -7.8,-13.5 2,0 c 0.6,0 1,-0.4 1,-1 0,-0.6 -0.4,-1 -1,-1 l -11.4,0 c -2.1,0 -3.8,1.7 -3.8,3.8 0,0.6 0.4,1 1,1 0.6,0 1,-0.4 1,-1 0,-1 0.8,-1.8 1.8,-1.8 l 7,0 8.3,14.5 c 0.4,0.7 0.6,1.5 0.6,2.3 l 0,14.2 c 0,2.6 -2.1,4.7 -4.7,4.7 l -3.3,0 c -0.1,-0.5 -0.5,-0.9 -1,-0.9 l -5.7,0 c -0.5,0 -0.9,0.4 -1,0.9 l -3.3,0 c -0.6,0 -1,0.4 -1,1 l 0,0.4 -8.6,0 c -3,0 -5.7,2 -6.4,4.9 l -5.3,19.8 c -0.3,1.1 -0.3,2.3 0,3.5 l 0.5,1.9 c 0,0 0,0 0,0 l 1.1,4.2 c 0.7,2.7 3.1,4.5 5.9,4.5 l 2.8,0 14.2,0 c 0.6,0 1,-0.4 1,-1 0,-0.6 -0.4,-1 -1,-1 l -14.2,0 c -1,0 -1.8,-0.8 -1.8,-1.8 0,-1 0.8,-1.8 1.8,-1.8 l 14.2,0 c 0.6,0 1,-0.4 1,-1 0,-0.6 -0.4,-1 -1,-1 l -14.2,0 c -0.7,0 -1.3,0.2 -1.8,0.5 l 0,-4.2 19.2,0 0,20.699997 -13.2,0 c -0.6,0 -1,0.4 -1,1 0,0.6 0.4,1 1,1 l 28.3,0 c 0.6,0 1,-0.4 1,-1 0,-0.6 -0.4,-1 -1,-1 l -13.1,0 0,-20.799997 19.3,0 0,4.2 c -0.5,-0.3 -1.2,-0.5 -1.8,-0.5 l -14.2,0 c -0.6,0 -1,0.4 -1,1 0,0.6 0.4,1 1,1 l 14.2,0 c 1,0 1.8,0.8 1.8,1.8 0,1 -0.8,1.8 -1.8,1.8 l -14.2,0 c -0.6,0 -1,0.4 -1,1 0,0.6 0.4,1 1,1 l 14.2,0 2.8,0 c 2.7,0 5.2,-1.9 5.9,-4.5 l 1.1,-4.2 c 0,0 0,0 0,0 l 0.5,-1.8 z m -55.6,-3 5.3,-19.8 c 0.5,-2 2.4,-3.5 4.5,-3.5 l 9.7,0 2.6,1.3 c 0.1,0.1 0.3,0.1 0.4,0.1 l 8.5,0 c 0.2,0 0.3,0 0.4,-0.1 l 2.6,-1.3 9.8,0 c 2.1,0 4,1.4 4.5,3.5 l 5.3,19.8 c 0.2,0.8 0.2,1.6 0,2.4 l 0,0 c -1.2,-1.1 -2.8,-1.9 -4.5,-2.1 l 0,-3.3 c 0,-2.1 -1.7,-3.8 -3.8,-3.8 l -8.5,0 c -1.1,0 -2.1,0.5 -2.8,1.3 -0.7,-0.8 -1.7,-1.3 -2.8,-1.3 l -8.5,0 c -1.1,0 -2.1,0.5 -2.8,1.3 -0.7,-0.8 -1.7,-1.3 -2.8,-1.3 l -8.5,0 c -2.1,0 -3.8,1.7 -3.8,3.8 l 0,3.3 c -1.7,0.2 -3.3,1 -4.6,2.2 l 0,0 c -0.4,-0.8 -0.4,-1.7 -0.2,-2.5 z m 1.6,8.6 -1,-3.8 c 0.9,-1.3 2.4,-2.2 3.9,-2.5 l 0,7.4 c 0,0.6 0.2,1.3 0.5,1.8 -1.6,-0.2 -3,-1.3 -3.4,-2.9 z m 4.9,-8.4 0,-3.3 c 0,-1 0.8,-1.8 1.8,-1.8 l 8.5,0 c 1,0 1.8,0.8 1.8,1.8 0,0.6 0.4,1 1,1 0.6,0 1,-0.4 1,-1 0,-1 0.8,-1.8 1.8,-1.8 l 8.5,0 c 1,0 1.8,0.8 1.8,1.8 0,0.6 0.4,1 1,1 0.6,0 1,-0.4 1,-1 0,-1 0.8,-1.8 1.8,-1.8 l 8.5,0 c 1,0 1.8,0.8 1.8,1.8 l 0,3.3 -40.3,0 z m 45.5,8.4 c -0.4,1.6 -1.8,2.8 -3.4,3 0.3,-0.5 0.5,-1.1 0.5,-1.8 l 0,-7.5 c 1.6,0.3 3,1.1 3.9,2.5 l -1,3.8 z"
     id="path4"
     style="fill:#0092da;fill-opacity:1;stroke:#0092da;stroke-width:3;stroke-linecap:butt;stroke-miterlimit:4;stroke-dasharray:none;stroke-opacity:1"
     inkscape:connector-curvature="0" /></svg>