<?xml version="1.0" encoding="UTF-8"?>
<svg enable-background="new 0 0 81.771 100" version="1.0" viewBox="0 0 100 100" xml:space="preserve" xmlns="http://www.w3.org/2000/svg"><g transform="matrix(.9 0 0 .9 11.761 5)" fill="#0092da" stroke="#fffffe" stroke-width="4.4444"><path d="m76.863 75.347c3.758-1.248 5.786-5.326 4.542-9.123l-2.721 0.886c0.738 2.284-0.494 4.729-2.732 5.486l-71.601 24.665 0.921 2.739z"/><path d="m10.919 32.728c3.93-1.166 6.178-5.347 5.026-9.33-1.141-3.987-5.28-6.26-9.208-5.094-3.942 1.155-6.212 5.348-5.049 9.333 1.153 3.973 5.267 6.255 9.231 5.091"/><path d="m7.877 43.155c-3.918-7.561 7.33-13.677 11.467-6.349l8.091 15.518 15.373-4.415c2.536-0.733 6.052 2.074 6.052 5.373l0.094 22.111c0.021 5.486-8.046 5.511-8.046-0.046-0.012-5.138-0.15-16.113-0.15-16.113l-16.053 4.87c-3.504 1.023-6.409-0.745-7.791-3.366z"/><path d="m32.737 46.65v-46.65h-3.217v47.547z"/><path d="m0.502 53.232c-2.213-4.39 3.48-7.303 5.693-2.912l6.937 13.749c1.51 2.844 4.461 4.776 7.86 4.776 1.061 0 2.052-0.278 3.02-0.479l8.748-2.597c4.644-1.411 6.443 4.776 1.762 6.162l-9.208 2.717c-1.372 0.43-2.857 0.648-4.391 0.648-5.924 0-11.041-3.387-13.566-8.339z"/></g><path d="m80.938 72.812c3.3822-1.1232 5.2074-4.7934 4.0878-8.2107l-2.4489 0.7974c0.6642 2.0556-0.4446 4.2561-2.4588 4.9374l-64.441 22.198 0.8289 2.4651z" fill="#0092da" stroke-width=".9"/><path d="m21.588 34.455c3.537-1.0494 5.5602-4.8123 4.5234-8.397-1.0269-3.5883-4.752-5.634-8.2872-4.5846-3.5478 1.0395-5.5908 4.8132-4.5441 8.3997 1.0377 3.5757 4.7403 5.6295 8.3079 4.5819" fill="#0092da" stroke-width=".9"/><path d="m18.85 43.84c-3.5262-6.8049 6.597-12.309 10.32-5.7141l7.2819 13.966 13.836-3.9735c2.2824-0.6597 5.4468 1.8666 5.4468 4.8357l0.0846 19.9c0.0189 4.9374-7.2414 4.9599-7.2414-0.0414-0.0108-4.6242-0.135-14.502-0.135-14.502l-14.448 4.383c-3.1536 0.9207-5.7681-0.6705-7.0119-3.0294z" fill="#0092da" stroke-width=".9"/><path d="m41.224 46.985v-41.985h-2.8953v42.792z" fill="#0092da" stroke-width=".9"/><path d="m12.213 52.909c-1.9917-3.951 3.132-6.5727 5.1237-2.6208l6.2433 12.374c1.359 2.5596 4.0149 4.2984 7.074 4.2984 0.9549 0 1.8468-0.2502 2.718-0.4311l7.8732-2.3373c4.1796-1.2699 5.7987 4.2984 1.5858 5.5458l-8.2872 2.4453c-1.2348 0.387-2.5713 0.5832-3.9519 0.5832-5.3316 0-9.9369-3.0483-12.209-7.5051z" fill="#0092da" stroke-width=".9"/></svg>
