<?xml version="1.0" encoding="UTF-8"?>
<svg version="1.1" viewBox="0 0 14 14" xmlns="http://www.w3.org/2000/svg">
<rect width="14" height="14" fill="none" visibility="hidden"/>
<path d="m2 1c-1.1655 0-2 0.79552-2 2v11h7v-7.875s0.875-0.125 0.875 0.875v4c0 2 1.8647 2.125 2.125 2.125 0.27565 0 2.125-0.12498 2.125-2.125v-4s1.3876 0.017377 1.375-2.9688h-0.75v-2c0-0.56716-0.75-0.56374-0.75-0.03125v2h-1v-2c0-0.54618-0.75-0.54519-0.75 0v2h-0.75c0.01252 2.9864 1.375 3 1.375 3v4c0 0.87416-0.76714 0.875-0.875 0.875s-0.875-0.04279-0.875-0.875v-4c0-1.2809-1.125-2.125-2.125-2.125v-1.875c0-1.2225-0.8165-2-2-2zm0.96875 2h2.75l-1.7188 2.6667h2.0625l-3.7812 5.3333h-0.6875l1.375-4h-1.7188z"/>
</svg>
