<?xml version="1.0" encoding="UTF-8" standalone="no"?>
<svg
   xmlns:dc="http://purl.org/dc/elements/1.1/"
   xmlns:cc="http://creativecommons.org/ns#"
   xmlns:rdf="http://www.w3.org/1999/02/22-rdf-syntax-ns#"
   xmlns:svg="http://www.w3.org/2000/svg"
   xmlns="http://www.w3.org/2000/svg"
   xmlns:sodipodi="http://sodipodi.sourceforge.net/DTD/sodipodi-0.dtd"
   xmlns:inkscape="http://www.inkscape.org/namespaces/inkscape"
   width="11"
   height="11"
   viewBox="0 0 11 11"
   id="svg2"
   version="1.1"
   inkscape:version="0.91 r13725"
   sodipodi:docname="crossing.svg">
  <metadata
     id="metadata10">
    <rdf:RDF>
      <cc:Work
         rdf:about="">
        <dc:format>image/svg+xml</dc:format>
        <dc:type
           rdf:resource="http://purl.org/dc/dcmitype/StillImage" />
      </cc:Work>
    </rdf:RDF>
  </metadata>
  <defs
     id="defs8" />
  <sodipodi:namedview
     pagecolor="#ffffff"
     bordercolor="#666666"
     borderopacity="1"
     objecttolerance="10"
     gridtolerance="10"
     guidetolerance="10"
     inkscape:pageopacity="0"
     inkscape:pageshadow="2"
     inkscape:window-width="1536"
     inkscape:window-height="801"
     id="namedview6"
     showgrid="false"
     inkscape:zoom="42.909091"
     inkscape:cx="5.9976577"
     inkscape:cy="5.7521708"
     inkscape:window-x="-8"
     inkscape:window-y="32"
     inkscape:window-maximized="1"
     inkscape:current-layer="svg2" />
  <path
     fill="#ffffff"
     d="m 0.5,0.5 2,0 3,3 3,-3 2,0 0,2 -3,3 3,3 0,2 -2,0 -3,-3 -3,3 L 0.5,10.5 0.5,8.5 l 3,-3 -3,-3 z"
     id="halo" />
  <path
     d="m 3.5169492,3.5169492 0,0.4406779 L 5.059322,5.5 3.5169492,7.0423729 l 0,0.4406779 0.4406779,0 L 5.5,5.940678 l 1.5423729,1.5423728 0.4406779,0 0,-0.4406779 L 5.940678,5.5 7.4830508,3.9576271 l 0,-0.4406779 -0.4406779,0 L 5.5,5.059322 3.9576271,3.5169492 Z"
     id="crossing"
     inkscape:connector-curvature="0"
     style="fill:#4d4d4d" />
</svg>
