<?xml version="1.0" encoding="UTF-8"?>
<svg id="c" width="100" height="100" enable-background="new 0 0 81.771 100" version="1.0" viewBox="0 0 100 100" xml:space="preserve" xmlns="http://www.w3.org/2000/svg" xmlns:cc="http://creativecommons.org/ns#" xmlns:dc="http://purl.org/dc/elements/1.1/" xmlns:rdf="http://www.w3.org/1999/02/22-rdf-syntax-ns#"><metadata id="b"><rdf:RDF><cc:Work rdf:about=""><dc:format>image/svg+xml</dc:format><dc:type rdf:resource="http://purl.org/dc/dcmitype/StillImage"/><dc:title/><cc:license rdf:resource="http://creativecommons.org/publicdomain/zero/1.0/"/><dc:source>https://thenounproject.com/icon/231/</dc:source></cc:Work><cc:License rdf:about="http://creativecommons.org/publicdomain/zero/1.0/"><cc:permits rdf:resource="http://creativecommons.org/ns#Reproduction"/><cc:permits rdf:resource="http://creativecommons.org/ns#Distribution"/><cc:permits rdf:resource="http://creativecommons.org/ns#DerivativeWorks"/></cc:License></rdf:RDF></metadata><g id="a" transform="matrix(3.071 0 0 3.071 1.1362 .6669)" fill="#0092da" stroke-width=".90138"><path id="d" d="m9.9674 7.3004c-0.93834 0.10546-1.6126 0.95456-1.5053 1.8929l0.70939 6.1862c0.049576 0.43266 0.2641 0.80674 0.56517 1.0762 0.11087 0.1974 0.2623 0.37317 0.46331 0.50387l3.5812 2.3589v4.771c0 0.6535 0.52821 1.1817 1.1817 1.1817 0.6517 0 1.1781-0.52821 1.1781-1.1817v-6.0266c0-0.0091-0.0018-0.01802-0.0018-0.02435 0.0036-0.47863-0.22534-0.94915-0.6535-1.2322l-2.9259-1.9253-0.55976-4.881h4.917c0.53181 0 0.96087-0.43176 0.96087-0.96087s-0.42996-0.95997-0.96087-0.95997h-5.3208c-0.33982-0.53181-0.95997-0.85721-1.6288-0.77879zm8.738 0.87704 4.0968-4.552-0.66882-0.60663-4.003 4.4492c0.24157 0.18839 0.43897 0.42996 0.57508 0.70939zm-4.8666 5.3731 2.2868-2.5257h-1.2169l-1.7397 1.9199zm13.737 8.0547-0.81665 0.19199c0.16225 0.68505-0.2587 1.3701-0.93113 1.5369l-21.545 5.475 0.20461 0.82386 21.539-5.4714c1.1303-0.27312 1.8217-1.4179 1.5486-2.5563zm-16.925-1.2782c0.24788 0.1974 0.60753 0.15504 0.80493-0.09375 0.1974-0.24608 0.15684-0.60753-0.09194-0.80493l-3.711-2.9439c-0.24788-0.1947-0.60933-0.15324-0.80493 0.09375-0.1974 0.24968-0.15684 0.61114 0.091941 0.80673zm-0.75536-13.52c1.2042-0.012619 2.1759-1.0095 2.1741-2.2291 0-1.2178-0.98431-2.1922-2.1886-2.1804-1.206 0.00902-2.1849 1.0059-2.1777 2.2255 0.0036 1.216 0.9807 2.1931 2.1922 2.184z" stroke="#fff"/><path id="e" d="m9.9674 7.3004c-0.93834 0.10546-1.6126 0.95456-1.5053 1.8929l0.70939 6.1862c0.049576 0.43266 0.2641 0.80674 0.56517 1.0762 0.11087 0.1974 0.2623 0.37317 0.46331 0.50387l3.5812 2.3589v4.771c0 0.6535 0.52821 1.1817 1.1817 1.1817 0.6517 0 1.1781-0.52821 1.1781-1.1817v-6.0266c0-0.0091-0.0018-0.01802-0.0018-0.02435 0.0036-0.47863-0.22534-0.94915-0.6535-1.2322l-2.9259-1.9253-0.55976-4.881h4.917c0.53181 0 0.96087-0.43176 0.96087-0.96087s-0.42996-0.95997-0.96087-0.95997h-5.3208c-0.33982-0.53181-0.95997-0.85721-1.6288-0.77879zm8.738 0.87704 4.0968-4.552-0.66882-0.60663-4.003 4.4492c0.24157 0.18839 0.43897 0.42996 0.57508 0.70939zm-4.8666 5.3731 2.2868-2.5257h-1.2169l-1.7397 1.9199zm13.737 8.0547-0.81665 0.19199c0.16225 0.68505-0.2587 1.3701-0.93113 1.5369l-21.545 5.475 0.20461 0.82386 21.539-5.4714c1.1303-0.27312 1.8217-1.4179 1.5486-2.5563zm-16.925-1.2782c0.24788 0.1974 0.60753 0.15504 0.80493-0.09375 0.1974-0.24608 0.15684-0.60753-0.09194-0.80493l-3.711-2.9439c-0.24788-0.1947-0.60933-0.15324-0.80493 0.09375-0.1974 0.24968-0.15684 0.61114 0.091941 0.80673zm-0.75536-13.52c1.2042-0.012619 2.1759-1.0095 2.1741-2.2291 0-1.2178-0.98431-2.1922-2.1886-2.1804-1.206 0.00902-2.1849 1.0059-2.1777 2.2255 0.0036 1.216 0.9807 2.1931 2.1922 2.184z"/></g></svg>
