<?xml version="1.0" encoding="UTF-8"?>
<svg version="1.1" viewBox="0 0 14 14" xmlns="http://www.w3.org/2000/svg" xmlns:cc="http://creativecommons.org/ns#" xmlns:dc="http://purl.org/dc/elements/1.1/" xmlns:rdf="http://www.w3.org/1999/02/22-rdf-syntax-ns#">
<metadata>
<rdf:RDF>
<cc:Work rdf:about="">
<dc:format>image/svg+xml</dc:format>
<dc:type rdf:resource="http://purl.org/dc/dcmitype/StillImage"/>
<dc:title/>
</cc:Work>
</rdf:RDF>
</metadata>
<rect width="14" height="14" fill="none" visibility="hidden"/>
<g transform="matrix(.065564 0 0 .065564 -1.2618 -53.997)" fill="#8461c4">
<path transform="matrix(15.252 0 0 15.252 19.245 823.57)" d="m7 0c-0.87461 0-1.5859 0.70267-1.5859 1.5684 0 0.63759 0.38752 1.1866 0.93945 1.4316-0.0069611 0.33341-0.014541 0.66659-0.021484 1h-4.332v1h4.3125c-0.040833 1.9652-0.082466 3.9293-0.12305 5.8945-0.0026488 0.1259 0.0019538 1.3934-1.6992 0.51758-1.7058-0.8772-0.74333-1.8713-0.62891-1.9004-1.0022-0.31541-1.909-1.1923-2.6426-2.0918-0.72003 1.6035 0.56871 3.3162 0.63086 3.5605 0.15478-0.16921 0.38542-0.14283 0.52734-0.11914 1.7364 2.7054 4.0121 2.3806 4.623 3.1387 0.6109-0.75808 2.8871-0.43328 4.623-3.1387 0.14179-0.023689 0.3723-0.050072 0.52734 0.11914 0.062282-0.24434 1.3511-1.9571 0.63086-3.5605-0.73348 0.89954-1.6408 1.7764-2.6426 2.0918 0.11396 0.029104 1.0785 1.0232-0.62695 1.9004-1.7015 0.87585-1.6985-0.39168-1.7012-0.51758-0.039438-1.9653-0.082025-3.9293-0.12305-5.8945h4.3125v-1h-4.332c-0.0068953-0.33341-0.014685-0.66659-0.021484-1 0.55259-0.24502 0.93945-0.79405 0.93945-1.4316 0-0.86569-0.71067-1.5684-1.5859-1.5684zm0 0.99414c0.31009 0 0.5625 0.25745 0.5625 0.57422 0 0.31609-0.25241 0.57227-0.5625 0.57227s-0.5625-0.25618-0.5625-0.57227c0-0.31677 0.25241-0.57422 0.5625-0.57422z" color="#000000" fill="#8461c4" fill-rule="evenodd" stroke-width=".066968"/>
</g>
</svg>
