<?xml version="1.0" encoding="UTF-8"?>
<svg version="1.1" viewBox="0 0 16 16" xmlns="http://www.w3.org/2000/svg" xmlns:cc="http://creativecommons.org/ns#" xmlns:dc="http://purl.org/dc/elements/1.1/" xmlns:rdf="http://www.w3.org/1999/02/22-rdf-syntax-ns#">
<metadata>
<rdf:RDF>
<cc:Work rdf:about="">
<dc:format>image/svg+xml</dc:format>
<dc:type rdf:resource="http://purl.org/dc/dcmitype/StillImage"/>
<dc:title/>
</cc:Work>
</rdf:RDF>
</metadata>
<rect width="16" height="16" fill="none" visibility="hidden"/>
<path transform="translate(1,1)" d="m10.781 0-0.625 0.71875 1.1875 1.0938c0.03621 0.036212 0.0856 0.084693 0.125 0.125l-0.25 0.28125c-0.40022 0.40022-0.11306 0.91818 0.03125 1.0625l0.75 0.75v5.9688c0 1-0.39214 1-0.5 1s-0.5 0-0.5-1v-4c0-1.2809-1-2-2-2v-2c0-0.5513-0.42473-1-1-1h-6c-0.59924 0-1 0.42473-1 1v12h8v-9s1 0 1 1v4c0 2 1.2397 2 1.5 2 0.27565 0 1.5 0 1.5-2v-7c0-1-0.28602-1.2092-0.625-1.5312l-1.5938-1.4688zm-8.7812 3h6v3h-6v-3z" fill="#0092da"/>
</svg>
