<?xml version="1.0" encoding="UTF-8"?>
<svg id="d" width="60.726" height="89.6" enable-background="new 0 0 65.289 100" version="1.1" viewBox="0 0 60.726 89.6" xml:space="preserve" xmlns="http://www.w3.org/2000/svg" xmlns:cc="http://creativecommons.org/ns#" xmlns:dc="http://purl.org/dc/elements/1.1/" xmlns:rdf="http://www.w3.org/1999/02/22-rdf-syntax-ns#"><metadata id="c"><rdf:RDF><cc:Work rdf:about=""><dc:format>image/svg+xml</dc:format><dc:type rdf:resource="http://purl.org/dc/dcmitype/StillImage"/><dc:title/><dc:creator><cc:Agent><dc:title>Enzet</dc:title></cc:Agent></dc:creator><dc:source>https://thenounproject.com/icon/21636/</dc:source></cc:Work></rdf:RDF></metadata><path id="b" d="m46.713 45.106h-10.901c3.6081-5.0419 5.5182-10.768 6.0972-15.982 0.652-5.8646-0.17064-11.227-2.8635-14.965l19.03-9.5151-0.92366-1.9399-19.494 9.7918c-0.63587-0.57814-1.5595-0.82688-2.4-0.6469-0.22667 0.06452-0.444 0.15791-0.6469 0.27761l-10.901 5.4503 0.73944 1.478-21.802 10.901 0.92366 1.9399 21.801-10.901 0.73944 1.478 8.5914-4.249c1.2879 2.2837 2.3491 5.8425 1.8482 10.346-0.60955 5.4859-3.1029 11.602-7.9445 16.536h-14.467c-0.90329 0.01188-1.7752 0.58069-2.0689 1.2013-5.834 11.666-5.834 28.424 0 40.092 0.35826 0.77 1.0926 1.197 1.9399 1.2013h32.702c0.84896-0.0043 1.5799-0.43551 1.9399-1.2013 5.8332-11.667 5.8332-28.425 0-40.092-0.37609-0.74538-1.1053-1.2072-1.9407-1.2013zm-19.03 20.969h-15.426c0.01527-5.9121 1.0977-11.84 3.2337-16.628h12.194v16.628zm5.3586 0v-16.628h12.194c2.1275 4.7873 3.1403 10.732 3.2337 16.628-5.1447-0.0016-10.176-0.0016-15.427-8.49e-4z" fill="#0092da" stroke="#fff" stroke-width="4"/><path id="e" d="m46.713 45.106h-10.901c3.6081-5.0419 5.5182-10.768 6.0972-15.982 0.652-5.8646-0.17064-11.227-2.8635-14.965l19.03-9.5151-0.92366-1.9399-19.494 9.7918c-0.63587-0.57814-1.5595-0.82688-2.4-0.6469-0.22667 0.06452-0.444 0.15791-0.6469 0.27761l-10.901 5.4503 0.73944 1.478-21.802 10.901 0.92366 1.9399 21.801-10.901 0.73944 1.478 8.5914-4.249c1.2879 2.2837 2.3491 5.8425 1.8482 10.346-0.60955 5.4859-3.1029 11.602-7.9445 16.536h-14.467c-0.90329 0.01188-1.7752 0.58069-2.0689 1.2013-5.834 11.666-5.834 28.424 0 40.092 0.35826 0.77 1.0926 1.197 1.9399 1.2013h32.702c0.84896-0.0043 1.5799-0.43551 1.9399-1.2013 5.8332-11.667 5.8332-28.425 0-40.092-0.37609-0.74538-1.1053-1.2072-1.9407-1.2013zm-19.03 20.969h-15.426c0.01527-5.9121 1.0977-11.84 3.2337-16.628h12.194v16.628zm5.3586 0v-16.628h12.194c2.1275 4.7873 3.1403 10.732 3.2337 16.628-5.1447-0.0016-10.176-0.0016-15.427-8.49e-4z" fill="#0092da" stroke="#fffffa" stroke-width="4"/><path id="a" d="m46.713 45.106h-10.901c3.6081-5.0419 5.5182-10.768 6.0972-15.982 0.652-5.8646-0.17064-11.227-2.8635-14.965l19.03-9.5151-0.92366-1.9399-19.494 9.7918c-0.63587-0.57814-1.5595-0.82688-2.4-0.6469-0.22667 0.06452-0.444 0.15791-0.6469 0.27761l-10.901 5.4503 0.73944 1.478-21.802 10.901 0.92366 1.9399 21.801-10.901 0.73944 1.478 8.5914-4.249c1.2879 2.2837 2.3491 5.8425 1.8482 10.346-0.60955 5.4859-3.1029 11.602-7.9445 16.536h-14.467c-0.90329 0.01188-1.7752 0.58069-2.0689 1.2013-5.834 11.666-5.834 28.424 0 40.092 0.35826 0.77 1.0926 1.197 1.9399 1.2013h32.702c0.84896-0.0043 1.5799-0.43551 1.9399-1.2013 5.8332-11.667 5.8332-28.425 0-40.092-0.37609-0.74538-1.1053-1.2072-1.9407-1.2013zm-19.03 20.969h-15.426c0.01527-5.9121 1.0977-11.84 3.2337-16.628h12.194v16.628zm5.3586 0v-16.628h12.194c2.1275 4.7873 3.1403 10.732 3.2337 16.628-5.1447-0.0016-10.176-0.0016-15.427-8.49e-4z" fill="#0092da" stroke-width=".84895"/></svg>
