<?xml version="1.0" encoding="UTF-8" standalone="no"?>
<svg
   xmlns:dc="http://purl.org/dc/elements/1.1/"
   xmlns:cc="http://creativecommons.org/ns#"
   xmlns:rdf="http://www.w3.org/1999/02/22-rdf-syntax-ns#"
   xmlns:svg="http://www.w3.org/2000/svg"
   xmlns="http://www.w3.org/2000/svg"
   xmlns:sodipodi="http://sodipodi.sourceforge.net/DTD/sodipodi-0.dtd"
   xmlns:inkscape="http://www.inkscape.org/namespaces/inkscape"
   version="1.1"
   x="0px"
   y="0px"
   viewBox="0 0 60.725733 89.600418"
   enable-background="new 0 0 65.289 100"
   xml:space="preserve"
   id="svg8"
   sodipodi:docname="transportation-21636-gondola.svg"
   width="60.725735"
   height="89.600418"
   inkscape:version="0.92.0 r"><metadata
     id="metadata14"><rdf:RDF><cc:Work
         rdf:about=""><dc:format>image/svg+xml</dc:format><dc:type
           rdf:resource="http://purl.org/dc/dcmitype/StillImage" /><dc:title></dc:title><dc:creator><cc:Agent><dc:title>Enzet</dc:title></cc:Agent></dc:creator><dc:source>https://thenounproject.com/icon/21636/</dc:source></cc:Work></rdf:RDF></metadata><defs
     id="defs12" /><sodipodi:namedview
     pagecolor="#ffffff"
     bordercolor="#666666"
     borderopacity="1"
     objecttolerance="10"
     gridtolerance="10"
     guidetolerance="10"
     inkscape:pageopacity="0"
     inkscape:pageshadow="2"
     inkscape:window-width="1920"
     inkscape:window-height="1135"
     id="namedview10"
     showgrid="true"
     fit-margin-top="0"
     fit-margin-left="0"
     fit-margin-right="0"
     fit-margin-bottom="0"
     inkscape:zoom="7.552"
     inkscape:cx="17.578584"
     inkscape:cy="29.624035"
     inkscape:window-x="0"
     inkscape:window-y="36"
     inkscape:window-maximized="1"
     inkscape:current-layer="svg8"><inkscape:grid
       type="xygrid"
       id="grid4482"
       originx="-35.711246"
       originy="-18.207318" /></sodipodi:namedview><path
     style="fill:#0092da;fill-opacity:1;stroke:#ffffff;stroke-width:4;stroke-miterlimit:4;stroke-dasharray:none;stroke-opacity:1"
     inkscape:connector-curvature="0"
     id="path4486"
     d="M 46.71332,45.105981 H 35.81274 c 3.608059,-5.041943 5.518206,-10.768144 6.097194,-15.981577 0.651997,-5.86458 -0.170641,-11.226579 -2.863525,-14.965376 L 58.076582,4.6439403 57.152919,2.7040785 37.659217,12.495926 c -0.635867,-0.578139 -1.559531,-0.826882 -2.399997,-0.646905 -0.22667,0.06452 -0.444002,0.157906 -0.646902,0.277608 l -10.900581,5.450291 0.739439,1.478031 -21.8020109,10.900582 0.923663,1.939861 21.8011619,-10.900581 0.73944,1.478031 8.591424,-4.24902 c 1.287863,2.283688 2.349058,5.842508 1.848173,10.346213 -0.609548,5.485948 -3.102929,11.601819 -7.944519,16.535944 -4.992703,0 -9.505747,0 -14.46704,0 -0.903289,0.01188 -1.775166,0.580686 -2.068905,1.201272 -5.8340169,11.666339 -5.8340169,28.423859 0,40.091895 0.35826,0.770002 1.092606,1.197027 1.939864,1.201271 H 46.71417 c 0.848955,-0.0043 1.579905,-0.435514 1.939862,-1.201271 5.833169,-11.667187 5.833169,-28.424708 0,-40.091895 -0.376087,-0.745383 -1.10534,-1.207214 -1.940712,-1.201272 z M 27.683147,66.075168 c -5.198151,0 -10.639952,0 -15.426359,0 0.01527,-5.912122 1.097698,-11.839526 3.23367,-16.62848 h 12.193539 v 16.62848 z m 5.358603,0 V 49.447537 h 12.19354 c 2.127482,4.787257 3.140284,10.732488 3.233669,16.62848 -5.144666,-0.0016 -10.176422,-0.0016 -15.427209,-8.49e-4 z" /><path
     style="fill:#0092da;fill-opacity:1;stroke:#fffffa;stroke-width:4;stroke-miterlimit:4;stroke-dasharray:none;stroke-opacity:1"
     inkscape:connector-curvature="0"
     id="path4484"
     d="M 46.71332,45.105981 H 35.81274 c 3.608059,-5.041943 5.518206,-10.768144 6.097194,-15.981577 0.651997,-5.86458 -0.170641,-11.226579 -2.863525,-14.965376 L 58.076582,4.6439403 57.152919,2.7040785 37.659217,12.495926 c -0.635867,-0.578139 -1.559531,-0.826882 -2.399997,-0.646905 -0.22667,0.06452 -0.444002,0.157906 -0.646902,0.277608 l -10.900581,5.450291 0.739439,1.478031 -21.8020109,10.900582 0.923663,1.939861 21.8011619,-10.900581 0.73944,1.478031 8.591424,-4.24902 c 1.287863,2.283688 2.349058,5.842508 1.848173,10.346213 -0.609548,5.485948 -3.102929,11.601819 -7.944519,16.535944 -4.992703,0 -9.505747,0 -14.46704,0 -0.903289,0.01188 -1.775166,0.580686 -2.068905,1.201272 -5.8340169,11.666339 -5.8340169,28.423859 0,40.091895 0.35826,0.770002 1.092606,1.197027 1.939864,1.201271 H 46.71417 c 0.848955,-0.0043 1.579905,-0.435514 1.939862,-1.201271 5.833169,-11.667187 5.833169,-28.424708 0,-40.091895 -0.376087,-0.745383 -1.10534,-1.207214 -1.940712,-1.201272 z M 27.683147,66.075168 c -5.198151,0 -10.639952,0 -15.426359,0 0.01527,-5.912122 1.097698,-11.839526 3.23367,-16.62848 h 12.193539 v 16.62848 z m 5.358603,0 V 49.447537 h 12.19354 c 2.127482,4.787257 3.140284,10.732488 3.233669,16.62848 -5.144666,-0.0016 -10.176422,-0.0016 -15.427209,-8.49e-4 z" /><path
     d="M 46.71332,45.105981 H 35.81274 c 3.608059,-5.041943 5.518206,-10.768144 6.097194,-15.981577 0.651997,-5.86458 -0.170641,-11.226579 -2.863525,-14.965376 L 58.076582,4.6439403 57.152919,2.7040785 37.659217,12.495926 c -0.635867,-0.578139 -1.559531,-0.826882 -2.399997,-0.646905 -0.22667,0.06452 -0.444002,0.157906 -0.646902,0.277608 l -10.900581,5.450291 0.739439,1.478031 -21.8020109,10.900582 0.923663,1.939861 21.8011619,-10.900581 0.73944,1.478031 8.591424,-4.24902 c 1.287863,2.283688 2.349058,5.842508 1.848173,10.346213 -0.609548,5.485948 -3.102929,11.601819 -7.944519,16.535944 -4.992703,0 -9.505747,0 -14.46704,0 -0.903289,0.01188 -1.775166,0.580686 -2.068905,1.201272 -5.8340169,11.666339 -5.8340169,28.423859 0,40.091895 0.35826,0.770002 1.092606,1.197027 1.939864,1.201271 H 46.71417 c 0.848955,-0.0043 1.579905,-0.435514 1.939862,-1.201271 5.833169,-11.667187 5.833169,-28.424708 0,-40.091895 -0.376087,-0.745383 -1.10534,-1.207214 -1.940712,-1.201272 z M 27.683147,66.075168 c -5.198151,0 -10.639952,0 -15.426359,0 0.01527,-5.912122 1.097698,-11.839526 3.23367,-16.62848 h 12.193539 v 16.62848 z m 5.358603,0 V 49.447537 h 12.19354 c 2.127482,4.787257 3.140284,10.732488 3.233669,16.62848 -5.144666,-0.0016 -10.176422,-0.0016 -15.427209,-8.49e-4 z"
     id="path2"
     inkscape:connector-curvature="0"
     style="fill:#0092da;fill-opacity:1;stroke-width:0.84895492" /></svg>