<?xml version="1.0" encoding="UTF-8"?>
<svg version="1.1" viewBox="0 0 100 100" xmlns="http://www.w3.org/2000/svg">
<g transform="translate(0 -958.61)" fill="#0092da" stroke="#fff" stroke-width="3">
<g transform="matrix(.56097 0 0 .56097 -.4869 468.82)">
<g transform="translate(-20.005 -.19876)">
<path d="m78.558 913.46c-4.9561-2.5125-11-0.55658-13.497 4.3694-0.46823 0.92363-0.7617 1.8891-0.92427 2.8599l-3.6566 11.705c-1.6808 5.3502-3.3775 10.713-5.0503 16.044l0.02795 0.0137c-0.88577 2.8225-0.46002 5.8142 1.0444 8.2374l-0.04199 0.0137 0.29131 0.39294 18.692 26.643c0.50208 0.72766 1.1192 1.3734 1.8762 1.8971l-6.155 25.599c-0.61437 2.243 0.41227 4.6936 2.5674 5.7862 2.463 1.2485 5.4719 0.2641 6.7205-2.1989 0.18105-0.3571 0.32186-0.7147 0.41132-1.0878l7.3856-30.791c0.0143-0.0273 0.0284-0.056 0.0424-0.0836 1.2943-2.5532 0.98733-5.51-0.54428-7.7036l-13.727-19.47c0.19357-0.41286 0.33482-0.84526 0.46823-1.2692l0.05574 0.0283 4.0259-12.779 5.0793-16.239-0.02795-0.0137c1.427-4.58-0.616-9.67-5.063-11.92z"/>
<path d="m76.83 906.02c6.1565 3.121 13.706 0.65105 16.827-5.5055 3.121-6.1565 0.63395-13.672-5.5226-16.793-6.1565-3.121-13.655-0.66769-16.776 5.4888s-0.68479 13.689 5.4717 16.81"/>
</g>
<g transform="translate(49.995 -.19876)">
<path d="m78.558 913.46c-4.9561-2.5125-11-0.55658-13.497 4.3694-0.46823 0.92363-0.7617 1.8891-0.92427 2.8599l-3.6566 11.705c-1.6808 5.3502-3.3775 10.713-5.0503 16.044l0.02795 0.0137c-0.88577 2.8225-0.46002 5.8142 1.0444 8.2374l-0.04199 0.0137 0.29131 0.39294 18.692 26.643c0.50208 0.72766 1.1192 1.3734 1.8762 1.8971l-6.155 25.599c-0.61437 2.243 0.41227 4.6936 2.5674 5.7862 2.463 1.2485 5.4719 0.2641 6.7205-2.1989 0.18105-0.3571 0.32186-0.7147 0.41132-1.0878l7.3856-30.791c0.0143-0.0273 0.0284-0.056 0.0424-0.0836 1.2943-2.5532 0.98733-5.51-0.54428-7.7036l-13.727-19.47c0.19357-0.41286 0.33482-0.84526 0.46823-1.2692l0.05574 0.0283 4.0259-12.779 5.0793-16.239-0.02795-0.0137c1.427-4.58-0.616-9.67-5.063-11.92z"/>
<path d="m76.83 906.02c6.1565 3.121 13.706 0.65105 16.827-5.5055 3.121-6.1565 0.63395-13.672-5.5226-16.793-6.1565-3.121-13.655-0.66769-16.776 5.4888s-0.68479 13.689 5.4717 16.81"/>
</g>
<path transform="translate(0 872.36)" d="m20 150c-5.5228 0-10 4.4772-10 10s4.4772 10 10 10 10-4.4772 10-10c0-1.817-0.49674-3.5316-1.3438-5h122.69c-0.85 1.47-1.35 3.18-1.35 5 0 5.5228 4.4772 10 10 10s10-4.4772 10-10-4.4772-10-10-10z"/>
</g>
</g>
</svg>
