<?xml version="1.0" encoding="UTF-8"?>
<svg width="580" height="580" version="1.0" xmlns="http://www.w3.org/2000/svg">
<path id="b" d="m155 122.65c-6.2679 8.4e-4 -11.349 5.0817-11.35 11.35v361c1.8e-4 5.2084 3.5439 9.7492 7.6465 10.6l51.803 0.84961c6.2679-8.4e-4 11.349-5.0817 11.35-11.35v-135.65h80.65c52.863 0 91.544-10.651 113.48-34.793 21.939-24.142 32.867-53.342 32.867-86.457 0-19.146-3.9481-37.44-12.055-53.988-8.0048-16.44-18.905-29.747-32.639-39.246-13.62-9.4206-30.078-15.534-49.033-18.75-13.881-2.3859-32.443-3.5644-56.723-3.5644h-136zm59.551 65.5h80.648c21.151 0 35.917 1.353 41.549 2.8164 9.8892 2.7501 17.462 8.0439 23.67 16.865 6.1578 8.7506 9.332 19.184 9.332 32.268 0 18.506-5.2232 30.834-15.539 40.064-10.081 8.6746-29.194 14.486-58.512 14.486h-81.148v-106.5z" color="#000000" color-rendering="auto" fill="none" image-rendering="auto" opacity=".8" shape-rendering="auto" solid-color="#000000" stroke="#fff" stroke-linejoin="round" stroke-width="64" filter-blend-mode="normal" filter-gaussianBlur-deviation="0" isolation="auto" mix-blend-mode="normal"/>
<path id="a" d="m155 122.65c-6.2679 8.4e-4 -11.349 5.0817-11.35 11.35v361c1.8e-4 5.2084 3.5439 9.7492 7.6465 10.6l51.803 0.84961c6.2679-8.4e-4 11.349-5.0817 11.35-11.35v-135.65h80.65c52.863 0 91.544-10.651 113.48-34.793 21.939-24.142 32.867-53.342 32.867-86.457 0-19.146-3.9481-37.44-12.055-53.988-8.0048-16.44-18.905-29.747-32.639-39.246-13.62-9.4206-30.078-15.534-49.033-18.75-13.881-2.3859-32.443-3.5644-56.723-3.5644h-136zm59.551 65.5h80.648c21.151 0 35.917 1.353 41.549 2.8164 9.8892 2.7501 17.462 8.0439 23.67 16.865 6.1578 8.7506 9.332 19.184 9.332 32.268 0 18.506-5.2232 30.834-15.539 40.064-10.081 8.6746-29.194 14.486-58.512 14.486h-81.148v-106.5z" fill="#0092da"/>
</svg>
