<?xml version="1.0" encoding="UTF-8"?>
<svg version="1.0" viewBox="0 0 12 12" xmlns="http://www.w3.org/2000/svg" xmlns:cc="http://creativecommons.org/ns#" xmlns:dc="http://purl.org/dc/elements/1.1/" xmlns:rdf="http://www.w3.org/1999/02/22-rdf-syntax-ns#" xmlns:xlink="http://www.w3.org/1999/xlink">
<path d="m455.38-524.57v265.04" fill="#0092da" fill-rule="evenodd" stroke="url(#h)" stroke-linecap="round" stroke-linejoin="round" stroke-width="30"/>
<metadata>
<rdf:RDF>
<cc:Work rdf:about="">
<dc:format>image/svg+xml</dc:format>
<dc:type rdf:resource="http://purl.org/dc/dcmitype/StillImage"/>
<cc:license rdf:resource="http://web.resource.org/cc/PublicDomain"/>
<dc:language>en</dc:language>
<dc:title/>
</cc:Work>
</rdf:RDF>
</metadata>
<defs>
<style type="text/css">.fil0 {fill:#EF7900}</style>
<radialGradient id="i" cx="455.37" cy="175.4" r="83.076" gradientTransform="matrix(1,0,0,1.5843,0,-102.5)" gradientUnits="userSpaceOnUse">
<stop stop-color="#0092da" offset="0"/>
<stop stop-color="#0092da" stop-opacity="0" offset="1"/>
</radialGradient>
<radialGradient id="f" cx="189.04" cy="244.1" r="141.16" gradientTransform="matrix(1 0 0 1.3101 0 -643.7)" gradientUnits="userSpaceOnUse">
<stop stop-color="#0092da" offset="0"/>
<stop stop-color="#0092da" stop-opacity="0" offset="1"/>
</radialGradient>
<radialGradient id="g" cx="336.16" cy="442.77" r="135.84" gradientTransform="matrix(1 0 0 .83631 0 -495.52)" gradientUnits="userSpaceOnUse">
<stop stop-color="#0092da" offset="0"/>
<stop stop-color="#0092da" stop-opacity="0" offset="1"/>
</radialGradient>
<radialGradient id="h" cx="455.38" cy="175.95" r="15.002" gradientTransform="matrix(1,0,0,9.848,0,-2124.8)" gradientUnits="userSpaceOnUse">
<stop stop-color="#fff" offset="0"/>
<stop stop-color="#fff" stop-opacity="0" offset="1"/>
</radialGradient>
<radialGradient id="e" cx="455.37" cy="175.4" r="83.076" gradientTransform="matrix(1,0,0,1.5843,0,-102.5)" gradientUnits="userSpaceOnUse" xlink:href="#i"/>
</defs>
<g transform="matrix(.02409 0 0 .023275 -1.0584 12.235)" fill="#0092da">
<path d="m277.59-238.83c-17.155 0-26.255 9.3653-30.456 20.328l-22.301 57.583c-8.8405 1.1336-24.512 11.511-24.512 31.169v73.227h21.707v23.418c0 28.812 40.774 28.472 40.774 0v-23.418h146.72v23.418c0 28.472 40.774 28.812 40.774 0v-23.418h21.707v-73.227c0-19.658-15.671-30.036-24.512-31.169l-22.325-57.583c-4.2012-10.962-13.301-20.328-30.456-20.328h-117.12zm-0.26154 20.97h117.64c7.3516 0.0685 10.5 4.666 12.601 11.032l16.809 45.315h-176.46l16.809-45.315c2.1006-6.3656 5.2484-10.963 12.601-11.032zm-34.26 78.386c10.402 0 18.83 8.6792 18.83 19.4-1e-5 10.722-8.4274 19.424-18.83 19.424-10.402 0-18.83-8.7022-18.83-19.424 0-10.721 8.4282-19.4 18.83-19.4zm186.18 0c10.402 0 18.83 8.6792 18.83 19.4 0 10.722-8.4274 19.424-18.83 19.424-10.402 0-18.854-8.7022-18.854-19.424 0-10.721 8.452-19.4 18.854-19.4z" stroke="url(#g)"/>
<path d="m47.879-138.96v-369.88h139.52c24.557 3.7e-4 43.312 1.1778 56.263 3.5322 18.166 3.028 33.388 8.7889 45.667 17.283 12.278 8.4945 22.16 20.395 29.646 35.701 7.4847 15.307 11.227 32.127 11.227 50.46-3.2e-4 31.454-10.008 58.072-30.024 79.854s-56.18 32.673-108.49 32.673h-94.866v150.37h-48.947zm48.947-194.02h95.623c31.622 2e-4 54.077-5.8868 67.365-17.661 13.288-11.774 19.932-28.342 19.932-49.704-2.7e-4 -15.474-3.911-28.72-11.732-39.738-7.8216-11.017-18.124-18.292-30.907-21.824-8.2421-2.1863-23.464-3.2796-45.667-3.2799h-94.613v132.21z" stroke="url(#f)" stroke-width="1px"/>
<g transform="translate(0,-568)" stroke="url(#e)">
<g fill="#0092da" stroke="url(#e)">
<path transform="scale(1.0867 .92021)" d="m428.27 167.18c0.21028 0.10532 0.99921 0.3157 2.3668 0.63114 21.564 4.2078 37.763 11.887 48.598 23.037 10.834 11.15 16.252 25.772 16.252 43.864-1.6e-4 18.514-5.9434 34.555-17.83 48.125-11.887 13.57-28.349 20.933-49.387 22.09v28.717h-16.883v-28.401c-21.459-2.4194-37.921-9.3882-49.387-20.907-11.466-11.518-17.935-27.639-19.408-48.361l28.401-5.0492c2.209 15.568 6.6796 27.56 13.412 35.975 6.7321 8.4153 15.726 13.201 26.981 14.358v-90.411c-21.354-4.6283-37.343-12.36-47.967-23.194s-15.936-24.772-15.936-41.813c-2e-5 -16.935 5.2595-31.478 15.779-43.628 10.519-12.149 26.561-19.171 48.125-21.064v-13.57h16.883v13.57c17.882 1.7885 31.978 7.4688 42.287 17.041 10.309 9.5725 16.778 22.984 19.408 40.235l-29.506 4.2602c-1.6832-10.729-5.207-19.223-10.572-25.482-5.3648-6.2586-12.57-10.282-21.617-12.071v82.049zm-16.883-3.4713v-78.893c-11.466 1.9988-20.249 6.6009-26.35 13.806-6.1011 7.2057-9.1516 15.542-9.1516 25.009-5e-5 10.835 3.1557 19.382 9.4671 25.64 6.3114 6.259 14.99 11.071 26.035 14.437zm16.883 117.55c11.045-1.683 20.144-6.4955 27.297-14.437 7.1528-7.9418 10.729-17.961 10.729-30.058-1.4e-4 -10.624-2.7088-19.171-8.126-25.64-5.4174-6.4691-15.384-11.965-29.9-16.489z" fill="#0092da" stroke="url(#e)" stroke-width="1px"/>
</g>
</g>
</g>
</svg>
