<?xml version="1.0" encoding="UTF-8"?>
<svg width="580" height="580" version="1.0" xmlns="http://www.w3.org/2000/svg">
<path id="c" d="m350.2 236.8-1.6 22 36 0.1c15.7 3.2-8.7 10.7-11 19-1.6 9.4 2.4 17.9 4.4 25.6l-164 0.8-9.7-23.7c10.4-2.4 35.8-8.4 39-11.8 4.1-3.8 0-9.4-3.2-9.4h-85c1.1 18.8 15.8 22.9 23.8 24l9.4 23c-10.7 20-21 37-31 56-83-24-122 38.6-123 84 0 50 40 90 90 90 46.6 0 85-35.7 90-81h21.5c2.4 4.4 6.4 8 11.3 10.3l-9 21-16.2 0.1c-9 1.2-6.7 12.4 0.1 12.5l36-0.3c9.2-1.1 6.8-12.5-0.1-12.5l-10.3 0.1 7.9-18.4c23 1.9 31.7-15.6 29-27.5l112-76c1 3.4 1.9 6.7 2.9 9.9-20.5 16.5-33.7 41.8-33.7 70 0 50 40 90 90 90s90-40 90-90c-3-57-47.9-104-124-83-10-23.9-21.9-61-22.9-75 1.7-9.7 16-10.5 18.4-23-1.7-23.9-21.3-27.7-41.1-27.6-9.1 0-18.3 0.8-25.9 0.8zm39.6 107.2h-0.1c-37.6 26.9-75 53.9-114 79l7.7-17.6c7.2-0.2 6.6-0.1 15-0.6 9.2-1.7 6-12.4 0.1-12.4l-36 0.3c-9.2 1.1-6.8 12.5 0.1 12.5l10.3-0.1-7.7 17.9c-0.7-0.2-1.5-0.3-2.2-0.4l-39.9-98c37 0 104-0.2 160.95-0.4 1.75 6.1 3.65 12.8 5.75 19.8zm-149.7 86.4c-1.4 1.4-2.6 3-3.6 4.7h-22c-3.4-25.7-17.4-47.7-37-61.7l22.7-42zm280.2 14.6c0.1 35.7-28.6 64-63.9 64l0.2 0.4c-58.8-3.1-81-59-48-107 4.2 15.2 11 31.5 22 41.6l0.2 0.2c32.5 29.6 53 5.1 15.3-18.2-8-11.2-12.5-25-16.8-39 10.6-4.9 20.5-7 29.9-6.9 36.1 0.2 60.1 33.8 61.1 64.9zm-373.2-58.5-29 53.9c-3.7 6.8 1.3 15 9 15h62.8c-4.3 31.5-31 56-63.8 56-35.7 0-64-28.6-64-64-0.1-35 23.4-64 62-64.1 7.2-0.1 14.8 1 23 3.2zm41.6 49.3h-44.9l21-39c12.3 9.5 21 23.3 23.9 39z" color="#000000" color-rendering="auto" fill="none" image-rendering="auto" opacity=".8" shape-rendering="auto" solid-color="#000000" stroke="#fff" stroke-linejoin="round" stroke-width="64" filter-blend-mode="normal" filter-gaussianBlur-deviation="0" isolation="auto" mix-blend-mode="normal"/>
<path id="a" d="m125 144.6c8 37.5 45.9 68 85 62 24.7-2.4 47.9-17 61-38 11.7-5.5 26.3 3.4 37-5.5 8.4-5.3 14.3-22 24.8-18.9 5.9 4 10 14.8 18.4 13 8.6-4 15.7-22.6 24-7.9 4.2 5.2 12.7 13 18.6 5.2 7.1-11.5 17-15 24.5-1.8 5.4 7 12.8 5.5 19.5-1.2 8.5-8.9 18.6-17.6 23.8-28.9-0.6-11.6-8.6-16.6-17.6-24.6-15-15-28-11-42-11-44-1-91 1-131-1-18-26-39-40-70-39.4-48-0.8-88 51-76 98zm48-37c17.3 1.6 24.9 29 8.6 38-13.7 8.7-35-2.8-31.6-19.9 2.8-13 12.6-19 23-18z" color="#000000" color-rendering="auto" fill="none" image-rendering="auto" opacity=".8" shape-rendering="auto" solid-color="#000000" stroke="#fff" stroke-linejoin="round" stroke-width="64" filter-blend-mode="normal" filter-gaussianBlur-deviation="0" isolation="auto" mix-blend-mode="normal"/>
<path id="d" d="m350.2 236.8-1.6 22 36 0.1c15.7 3.2-8.7 10.7-11 19-1.6 9.4 2.4 17.9 4.4 25.6l-164 0.8-9.7-23.7c10.4-2.4 35.8-8.4 39-11.8 4.1-3.8 0-9.4-3.2-9.4h-85c1.1 18.8 15.8 22.9 23.8 24l9.4 23c-10.7 20-21 37-31 56-83-24-122 38.6-123 84 0 50 40 90 90 90 46.6 0 85-35.7 90-81h21.5c2.4 4.4 6.4 8 11.3 10.3l-9 21-16.2 0.1c-9 1.2-6.7 12.4 0.1 12.5l36-0.3c9.2-1.1 6.8-12.5-0.1-12.5l-10.3 0.1 7.9-18.4c23 1.9 31.7-15.6 29-27.5l112-76c1 3.4 1.9 6.7 2.9 9.9-20.5 16.5-33.7 41.8-33.7 70 0 50 40 90 90 90s90-40 90-90c-3-57-47.9-104-124-83-10-23.9-21.9-61-22.9-75 1.7-9.7 16-10.5 18.4-23-1.7-23.9-21.3-27.7-41.1-27.6-9.1 0-18.3 0.8-25.9 0.8zm39.6 107.2h-0.1c-37.6 26.9-75 53.9-114 79l7.7-17.6c7.2-0.2 6.6-0.1 15-0.6 9.2-1.7 6-12.4 0.1-12.4l-36 0.3c-9.2 1.1-6.8 12.5 0.1 12.5l10.3-0.1-7.7 17.9c-0.7-0.2-1.5-0.3-2.2-0.4l-39.9-98c37 0 104-0.2 160.95-0.4 1.75 6.1 3.65 12.8 5.75 19.8zm-149.7 86.4c-1.4 1.4-2.6 3-3.6 4.7h-22c-3.4-25.7-17.4-47.7-37-61.7l22.7-42zm280.2 14.6c0.1 35.7-28.6 64-63.9 64l0.2 0.4c-58.8-3.1-81-59-48-107 4.2 15.2 11 31.5 22 41.6l0.2 0.2c32.5 29.6 53 5.1 15.3-18.2-8-11.2-12.5-25-16.8-39 10.6-4.9 20.5-7 29.9-6.9 36.1 0.2 60.1 33.8 61.1 64.9zm-373.2-58.5-29 53.9c-3.7 6.8 1.3 15 9 15h62.8c-4.3 31.5-31 56-63.8 56-35.7 0-64-28.6-64-64-0.1-35 23.4-64 62-64.1 7.2-0.1 14.8 1 23 3.2zm41.6 49.3h-44.9l21-39c12.3 9.5 21 23.3 23.9 39z" fill="#0092da"/>
<path id="b" d="m125 144.6c8 37.5 45.9 68 85 62 24.7-2.4 47.9-17 61-38 11.7-5.5 26.3 3.4 37-5.5 8.4-5.3 14.3-22 24.8-18.9 5.9 4 10 14.8 18.4 13 8.6-4 15.7-22.6 24-7.9 4.2 5.2 12.7 13 18.6 5.2 7.1-11.5 17-15 24.5-1.8 5.4 7 12.8 5.5 19.5-1.2 8.5-8.9 18.6-17.6 23.8-28.9-0.6-11.6-8.6-16.6-17.6-24.6-15-15-28-11-42-11-44-1-91 1-131-1-18-26-39-40-70-39.4-48-0.8-88 51-76 98zm48-37c17.3 1.6 24.9 29 8.6 38-13.7 8.7-35-2.8-31.6-19.9 2.8-13 12.6-19 23-18z" fill="#0092da"/>
</svg>
