<?xml version="1.0" encoding="UTF-8"?>
<svg version="1.1" viewBox="0 0 16 16" xmlns="http://www.w3.org/2000/svg" xmlns:cc="http://creativecommons.org/ns#" xmlns:dc="http://purl.org/dc/elements/1.1/" xmlns:rdf="http://www.w3.org/1999/02/22-rdf-syntax-ns#">
<metadata>
<rdf:RDF>
<cc:Work rdf:about="">
<dc:format>image/svg+xml</dc:format>
<dc:type rdf:resource="http://purl.org/dc/dcmitype/StillImage"/>
<dc:title/>
</cc:Work>
</rdf:RDF>
</metadata>
<rect width="16" height="16" fill="none" visibility="hidden"/>
<path transform="translate(1,1)" d="m3.5 0c-1.3807 0-2.5 1.1193-2.5 2.5s1.1193 2.5 2.5 2.5c0.92534 0 1.724-0.50276 2.1562-1.25h1.3438l1-1 1 1 1-1 1 1h0.5l1.5-1.25-1.5-1.25h-5.8438c-0.43226-0.74724-1.2309-1.25-2.1562-1.25zm-1 2c0.27614 0 0.5 0.22386 0.5 0.5s-0.22386 0.5-0.5 0.5-0.5-0.22386-0.5-0.5 0.22386-0.5 0.5-0.5zm5.5 3.4375 0.03125 1 0.96875 0.5625v1h-4v-1h0.5c1 0 1-1 0-1h-2c-1 0-1 1 0 1h0.5v1l-0.5625 1.375c-0.04165-0.0023-0.08284 0-0.125 0-1.2705 0-2.3125 1.042-2.3125 2.3125s1.042 2.3125 2.3125 2.3125 2.3125-1.042 2.3125-2.3125c0-0.24002-0.05543-0.4686-0.125-0.6875h1.5l2.156-2h2.5e-4l0.28125 0.71875c-0.63964 0.4169-1.0625 1.1588-1.0625 1.9688 0 1.2705 1.042 2.3125 2.3125 2.3125s2.3438-1.042 2.3438-2.3125-1.0733-2.3125-2.3438-2.3125c-0.04216 0-0.08335-0.0023-0.125 0l-0.5625-1.375v-1.375zm-3.1562 3.5625h3.1122l-1.306 1.25h-1.5562c-0.15386-0.18772-0.32746-0.39842-0.53125-0.53125zm-1.5312 1.5c0.6625 0 1.1875 0.525 1.1875 1.1875s-0.525 1.1875-1.1875 1.1875-1.1875-0.525-1.1875-1.1875 0.525-1.1875 1.1875-1.1875zm7.375 0c0.6625 0 1.1875 0.525 1.1875 1.1875s-0.525 1.1875-1.1875 1.1875-1.1562-0.525-1.1562-1.1875 0.49375-1.1875 1.1562-1.1875z" fill="#0092da"/>
</svg>
