<?xml version="1.0" encoding="UTF-8"?>
<svg id="j" width="580" height="580" version="1.0" xmlns="http://www.w3.org/2000/svg" xmlns:cc="http://creativecommons.org/ns#" xmlns:dc="http://purl.org/dc/elements/1.1/" xmlns:rdf="http://www.w3.org/1999/02/22-rdf-syntax-ns#">
<metadata id="i">
<rdf:RDF>
<cc:Work rdf:about="">
<dc:format>image/svg+xml</dc:format>
<dc:type rdf:resource="http://purl.org/dc/dcmitype/StillImage"/>
<cc:license rdf:resource="http://web.resource.org/cc/PublicDomain"/>
<dc:language>en</dc:language>
<dc:title/>
</cc:Work>
</rdf:RDF>
</metadata>
<defs id="f">
<style id="d" type="text/css">.fil0 {fill:#EF7900}</style>
</defs>
<g id="c" transform="translate(879.29 36.805)"></g>
<g id="h" transform="translate(879.29 36.805)"></g>
<g id="e" transform="matrix(.97546 0 0 .97546 7.155 7.2573)" stroke="#0092da">
<path id="g" transform="matrix(8.5168 0 0 8.5168 20.132 77.69)" d="m56.645 29.29a24.774 24.774 0 0 1-24.774 24.774 24.774 24.774 0 0 1-24.774-24.774 24.774 24.774 0 0 1 24.774-24.774 24.774 24.774 0 0 1 24.774 24.774z" fill="#fff" opacity=".5" stroke-linecap="round" stroke-linejoin="round" stroke-width="5"/>
<path id="a" d="m238.34 192.78h-28.781c-35.149 0-63.164 28.778-63.164 63.928v130.15c0 28.12 18.057 51.739 43.298 60.107v20.121h22.413v-16.046h156.64v16.046h22.413v-19.357c26.364-7.7736 45.589-31.902 45.589-60.872v-130.15c0-35.15-28.014-63.928-63.163-63.928h-32.855-102.39zm76.917 0h-51.193 51.193zm-119.96 31.072h187.71c13.37 0 24.96 10.572 24.96 23.941v88.633c0 13.369-11.59 23.941-24.96 23.941h-187.71c-13.369 0-24.705-10.572-24.705-23.941v-88.633c0-13.369 11.335-23.941 24.705-23.941zm6.8771 154.6c11.03 0 19.866 9.0906 19.866 20.12 0 11.03-8.8363 19.866-19.866 19.866s-19.866-8.8364-19.866-19.866c0-11.03 8.8363-20.12 19.866-20.12zm173.95 0c11.03 0 20.121 9.0906 20.121 20.12 0 11.03-9.0915 19.866-20.121 19.866-11.03 0-19.866-8.8364-19.866-19.866 0-11.03 8.8364-20.12 19.866-20.12z" fill="#0092da"/>
<rect id="b" x="47.067" y="32.045" width="489.01" height="40.751" fill="#0092da" fill-rule="evenodd" opacity=".5"/>
</g>
</svg>
