<?xml version="1.0" encoding="UTF-8"?>
<svg enable-background="new 0 0 48 48" version="1.1" viewBox="0 0 48 48" xml:space="preserve" xmlns="http://www.w3.org/2000/svg"><path d="m18.3 12.592v0.75606c0 0.66027-0.01992 0.75711-0.15586 0.75879-0.26938 0.0034-0.94324 0.3523-1.2523 0.64805-0.47404 0.45356-0.67007 0.91185-0.67266 1.5764-0.0042 1.0658 0.58792 1.7329 2.0904 2.3557 1.1184 0.46358 1.6507 0.88576 1.8047 1.4547 0.29487-0.31618 0.6039-0.61762 0.93105-0.89688-0.28853-0.52485-0.8605-0.91415-1.9893-1.4492-1.4926-0.70755-1.8409-1.0891-1.6967-1.858 0.13388-0.71365 0.79759-1.0855 1.8102-1.0131 0.3313 0.0237 0.79314 0.12772 1.0268 0.23106l0.4252 0.18867 0.0916-0.24199c0.25558-0.67063 0.24176-0.70099-0.41016-0.90234-0.32866-0.10151-0.73347-0.18457-0.89961-0.18457h-0.30215v-1.4232h-0.80117zm-1.8566 8.8252-0.13809 0.40605c-0.09975 0.29275-0.11224 0.43973-0.04375 0.52227 0.13448 0.16204 0.92211 0.40925 1.5025 0.47168l0.45664 0.04785c0.16521-0.33241 0.35044-0.65125 0.54414-0.9625-0.57342 0.07303-1.2884-0.01073-1.8156-0.25293l-0.50586-0.23242z" fill="#fff" stroke="#fff" stroke-width=".26695"/><path d="m29.155 33.643-0.02584-0.73411-0.49138-0.05286c-0.58043-0.06243-1.3687-0.30995-1.5032-0.472-0.06849-0.08253-0.05632-0.2287 0.04343-0.52145l0.1386-0.40677 0.50587 0.23238c0.7387 0.33934 1.8572 0.38205 2.4183 0.09234 0.52673-0.27199 0.80166-0.69082 0.80123-1.2206-6.31e-4 -0.77572-0.50429-1.2727-1.8587-1.8341-1.5025-0.62278-2.0947-1.2902-2.0905-2.3561 0.0026-0.66452 0.19764-1.122 0.67169-1.5755 0.3091-0.29574 0.98418-0.64483 1.2536-0.64821 0.13594-0.0017 0.15572-0.09804 0.15572-0.75831v-0.75636h0.80084v1.4237h0.30207c0.16614 0 0.57097 0.08306 0.89963 0.18457 0.65192 0.20136 0.66557 0.23139 0.40998 0.90202l-0.09194 0.24125-0.42475-0.18789c-0.23361-0.10334-0.69581-0.20728-1.0271-0.23099-1.0126-0.07245-1.6766 0.29896-1.8105 1.0126-0.14426 0.76896 0.20403 1.1503 1.6967 1.8579 1.7333 0.82162 2.1668 1.2943 2.25 2.4527 0.03373 0.46982 0.0031 0.67146-0.15889 1.0482-0.27021 0.62812-0.93051 1.2176-1.5731 1.4044l-0.48656 0.14145 0.1246 1.4958h-0.90368l-0.02584-0.73411z" fill="#fff" stroke="#fff" stroke-width=".26695"/><path d="m18.188 22.977c-0.7777-0.0273-1.5652-0.2569-2.0377-0.5887l0.3255-0.9653c0.5138 0.336 1.253 0.5978 2.0468 0.5873 0.0826-0.0014 0.1596-0.0126 0.2373-0.021 0.406-0.637 0.8638-1.2306 1.3678-1.7794-0.161-0.574-0.6888-0.9653-1.5652-1.3111-1.4511-0.5516-2.352-1.1991-2.3681-2.4472-0.0175-1.1879 0.8043-2.1042 2.1028-2.3373l-0.0203-1.4476 0.8771-0.014 0.0196 1.3895c0.8491 0.0182 1.4322 0.2387 1.8459 0.4767l-0.3402 0.9499c-0.2996-0.1659-0.8848-0.4739-1.7892-0.4599-1.0892 0.0147-1.4903 0.6804-1.4826 1.253 0.0105 0.7455 0.539 1.1102 1.778 1.6079 0.9247 0.3668 1.5603 0.7966 1.9103 1.3825 2.2491-1.9726 5.1716-3.1276 8.3188-3.1276 0.0574 0 0.1148 0.0056 0.1722 0.0063-0.9555-3.7114-3.7051-6.867-7.574-8.1053-1.1165-0.3577-2.2715-0.539-3.4314-0.539-4.9875 0-9.3478 3.2389-10.851 8.0605-1.89 6.062 1.4406 12.551 7.4242 14.468 0.5411 0.1722 1.0927 0.3024 1.6478 0.3927-0.1946-1.7325-0.0511-3.5287 0.4991-5.2941 0.2345-0.7497 0.5355-1.4609 0.8869-2.1364z" fill="#0092da"/><path d="m32.846 17.985c-1.1165-0.3577-2.2708-0.539-3.4307-0.539-4.9882 0-9.3485 3.2396-10.852 8.0605-1.89 6.062 1.4406 12.552 7.4249 14.468 1.1172 0.357 2.2722 0.539 3.4328 0.539 4.9861 0 9.3478-3.2389 10.851-8.0612 1.8872-6.062-1.4427-12.552-7.4263-14.467zm-2.7986 14.906 0.021 1.4903-0.8918 0.014-0.0182-1.4476c-0.8218-0.0028-1.6744-0.2485-2.1742-0.5985l0.3262-0.9653c0.5138 0.336 1.253 0.5978 2.0468 0.5866 1.0038-0.0147 1.6744-0.6125 1.6625-1.4287-0.0112-0.7903-0.5691-1.2677-1.6226-1.6828-1.4504-0.5523-2.3513-1.1991-2.3681-2.4472-0.0175-1.1879 0.8043-2.1035 2.1028-2.3366l-0.0196-1.4476 0.8771-0.014 0.0189 1.3902c0.8498 0.0175 1.4329 0.2387 1.8466 0.476l-0.3395 0.9506c-0.3003-0.1652-0.8855-0.4746-1.7899-0.4606-1.0899 0.0161-1.4903 0.6811-1.4819 1.2537 0.0105 0.7448 0.539 1.1102 1.7773 1.6079 1.4651 0.5824 2.2106 1.3181 2.2288 2.5921 0.0154 1.1319-0.7483 2.2022-2.2022 2.4675z" fill="#0092da"/></svg>
