<?xml version="1.0" encoding="UTF-8" standalone="no"?>
<svg
   xmlns:dc="http://purl.org/dc/elements/1.1/"
   xmlns:cc="http://creativecommons.org/ns#"
   xmlns:rdf="http://www.w3.org/1999/02/22-rdf-syntax-ns#"
   xmlns:svg="http://www.w3.org/2000/svg"
   xmlns="http://www.w3.org/2000/svg"
   xmlns:sodipodi="http://sodipodi.sourceforge.net/DTD/sodipodi-0.dtd"
   xmlns:inkscape="http://www.inkscape.org/namespaces/inkscape"
   version="1.1"
   x="0px"
   y="0px"
   viewBox="0 0 48 48"
   enable-background="new 0 0 48 48"
   xml:space="preserve"
   id="svg2"
   inkscape:version="0.91 r13725"
   sodipodi:docname="toll_road.svg"
   width="48"
   height="48"><metadata
     id="metadata18"><rdf:RDF><cc:Work
         rdf:about=""><dc:format>image/svg+xml</dc:format><dc:type
           rdf:resource="http://purl.org/dc/dcmitype/StillImage" /><dc:title></dc:title></cc:Work></rdf:RDF></metadata><defs
     id="defs16" /><sodipodi:namedview
     pagecolor="#ffffff"
     bordercolor="#666666"
     borderopacity="1"
     objecttolerance="10"
     gridtolerance="10"
     guidetolerance="10"
     inkscape:pageopacity="0"
     inkscape:pageshadow="2"
     inkscape:window-width="1298"
     inkscape:window-height="783"
     id="namedview14"
     showgrid="false"
     inkscape:zoom="3.9333333"
     inkscape:cx="-7.6525424"
     inkscape:cy="30"
     inkscape:window-x="0"
     inkscape:window-y="40"
     inkscape:window-maximized="0"
     inkscape:current-layer="svg2" /><g
     id="g4"
     style="fill:#0092da;fill-opacity:1"><path
       d="m 36.637,15.407 c -1.595,-0.511 -3.244,-0.77 -4.901,-0.77 -7.126,0 -13.355,4.628 -15.503,11.515 -2.7,8.66 2.058,17.932 10.607,20.668 1.596,0.51 3.246,0.77 4.904,0.77 7.123,0 13.354,-4.627 15.502,-11.516 2.696,-8.66 -2.061,-17.931 -10.609,-20.667 z m -3.998,21.294 0.03,2.129 -1.274,0.02 -0.026,-2.068 c -1.174,-0.004 -2.392,-0.355 -3.106,-0.855 l 0.466,-1.379 c 0.734,0.48 1.79,0.854 2.924,0.838 1.434,-0.021 2.392,-0.875 2.375,-2.041 -0.016,-1.129 -0.813,-1.811 -2.318,-2.404 -2.072,-0.789 -3.359,-1.713 -3.383,-3.496 -0.025,-1.697 1.149,-3.005 3.004,-3.338 l -0.028,-2.068 1.253,-0.02 0.027,1.986 c 1.214,0.025 2.047,0.341 2.638,0.68 l -0.485,1.358 c -0.429,-0.236 -1.265,-0.678 -2.557,-0.658 -1.557,0.023 -2.129,0.973 -2.117,1.791 0.015,1.064 0.77,1.586 2.539,2.297 2.093,0.832 3.158,1.883 3.184,3.703 0.022,1.617 -1.069,3.146 -3.146,3.525 z"
       id="path6"
       style="fill:#0092da;fill-opacity:1"
       inkscape:connector-curvature="0" /><path
       d="M 15.697,22.539 C 14.586,22.5 13.461,22.172 12.786,21.698 l 0.465,-1.379 c 0.734,0.48 1.79,0.854 2.924,0.839 0.118,-0.002 0.228,-0.018 0.339,-0.03 0.58,-0.91 1.234,-1.758 1.954,-2.542 -0.23,-0.82 -0.984,-1.379 -2.236,-1.873 C 14.159,15.925 12.872,15 12.849,13.217 12.824,11.52 13.998,10.211 15.853,9.878 L 15.824,7.81 17.077,7.79 17.105,9.775 c 1.213,0.026 2.046,0.341 2.637,0.681 l -0.486,1.357 c -0.428,-0.237 -1.264,-0.677 -2.556,-0.657 -1.556,0.021 -2.129,0.972 -2.118,1.79 0.015,1.065 0.77,1.586 2.54,2.297 1.321,0.524 2.229,1.138 2.729,1.975 3.213,-2.818 7.388,-4.468 11.884,-4.468 0.082,0 0.164,0.008 0.246,0.009 C 30.616,7.457 26.688,2.949 21.161,1.18 19.566,0.669 17.916,0.41 16.259,0.41 9.134,0.41 2.905,5.037 0.757,11.925 c -2.7,8.66 2.058,17.93 10.606,20.668 0.773,0.246 1.561,0.432 2.354,0.561 -0.278,-2.475 -0.073,-5.041 0.713,-7.563 0.335,-1.071 0.765,-2.087 1.267,-3.052 z"
       id="path8"
       style="fill:#0092da;fill-opacity:1"
       inkscape:connector-curvature="0" /></g></svg>