<?xml version="1.0" encoding="UTF-8" standalone="no"?>
<svg
   xmlns:dc="http://purl.org/dc/elements/1.1/"
   xmlns:cc="http://creativecommons.org/ns#"
   xmlns:rdf="http://www.w3.org/1999/02/22-rdf-syntax-ns#"
   xmlns:svg="http://www.w3.org/2000/svg"
   xmlns="http://www.w3.org/2000/svg"
   xmlns:sodipodi="http://sodipodi.sourceforge.net/DTD/sodipodi-0.dtd"
   xmlns:inkscape="http://www.inkscape.org/namespaces/inkscape"
   version="1.1"
   x="0px"
   y="0px"
   viewBox="0 0 48 48"
   enable-background="new 0 0 48 48"
   xml:space="preserve"
   id="svg2"
   inkscape:version="0.91 r13725"
   sodipodi:docname="toll_road.svg"
   width="48"
   height="48"><metadata
     id="metadata18"><rdf:RDF><cc:Work
         rdf:about=""><dc:format>image/svg+xml</dc:format><dc:type
           rdf:resource="http://purl.org/dc/dcmitype/StillImage" /><dc:title></dc:title></cc:Work></rdf:RDF></metadata><defs
     id="defs16" /><sodipodi:namedview
     pagecolor="#ffffff"
     bordercolor="#666666"
     borderopacity="1"
     objecttolerance="10"
     gridtolerance="10"
     guidetolerance="10"
     inkscape:pageopacity="0"
     inkscape:pageshadow="2"
     inkscape:window-width="1298"
     inkscape:window-height="783"
     id="namedview14"
     showgrid="false"
     inkscape:zoom="7.8666666"
     inkscape:cx="8.8400895"
     inkscape:cy="25.726603"
     inkscape:window-x="0"
     inkscape:window-y="40"
     inkscape:window-maximized="0"
     inkscape:current-layer="svg2"
     showborder="true"
     borderlayer="false" /><path
     style="opacity:1;fill:#ffffff;fill-opacity:1;stroke:#ffffff;stroke-width:0.26694915;stroke-linecap:butt;stroke-miterlimit:4;stroke-dasharray:none;stroke-dashoffset:0;stroke-opacity:1"
     d="m 18.300379,12.592187 0,0.756055 c 0,0.660273 -0.01992,0.757109 -0.15586,0.758789 -0.269375,0.0034 -0.943244,0.352302 -1.252344,0.648047 -0.474045,0.453563 -0.670066,0.911847 -0.672656,1.576367 -0.0042,1.065827 0.587921,1.732883 2.09043,2.355664 1.118416,0.463577 1.650678,0.885764 1.804688,1.454688 0.294874,-0.316175 0.603902,-0.617617 0.931054,-0.896875 -0.288531,-0.52485 -0.860504,-0.914151 -1.989258,-1.449219 -1.492617,-0.707551 -1.840937,-1.089051 -1.696679,-1.858008 0.13388,-0.713646 0.797594,-1.085534 1.810156,-1.013086 0.331298,0.0237 0.793145,0.127717 1.026757,0.231055 l 0.425196,0.188672 0.0916,-0.241993 C 20.969047,14.43171 20.955223,14.401356 20.303308,14.2 19.974647,14.098487 19.569836,14.01543 19.403699,14.01543 l -0.302149,0 0,-0.710938 0,-0.712305 -0.400585,0 -0.400586,0 z m -1.856641,8.825196 -0.138086,0.406054 c -0.09975,0.292754 -0.112245,0.439733 -0.04375,0.522266 0.134485,0.162045 0.922109,0.409247 1.502539,0.47168 l 0.456641,0.04785 c 0.165214,-0.33241 0.350443,-0.651254 0.54414,-0.9625 -0.573425,0.07303 -1.288387,-0.01073 -1.815625,-0.25293 l -0.505859,-0.232421 z"
     id="path4141-4"
     inkscape:connector-curvature="0" /><path
     style="opacity:1;fill:#ffffff;fill-opacity:1;stroke:#ffffff;stroke-width:0.26694915;stroke-linecap:butt;stroke-miterlimit:4;stroke-dasharray:none;stroke-dashoffset:0;stroke-opacity:1"
     d="m 29.155192,33.642861 -0.02584,-0.73411 -0.491385,-0.05286 c -0.580431,-0.06243 -1.368743,-0.309954 -1.503228,-0.472 -0.06849,-0.08253 -0.05632,-0.228697 0.04343,-0.521451 l 0.138602,-0.406773 0.505868,0.232384 c 0.738703,0.339341 1.85723,0.382053 2.418285,0.09234 0.52673,-0.271986 0.801663,-0.690824 0.801233,-1.220613 -6.31e-4,-0.775715 -0.504289,-1.272701 -1.858739,-1.834112 -1.502509,-0.622781 -2.09474,-1.290231 -2.090539,-2.356057 0.0026,-0.664521 0.197641,-1.121973 0.671686,-1.575536 0.309099,-0.295745 0.984185,-0.644826 1.25356,-0.648207 0.135938,-0.0017 0.15572,-0.09804 0.15572,-0.75831 l 0,-0.756356 0.400424,0 0.400424,0 0,0.711864 0,0.711865 0.302067,0 c 0.166138,0 0.570972,0.08306 0.899633,0.184569 0.651915,0.201356 0.665567,0.23139 0.409983,0.902024 l -0.09194,0.241254 -0.42475,-0.187887 c -0.233612,-0.103338 -0.695812,-0.207282 -1.027111,-0.230986 -1.012561,-0.07245 -1.676622,0.298957 -1.810502,1.012603 -0.144258,0.768957 0.204034,1.150349 1.696651,1.8579 1.733256,0.821623 2.166831,1.294256 2.249994,2.452682 0.03373,0.469825 0.0031,0.671465 -0.158891,1.04817 -0.270209,0.628116 -0.930506,1.217592 -1.573145,1.404411 l -0.486556,0.141446 0.0623,0.747924 0.0623,0.747924 -0.451841,0 -0.451842,0 -0.02584,-0.734111 z"
     id="path4141"
     inkscape:connector-curvature="0" /><path
     d="m 18.188083,22.9773 c -0.7777,-0.0273 -1.5652,-0.2569 -2.0377,-0.5887 l 0.3255,-0.9653 c 0.5138,0.336 1.253,0.5978 2.0468,0.5873 0.0826,-0.0014 0.1596,-0.0126 0.2373,-0.021 0.406,-0.637 0.8638,-1.2306 1.3678,-1.7794 -0.161,-0.574 -0.6888,-0.9653 -1.5652,-1.3111 -1.4511,-0.5516 -2.352,-1.1991 -2.3681,-2.4472 -0.0175,-1.1879 0.8043,-2.1042 2.1028,-2.3373 l -0.0203,-1.4476 0.8771,-0.014 0.0196,1.3895 c 0.8491,0.0182 1.4322,0.2387 1.8459,0.4767 l -0.3402,0.9499 c -0.2996,-0.1659 -0.8848,-0.4739 -1.7892,-0.4599 -1.0892,0.0147 -1.4903,0.6804 -1.4826,1.253 0.0105,0.7455 0.539,1.1102 1.778,1.6079 0.9247,0.3668 1.5603,0.7966 1.9103,1.3825 2.2491,-1.9726 5.1716,-3.1276 8.3188,-3.1276 0.0574,0 0.1148,0.0056 0.1722,0.0063 -0.9555,-3.7114 -3.7051,-6.867 -7.574,-8.1053 -1.1165,-0.3577 -2.2715,-0.539 -3.4314,-0.539 -4.9875,0 -9.3477997,3.2389 -10.8513997,8.0605 -1.89,6.062 1.4406,12.551 7.4241997,14.4676 0.5411,0.1722 1.0927,0.3024 1.6478,0.3927 -0.1946,-1.7325 -0.0511,-3.5287 0.4991,-5.2941 0.2345,-0.7497 0.5355,-1.4609 0.8869,-2.1364 z"
     id="path8"
     style="fill:#0092da;fill-opacity:1"
     inkscape:connector-curvature="0" /><path
     d="m 32.846083,17.9849 c -1.1165,-0.3577 -2.2708,-0.539 -3.4307,-0.539 -4.9882,0 -9.3485,3.2396 -10.8521,8.0605 -1.89,6.062 1.4406,12.5524 7.4249,14.4676 1.1172,0.357 2.2722,0.539 3.4328,0.539 4.9861,0 9.3478,-3.2389 10.8514,-8.0612 1.8872,-6.062 -1.4427,-12.5517 -7.4263,-14.4669 z m -2.7986,14.9058 0.021,1.4903 -0.8918,0.014 -0.0182,-1.4476 c -0.8218,-0.0028 -1.6744,-0.2485 -2.1742,-0.5985 l 0.3262,-0.9653 c 0.5138,0.336 1.253,0.5978 2.0468,0.5866 1.0038,-0.0147 1.6744,-0.6125 1.6625,-1.4287 -0.0112,-0.7903 -0.5691,-1.2677 -1.6226,-1.6828 -1.4504,-0.5523 -2.3513,-1.1991 -2.3681,-2.4472 -0.0175,-1.1879 0.8043,-2.1035 2.1028,-2.3366 l -0.0196,-1.4476 0.8771,-0.014 0.0189,1.3902 c 0.8498,0.0175 1.4329,0.2387 1.8466,0.476 l -0.3395,0.9506 c -0.3003,-0.1652 -0.8855,-0.4746 -1.7899,-0.4606 -1.0899,0.0161 -1.4903,0.6811 -1.4819,1.2537 0.0105,0.7448 0.539,1.1102 1.7773,1.6079 1.4651,0.5824 2.2106,1.3181 2.2288,2.5921 0.0154,1.1319 -0.7483,2.2022 -2.2022,2.4675 z"
     id="path6"
     style="fill:#0092da;fill-opacity:1"
     inkscape:connector-curvature="0" /></svg>