<?xml version="1.0" encoding="UTF-8"?>
<svg version="1.0" viewBox="0 0 16 16" xmlns="http://www.w3.org/2000/svg" xmlns:cc="http://creativecommons.org/ns#" xmlns:dc="http://purl.org/dc/elements/1.1/" xmlns:rdf="http://www.w3.org/1999/02/22-rdf-syntax-ns#">
<metadata>
<rdf:RDF>
<cc:Work rdf:about="">
<dc:format>image/svg+xml</dc:format>
<dc:type rdf:resource="http://purl.org/dc/dcmitype/StillImage"/>
</cc:Work>
</rdf:RDF>
</metadata>
<path d="m5.9 4.5v7c0 2.8 4.2 2.8 4.2 0v-7c0-2.8-4.2-2.8-4.2 0zm2.1-1.4c0.77 0 1.4 0.63 1.4 1.4s-0.63 1.4-1.4 1.4-1.4-0.63-1.4-1.4 0.63-1.4 1.4-1.4zm0 3.5c0.77 0 1.4 0.63 1.4 1.4s-0.63 1.4-1.4 1.4-1.4-0.63-1.4-1.4 0.63-1.4 1.4-1.4zm0 3.5c0.77 0 1.4 0.63 1.4 1.4s-0.63 1.4-1.4 1.4-1.4-0.63-1.4-1.4 0.63-1.4 1.4-1.4z" fill="#4d4d4d"/>
</svg>
