<?xml version="1.0" encoding="UTF-8"?>
<svg id="i" width="580" height="580" version="1.0" xmlns="http://www.w3.org/2000/svg" xmlns:cc="http://creativecommons.org/ns#" xmlns:dc="http://purl.org/dc/elements/1.1/" xmlns:rdf="http://www.w3.org/1999/02/22-rdf-syntax-ns#">
<metadata id="e">
<rdf:RDF>
<cc:Work rdf:about="">
<dc:format>image/svg+xml</dc:format>
<dc:type rdf:resource="http://purl.org/dc/dcmitype/StillImage"/>
<cc:license rdf:resource="http://web.resource.org/cc/PublicDomain"/>
<dc:language>en</dc:language>
</cc:Work>
</rdf:RDF>
</metadata>
<g id="h" transform="matrix(48.15 0 0 48.15 -536.27 -33.307)" display="none" fill="none" stroke="#757575" stroke-width=".1">
<rect id="c" x="1" y="1" width="10" height="10" display="inline"/>
<rect id="d" x="2" y="2" width="8" height="8" display="inline"/>
</g>
<circle id="f" cx="290" cy="290" r="273.26" fill="#fff" stroke="#0092da" stroke-width="23.804"/>
<g id="g" transform="matrix(1.0052 0 0 1.0052 93.49 89.133)" fill="#0092da" stroke="#0092da">
<g id="b" transform="matrix(1.6788 0 0 1.6788 -1258.5 -55.289)" fill="#0092da" fill-rule="evenodd" stroke="#0092da">
<path id="j" transform="matrix(.47639 0 0 .47639 745.67 13.262)" d="m80.5 104.91c-10.053 0-15.01 8.2259-19.125 16.656-16.78 40.335-33.696 69.831-39.844 124.69-1.2691 38.636-3.1891 76.948-2.6875 116.47 2.01e-4 23.372 27.252 59.25 50.094 59.25h435.56v-43.688c-0.87271-0.21281-1.7275-0.44511-2.5938-0.6875v-39.438l2.5938 0.5v-12.219c-90.135-28.712-166.16-87.07-208.09-190.28-7.2585-18.606-21.545-29.971-40.438-31.25h-175.47zm-1.4062 25.938h169.56c11.036 1e-5 20.755 41.618 28.719 62.906 2.5347 6.9181 0.54423 18-4.8125 18h-220.59c-5.0752 9e-5 -7.1614-9.0663-5.0312-17.469 10.724-21.14 22.967-63.438 32.156-63.438zm236.22 91.469c12.408 12.028 25.746 28.549 37.25 36.094v73.281l-33.562-15.375c-3.1906-30.934-3.4971-62.465-3.6875-94zm56.438 53.188c13.876 11.784 19.569 14.107 31.562 22.875l0.5 56.406-32.062-13.438c-0.74371-30.934 0.19043-34.309 0-65.844zm-300.84 21.469c0.34343-0.0174 0.68352 0 1.0312 0 11.128 9e-5 20.156 8.9976 20.156 20.125 1.65e-4 11.127-9.0289 20.156-20.156 20.156-11.127 9e-5 -20.156-9.0288-20.156-20.156 1.34e-4 -10.78 8.4786-19.587 19.125-20.125zm166.38 0c0.34343-0.0174 0.68352 0 1.0312 0 11.128 9e-5 20.156 8.9976 20.156 20.125 2.1e-4 11.127-9.0289 20.156-20.156 20.156-11.127 9e-5 -20.156-9.0288-20.156-20.156 2e-4 -10.78 8.4786-19.587 19.125-20.125zm182.59 11.438 31.344 12.781v46.375c-11.494-1.2553-22.153-3.9024-31.344-8.8438v-50.312zm44.312 19.031 24.906 6.4062v42.031c-8.4924-0.38025-16.872-1.3402-24.906-4.4688v-43.969z" stroke-width="9.0682"/>
<path id="a" transform="matrix(.47639 0 0 .47639 745.67 13.262)" d="m216.12 432.28v20.781h-92.375v-20.719h-63.031v20.969h-41.844l-0.0625 29.5h294.47c41.437-18.663 113.83-42.194 191.22-45.449v-5.0822h-288.38z" stroke-width="1px"/>
</g>
</g>
</svg>
