<?xml version="1.0" encoding="UTF-8"?>
<svg version="1.1" viewBox="0 0 14 14" xmlns="http://www.w3.org/2000/svg" xmlns:cc="http://creativecommons.org/ns#" xmlns:dc="http://purl.org/dc/elements/1.1/" xmlns:rdf="http://www.w3.org/1999/02/22-rdf-syntax-ns#">
<metadata>
<rdf:RDF>
<cc:Work rdf:about="">
<dc:format>image/svg+xml</dc:format>
<dc:type rdf:resource="http://purl.org/dc/dcmitype/StillImage"/>
<dc:title/>
</cc:Work>
</rdf:RDF>
</metadata>
<rect width="14" height="14" fill="none" visibility="hidden"/>
<path d="m5 0c-1 0-2 0.99889-2 1.9978v6.9922c0 0.99889 1 1.9978 2 1.9978h4c1 0 2-0.99889 2-1.9978v-6.9922c0-0.99889-1-1.9978-2-1.9978zm0 0.99889h4v0.99889h-4zm0 1.9978h4c0.55362 0 1 0.4455 1 0.99889v1.9978c0 0.62642-0.42373 0.99889-1 0.99889h-4c-0.55932 0-1-0.40633-1-0.99889v-1.9978c0-0.55338 0.44638-0.99889 1-0.99889zm2 4.9944c0.55228 0 1 0.44722 1 0.99889s-0.44772 0.99889-1 0.99889-1-0.44722-1-0.99889 0.44772-0.99889 1-0.99889zm-4 3.9799-1 2.029 3-0.015613 1-2.0134zm5 0.01561 1 1.9978h3l-1-1.9978z" fill="#0092da"/>
</svg>
