<?xml version="1.0" encoding="UTF-8" standalone="no"?>
<svg xmlns="http://www.w3.org/2000/svg" enable-background="new 0 0 100 100" xml:space="preserve" version="1.1" y="0px" x="0px" viewBox="0 0 100 100"><g fill="#0092da" stroke="#ffffff" stroke-width="1.5" transform="translate(.0825 25.689)"><g transform="translate(0,-25)"><path d="m83.196 77.837c-0.641-1.517-1.678-2.578-3.116-3.162l-15.405-6.287c-0.981-0.397-2.22-0.46-3.718-0.138l-15.176 3.534-6.133-14.264 14.575-9.02c1.308-0.812 2.103-2.234 2.103-3.777v-14.42h-8.89v11.943l-18.405 11.394c-0.452 0.276-3.009 2.1-3.745 4.359-0.589 1.812-0.648 3.323-0.145 4.91l7.507 18.052c0.549 1.836 1.679 3.094 3.381 3.787 1.639 0.67 3.565 0.802 5.788 0.421l20.867-5.003 12.958 5.278c1.448 0.595 2.926 0.595 4.443-0.017 1.511-0.588 2.572-1.648 3.192-3.156 0.586-1.441 0.56-2.922-0.081-4.434z"/><path d="m56.326 22.092c0-2.457-1.991-4.45-4.444-4.45-2.454 0-4.446 1.994-4.446 4.45v6.001h8.89z"/></g><path d="m34.193 17.729c0 4.693-3.802 8.494-8.499 8.494-4.692 0-8.494-3.8-8.494-8.494 0-4.69 3.802-8.504 8.494-8.504 4.697 0 8.499 3.814 8.499 8.504z"/><polygon transform="translate(0,-25)" points="43.675 25.005 0.641 12.734 0.587 12.925 0.587 15.424 43.675 27.692"/><polygon transform="translate(0,-25)" points="99.248 14.114 59.886 25.376 59.886 28.093 99.248 16.82"/></g></svg>
