<?xml version="1.0" encoding="UTF-8" standalone="no"?>
<svg
   xmlns:dc="http://purl.org/dc/elements/1.1/"
   xmlns:cc="http://creativecommons.org/ns#"
   xmlns:rdf="http://www.w3.org/1999/02/22-rdf-syntax-ns#"
   xmlns:svg="http://www.w3.org/2000/svg"
   xmlns="http://www.w3.org/2000/svg"
   xmlns:sodipodi="http://sodipodi.sourceforge.net/DTD/sodipodi-0.dtd"
   xmlns:inkscape="http://www.inkscape.org/namespaces/inkscape"
   version="1.0"
   width="580"
   height="580"
   id="svg2"
   inkscape:version="0.91 r13725"
   sodipodi:docname="cave.svg">
  <defs
     id="defs12" />
  <sodipodi:namedview
     pagecolor="#ffffff"
     bordercolor="#666666"
     borderopacity="1"
     objecttolerance="10"
     gridtolerance="10"
     guidetolerance="10"
     inkscape:pageopacity="0"
     inkscape:pageshadow="2"
     inkscape:window-width="1536"
     inkscape:window-height="801"
     id="namedview10"
     showgrid="false"
     inkscape:zoom="0.40689655"
     inkscape:cx="-15.974576"
     inkscape:cy="290"
     inkscape:window-x="-8"
     inkscape:window-y="32"
     inkscape:window-maximized="1"
     inkscape:current-layer="svg2" />
  <metadata
     id="metadata10">
    <rdf:RDF>
      <cc:Work
         rdf:about="">
        <dc:format>image/svg+xml</dc:format>
        <dc:type
           rdf:resource="http://purl.org/dc/dcmitype/StillImage" />
      </cc:Work>
    </rdf:RDF>
  </metadata>
  <path
     d="m 34.702986,408.13437 c 2.367196,-5.48093 32.404879,-47.87543 66.750284,-94.2099 49.25528,-66.44891 74.61409,-89.47895 120.04961,-109.0248 71.12554,-30.59742 142.32874,-32.35525 168.26002,-4.15402 61.33558,66.70455 124.63054,142.87846 142.85807,171.92632 25.68601,40.93369 12.60173,60.07407 -14.50984,21.22601 C 507.42352,378.58371 477.4635,342.01325 451.53328,312.63007 340.43961,186.74287 340.10029,186.61322 236.90791,230.57389 186.18922,252.18048 166.47754,270.06043 123.61005,333.34337 95.06701,375.47997 62.417798,411.78794 51.05624,414.0276 39.69479,416.26738 32.3358,413.61508 34.702986,408.13437 z"
     id="path2838"
     sodipodi:nodetypes="csssssssssc"
     fill="#ffffff"
     style="fill:#000000;fill-opacity:1" />
  <path
     sodipodi:nodetypes="cssssc"
     id="path3638"
     d="m 150.97846,415.18101 c 0,-32.36715 90.19166,-134.76949 118.69935,-134.76949 45.60596,0 92.84717,28.28822 127.25562,76.20114 20.30607,28.27572 36.92016,54.52123 36.92016,58.32343 0,3.80207 -63.64691,6.91299 -141.43757,6.91299 -77.79065,0 -141.43756,-3.00059 -141.43756,-6.66807 z"
     fill="#ffffff"
     style="fill:#000000;fill-opacity:1" />
</svg>
