<?xml version="1.0" encoding="UTF-8"?>
<svg version="1.1" viewBox="0 0 14 14" xmlns="http://www.w3.org/2000/svg">
<rect width="14" height="14" fill="none" visibility="hidden"/>
<path d="m4.5 1-3.5 3 3.5 3v-2h5v2l3.5-3-3.5-3v2h-5zm-1.5 6.5c-0.5339 0-1.4923 1-2 1v1.5c0.53718 0 1.5254-1 2-1 0.50424 0 1.4661 1 2 1 0.4755 0 1.4923-1 2-1 0.50424 0 1.5217 1 2 1 0.50424 0 1.5254-1 2-1 0.47458 0 1.4958 1 2 1v-1.5c-0.41525 0-1.4661-1.0297-2-1-0.47827 0-1.4653 1-2 1-0.44492 0-1.4958-1-2-1-0.50424 0-1.5541 1-2 1-0.4755 0-1.4661-1-2-1zm0 3c-0.5339 0-1.4923 1-2 1v1.5c0.53718 0 1.5254-1 2-1 0.50424 0 1.4661 1 2 1 0.4755 0 1.4923-1 2-1 0.50424 0 1.5217 1 2 1 0.50424 0 1.5254-1 2-1 0.47458 0 1.4958 1 2 1v-1.5c-0.41525 0-1.4661-1.0297-2-1-0.47827 0-1.4653 1-2 1-0.44492 0-1.4958-1-2-1-0.50424 0-1.5541 1-2 1-0.4755 0-1.4661-1-2-1z" fill="#3691d9"/>
</svg>
