<?xml version="1.0" encoding="UTF-8" standalone="no"?>
<svg viewBox="0 0 580 580" xmlns="http://www.w3.org/2000/svg" version="1.0">
 <path fill="#0092da" d="m103.64 546.94c0.20717-3.494 98.492 4.1847 142.87-22.98 22.093-13.525 42.765-32.33 44.941-79.191 2.2883-49.277-4.2507-46.308 1.3021-84.643 9.4241-44.275 41.159-46.716 48.579-72.32 29.756-65.751-57.22-53.384-74.328-35.313-7.3324 24.974-44.084 65.864-39.684 109.34 28.934 159.8-19.357 158.16-123.68 185.11z" fill-rule="evenodd"/>
 <path fill="#0092da" d="m339.06 128.44a160.94 160.94 0 1 1 -321.88 0 160.94 160.94 0 1 1 321.88 0z" transform="matrix(.84131 0 0 .84131 202.42 66.718)"/>
</svg>
