<?xml version="1.0" encoding="UTF-8" standalone="no"?>
<svg xmlns="http://www.w3.org/2000/svg" xml:space="preserve" viewBox="0 0 1e3 1e3" version="1.1" enable-background="new 0 0 1000 1000"><g stroke-width="111.11" stroke="#0078b5" fill="#0078b5" transform="matrix(.09 0 0 -.09 50.008 510.8)"><path d="m3180.5 5009.8c-162.9-72.8-182-272.1-34.5-350.7 28.7-15.3 205-28.7 484.8-38.3 427.3-13.4 701.3-46 938.9-105.4 206.9-53.6 469.5-143.7 469.5-161 0-9.6-55.6-80.5-122.6-157.1-900.6-1023.2-1456.3-2103.9-1783.9-3474-61.3-251-174.4-833.5-185.9-956.2-5.7-53.7-9.6-55.6-293.2-128.4-866.1-218.4-1559.8-557.6-2017.7-984.9-534.7-498.1-676.5-1101.7-392.9-1666.9 151.4-298.9 471.4-618.9 869.9-866.1 1030.9-643.8 2780.4-988.7 4487.7-887.2 1716.9 103.5 3146.3 599.8 3847.6 1333.6 216.5 229.9 316.2 387.1 404.3 651.5 86.2 258.7 49.8 651.5-84.3 917.9-387 760.7-1540.5 1379.6-3052.4 1638.3-136 23-260.6 46-274 49.8-24.9 7.7-26.8-7.6 26.8 505.9 145.6 1435.2 515.4 2812.9 963.8 3590.9 176.3 306.6 212.7 344.9 412 419.6 515.4 197.4 831.6 258.7 1458.2 279.8 243.4 9.6 465.6 26.8 494.4 38.3 65.2 24.9 116.9 136 99.6 212.7-5.8 28.7-32.6 72.8-59.4 97.7-47.9 46-53.7 46-425.4 44.1-720.5-5.7-1124.8-78.6-1732.2-316.2-274-109.2-298.9-128.4-500.1-438.8-576.8-891-1000.2-2521.7-1155.4-4451.2-30.7-400.5-59.4-1906.6-38.3-2050.3 21.1-132.2 82.4-195.5 191.6-195.5 69 0 97.7 11.5 139.9 53.7l53.6 53.7v314.3c0 174.4 5.8 316.2 13.4 316.2 44.1 0 492.5-161 615.1-220.4 249.1-120.7 383.2-270.2 341.1-377.5-42.1-115-293.2-279.8-594-392.8-251-93.9-768.4-216.5-1121-264.4-51.7-7.7-231.8-23-400.5-36.4l-306.6-24.9-57.5-63.2c-47.9-53.6-55.6-72.8-46-141.8 7.7-51.7 28.7-93.9 61.3-120.7 46-40.2 69-44.1 256.8-44.1 224.2 0 666.8 53.7 973.4 115 869.9 180.1 1406.5 444.6 1580.8 785.6 34.5 69 44.1 116.9 44.1 239.5 0 134.1-7.7 166.7-57.5 254.8-153.3 279.8-576.8 513.5-1211 674.5l-82.4 21.1v151.4c0 84.3 5.8 153.3 15.3 153.3 7.7 0 130.3-28.8 272.1-65.2 643.8-164.8 1117.1-396.6 1410.3-689.8 184-185.8 247.2-316.2 245.3-509.7 0-118.8-9.6-162.9-57.5-258.7-67.1-138-272.1-352.6-448.4-467.6-492.5-321.9-1295.3-557.6-2165.3-636.1-308.5-26.8-994.5-26.8-1303 0-869.9 78.6-1672.8 314.2-2165.3 636.1-176.3 115-381.3 329.6-448.4 467.6-80.5 162.9-82.4 354.5-5.8 511.6 115 233.8 379.4 456 766.5 645.7 128.4 63.2 258.7 120.7 289.3 128.4 55.6 13.4 55.6 13.4 44.1-61.3-7.7-40.3-13.4-101.6-13.4-136.1 0-55.6-11.5-67.1-147.5-141.8-394.7-216.5-567.2-423.5-569.1-687.9-3.8-389 415.8-718.6 965.7-760.7 216.5-15.3 306.6 40.3 306.6 193.5 0 111.1-61.3 162.9-220.4 185.8-329.6 49.8-530.8 134.1-617 264.4-70.9 105.4-59.4 166.7 49.8 272.1 51.7 49.8 120.7 105.4 153.3 120.7l57.5 30.6-1.9-93.9c0-160.9 101.6-249.1 243.4-210.8 115 32.6 138 93.9 151.4 406.2 76.6 1632.6 346.8 2908.7 845 4000.9 279.8 615.1 707.1 1257 1237.8 1856.8 298.9 337.2 304.7 344.9 304.7 425.4 0 116.9-67.1 168.6-358.3 281.7-291.3 111.1-607.4 199.3-868 239.5-346.7 55.7-1090.1 88.3-1168.7 53.8zm3520-5627.7c1312.6-243.3 2322.4-753 2673-1352.8 105.4-178.2 136-298.9 126.5-509.7-5.7-159-15.3-189.7-88.1-337.2-321.9-649.6-1385.4-1195.7-2801.4-1439-605.5-105.4-1293.4-147.5-1989-122.6-1950.7 67.1-3610.1 710.9-4033.5 1563.6l-80.5 164.6v442.7l86.2 172.5c70.9 143.7 116.9 203.1 268.3 354.5 99.6 101.6 247.2 228 327.7 281.7 369.8 252.9 952.3 503.9 1477.4 638.1 80.5 21.1 161 44.1 178.2 49.8 24.9 9.6 30.7 3.8 24.9-30.6-3.8-34.5-38.3-53.7-183.9-105.4-701.3-251-1230.2-684.1-1366.2-1119-140.1-454.3 70.7-927.6 568.9-1284.1 1469.7-1046.2 4754-1046.2 6223.7 0 823.9 588.3 812.4 1418-30.7 2015.8-346.8 245.3-938.9 482.9-1490.8 597.8-90.1 19.2-170.5 42.2-180.1 49.8-28.7 25-3.8 23.1 289.4-30.5z"/><path d="m6666 4578.7c-53.7-46-182-220.4-333.4-454.1-908.3-1406.5-1303-2989.2-1446.7-5806-9.6-205-19.2-473.3-19.2-595.9 0-195.4 5.7-228 38.3-272.1 86.2-109.2 283.6-76.6 323.8 51.7 11.5 32.6 28.7 279.8 40.3 548 126.5 3021.8 549.9 4685 1561.7 6108.7 124.6 174.4 143.7 212.7 143.7 283.6 0 67.1-9.6 90.1-59.4 130.3-74.7 63.3-180.1 67.1-249.1 5.8z"/><path d="m5958.9 4534.6c-26.8-17.2-105.4-101.6-176.3-187.8-848.8-1038.5-1400.7-2293.6-1709.2-3891.7-138-718.6-256.8-1820.3-266.3-2494.8-3.8-281.7-1.9-291.3 42.2-339.2 67.1-70.9 157.1-82.4 237.6-32.6 93.9 57.5 88.1 30.7 128.4 749.2 76.6 1356.6 310.4 2623.2 661.1 3594.7 289.3 793.3 687.9 1521.4 1140.1 2077.1 214.6 262.5 229.9 287.4 229.9 367.9 0 149.5-161 235.8-287.5 157.2z"/></g></svg>
