<?xml version="1.0" encoding="UTF-8"?>
<svg version="1.1" viewBox="0 0 14 14" xmlns="http://www.w3.org/2000/svg" xmlns:cc="http://creativecommons.org/ns#" xmlns:dc="http://purl.org/dc/elements/1.1/" xmlns:rdf="http://www.w3.org/1999/02/22-rdf-syntax-ns#">
<metadata>
<rdf:RDF>
<cc:Work rdf:about="">
<dc:format>image/svg+xml</dc:format>
<dc:type rdf:resource="http://purl.org/dc/dcmitype/StillImage"/>
<dc:title/>
</cc:Work>
</rdf:RDF>
</metadata>
<rect width="14" height="14" fill="none" visibility="hidden"/>
<path d="m0 1v1.25c1.9974 0 2.9578 0.35593 3 2v2.25c0 2 1.5 3 2.5 3 0 0-1-1-1-3v-2.25c0-0.86096-0.30509-1.5097-0.78125-2 1.2536 0 2.2426 0.52309 2.2812 2v2.25c0 2 1.5 3 2.5 3 0 0-1-1-1-3v-2.25c0-0.91442-0.24249-1.5581-0.59375-2 1.0938 0 2.0938 0.55048 2.0938 2v2.25c0 2 1.5 3 2.5 3 0 0-1-1-1-3v-2.25c0-3-2.5-3.25-3.5-3.25zm3 9.5c-0.5339 0-1.4923 1-2 1v1.5c0.53718 0 1.5254-1 2-1 0.50424 0 1.4661 1 2 1 0.4755 0 1.4923-1 2-1 0.50424 0 1.5217 1 2 1 0.50424 0 1.5254-1 2-1s1.4958 1 2 1v-1.5c-0.41525 0-1.4661-1.0297-2-1-0.47827 0-1.4653 1-2 1-0.44492 0-1.4958-1-2-1s-1.5541 1-2 1c-0.4755 0-1.4661-1-2-1z" color="#000000" fill="#3691d9"/>
</svg>
