<?xml version="1.0" encoding="UTF-8"?>
<svg version="1.1" viewBox="0 0 16 16" xmlns="http://www.w3.org/2000/svg" xmlns:cc="http://creativecommons.org/ns#" xmlns:dc="http://purl.org/dc/elements/1.1/" xmlns:rdf="http://www.w3.org/1999/02/22-rdf-syntax-ns#">
<metadata>
<rdf:RDF>
<cc:Work rdf:about="">
<dc:format>image/svg+xml</dc:format>
<dc:type rdf:resource="http://purl.org/dc/dcmitype/StillImage"/>
<dc:title/>
</cc:Work>
</rdf:RDF>
</metadata>
<rect width="16" height="16" fill="none" visibility="hidden"/>
<path transform="translate(1,1)" d="m3 0c-1 0-1 0.46706-1 1v2c0 1-2 1-2 3v7c0 0.56625 0.46706 1 1 1h4c0.59956 0 1-0.40044 1-1v-7c0-2-2-2-2-3v-2c0-0.56625 0-1-1-1zm4 5c0 3 0.47106 5 3 5v2c0 0.66691-1 1-1.5 1-1 0-1.5 0-1.5 1h7c0-1-0.5-1-1.5-1-0.5 0-1.5-0.3664-1.5-1v-2c2.4711 0 3-2 3-5h-7z" fill="#ac39ac"/>
</svg>
