<?xml version="1.0" encoding="UTF-8"?>
<svg version="1.1" viewBox="0 0 14 14" xmlns="http://www.w3.org/2000/svg" xmlns:cc="http://creativecommons.org/ns#" xmlns:dc="http://purl.org/dc/elements/1.1/" xmlns:rdf="http://www.w3.org/1999/02/22-rdf-syntax-ns#">
<metadata>
<rdf:RDF>
<cc:Work rdf:about="">
<dc:format>image/svg+xml</dc:format>
<dc:type rdf:resource="http://purl.org/dc/dcmitype/StillImage"/>
<dc:title/>
</cc:Work>
</rdf:RDF>
</metadata>
<rect width="14" height="14" fill="none" visibility="hidden"/>
<path d="m3 0c-1 0-1 0.50228-1 2 0 1-2 5-2 6v5c0 0.56625 0.46706 1 1 1h4c0.59956 0 1-0.40044 1-1v-5c0-1-2-5-2-6 0-1.531 0-2-1-2zm7.875 1-1 4h1.125l0.75-3h2.25v-1zm-3.875 5 1 7s0 1 1 1h2c1 0 1-1 1-1l1-7z" fill="#ac39ac"/>
</svg>
