<?xml version="1.0" encoding="UTF-8"?>
<svg version="1.1" viewBox="0 0 16 16" xmlns="http://www.w3.org/2000/svg" xmlns:cc="http://creativecommons.org/ns#" xmlns:dc="http://purl.org/dc/elements/1.1/" xmlns:rdf="http://www.w3.org/1999/02/22-rdf-syntax-ns#">
<metadata>
<rdf:RDF>
<cc:Work rdf:about="">
<dc:format>image/svg+xml</dc:format>
<dc:type rdf:resource="http://purl.org/dc/dcmitype/StillImage"/>
<dc:title/>
</cc:Work>
</rdf:RDF>
</metadata>
<rect width="16" height="16" fill="none" visibility="hidden"/>
<path transform="translate(1,1)" d="m8 1.5v0.875l1.25 0.78125v1.0938h-4.25v-0.75h0.5c1 0 1-1 0-1h-2c-1 0-1 1 0 1h0.5v0.75l-0.9375 1.75c-0.0209-4.657e-4 -0.04152 0-0.0625 0-1.6123 0-3 1.3877-3 3s1.3877 3 3 3 3-1.3877 3-3c0-0.34597-0.07157-0.68658-0.1875-1h0.4375c0.75 0 0.92275-0.454 1.1875-0.71875l1.7812-2.0312 0.53125 1.0312c-1.0225 0.48467-1.75 1.5436-1.75 2.7188 0 1.6123 1.3877 3 3 3s3-1.3877 3-3-1.3877-3-3-3c-0.03147 0-0.06246-0.00105-0.09375 0l-0.90625-1.75v-1.5938l-2-1.1562zm-3.2188 3.75h3.125l-1.5625 1.75h-1.125c-0.01848 0-0.04359 0.00212-0.0625 0-0.2634-0.28295-0.55673-0.51962-0.90625-0.6875-0.01225-0.01863-0.02009-0.043954-0.03125-0.0625l0.5625-1zm-1.7812 1.75c1.0057 0 2 0.99429 2 2 0 1.0057-0.99429 2-2 2s-2-0.99429-2-2c0-1.0057 0.99429-2 2-2zm8 0c1.0057 0 2 0.99429 2 2 0 1.0057-0.99429 2-2 2-1.0057 0-2-0.99429-2-2 0-1.0057 0.99429-2 2-2z" fill="#ac39ac"/>
</svg>
