<?xml version="1.0" encoding="UTF-8"?>
<svg version="1.1" viewBox="0 0 16 16" xmlns="http://www.w3.org/2000/svg" xmlns:cc="http://creativecommons.org/ns#" xmlns:dc="http://purl.org/dc/elements/1.1/" xmlns:rdf="http://www.w3.org/1999/02/22-rdf-syntax-ns#">
<metadata>
<rdf:RDF>
<cc:Work rdf:about="">
<dc:format>image/svg+xml</dc:format>
<dc:type rdf:resource="http://purl.org/dc/dcmitype/StillImage"/>
<dc:title/>
</cc:Work>
</rdf:RDF>
</metadata>
<rect width="16" height="16" fill="none" visibility="hidden"/>
<path d="m3.5918 2.877c-0.19852 0.0079997-0.3959 0.047696-0.5918 0.12305v8s3.1875-0.125 4 3v-8.4004c-0.61999-1.3056-2.0186-2.7787-3.4082-2.7227zm3.4082 11.123c-2.0625-1.5938-5-2-5-2v-7.5996l-1-0.40039v9l6 2h2l6-2v-9l-1 0.40039v8l-5 1.5996c-0.66667-0.25468-1.4438-0.20936-2 0zm6-11c-1.9925-0.10655-4.2927 1.0897-5.5 2.1191v8.4648c1.1148-0.92464 3.1136-2.1413 5.5-2.3848z" fill="#ac39ac"/>
</svg>
