<?xml version="1.0" encoding="UTF-8"?>
<svg version="1.1" viewBox="0 0 16 16" xmlns="http://www.w3.org/2000/svg" xmlns:cc="http://creativecommons.org/ns#" xmlns:dc="http://purl.org/dc/elements/1.1/" xmlns:rdf="http://www.w3.org/1999/02/22-rdf-syntax-ns#">
<metadata>
<rdf:RDF>
<cc:Work rdf:about="">
<dc:format>image/svg+xml</dc:format>
<dc:type rdf:resource="http://purl.org/dc/dcmitype/StillImage"/>
<dc:title/>
</cc:Work>
</rdf:RDF>
</metadata>
<rect y="2" width="14" height="14" fill="none" visibility="hidden"/>
<path d="m4.4 2.6-1.1157 3.6c-0.68427 0-1.5843 0.44698-1.5843 1.8v3.6h1.8v0.9s0 0.9 0.9 0.9 0.9-0.9 0.9-0.9v-0.9l5.4-0.02812v0.92808s0 0.9 0.9 0.9 0.9-0.9 0.9-0.9v-0.9h1.8v-3.6c0-1.3746-0.9-1.8-1.8-1.8l-0.9-3.6zm0.9 1.35h5.4l0.54 2.25h-6.57zm-0.9 4.05c0.49705 0 0.9 0.40295 0.9 0.9s-0.40295 0.9-0.9 0.9-0.9-0.40295-0.9-0.9 0.40295-0.9 0.9-0.9zm7.2 0c0.49705 0 0.9 0.40295 0.9 0.9s-0.40295 0.9-0.9 0.9-0.9-0.40295-0.9-0.9 0.40295-0.9 0.9-0.9z" fill="#ac39ac"/>
</svg>
