<?xml version="1.0" encoding="UTF-8"?>
<svg width="14" height="14" version="1.1" viewBox="0 1 14 14" xmlns="http://www.w3.org/2000/svg">
<rect width="14" height="14" fill="none" visibility="hidden"/>
<path d="m0 10.5a1.5 1.5 0 0 0 1.5 1.5h11a1.5 1.5 0 0 0 1.5-1.5v-3a1.5 1.5 0 0 0-1.5-1.5h-11a1.5 1.5 0 0 0-1.5 1.5zm1.6-2a0.9 0.9 0 1 1 0 0.01zm9 0a0.9 0.9 0 1 1 0 0.01z" fill-rule="evenodd"/>
<g transform="translate(0,1)">
<rect x="1" y="10" width="2" height="3"/>
<rect x="11" y="10" width="2" height="3"/>
</g>
<path d="m2 6v-2.5a1.5 1.5 0 0 1 1.5-1.5h7a1.5 1.5 0 0 1 1.5 1.5v2.5h-1.5v-1.5a1 1 0 0 0-1-1h-5a1 1 0 0 0-1 1v1.5z"/>
</svg>
