<?xml version="1.0" encoding="UTF-8"?>
<svg version="1.1" viewBox="0 0 14 14" xmlns="http://www.w3.org/2000/svg">
<g transform="translate(1.552 2.8104)">
<path transform="translate(-1.552 -2.8104)" d="m2.7441 0c-0.71026 3.935e-4 -1.3701 0.41171-1.7441 1h2.3691l0.62305 1-0.62305 1h-2.3672c0.37368 0.58774 1.0326 0.99897 1.7422 1 0.75824-1e-7 1.4121-0.40423 1.7676-1h4.666c0.35542 0.59592 1.0112 1 1.7695 1 1.1337 2e-7 2.0527-0.89543 2.0527-2s-0.91904-2-2.0527-2c-0.75836-2.6757e-7 -1.4141 0.40408-1.7695 1h-4.666c-0.35546-0.59577-1.0093-1-1.7676-1zm7.5781 1h1.25l0.62305 1-0.62305 1h-1.25l-0.62305-1 0.62305-1zm-6.3223 5-1 3c-0.47266 0-1 0.3843-1 1v3h1s2.19e-5 1 1 1c0.99998 0 1-1 1-1h4s2.14e-5 1 1 1c0.99998 0 1-1 1-1h1v-3c0-0.52061-0.45544-1-1-1l-1-3h-6zm1 1h4l0.625 2h-5.25l0.625-2zm-1 3.25c0.4142 0 0.75 0.33579 0.75 0.75s-0.3358 0.75-0.75 0.75-0.75-0.33579-0.75-0.75 0.3358-0.75 0.75-0.75zm6 0c0.4142 0 0.75 0.33579 0.75 0.75s-0.3358 0.75-0.75 0.75c-0.41421 0-0.75-0.33579-0.75-0.75s0.33579-0.75 0.75-0.75z"/>
</g>
</svg>
