<?xml version="1.0" encoding="UTF-8"?>
<svg version="1.1" viewBox="0 0 16 16" xmlns="http://www.w3.org/2000/svg" xmlns:cc="http://creativecommons.org/ns#" xmlns:dc="http://purl.org/dc/elements/1.1/" xmlns:rdf="http://www.w3.org/1999/02/22-rdf-syntax-ns#">
<metadata>
<rdf:RDF>
<cc:Work rdf:about="">
<dc:format>image/svg+xml</dc:format>
<dc:type rdf:resource="http://purl.org/dc/dcmitype/StillImage"/>
<dc:title/>
</cc:Work>
</rdf:RDF>
</metadata>
<rect width="16" height="16" fill="none" visibility="hidden"/>
<path transform="translate(1,1)" d="m10.5 0c-0.92532 0-1.7239 0.50276-2.1562 1.25h-5.8436c-0.87774 0-1.5 0.52119-1.5 1.25s0.60342 1.25 1.5 1.25h5.8436c0.43226 0.74724 1.2309 1.25 2.1562 1.25 0.92532 0 1.7239-0.50276 2.1562-1.25h-1.6562l-1.5-1.25 1.5-1.25h1.6562c-0.43226-0.74724-1.2309-1.25-2.1562-1.25zm-7.9998 2c0.27614 0 0.49999 0.22386 0.49999 0.5s-0.22385 0.5-0.49999 0.5c-0.27614 0-0.49999-0.22386-0.49999-0.5s0.22385-0.5 0.49999-0.5zm1.5 4-0.99998 3c-0.47266 0-0.99998 0.3843-0.99998 1v3h0.99998s0 1 0.99998 1c0.99998 0 0.99998-1 0.99998-1h3.9999s0 1 0.99998 1c0.99998 0 0.99998-1 0.99998-1h0.99998v-3c0-0.52061-0.45542-1-0.99998-1l-0.99998-3h-5.9999zm0.99998 1h3.9999l0.62499 2h-5.2499l0.62499-2zm-0.99998 3.25c0.41421 0 0.74998 0.33579 0.74998 0.75s-0.33578 0.75-0.74998 0.75c-0.41421 0-0.74998-0.33579-0.74998-0.75s0.33578-0.75 0.74998-0.75zm5.9999 0c0.4142 0 0.74998 0.33579 0.74998 0.75s-0.33578 0.75-0.74998 0.75c-0.41421 0-0.74998-0.33579-0.74998-0.75s0.33578-0.75 0.74998-0.75z" fill="#ac39ac"/>
</svg>
