<?xml version="1.0" encoding="UTF-8"?>
<svg version="1.1" viewBox="0 0 14 14" xmlns="http://www.w3.org/2000/svg">
<rect width="14" height="14" fill="none" visibility="hidden"/>
<path d="m0.40107 7c-0.012923-1 1.5989-3 3.5989-3 1 0.031927 2 1.5872 3 1.5393 1 0.11707 2-1.5447 3-1.5393 2 0 3.5715 2 3.5745 3h-1.0431c-0.53136-1-1.5314-1.5126-2.5314-1.5544-1 0.10642-2 1.5598-3 1.5544-1 0.026606-2-1.3915-3-1.4606-1-0.027366-2 0.46064-2.4206 1.4606h-1.1783zm8.5989-5c0 1.1046-0.89543 2-2 2s-2-0.89543-2-2 0.89543-2 2-2c0.91695 0 1.7164 0.62355 1.9398 1.5129m-5.9398 11.487-2-5c0.71983 0.14397 1.3866 0.89749 2 1 0.4051 0.067705 1.6286-1.0358 2-1 0.93561 0.090175 1.276 0.91697 2 1 0.75794 0.08693 1.0697-0.80716 2-1 0.44927-0.093133 1.3784 0.94675 2 1 0.76797 0.065784 1.252-0.85039 2-1l-2 5c-1 1-2 1-4 1s-3 0-4-1z"/>
</svg>
