<?xml version="1.0" encoding="UTF-8"?>
<svg version="1.1" viewBox="0 0 14 14" xmlns="http://www.w3.org/2000/svg">
<rect width="14" height="14" fill="none" visibility="hidden"/>
<path d="m9.0312-0.03125-8.0312 0.03125v10h3v-1h-2v-8h6v2h1.0312v-3.0312zm-6.0312 2.0312v0.5h4v-0.5h-4zm0 1v0.5h1v-0.5h-1zm0 1v0.5h1v-0.5h-1zm2 0v10h8v-6.7188l-3.2812-3.2812h-4.7188zm-2 1v0.5h1v-0.5h-1zm3 0h3v3h3v5h-6v-8zm4 0.6875 1.3125 1.3125h-1.3125v-1.3125zm-7 0.3125v0.5h1v-0.5h-1zm4 0v0.5h1v-0.5h-1zm-4 1v0.5h1v-0.5h-1zm4 0v0.5h1v-0.5h-1zm0 1v0.5h1v-0.5h-1zm0 1v0.5h4v-0.5h-4zm0 1v0.5h4v-0.5h-4zm0 1v0.5h4v-0.5h-4z"/>
</svg>
