<?xml version="1.0" encoding="UTF-8"?>
<svg width="3.4239mm" height="3.9511mm" version="1.1" viewBox="0 0 12.132 14" xmlns="http://www.w3.org/2000/svg" xmlns:cc="http://creativecommons.org/ns#" xmlns:dc="http://purl.org/dc/elements/1.1/" xmlns:rdf="http://www.w3.org/1999/02/22-rdf-syntax-ns#">
<metadata>
<rdf:RDF>
<cc:Work rdf:about="">
<dc:format>image/svg+xml</dc:format>
<dc:type rdf:resource="http://purl.org/dc/dcmitype/StillImage"/>
<dc:title/>
</cc:Work>
</rdf:RDF>
</metadata>
<g transform="translate(-47.545 -1002.3)">
<path transform="translate(47.545 1002.3)" d="m6.0996 0c-0.63634 0-1.2723 0.16062-1.8438 0.48242-1.1202 0.6309-1.8295 1.7978-1.8574 3.0703h-1.8672l-0.49805 9.4199v1.0273h12.064l-0.55273-10.447h-1.7441c-0.0279-1.2725-0.73725-2.4394-1.8574-3.0703-0.5715-0.3218-1.2074-0.48242-1.8438-0.48242zm0 1.5273c0.37866 0 0.75768 0.094956 1.0957 0.28516 0.65242 0.3675 1.051 1.024 1.0781 1.7402h-4.3477c0.02712-0.7162 0.4257-1.3727 1.0781-1.7402 0.33802-0.1903 0.71704-0.28516 1.0957-0.28516zm-0.29883 3.6738c0.77502 0 1.345 0.1519 1.709 0.45312 0.36397 0.30122 0.54492 0.66158 0.54492 1.082 0 0.23533-0.055011 0.46123-0.16797 0.67773-0.10982 0.2165-0.2435 0.39242-0.40039 0.52734s-0.43703 0.33486-0.8418 0.60156c0.33574 0.33574 0.68485 0.64883 1.0488 0.9375 0.097269-0.19454 0.18097-0.40069 0.25-0.61719l1.4961 0.33398c-0.078443 0.27612-0.1544 0.49776-0.22656 0.66406-0.072167 0.1663-0.1729 0.36197-0.30469 0.58789l0.71875 0.49414c0.087856 0.056479 0.20178 0.12468 0.33984 0.20312l-1.0312 1.1855c-0.18826-0.10041-0.38394-0.21587-0.58789-0.34766-0.20081-0.13178-0.38099-0.24571-0.54102-0.33984-0.3326 0.21964-0.66545 0.38006-0.99805 0.48047-0.46124 0.13806-0.98551 0.20703-1.5723 0.20703-0.91935 0-1.604-0.19142-2.0527-0.57422-0.44869-0.3828-0.67188-0.84662-0.67188-1.3926 0-0.39221 0.13096-0.76304 0.39453-1.1113 0.26357-0.35142 0.69562-0.64707 1.2949-0.88867-0.25102-0.30436-0.42345-0.56824-0.51758-0.79102-0.094132-0.22592-0.14062-0.45531-0.14062-0.6875 0-0.48948 0.18521-0.89208 0.55859-1.209 0.37339-0.31691 0.93989-0.47656 1.6992-0.47656zm0.080078 1.0352c-0.19454 0-0.35224 0.056964-0.47461 0.16992s-0.18359 0.24664-0.18359 0.40039c0 0.19454 0.17243 0.47741 0.51758 0.84766 0.24788-0.13492 0.4393-0.28061 0.57422-0.4375 0.13492-0.16002 0.20117-0.31193 0.20117-0.45312 0-0.14747-0.055011-0.27069-0.16797-0.37109-0.11296-0.10354-0.26912-0.15625-0.4668-0.15625zm-0.82422 3.0938c-0.26357 0.18513-0.43753 0.34283-0.52539 0.47461-0.084718 0.13178-0.12891 0.2705-0.12891 0.41797 0 0.22905 0.099199 0.43443 0.29688 0.61328 0.19768 0.17885 0.45653 0.26758 0.77344 0.26758 0.34201 0 0.72561-0.13368 1.1523-0.40039-0.4079-0.31377-0.9314-0.77061-1.5684-1.373z" fill="#ac39ac"/>
</g>
</svg>
