<?xml version="1.0" encoding="UTF-8"?>
<svg version="1.1" viewBox="0 0 14 14" xmlns="http://www.w3.org/2000/svg">
<rect width="14" height="14" fill="none" visibility="hidden"/>
<path d="m5 0c-1 0-1 0-1 1l0.0097656 3h-3.0098v9c0 1 0 1 1 1h10c1 0 1 0 1-1v-9h-2.9609l-0.039062-3c0-1 0-1-1-1h-4zm0 1h4v3h-4v-3zm1.5684 4.5c0.76411 0 1.3247 0.14962 1.6836 0.44531 0.35886 0.29569 0.53711 0.64976 0.53711 1.0625 0 0.23101-0.052693 0.45153-0.16406 0.66406-0.10828 0.21253-0.23985 0.38513-0.39453 0.51758s-0.43101 0.32999-0.83008 0.5918c0.33101 0.32957 0.67435 0.63655 1.0332 0.91992 0.095902-0.19097 0.17804-0.39294 0.24609-0.60547l1.4746 0.32617c-0.077339 0.27105-0.1515 0.4891-0.22266 0.65234-0.071152 0.16325-0.17085 0.35636-0.30078 0.57812l0.70898 0.48438c0.086624 0.055444 0.19982 0.12222 0.33594 0.19922l-1.0176 1.1641c-0.18561-0.098564-0.379-0.21243-0.58008-0.3418-0.19799-0.12937-0.37543-0.24157-0.5332-0.33398-0.32792 0.21561-0.65646 0.3741-0.98438 0.47266-0.45476 0.13553-0.97033 0.20312-1.5488 0.20312-0.90642 0-1.5811-0.18868-2.0234-0.56445-0.44238-0.37578-0.66406-0.83124-0.66406-1.3672-1e-7 -0.38502 0.13076-0.74795 0.39062-1.0898 0.25986-0.34497 0.68452-0.63588 1.2754-0.87305-0.24749-0.29877-0.41696-0.5567-0.50977-0.77539-0.092806-0.22177-0.13867-0.44785-0.13867-0.67578 0-0.4805 0.18265-0.87445 0.55078-1.1855 0.36814-0.31109 0.92714-0.46875 1.6758-0.46875zm0.078125 1.0156c-0.1918 0-0.3481 0.057084-0.46875 0.16797-0.12065 0.11088-0.17969 0.24165-0.17969 0.39258 0 0.19097 0.16947 0.46858 0.50977 0.83203 0.24439-0.13245 0.43338-0.27568 0.56641-0.42969 0.13302-0.15709 0.19922-0.30671 0.19922-0.44531 0-0.14477-0.054645-0.26472-0.16602-0.36328-0.11137-0.10164-0.26604-0.1543-0.46094-0.1543zm-0.8125 3.0371c-0.25986 0.18173-0.43096 0.33743-0.51758 0.4668-0.083529 0.12937-0.12695 0.26539-0.12695 0.41016 0 0.22485 0.098074 0.42599 0.29297 0.60156 0.1949 0.17557 0.44927 0.26367 0.76172 0.26367 0.3372 0 0.71599-0.13272 1.1367-0.39453-0.40217-0.30801-0.91888-0.75627-1.5469-1.3477z"/>
</svg>
