<?xml version="1.0" encoding="UTF-8"?>
<svg version="1.1" viewBox="0 0 16 16" xmlns="http://www.w3.org/2000/svg" xmlns:cc="http://creativecommons.org/ns#" xmlns:dc="http://purl.org/dc/elements/1.1/" xmlns:rdf="http://www.w3.org/1999/02/22-rdf-syntax-ns#">
<metadata>
<rdf:RDF>
<cc:Work rdf:about="">
<dc:format>image/svg+xml</dc:format>
<dc:type rdf:resource="http://purl.org/dc/dcmitype/StillImage"/>
<dc:title/>
</cc:Work>
</rdf:RDF>
</metadata>
<rect width="16" height="16" fill="none" visibility="hidden"/>
<path transform="translate(1,1)" d="m9 0c-0.75119 0.49092-1.25 1.3482-1.25 2.3125 0 1.0642 0.61565 1.9803 1.5 2.4375v7.75c0 0.87775 0.52119 1.5 1.25 1.5 0.72881 0 1.25-0.60343 1.25-1.5v-7.75c0.88435-0.45719 1.5-1.3733 1.5-2.4375 0-0.96435-0.49881-1.8216-1.25-2.3125v1.5l-1.5 1.5-1.5-1.5v-1.5zm-5 0c-0.55249 0-1 0.38045-1 0.75h-1.5l-1.25 1.75 1.25 1.75h1.5v8.5c0 0.6849 0.37685 1.25 1 1.25s1-0.52824 1-1.25v-8.5h2v-3.5h-2c0-0.37752-0.37685-0.75-1-0.75zm6.5 12c0.27614 0 0.5 0.22386 0.5 0.5s-0.22386 0.5-0.5 0.5c-0.27614 0-0.5-0.22386-0.5-0.5s0.22386-0.5 0.5-0.5z" fill="#ac39ac"/>
</svg>
