<?xml version="1.0" encoding="UTF-8"?>
<svg version="1.1" viewBox="0 0 16 16" xmlns="http://www.w3.org/2000/svg" xmlns:cc="http://creativecommons.org/ns#" xmlns:dc="http://purl.org/dc/elements/1.1/" xmlns:rdf="http://www.w3.org/1999/02/22-rdf-syntax-ns#">
<metadata>
<rdf:RDF>
<cc:Work rdf:about="">
<dc:format>image/svg+xml</dc:format>
<dc:type rdf:resource="http://purl.org/dc/dcmitype/StillImage"/>
<dc:title/>
</cc:Work>
</rdf:RDF>
</metadata>
<rect width="16" height="16" fill="none" visibility="hidden"/>
<path transform="translate(1,1)" d="m4.375 0.5c-0.875 0-1.75 0.6125-1.75 1.75 0 1.1366 0.51962 1.75 1.6562 1.75h2.5625 0.25 2.5625c1.1358 0 1.7188-0.583 1.7188-1.7188-8.75e-4 -1.1375-0.875-1.7812-1.75-1.7812-1.3265 0-2.2916 0.80325-2.625 1.9688-0.33425-1.1655-1.2696-1.9688-2.625-1.9688zm0 0.875c1.4166 0 1.6564 1.1209 1.75 1.75h-1.75c-0.91962 0-0.875-0.83738-0.875-0.875s-0.04462-0.875 0.875-0.875zm5.25 0c0.875 0 0.875 0.83738 0.875 0.875s0.04462 0.875-0.875 0.875h-1.75c0.09363-0.62912 0.33162-1.75 1.75-1.75zm-5.625 3.625c-1 0-2 1-2 2v1.75h4.25v-3.75h-2.25zm3.75 0v3.75h4.25v-1.75c0-1-1-2-2-2h-2.25zm-5.75 5.25v1.75c0 1 1 2 2 2h2.25v-3.75h-4.25zm5.75 0v3.75h2.25c1 0 2-1 2-2v-1.75h-4.25z" fill="#ac39ac"/>
</svg>
