<?xml version="1.0" encoding="UTF-8"?>
<svg version="1.1" viewBox="0 0 14 14" xmlns="http://www.w3.org/2000/svg">
<rect width="14" height="14" fill="none" visibility="hidden"/>
<path d="m7.6811 0.38453c-0.57366 0.57366-1.0373 1.3962-1.1811 2.1155-0.07862 0.3931-0.11394 1.3256-0.125 1.7811 0.20805 0.12208 0.41619 0.21839 0.625 0.375 0.22114-0.16586 0.43601-0.27904 0.65625-0.40625 0.017535-0.3947 0.038153-1.2219 0.09375-1.4999 0.10614-0.53071 0.3798-1.0641 0.80614-1.4905zm-7.1811 0.61547c0.53592 2 2.8538 3 5 2-0.90328-2-2.5-2.6379-5-2zm1.5 4.25c-0.61441 0.64407-1 1.75-1 2.75 0 2 2 5.5 4 5.5 0.56356 0 1-0.25 2-0.75 1 0.5 1.4364 0.75 2 0.75 2 0 4-3.5 4-5.5 0-1-0.32627-2.1059-1-2.75-1.0222-0.97724-3-1.0002-5 0.49975-2-1.4137-4-1.6052-5-0.49975z"/>
</svg>
