<?xml version="1.0" encoding="UTF-8"?>
<svg version="1.1" viewBox="0 0 14 14" xmlns="http://www.w3.org/2000/svg" xmlns:cc="http://creativecommons.org/ns#" xmlns:dc="http://purl.org/dc/elements/1.1/" xmlns:rdf="http://www.w3.org/1999/02/22-rdf-syntax-ns#">
<metadata>
<rdf:RDF>
<cc:Work rdf:about="">
<dc:format>image/svg+xml</dc:format>
<dc:type rdf:resource="http://purl.org/dc/dcmitype/StillImage"/>
<dc:title/>
</cc:Work>
</rdf:RDF>
</metadata>
<rect width="14" height="14" fill="none" visibility="hidden"/>
<path d="m8.3484 7.8911a1.4774 1.4422 0 0 1-3.19e-5 0.00947" fill-rule="evenodd"/>
<path transform="translate(-10.5,2)" d="m20 6.5c0 1.3807-1.1193 2.5-2.5 2.5-1.3805 0-2.4997-1.1189-2.5-2.4994m-3.5-8.5006v14h12v-14h-12zm2 1h5v2h-5v-2zm7 0h2v2h-2v-2zm-3 4c1.6047 0 3.0154 1.0999 3.4062 2.6562l0.09375 0.84375c0 1.933-1.567 3.5-3.5 3.5s-3.5-1.567-3.5-3.5 1.567-3.5 3.5-3.5z" fill="#ac39ac"/>
</svg>
