<?xml version="1.0" encoding="UTF-8"?>
<svg version="1.1" viewBox="0 0 14 14" xmlns="http://www.w3.org/2000/svg">
<rect width="14" height="14" fill="none" visibility="hidden"/>
<path d="m0 0v2a2 2 0 0 0 2 2 2 2 0 0 0 2-2h1a2 2 0 0 0 2 2 2 2 0 0 0 2-2h1a2 2 0 0 0 2 2 2 2 0 0 0 2-2v-2h-14z" stroke-width="0"/>
<path d="m0 5v9h2v-3h10v3h2v-9h-2v4h-10v-4h-2z" color="#000000" color-rendering="auto" fill-rule="evenodd" image-rendering="auto" shape-rendering="auto" solid-color="#000000" style="block-progression:tb;isolation:auto;mix-blend-mode:normal;text-decoration-color:#000000;text-decoration-line:none;text-decoration-style:solid;text-indent:0;text-transform:none;white-space:normal"/>
</svg>
