<?xml version="1.0" encoding="UTF-8"?>
<svg version="1.1" viewBox="0 0 14 14" xmlns="http://www.w3.org/2000/svg" xmlns:cc="http://creativecommons.org/ns#" xmlns:dc="http://purl.org/dc/elements/1.1/" xmlns:rdf="http://www.w3.org/1999/02/22-rdf-syntax-ns#">
<metadata>
<rdf:RDF>
<cc:Work rdf:about="">
<dc:format>image/svg+xml</dc:format>
<dc:type rdf:resource="http://purl.org/dc/dcmitype/StillImage"/>
<dc:title/>
</cc:Work>
</rdf:RDF>
</metadata>
<rect width="14" height="14" fill="none" visibility="hidden"/>
<path d="m0 0v1 1a2 2 0 0 0 2 2 2 2 0 0 0 2-2h1a2 2 0 0 0 2 2 2 2 0 0 0 2-2h1a2 2 0 0 0 2 2 2 2 0 0 0 2-2v-1-1h-2-12z" fill="#ac39ac" stroke-width="0"/>
<path d="m0 5v4 2 3h2v-3h10v3h2v-3-2-4h-2v4h-10v-4h-2z" color="#000000" color-rendering="auto" fill="#ac39ac" fill-rule="evenodd" image-rendering="auto" shape-rendering="auto" solid-color="#000000" style="block-progression:tb;isolation:auto;mix-blend-mode:normal;text-decoration-color:#000000;text-decoration-line:none;text-decoration-style:solid;text-indent:0;text-transform:none;white-space:normal"/>
</svg>
