<?xml version="1.0" encoding="UTF-8"?>
<svg version="1.1" viewBox="0 0 14 14" xmlns="http://www.w3.org/2000/svg">
<path d="m11.656 5.8256c0.29859 0.21006 0.47269 0.44148 0.55762 0.7348 0.02791 0.096441 0.02967 0.11625 0.03043 0.31451 6.72e-4 0.18248-0.0013 0.23033-0.02282 0.33166-0.04231 0.19888-0.12061 0.4211-0.21291 0.61472l-0.04055 0.088638-0.13941 0.00864c-0.50714 0.02973-0.91522 0.13267-1.2699 0.32308-0.7606 0.40837-1.2384 1.1756-1.4752 2.3645l-0.020273 0.09435-0.098852 0.10293c-0.054816 0.05578-0.12864 0.12289-0.16475 0.14868-0.32813 0.23418-0.79909 0.37432-1.4676 0.44031-0.30009 0.02968-0.50119 0.0355-1.4701 0.04575-0.56809 0.0061-1.036 0.0139-1.0392 0.01717-0.00311 0.0032-0.025085 0.0058-0.048159 0.0058-0.0503 0-0.046861 0.02197-0.01774-0.24017 0.04498-0.40518 0.039971-0.87532-0.012732-1.2152-0.15145-0.9776-0.68729-1.6194-1.5968-1.9129-0.39961-0.12895-0.75119-0.17545-1.351-0.18585l-0.38273-0.00864-0.025344-0.02859c-0.12784-0.15721-0.19333-0.39761-0.15715-0.5804 0.017104-0.086325 0.076164-0.21133 0.12674-0.2659l1.0774-1.2352c2.336-0.00835 2.9595 0.00427 5.1909 0.026406 0.12396 0.032996 0.68854 1.3087 0.74758 1.4146 0.031912 0.057253 0.076189 0.18358 0.086182 0.24589 0.00402 0.02531 0.00844 0.045746 0.010125 0.045746 0.015029 0 0.22325-0.093484 0.3295-0.14868 0.28433-0.14769 0.64107-0.72643 0.82145-0.9635 0.17177-2.281-2.6432-8.336 2.0351-0.58327zm-0.10899 2.3531c0.67998-0.052948 1.3494 0.22157 1.8249 0.7491 0.66115 0.73338 0.81661 1.8298 0.3878 2.7333-0.35655 0.75128-1.0613 1.2584-1.8503 1.3324-0.29608 0.02774-0.651-0.01504-0.93021-0.11438-0.69046-0.24562-1.2279-0.81508-1.4523-1.5382-0.20715-0.66725-0.12776-1.4099 0.21291-1.9985 0.39309-0.67919 1.0534-1.105 1.8072-1.1637zm-9.254 0.0057c0.27778 3.059e-4 0.35641 0.00923 0.55762 0.062902 0.90732 0.24215 1.5834 1.0369 1.7134 2.0128 0.023943 0.18007 0.024164 0.49589 0 0.66618-0.11542 0.81347-0.588 1.4873-1.2876 1.8413-0.22196 0.1123-0.50087 0.1969-0.75279 0.22588-0.14481 0.01665-0.45642 0.0044-0.60831-0.02288-0.97562-0.1761-1.7153-0.95421-1.8883-1.9871-0.032806-0.19532-0.036778-0.55372-0.007655-0.7491 0.078448-0.52535 0.30054-0.98182 0.65394-1.3524 0.34261-0.35925 0.74701-0.58174 1.242-0.67761 0.087467-0.017098 0.16337-0.020289 0.37766-0.020011zm9.3401 0.8263c-0.44966 0.02271-0.85626 0.25105-1.1304 0.63187-0.08549 0.11874-0.20032 0.35976-0.23826 0.50035-0.15436 0.57204-0.0045 1.1641 0.39794 1.5754 0.10193 0.10415 0.25334 0.22211 0.36245 0.2802 0.08522 0.04538 0.2609 0.11008 0.36499 0.13438 0.12889 0.03029 0.42246 0.03938 0.55002 0.01717 0.6129-0.10666 1.0907-0.58347 1.2318-1.2237 0.0324-0.14701 0.03963-0.43524 0.01522-0.58612-0.1307-0.80738-0.78568-1.3683-1.5537-1.3295zm-9.3351 0.0057c-0.27026-5.9e-4 -0.46634 0.04823-0.69196 0.17155-0.15711 0.08587-0.27212 0.17364-0.3954 0.30878-0.20248 0.22197-0.32486 0.46509-0.39034 0.77197-0.02702 0.12668-0.031859 0.42733-0.010125 0.57183 0.055867 0.37145 0.25531 0.7364 0.52974 0.96925 0.21122 0.17921 0.45228 0.29428 0.70463 0.33738 0.12498 0.02141 0.38691 0.02154 0.49932 0 0.88981-0.17047 1.4339-1.0898 1.1862-2.0043-0.12776-0.47173-0.49108-0.87473-0.93782-1.0407-0.17105-0.063527-0.29782-0.085314-0.49426-0.085773z" />
</svg>
