<?xml version="1.0" encoding="UTF-8"?>
<svg version="1.1" viewBox="0 0 14 14" xmlns="http://www.w3.org/2000/svg" xmlns:cc="http://creativecommons.org/ns#" xmlns:dc="http://purl.org/dc/elements/1.1/" xmlns:rdf="http://www.w3.org/1999/02/22-rdf-syntax-ns#">
<metadata>
<rdf:RDF>
<cc:Work rdf:about="">
<dc:format>image/svg+xml</dc:format>
<dc:type rdf:resource="http://purl.org/dc/dcmitype/StillImage"/>
<dc:title/>
</cc:Work>
</rdf:RDF>
</metadata>
<rect width="14" height="14" fill="none" visibility="hidden"/>
<path d="m5.5 1.0156a1.5 1.5 0 0 0-1.5 1.5 1.5 1.5 0 0 0 1.5 1.5 1.5 1.5 0 0 0 1.5-1.5 1.5 1.5 0 0 0-1.5-1.5zm4.5 0.98438-2 1 3 6 2-1-3-6zm-2 2-2 1 0.29492 1.4707-2.2949 1.5293-3-1v1l3 2 2.6465-1.7656 0.35352 1.7656 3-1-2-5zm-7 5v5h1v-5h-1zm9 1-3 1-2 3h1.834l1.5312-2 0.63477 2h2l-1-4z" fill="#ac39ac" fill-rule="evenodd"/>
</svg>
