<?xml version="1.0" encoding="UTF-8"?>
<svg version="1.1" viewBox="0 0 14 14" xmlns="http://www.w3.org/2000/svg">
<rect width="14" height="14" fill="none" visibility="hidden"/>
<path d="m9.413 0.0021516c-1.2436 0.14373-1.9498 1.5072-2.0396 2.6915-0.1469 1.0528 0.31271 2.3963 1.4185 2.6384 0.95832 0.085476 1.7207-0.81485 2.0339-1.6737 0.36986-1.075 0.38066-2.5105-0.51678-3.3159-0.24928-0.21604-0.56937-0.34727-0.89608-0.34036zm-5.0729 0.056367c-1.0348 0.074858-1.5652 1.2774-1.4932 2.2428 0.0088 1.2907 0.71761 2.7424 2.0102 3.0488 0.96396 0.10424 1.6067-0.91811 1.6666-1.812 0.12301-1.3681-0.48313-3.0253-1.8558-3.4383-0.10669-0.029465-0.21733-0.044089-0.32776-0.041191zm8.315 4.1451c-1.3884 0.10176-2.2664 1.5814-2.3267 2.9184-0.07305 0.87074 0.48949 1.9658 1.4367 1.9057 1.4166-0.15016 2.2706-1.729 2.2354-3.1007-0.0091-0.78973-0.50955-1.6905-1.3454-1.7234zm-12.644 1.8049c-0.12855 1.4815 0.90815 3.156 2.4141 3.2493 0.91278-0.06096 1.3432-1.1211 1.2386-1.9598-0.08336-1.2376-0.91082-2.5048-1.9859-2.6704-1.0751-0.16556-1.6839 0.59397-1.6668 1.3809zm7.1486 1.2638c-1.4119 0.00329-2.7028 0.92647-3.3929 2.1755-0.57824 0.93343-1.0509 1.9902-1.1409 3.1053 0.01967 0.86005 0.84028 1.5758 1.6631 1.4045 1.1737-0.15234 2.2225-0.96742 3.443-0.8147 1.0143 0.08097 1.8508 0.86748 2.8748 0.85605 0.99434 0.03734 1.568-1.1021 1.1888-1.9946-0.40805-1.2779-1.1992-2.3893-2.0483-3.3902-0.67736-0.73782-1.5645-1.3746-2.5876-1.3419z"/>
</svg>
