<?xml version="1.0" encoding="UTF-8"?>
<svg version="1.1" viewBox="0 0 14 14" xmlns="http://www.w3.org/2000/svg" xmlns:cc="http://creativecommons.org/ns#" xmlns:dc="http://purl.org/dc/elements/1.1/" xmlns:rdf="http://www.w3.org/1999/02/22-rdf-syntax-ns#">
<metadata>
<rdf:RDF>
<cc:Work rdf:about="">
<dc:format>image/svg+xml</dc:format>
<dc:type rdf:resource="http://purl.org/dc/dcmitype/StillImage"/>
<dc:title/>
</cc:Work>
</rdf:RDF>
</metadata>
<path d="m1.8994 3.9829c-1.8994 0.017124-1.8994 0.21361-1.8985 2.007l0.014746 6.043c-0.015625 1.9672-0.015625 1.9672 1.9152 2.002l10.122-0.036353c1.9473 0.001499 1.9473 0.001499 1.9978-2.0174l-0.0013-5.9842c-0.049119-1.9969-0.049119-1.9969-1.9971-2.005zm6.1006 1.0327c2.2091 1e-7 4 1.7909 4 4s-1.7909 4-4 4-4-1.7909-4-4 1.7909-4 4-4zm-6.0164-3.0343 1.0327-1e-7c0.98363 0.018714 0.98363 1.0187 1.0152 1.5076l-2.9813 0.032749c-0.050292-0.52164-0.050292-1.5216 0.93333-1.5404zm8.5228 7.0567c0 1.3807-1.1193 2.5-2.5 2.5-1.3807 0-2.5-1.1193-2.5-2.5 0-1.3807 1.1193-2.5 2.5-2.5 1.3807 1e-7 2.5 1.1193 2.5 2.5zm-1.5053-8.0556-0.017123 2.6043 5.0316-0.01592 0.01712-2.703c-0.032746-0.86784-0.032746-0.86784-1.0152-0.86589l-2.961 0.012287c-1.0566-0.014238-1.0566-0.014238-1.0554 0.96822zm1.1029 0.048339 2.9135-0.017123 0.03349 1.9859-2.915 0.01592z" fill="#ac39ac"/>
</svg>
