<?xml version="1.0" encoding="UTF-8"?>
<svg enable-background="new 0 0 580 580" version="1.1" viewBox="0 0 14 14" xml:space="preserve" xmlns="http://www.w3.org/2000/svg" xmlns:cc="http://creativecommons.org/ns#" xmlns:dc="http://purl.org/dc/elements/1.1/" xmlns:rdf="http://www.w3.org/1999/02/22-rdf-syntax-ns#"><metadata><rdf:RDF><cc:Work rdf:about=""><dc:format>image/svg+xml</dc:format><dc:type rdf:resource="http://purl.org/dc/dcmitype/StillImage"/><dc:title/></cc:Work></rdf:RDF></metadata><g transform="matrix(.019264 0 0 .03312 1.6923 -2.576)"><g transform="matrix(1.4591 0 0 1 -148.67 0)" fill="#ac39ac"><path d="m238.9 116.29a45.101 38.039 0 0 1-45.101 38.039 45.101 38.039 0 0 1-45.101-38.039 45.101 38.039 0 0 1 45.101-38.039 45.101 38.039 0 0 1 45.101 38.039zm243.77 258.43-95.383 20.807c-3.896 0.84986-12.526 0.0999-15.792-0.5834-8.3724-1.3779-10.78-4.6784-14.056-8.1298l-45.158-63.15-56.771 51.718 22.922 96.697c0.73307 2.0735 1.0996 3.7986 1.0996 5.1765 0 6.2071-2.3648 11.552-7.0955 16.034-4.7307 4.482-10.372 6.7235-16.926 6.7235-12.37 0-20.015-6.0346-22.937-18.103l-27.836-117.39c-3.2764-12.415-1.822-21.553 4.3642-27.414l49.673-47.063-54.038-59.466-34.932 33.094c-3.6417 3.4402-7.8286 5.1608-12.56 5.1608-6.185 0-12.187-2.5832-18.006-7.7485l-56.771-53.786c-2.9087-3.4514-4.3618-7.2444-4.3642-11.379 0.0026-5.1653 1.9107-9.4736 5.7322-12.925 3.8191-3.4502 8.279-5.1765 13.375-5.1765 5.0984 0 9.102 1.3778 12.011 4.1347l46.943 44.489 56.771-53.785c4.3642-4.1459 9.9649-7.4304 16.375-6.2194l123.59 23.348c5.3458 1.0099 9.2582 5.2871 13.256 9.433l27.452 40.149c4.3642 3.4402 6.548 7.7485 6.5468 12.925 8.7e-4 4.8292-1.8173 8.9673-5.4555 12.413-3.6358 3.4446-8.0035 5.1675-13.102 5.1675-5.452 0-10.184-2.0679-14.192-6.2026l-31.876-45.31-51.786-7.4476 107.43 141.54 87.534-21.329c6.9181 0 13.231 1.1859 17.963 5.3262 4.7295 4.1392 9.5362 7.8102 9.5362 14.354 0 6.2071-3.015 11.595-7.7445 15.905-4.7307 4.3094-9.4175 6.6164-15.787 8.0059z" fill="#ac39ac" fill-rule="evenodd"/></g></g></svg>
