<?xml version="1.0" encoding="UTF-8"?>
<svg enable-background="new 0 0 580 580" version="1.1" viewBox="0 0 14 14" xml:space="preserve" xmlns="http://www.w3.org/2000/svg">
  <rect width="14" height="14" fill="none" visibility="hidden"/>
  <path d="m5.5433 1.2756a1.2677 1.2598 0 0 1-1.2677 1.2598 1.2677 1.2598 0 0 1-1.2677-1.2598 1.2677 1.2598 0 0 1 1.2677-1.2598 1.2677 1.2598 0 0 1 1.2677 1.2598zm6.8522 8.5591-2.6811 0.68911c-0.10951 0.02815-0.35208 0.0033-0.4439-0.01932-0.23534-0.045636-0.30301-0.15495-0.3951-0.26926l-1.2693-2.0915-1.5957 1.7129 0.6443 3.2025c0.020606 0.06867 0.030909 0.12581 0.030909 0.17144 0 0.20558-0.06647 0.38258-0.19944 0.53102s-0.29154 0.22268-0.47576 0.22268c-0.34771 0-0.5626-0.19986-0.64473-0.59955l-0.78242-3.8878c-0.092094-0.41119-0.051215-0.71382 0.12267-0.90793l1.3962-1.5587-1.5189-1.9695-0.9819 1.0961c-0.10236 0.11394-0.22005 0.17092-0.35306 0.17092-0.17385 0-0.34255-0.085555-0.50614-0.25663l-1.5957-1.7814c-0.081758-0.11431-0.1226-0.23993-0.12267-0.37687 7.31e-5 -0.17107 0.053708-0.31376 0.16112-0.42807 0.10735-0.11427 0.23271-0.17144 0.37596-0.17144 0.14331 0 0.25584 0.045634 0.3376 0.13694l1.3195 1.4735 1.5957-1.7813c0.12267-0.13731 0.2801-0.24609 0.46027-0.20598l3.4739 0.77328c0.15026 0.033448 0.26023 0.17511 0.3726 0.31242l0.77164 1.3297c0.12267 0.11394 0.18406 0.25663 0.18402 0.42807 2.5e-5 0.15994-0.05108 0.29699-0.15335 0.41111-0.1022 0.11409-0.22497 0.17115-0.36828 0.17115-0.15325 0-0.28625-0.068488-0.39892-0.20543l-0.89598-1.5006-1.4556-0.24666 3.0197 4.6878 2.4605-0.7064c0.19446 0 0.3719 0.039275 0.5049 0.1764 0.13294 0.13709 0.26805 0.25867 0.26805 0.47541 0 0.20558-0.08475 0.38404-0.21769 0.52676-0.13297 0.14273-0.26471 0.21913-0.44376 0.26515z" fill-rule="evenodd"/></svg>
