<?xml version="1.0" encoding="UTF-8"?>
<svg version="1.1" viewBox="0 0 14 14" xmlns="http://www.w3.org/2000/svg">
<rect width="14" height="14" fill="none" visibility="hidden"/>
<g transform="translate(0,1)">
<rect x="3.5" y="2.5" width=".5" height="5"/>
<rect x="5.5" y="2.5" width=".5" height="5.5"/>
<rect x="7.5" y="2.5" width=".5" height="6"/>
<rect x="9.5" y="2.5" width=".5" height="6"/>
</g>
<g transform="translate(0,1)">
<rect x="1" y="4" width="10.5" height=".5"/>
<rect x="1" y="6" width="10.5" height=".5"/>
</g>
<g transform="translate(0,1)">
<circle cx="9.5" cy="11.2" r="1"/>
<circle cx="3.5" cy="11.2" r="1"/>
</g>
<path d="m11 10v2h-9.5a0.5 0.5 0 1 1 0-1h8.5v-1.5z"/>
<path d="m11.5 3 0.268-1.25 1.482-0.55a0.5534 0.5534 0 1 1 0.35 1.05l-1 0.35-0.1 0.4"/>
<path d="m0 3h12.5l-1.5 7-10-1m0.167-5h10.119l-1.036 4.9-8.35-0.8z" fill-rule="evenodd"/>
</svg>
