<?xml version="1.0" encoding="UTF-8"?>
<svg version="1.1" viewBox="0 0 14 14" xml:space="preserve" xmlns="http://www.w3.org/2000/svg">
  <rect width="14" height="14" fill="none" visibility="hidden"/>
  <path d="m3 0v2c-0.697 0.367-2.4795 1.74-2.6875 2-0.2 0.249-0.219 2.054 0.125 2 0.601-0.092 2.6342-1.736 3.1562-1.375 0.521 0.36 0.37125 2.052 0.40625 3.375-0.71142 0.91554-0.95132 1.9147-1.625 2.6562-0.33133-0.30096-0.68286-0.58911-1.0625-0.96875-0.077827-0.09082-0.4532-0.31263-0.80496 0.0079041-0.22161 0.3046-0.25093 0.67667 0.015808 0.92195 2.015 2.015 3.9297 3.0778 6.7581 3.0778 2.7297 0 4.081-1.0808 6.1014-3.1012 0.21871-0.14814 0.29618-0.73522 0.1094-0.92201-0.18679-0.18678-0.65662-0.20311-0.80475 0.015599-0.34931 0.34931-0.65616 0.62342-0.96875 0.90625-0.93814-1.266-0.8156-1.5878-1.7188-4.5938 2.1323-0.54703 2.5935 1.7108 4 2.3434v-2.3434c0-1-2.297-0.9715-4-0.5625-0.32831-0.4375-1-1.4375-3.3668-1.0158-0.29648-1.4217-0.78894-1.7735-2.1173-2.4217zm2 8c1 0.6652 3.3049 0.60972 4 0 0.8391 0.54127 1.5486 2.0634 2.0312 3.1875-1.1808 0.92661-2.2952 1.375-4.0312 1.375-1.7138 0-2.7859-0.39173-3.875-1.2188 0.81888-1.2711 0.94099-1.4757 1.875-3.3438z"/></svg>
