<?xml version="1.0" encoding="UTF-8"?>
<svg version="1.1" viewBox="0 0 14 14" xmlns="http://www.w3.org/2000/svg" xmlns:cc="http://creativecommons.org/ns#" xmlns:dc="http://purl.org/dc/elements/1.1/" xmlns:rdf="http://www.w3.org/1999/02/22-rdf-syntax-ns#">
<metadata>
<rdf:RDF>
<cc:Work rdf:about="">
<dc:format>image/svg+xml</dc:format>
<dc:type rdf:resource="http://purl.org/dc/dcmitype/StillImage"/>
<dc:title/>
</cc:Work>
</rdf:RDF>
</metadata>
<rect width="14" height="14" fill="none" visibility="hidden"/>
<path d="m2 1.25c0.64797 0.75 0.29744 1.2691 0 1.75-0.24687 0.39916-1 1.736-1 2 0.12453 0.46474 0.55709 0.78125 1 0.78125 0.37927-0.21897 0.68037-0.71162 1-1.0312 0 0 1 1.25 1 2.25 0 0.60832-1 2.875-1 2.875 0.1145 0.1145 0.74215 0.43091 1 0.5 0 0 1.0213-2.1128 2-2.375 0.62395-0.16719 1.4137-0.1571 2 0 0.98371 0.26359 2 2.375 2 2.375 0.25344-0.06791 0.82638-0.39976 1-0.5 0 0-0.86869-1.885-1-2.375 0 0-0.42047-1.2717 0-2 1.2903-0.74498 2.5-0.097874 2.5 2 0.52817-0.30494 1.0157-1.5 1-2-0.47591-1.7761-2.5-2.5-4-1-0.96549-0.55742-2.6349-0.61577-4-0.25 0-2.25-2.0403-3-3.5-3zm0.625 1.75c0.20711 0 0.375 0.16789 0.375 0.375s-0.16789 0.375-0.375 0.375-0.375-0.16789-0.375-0.375 0.16789-0.375 0.375-0.375zm-0.875 7-0.75 1s2 2.25 6 2.25 6-2.25 6-2.25l-0.75-1s-2.25 2-5.25 2-5.25-2-5.25-2z" fill="#ac39ac"/>
</svg>
