<?xml version="1.0" encoding="UTF-8"?>
<svg version="1.1" viewBox="0 0 14 14" xmlns="http://www.w3.org/2000/svg" xmlns:cc="http://creativecommons.org/ns#" xmlns:dc="http://purl.org/dc/elements/1.1/" xmlns:rdf="http://www.w3.org/1999/02/22-rdf-syntax-ns#">
<metadata>
<rdf:RDF>
<cc:Work rdf:about="">
<dc:format>image/svg+xml</dc:format>
<dc:type rdf:resource="http://purl.org/dc/dcmitype/StillImage"/>
<dc:title/>
</cc:Work>
</rdf:RDF>
</metadata>
<g fill="#ac39ac">
<path d="m5 0c-1 0-1 0-1 1l0.0097656 3h-3.0098v9c0 1 0 1 1 1h10c1 0 1 0 1-1v-9h-2.9609l-0.039062-3c0-1 0-1-1-1zm4 1v3h-4v-3zm-4 4h3v7h-3v-1h2v-2h-2zm4 0h3v7h-3v-1h2v-2h-2zm-3 1v2h1v-2zm4 0v2h1v-2zm-8 5h2v2.4893h-1v-1.4893h-1z"/>
</g>
</svg>
