<?xml version="1.0" encoding="UTF-8"?>
<svg version="1.1" viewBox="0 0 14 14" xmlns="http://www.w3.org/2000/svg" xmlns:cc="http://creativecommons.org/ns#" xmlns:dc="http://purl.org/dc/elements/1.1/" xmlns:rdf="http://www.w3.org/1999/02/22-rdf-syntax-ns#">
<metadata>
<rdf:RDF>
<cc:Work rdf:about="">
<dc:format>image/svgxml</dc:format>
<dc:type rdf:resource="http://purl.org/dc/dcmitype/StillImage"/>
<dc:title/>
</cc:Work>
</rdf:RDF>
</metadata>
<rect width="14" height="14" fill="none" visibility="hidden"/>
<path d="m4.1219 13.627c-0.21782-0.058681-0.41756-0.14616-1.0787-0.47245-0.64958-0.32057-0.87209-0.40494-1.1307-0.42874-0.24275-0.02235-0.51961 0.06876-1.1494 0.37821-0.26989 0.13262-0.49219 0.2374-0.49399 0.23286-0.00182-0.0045 7.8464e-4 -0.43324 0.005749-0.95266l0.009006-0.94439 0.38018-0.18502c1.1532-0.56118 1.1955-0.56048 2.4388 0.04037 0.88389 0.42716 1.0026 0.47097 1.2796 0.47219 0.28185 0.0012 0.34488-0.02131 1.2436-0.44487 1.126-0.53071 1.2555-0.56133 1.7184-0.40624 0.15521 0.052 0.57681 0.23576 0.93688 0.40836 0.82002 0.39306 1.0516 0.47422 1.2955 0.45401 0.26464-0.0219 0.49157-0.10854 1.2724-0.48571 0.38696-0.18692 0.80284-0.36963 0.92418-0.40603 0.38871-0.11661 0.65659-0.0544 1.4921 0.34652l0.45527 0.21846-0.0141 0.62401c-0.01779 0.78718-0.03672 1.2413-0.05247 1.257-0.0067 0.0067-0.23306-0.09626-0.50296-0.22888-0.53721-0.26397-0.88716-0.38916-1.0879-0.38916-0.21472 0-0.50431 0.10786-1.2441 0.46339-0.38696 0.18597-0.81808 0.37455-0.95805 0.41907-0.41102 0.13073-0.53408 0.10302-1.4221-0.32029-1.2466-0.59425-1.4161-0.63671-1.8974-0.4753-0.15437 0.051775-0.5855 0.24079-0.95805 0.42004-0.93298 0.44891-1.1137 0.49901-1.4618 0.40523z" fill="#0E8517" stroke-width="1.3333"/>
<path d="m6.0166 6.0237c-0.083733-0.085851-2.3787 0.96259-3.3211 1.5172-0.36343 0.21389-0.73324 0.38889-0.82181 0.38889-0.37127 0-0.56314-0.46666-0.56314-1.3696 0-1.2413 0.47156-2.5062 1.3249-3.5538 0.31984-0.39264 1.2137-1.1047 1.5741-1.254 0.19885-0.082373 0.21827-0.11681 0.21827-0.38713 0-0.5758 0.49953-0.77137 0.85908-0.33635 0.18448 0.22321 0.20214 0.22934 0.49623 0.17237 0.56587-0.10962 1.6331-0.075006 2.2085 0.071633 1.4235 0.36278 2.668 1.2677 3.3659 2.4475 0.29057 0.49118 0.30434 0.58569 0.11954 0.82062-0.11603 0.14751-0.23586 0.18566-0.89789 0.28587-1.2607 0.19083-3.4614 0.71867-3.5423 0.84963 0.76306 2.3729 1.2798 3.8762 2.1363 6.2108l-1.3174-0.53686c-0.73242-2.2185-1.0642-3.2042-1.8391-5.3267z" fill="#0E8517" stroke-width="1.3333"/>
</svg>
