<?xml version="1.0" encoding="UTF-8"?>
<svg version="1.1" viewBox="0 0 14 14" xmlns="http://www.w3.org/2000/svg">
<rect width="14" height="14" fill="none" visibility="hidden"/>
<g transform="matrix(.033729 0 0 .033779 -1.5157e-6 5.43)">
<path transform="matrix(29.648 0 0 29.604 4.4939e-5 -160.75)" d="m3.5 0c-1.3807 0-2.5 1.1193-2.5 2.5s1.1193 2.5 2.5 2.5c0.92534 0 1.724-0.50276 2.1562-1.25h1.3438l1-1 1 1 1-1 1 1h0.5l1.5-1.25-1.5-1.25h-5.8438c-0.43226-0.74724-1.2309-1.25-2.1562-1.25zm-1 2c0.27614 0 0.5 0.22386 0.5 0.5s-0.22386 0.5-0.5 0.5-0.5-0.22386-0.5-0.5 0.22386-0.5 0.5-0.5zm2.7324 3.4297v2.5957h-5.2324l1.4648 2.541h11.07l1.4648-2.541h-5.2324v-2.5957h-3.5352zm-2.2324 6.0703c-0.5339 0-1.4923 1-2 1v1.5c0.53718 0 1.5254-1 2-1 0.50424 0 1.4661 1 2 1 0.4755 0 1.4923-1 2-1 0.50424 0 1.5217 1 2 1 0.50424 0 1.5254-1 2-1s1.4958 1 2 1v-1.5c-0.41525 0-1.4661-1.0297-2-1-0.47827 0-1.4653 1-2 1-0.44492 0-1.4958-1-2-1s-1.5541 1-2 1c-0.4755 0-1.4661-1-2-1z" stroke-width=".033754"/>
</g>
</svg>
