<?xml version="1.0" encoding="UTF-8"?>
<svg version="1.1" viewBox="0 0 14 14" xmlns="http://www.w3.org/2000/svg">
<rect width="14" height="14" fill="none" visibility="hidden"/>
<path d="m2 1c-1 0-2 1-2 2v1h4l1-1h4l1 1h4v-1c0-1-1-2-2-2zm-2 3.75v0.5s0.37038 0.75 1 0.75h2c0.56635-0.018878 1-0.75 1-0.75v-0.5zm10 0v0.5s0.43372 0.75 1 0.75h2c0.56667 0 1-0.75 1-0.75v-0.5zm-8.5 3.25c-0.79237 0-1.5 0.57353-1.5 1.5 0 0.9789 0.72246 1.5 1.5 1.5h1s0.5 0 0.5 0.5-0.5 0.5-0.5 0.5h-2v1h2c0.77754 0 1.5-0.60308 1.5-1.5312 0-0.87574-0.73729-1.4688-1.5-1.4688h-1s-0.5 0-0.5-0.5 0.5-0.5 0.5-0.5h2v-1zm5 0c-1.5 0-1.5 1.5-1.5 1.5v2s0 1.5 1.5 1.5h1c1.5 0 1.5-1.5 1.5-1.5v-2s0-1.5-1.5-1.5zm5 0c-0.79237 0-1.5 0.57353-1.5 1.5 0 0.9789 0.72246 1.5 1.5 1.5h1s0.5 0 0.5 0.5-0.5 0.5-0.5 0.5h-2v1h2c0.77754 0 1.5-0.60308 1.5-1.5312 0-0.87574-0.73729-1.4688-1.5-1.4688h-1s-0.5 0-0.5-0.5 0.5-0.5 0.5-0.5h2v-1zm-5.5 1.75s0-0.75 0.75-0.75h0.5c0.75 0 0.75 0.75 0.75 0.75v1.5s0 0.75-0.75 0.75h-0.5c-0.75 0-0.75-0.75-0.75-0.75z" color="#000000"/>
</svg>
