<?xml version="1.0" encoding="UTF-8"?>
<svg version="1.1" viewBox="0 0 14 14" xmlns="http://www.w3.org/2000/svg">
<rect width="14" height="14" fill="none" visibility="hidden"/>
<path d="m0 11h14c-1 2-5 3-7 3s-5.6985-1-7-3zm9-10.939c-1 0-1.6752 1.0351-2.0117 1.8137-0.33757-0.81661-0.98828-1.8594-1.9883-1.8594-1.5004 0-2 1.9238-2 2.9238s1 0.67465 1 0.030468c1-2 2-1.614 2.2422 1.5477v0.34961c-0.383-0.18921-0.81199-0.30859-1.2422-0.30859-1.4671 0-2.75 1.0325-2.75 3v1c0 1 1.5 1 1.5 0v-1c0-0.96596 0.68302-1.5 1.25-1.5 0.54947 0 1.202 0.53618 1.2422 1.418v2.5238c0.75781-0.57818 0.75781-0.59419 1.4847 0l0.023064-2.4418v-0.125c0.041048-0.8806 0.69313-1.416 1.2422-1.416 0.56698 0 1.25 0.53404 1.25 1.5v1c0 1 1.5 1 1.5 0v-1c0-1.9675-1.2829-3-2.75-3-0.43042 5e-6 -0.85904 0.12117-1.2422 0.31055 0-0.089844-0.016705-0.18125 0-0.26953 0.25-2.7442 1.25-3.5582 2.25-1.5582 0 0.52775 1 0.92383 1-0.07617s-0.49963-2.8629-2-2.8629z" fill-rule="evenodd"/>
</svg>
