<?xml version="1.0" encoding="UTF-8"?>
<svg version="1.1" viewBox="0 0 12 12" xmlns="http://www.w3.org/2000/svg" xmlns:cc="http://creativecommons.org/ns#" xmlns:dc="http://purl.org/dc/elements/1.1/" xmlns:rdf="http://www.w3.org/1999/02/22-rdf-syntax-ns#">
<metadata>
<rdf:RDF>
<cc:Work rdf:about="">
<dc:format>image/svg+xml</dc:format>
<dc:type rdf:resource="http://purl.org/dc/dcmitype/StillImage"/>
<dc:title/>
</cc:Work>
</rdf:RDF>
</metadata>
<rect y="-2" width="14" height="14" fill="none" visibility="hidden"/>
<path d="m1.0765 8.808h9.847c-0.70336 1.4067-3.5168 2.1101-4.9235 2.1101s-4.0081-0.70336-4.9235-2.1101zm6.3302-7.694c-0.70336 0-1.1783 0.72805-1.4149 1.2757-0.23743-0.57437-0.69511-1.3078-1.3985-1.3078-1.0553 0-1.4067 1.3531-1.4067 2.0565s0.70336 0.47452 0.70336 0.02143c0.70336-1.4067 1.4067-1.1352 1.5771 1.0886v0.2459c-0.26939-0.13308-0.57112-0.21705-0.87371-0.21705-1.0319 0-1.9342 0.72622-1.9342 2.1101v0.70336c0 0.70336 1.055 0.70336 1.055 0v-0.70336c0-0.67942 0.48041-1.055 0.8792-1.055 0.38647 0 0.84544 0.37713 0.87371 0.99736v1.7751c0.53301-0.40667 0.53301-0.41793 1.0443 0l0.016222-1.7175v-0.087919c0.028871-0.61938 0.48752-0.99595 0.87371-0.99595 0.39879 0 0.8792 0.37562 0.8792 1.055v0.70336c0 0.70336 1.055 0.70336 1.055 0v-0.70336c0-1.3839-0.90234-2.1101-1.9342-2.1101-0.30274 3.5e-6 -0.60421 0.085226-0.87371 0.21843 0-0.063192-0.01175-0.12748 0-0.18958 0.17584-1.9302 0.8792-2.5027 1.5826-1.096 0 0.3712 0.70336 0.64978 0.70336-0.053574 0-0.70336-0.35142-2.0136-1.4067-2.0136z" fill="#5768ec" fill-rule="evenodd" stroke-width=".70336"/>
</svg>
