<?xml version="1.0" encoding="UTF-8"?>
<svg version="1.1" viewBox="0 0 14 14" xmlns="http://www.w3.org/2000/svg">
<rect width="14" height="14" fill="none" visibility="hidden"/>
<path d="m7.4007 6.8401e-8a0.99994 0.99996 0 0 0-0.99994 0.99996 0.99994 0.99996 0 0 0 0.99994 0.99996 0.99994 0.99996 0 0 0 0.99994-0.99996 0.99994 0.99996 0 0 0-0.99994-0.99996zm-0.55856 2.2128c-0.45367 0.064107-0.75435 0.57939-0.67378 1.1542l0.31639 2.246-0.38083 0.40623a2.617 1.3654 0 0 0-1.3593-0.20116 2.617 1.3654 0 0 0-2.0448 0.5156c-0.32516-0.035788-1.5498 0.38979-2.0389 1.2597-0.19397 0.36263-1.0753 3.5709-0.42575 3.949 0.24913 0.0823 0.69529 0.01901 0.73433-0.62693 0.093684-1.5494 0.16304-2.6749 1.0273-3.3026a0.56948 1.5801 0 0 0-0.031248 0.50974 0.56948 1.5801 0 0 0 0.32615 1.4257l-1.3359 3.7225c-0.099314 0.27692 0.028528 0.58501 0.28709 0.69138 0.25856 0.10636 0.54713-0.02971 0.64644-0.30663l0.96478-2.6893 0.84565-1.3124v1.3456h2e-3a0.49997 0.49998 0 0 0 0.0039 0.07422c3e-3 0.08201 0.018199 0.16342 0.058586 0.23827l1.3163 2.4374c0.13444 0.24916 0.43143 0.32556 0.66793 0.16992l0.0039-2e-3c0.23649-0.15564 0.31802-0.48128 0.18358-0.73044l-1.2109-2.246 0.15429-1.9843a2.5827 0.88186 5.2773 0 0 2.1014 0.6074 2.5827 0.88186 5.2773 0 0 1.4413-0.0078l-1.3866 3.703c-0.10286 0.27503 0.022019 0.58687 0.27928 0.69919 0.25726 0.11232 0.54749-0.01793 0.65035-0.29296l1.4472-3.8651 2.3221 3.9471c0.14725 0.25024 0.45482 0.32744 0.68941 0.17187s0.30544-0.48411 0.15819-0.73434l-2.5076-4.2596c0.21619-0.25665 0.37734-0.53806 0.4863-0.81442 0.36901-0.60861 0.47613-1.3308 1.5585-1.6835l0.95892 1.4472 0.0039-2e-3a0.49997 0.49998 0 0 0 0.30076 0.21093 0.49997 0.49998 0 0 0 0.60348-0.37108 0.49997 0.49998 0 0 0 0.01172-0.16015h2e-3l-0.23241-2.0663-0.0059 0.0039a0.99993 0.99996 0 0 0-0.19924-0.50184l0.2949-1.2285-0.76948 0.83199c-0.47459-0.21087-1.3769-0.27004-2.3241 0.078127-0.49972 0.1837-0.91386 0.40823-1.2597 0.63474l-1.5292-0.96675-0.16796-1.2031c-0.080565-0.57485-0.51111-0.98594-0.96478-0.92183z" style="paint-order:markers stroke fill"/>
</svg>
