<?xml version="1.0" encoding="UTF-8"?>
<svg version="1.1" viewBox="0 0 14 14" xmlns="http://www.w3.org/2000/svg">
<path d="m5.5449 1a1.5 1.5 0 0 0-1.5 1.5 1.5 1.5 0 0 0 1.5 1.5 1.5 1.5 0 0 0 1.5-1.5 1.5 1.5 0 0 0-1.5-1.5zm-1.2148 3.5098c-0.3894 0.051198-0.7406 0.31919-0.87305 0.70508l-1.2988 3.7852h2.0684l0.94727-2.7578 1.0176 1.0469c0.01561 0.01606 0.035652 0.02359 0.052734 0.037109 0.017015 0.014958 0.037479 0.024461 0.056641 0.037109 0.029802 0.017613 0.057734 0.03598 0.089844 0.046875 0.016535 0.0066098 0.029333 0.0185 0.046875 0.023438l1.9238 0.54102c0.26664 0.075053 0.54213-0.079065 0.61719-0.3457 0.075053-0.26664-0.079065-0.54018-0.3457-0.61523l-1.8086-0.50977-1.6582-1.7051c-0.011607-0.011941-0.026624-0.016807-0.039062-0.027344-0.10975-0.1055-0.23906-0.19353-0.40234-0.23633-0.13155-0.034481-0.26473-0.042457-0.39453-0.025391zm7.1699 3.4902a1.5 1.5 0 0 0-1.5 1.5 1.5 1.5 0 0 0 1.5 1.5 1.5 1.5 0 0 0 1.5-1.5 1.5 1.5 0 0 0-1.5-1.5zm-10.5 2c-0.554 0-1 0.446-1 1s0.446 1 1 1h8.1953l2.0586 0.94922c0.066982 0.030919 0.13713 0.043133 0.20508 0.042969 0.014195 0.0012 0.0265 0.007812 0.041016 0.007812h2c0.277 0 0.5-0.223 0.5-0.5s-0.223-0.5-0.5-0.5h-1.9395l-4.2168-1.9473c-0.082536-0.038099-0.16747-0.041721-0.25-0.033203-0.03244-0.003148-0.060457-0.019531-0.09375-0.019531h-6z"/>
</svg>
