<?xml version="1.0" encoding="UTF-8"?>
<svg version="1.1" viewBox="0 0 14 14" xmlns="http://www.w3.org/2000/svg">
<rect width="14" height="14" fill="none" visibility="hidden"/>
<path d="m3.4062 1c-0.75363 0.047193-1.4077 0.7449-1.4062 1.5 2.87e-4 0.78522 0.71478 1.4995 1.5 1.4995s1.4997-0.71424 1.5-1.4995c0.0016-0.81765-0.7777-1.5511-1.5938-1.5zm8 3c-0.75363 0.047193-1.4077 0.7449-1.4062 1.5 2.87e-4 0.78522 0.71478 1.4995 1.5 1.4995s1.4997-0.71424 1.5-1.4995c0.001599-0.81765-0.7777-1.5511-1.5938-1.5zm-8.4062 0.5c-1.471 0-1.8658 1.8734-1.9688 2.875l-1.0312-0.375v1l5.9688 2.125-0.96875 3.875h4l-0.9375-3.125 5.9375 2.125v-1l-0.9375-0.34375c0.16406-0.86133 0.6875-4.1562-1.0625-4.1562-1.6385 0-1.9152 2.2445-1.9688 3.0938l-5.9375-2.125c0.19126-1.1312 0.52025-3.9688-1.0938-3.9688z"/>
</svg>
