<?xml version="1.0" encoding="UTF-8"?>
<svg version="1.1" viewBox="0 0 14 14" xmlns="http://www.w3.org/2000/svg">
<g fill-rule="evenodd">
<path d="m3.2668 4.4106c0.27759-1.4774 1.7003-2.4501 3.1777-2.1725 1.4774 0.27759 2.4501 1.7003 2.1725 3.1777" style="paint-order:stroke fill markers"/>
<rect transform="rotate(10.641)" x="6.1527" y="-1.274" width="1.4329" height="4.2311" ry=".71645" style="paint-order:stroke fill markers"/>
<circle transform="rotate(10.641)" cx="6.7002" cy="6.6965" r=".85549" style="paint-order:stroke fill markers"/>
<circle transform="rotate(10.641)" cx="6.7256" cy="9.3464" r=".85549" style="paint-order:stroke fill markers"/>
<circle transform="rotate(10.641)" cx="6.6661" cy="12.015" r=".85549" style="paint-order:stroke fill markers"/>
<circle transform="rotate(10.641)" cx="9.2645" cy="6.168" r=".85549" style="paint-order:stroke fill markers"/>
<circle transform="rotate(10.641)" cx="9.7173" cy="8.7969" r=".85549" style="paint-order:stroke fill markers"/>
<circle transform="rotate(10.641)" cx="10.278" cy="11.443" r=".85549" style="paint-order:stroke fill markers"/>
<circle transform="rotate(10.641)" cx="4.207" cy="6.2047" r=".85549" style="paint-order:stroke fill markers"/>
<circle transform="rotate(10.641)" cx="3.5983" cy="8.8062" r=".85549" style="paint-order:stroke fill markers"/>
<circle transform="rotate(10.641)" cx="3.0159" cy="11.418" r=".85549" style="paint-order:stroke fill markers"/>
<rect transform="matrix(-.012006 .99993 -.99999 -.0037155 0 0)" x="-.035596" y="-14.008" width="1.433" height="7.606" ry=".71648" style="paint-order:stroke fill markers"/>
<rect transform="matrix(-.0060995 .99998 -.99997 -.0073138 0 0)" x="-.074135" y="-14" width="1.4329" height="3.864" ry="0" style="paint-order:stroke fill markers"/>
</g>
</svg>
