<?xml version="1.0" encoding="UTF-8" standalone="no"?>
<!-- Generator: Adobe Illustrator 13.0.2, SVG Export Plug-In . SVG Version: 6.00 Build 14948)  -->

<svg
   xmlns:dc="http://purl.org/dc/elements/1.1/"
   xmlns:cc="http://creativecommons.org/ns#"
   xmlns:rdf="http://www.w3.org/1999/02/22-rdf-syntax-ns#"
   xmlns:svg="http://www.w3.org/2000/svg"
   xmlns="http://www.w3.org/2000/svg"
   version="1.1"
   id="Layer_1"
   x="0"
   y="0"
   width="16"
   height="16"
   viewBox="0 0 16 16"
   xml:space="preserve"><metadata
     id="metadata14"><rdf:RDF><cc:Work
         rdf:about=""><dc:format>image/svg+xml</dc:format><dc:type
           rdf:resource="http://purl.org/dc/dcmitype/StillImage" /></cc:Work></rdf:RDF></metadata><defs
     id="defs12" /><g
     id="g4142"
     transform="matrix(0.11664,0,0,0.11664,0.85003374,0.5056607)"><g
       style="fill:#734a08;fill-opacity:1"
       id="g3"><defs
         id="defs6" /><path
         style="fill:#734a08;fill-opacity:1"
         id="path9"
         d="m 27.125,24.859 20.797,5.664 11.547,-8.008 4.015,0.977 -11.437,8.031 63.039,17.281 L 110.47,65.726 47.203,48.492 C 22.687,41.187 27.156,24.859 27.156,24.859" /><path
         style="fill:#734a08;fill-opacity:1"
         id="path11"
         d="m 81.796,68.141 c -0.07,-1.414 -0.344,-2.758 -0.805,-4.023 l 28.522,7.93 -0.914,3.517 -26.803,-7.424 z" /><path
         style="fill:#734a08;fill-opacity:1"
         id="path13"
         d="m 55.891,60.992 c 0.773,-1.125 1.688,-2.125 2.727,-3.008 l -47.587,-13.132 0,3.781 44.86,12.359 z" /><path
         style="fill:#734a08;fill-opacity:1"
         id="path15"
         d="m 67.664,73.516 c 2.562,0 4.633,-2.078 4.633,-4.641 0,-2.563 -2.069,-4.642 -4.633,-4.642 -2.57,0 -4.641,2.078 -4.641,4.642 0,2.563 2.07,4.641 4.641,4.641 z m 46.445,28.414 c -2.258,0 -4.406,-0.508 -6.32,-1.391 -1.992,-0.898 -4.211,-1.438 -6.547,-1.438 -2.32,0 -4.555,0.539 -6.516,1.438 -1.945,0.883 -4.094,1.391 -6.352,1.391 -2.258,0 -4.406,-0.508 -6.345,-1.391 -1.977,-0.898 -4.202,-1.438 -6.522,-1.438 -2.328,0 -4.555,0.539 -6.539,1.438 -1.922,0.883 -4.094,1.391 -6.336,1.391 -2.25,0 -4.406,-0.508 -6.335,-1.391 -1.992,-0.898 -4.227,-1.438 -6.547,-1.438 -2.312,0 -4.547,0.539 -6.516,1.438 -1.93,0.883 -4.102,1.391 -6.344,1.391 -2.25,0 -4.406,-0.508 -6.352,-1.391 -1.961,-0.898 -4.195,-1.438 -6.516,-1.438 -2.321,0 -4.555,0.539 -6.531,1.438 -1.93,0.883 -4.102,1.391 -6.336,1.391 l -0.148,-37.789 52.04,14.352 c -3.585,-1.734 -6.079,-5.367 -6.079,-9.617 0,-5.905 4.781,-10.695 10.696,-10.695 5.891,0 10.688,4.79 10.688,10.695 0,5.906 -4.797,10.695 -10.688,10.695 -0.359,0 -0.711,-0.078 -1.056,-0.102 l 47.431,13.062 0.07,9.399 z" /></g></g></svg>