<?xml version="1.0" encoding="UTF-8"?>
<svg version="1.1" viewBox="0 0 16 16" xml:space="preserve" xmlns="http://www.w3.org/2000/svg" xmlns:cc="http://creativecommons.org/ns#" xmlns:dc="http://purl.org/dc/elements/1.1/" xmlns:rdf="http://www.w3.org/1999/02/22-rdf-syntax-ns#"><metadata><rdf:RDF><cc:Work rdf:about=""><dc:format>image/svg+xml</dc:format><dc:type rdf:resource="http://purl.org/dc/dcmitype/StillImage"/></cc:Work></rdf:RDF></metadata><g transform="matrix(.11664 0 0 .11664 .85003 .50566)"><g fill="#734a08"><path d="m27.125 24.859 20.797 5.664 11.547-8.008 4.015 0.977-11.437 8.031 63.039 17.281-4.616 16.922-63.267-17.234c-24.516-7.305-20.047-23.633-20.047-23.633"/><path d="m81.796 68.141c-0.07-1.414-0.344-2.758-0.805-4.023l28.522 7.93-0.914 3.517-26.803-7.424z"/><path d="m55.891 60.992c0.773-1.125 1.688-2.125 2.727-3.008l-47.587-13.132v3.781l44.86 12.359z"/><path d="m67.664 73.516c2.562 0 4.633-2.078 4.633-4.641s-2.069-4.642-4.633-4.642c-2.57 0-4.641 2.078-4.641 4.642 0 2.563 2.07 4.641 4.641 4.641zm46.445 28.414c-2.258 0-4.406-0.508-6.32-1.391-1.992-0.898-4.211-1.438-6.547-1.438-2.32 0-4.555 0.539-6.516 1.438-1.945 0.883-4.094 1.391-6.352 1.391s-4.406-0.508-6.345-1.391c-1.977-0.898-4.202-1.438-6.522-1.438-2.328 0-4.555 0.539-6.539 1.438-1.922 0.883-4.094 1.391-6.336 1.391-2.25 0-4.406-0.508-6.335-1.391-1.992-0.898-4.227-1.438-6.547-1.438-2.312 0-4.547 0.539-6.516 1.438-1.93 0.883-4.102 1.391-6.344 1.391-2.25 0-4.406-0.508-6.352-1.391-1.961-0.898-4.195-1.438-6.516-1.438s-4.555 0.539-6.531 1.438c-1.93 0.883-4.102 1.391-6.336 1.391l-0.148-37.789 52.04 14.352c-3.585-1.734-6.079-5.367-6.079-9.617 0-5.905 4.781-10.695 10.696-10.695 5.891 0 10.688 4.79 10.688 10.695 0 5.906-4.797 10.695-10.688 10.695-0.359 0-0.711-0.078-1.056-0.102l47.431 13.062 0.07 9.399z"/></g></g></svg>
