<?xml version="1.0" encoding="UTF-8"?>
<svg version="1.1" viewBox="0 0 16 16" xmlns="http://www.w3.org/2000/svg" xmlns:cc="http://creativecommons.org/ns#" xmlns:dc="http://purl.org/dc/elements/1.1/" xmlns:rdf="http://www.w3.org/1999/02/22-rdf-syntax-ns#">
<metadata>
<rdf:RDF>
<cc:Work rdf:about="">
<dc:format>image/svg+xml</dc:format>
<dc:type rdf:resource="http://purl.org/dc/dcmitype/StillImage"/>
<dc:title/>
</cc:Work>
</rdf:RDF>
</metadata>
<rect y="2" width="14" height="14" fill="none" visibility="hidden"/>
<path d="m9.668 1.2721c-0.12525 0.00996-0.24619 0.050632-0.375 0.125l-4.0417 2.1666c-0.51271 0.24266-0.71313 1.0029-0.375 1.4583l1.0833 1.7083-4.6667 2.6666 0.041667 0.83333s0.62388-0.5 1.2917-0.5c0.63171 0 1.8976 0.99999 2.6667 0.99999 0.67115 0 1.9949-0.99999 2.6667-0.99999 0.69912 0 1.9675 0.99999 2.6667 0.99999h0.45833l-3.7917-5.9999 2.7917-1.4583c0.59732-0.34486 0.79037-0.94422 0.54167-1.375-0.22942-0.39736-0.58257-0.65488-0.95833-0.62499zm2.2917 3.4583c-1.1046 0-2 0.89546-2 2 0 1.1045 0.89543 2 2 2s2-0.89546 2-2c0-1.1045-0.89543-2-2-2zm-9.3333 6.9999c-0.42859 0-1.0623 0.36248-1.6466 0.65097l-0.016215 2.0268c0.61304-0.29229 1.2699-0.67778 1.6628-0.67778 0.67232 0 1.9548 0.99999 2.6667 0.99999 0.634 0 1.9897-0.99999 2.6667-0.99999 0.67232 0 2.029 0.99999 2.6667 0.99999 0.67232 0 2.0339-0.99999 2.6667-0.99999 0.39604 0 1.0776 0.39173 1.6969 0.68483l0.04637-2.0236c-0.60292-0.29952-1.3042-0.68565-1.7433-0.66126-0.63769 0-1.9537 0.99999-2.6667 0.99999-0.59322 0-1.9944-0.99999-2.6667-0.99999s-2.0721 0.99999-2.6667 0.99999c-0.634 0-1.9548-0.99999-2.6667-0.99999z" fill="#0e8517" stroke-width="1.3333"/>
</svg>
