<?xml version="1.0" encoding="UTF-8"?>
<svg version="1.1" viewBox="0 0 14 14" xmlns="http://www.w3.org/2000/svg">
<rect width="14" height="14" fill="none" visibility="hidden"/>
<path d="m6.25 0v14h1.5v-14h-1.5zm-3.75 1c-0.82843 0-1.5 0.67157-1.5 1.5s0.67157 1.5 1.5 1.5 1.5-0.67157 1.5-1.5-0.67157-1.5-1.5-1.5zm9 0c-0.82843 0-1.5 0.67157-1.5 1.5s0.67157 1.5 1.5 1.5 1.5-0.67157 1.5-1.5-0.67157-1.5-1.5-1.5zm-10 4c-0.59972 0-1 0.56854-1 1 0 0.52733 1.25 1.4966 1.25 2 0 0.55597-1.75 1-1.75 3h1.75v3h1.5v-3h1.75c0-2-1.75-2.4705-1.75-3 0-0.52951 1.25-1.4487 1.25-2 0-0.40749-0.42473-1-1-1h-2zm8.5 0c-0.52733 0-1 0.48047-1 1 0 1 1.75 4.0161 1.75 5v3h1.5v-3c0-0.96446 1.75-4 1.75-5 0-0.55338-0.4487-1-1-1h-3z"/>
</svg>
