<?xml version="1.0" encoding="UTF-8"?>
<svg version="1.1" viewBox="0 0 14 14" xmlns="http://www.w3.org/2000/svg">
<rect width="14" height="14" fill="none" visibility="hidden"/>
<path d="m6.1289 0.076172c-0.87023 0-0.87023 0.87109 0 0.87109h1.7422v1.7559h-2.6113c-0.87027 0-1.7402 0.87196-1.7402 1.7422v1.7402h1.7402l0.052734-1.0273c0-0.45174 0.3668-0.71484 0.81836-0.71484 2.6687 0 3.4805-0.015625 3.4805-0.015625v8.7012h-3.4824v0.001953h-0.26172l0.9043-4.8281h-4.8555l0.9043 4.8281h-0.17188v-0.001953h-1.7402v0.87109l12.184-0.017578v-0.86914l-1.7402-0.02539v-10.4l-2.6113 0.015625v-1.7559h1.7402c0.87023 0 0.87023-0.87109 0-0.87109h-4.3516zm-3.4961 8.834h3.418l-0.22461 1.2129h-2.9688l-0.22461-1.2129z"/>
</svg>
