<?xml version="1.0" encoding="UTF-8"?>
<svg version="1.1" viewBox="0 0 14 14" xmlns="http://www.w3.org/2000/svg">
<path d="m5.414 5.0106 0.91049 4.8559h3.035l0.91049-4.8559zm0.71606 0.60699h3.4179l-0.22525 1.214h-2.9674z"/>
<g transform="matrix(.30747 0 0 .30747 -.70213 -.63576)">
<path transform="matrix(3.2523 0 0 3.2523 2.2835 2.0677)" d="m3.0762 0c-0.27732 0-0.42969 0.18566-0.42969 0.43164v0.89062h-0.89453c-0.49302 0-0.89258 0.40062-0.89258 0.89258v1.5059c0 0.12299-0.12523 0.27734-0.2793 0.27734h-0.1543c-0.27732 0-0.42969 0.18371-0.42969 0.42969s0.18318 0.43164 0.42969 0.43164h0.43359c0.49302 0 0.89258-0.40062 0.89258-0.89258v-1.5059c0-0.12299 0.12327-0.27734 0.27734-0.27734h0.61719c0 3.0786-0.00195 6.1342-0.00195 9.0195h-0.53907c-0.24157 0-0.35352 0.17479-0.35352 0.34961v2.0977c0 0.22477 0.091408 0.34961 0.36133 0.34961h11.445c0.27673 0 0.43164-0.16057 0.43164-0.34961v-2.0977c0-0.20219-0.18516-0.34961-0.40039-0.34961h-0.42969c0.0024-3.6639 4e-3 -7.6294 4e-3 -10.771-9.4e-5 -0.27673-0.18576-0.43164-0.43173-0.43164s-0.42969 0.18566-0.42969 0.43164v0.89062h-1.3535c0.03075 0.12299 0.03125 0.30865 0.03125 0.43164s-4.92e-4 0.3067-0.03125 0.42969h1.3535c0 3.2689-4e-3 6.1087-4e-3 9.0195-2.9278 0.0012-6.1073 2.08e-4 -8.7929 0 0-2.9958 0.00375-6.2561 0.00391-9.0195h1.3535c-0.030814-0.12299-0.03125-0.3067-0.03125-0.42969s4.245e-4 -0.30865 0.03125-0.43164h-1.3535v-0.89062c0-0.27673-0.18708-0.43164-0.43359-0.43164z"/>
<path d="m32.168 10.62c1.6 0 2.9-1.3 2.9-2.9s-1.3-2.9-2.9-2.9h-8.7c-1.6 0-2.9 1.3-2.9 2.9s1.3 2.9 2.9 2.9z" stroke-width="3.2523"/>
</g>
</svg>
