<?xml version="1.0" encoding="UTF-8" standalone="no"?>
<svg
   xmlns:dc="http://purl.org/dc/elements/1.1/"
   xmlns:cc="http://creativecommons.org/ns#"
   xmlns:rdf="http://www.w3.org/1999/02/22-rdf-syntax-ns#"
   xmlns:svg="http://www.w3.org/2000/svg"
   xmlns="http://www.w3.org/2000/svg"
   xmlns:sodipodi="http://sodipodi.sourceforge.net/DTD/sodipodi-0.dtd"
   xmlns:inkscape="http://www.inkscape.org/namespaces/inkscape"
   version="1.0"
   width="580"
   height="580"
   id="svg2"
   inkscape:version="0.91 r13725"
   sodipodi:docname="blocks.svg">
  <sodipodi:namedview
     pagecolor="#ffffff"
     bordercolor="#666666"
     borderopacity="1"
     objecttolerance="10"
     gridtolerance="10"
     guidetolerance="10"
     inkscape:pageopacity="0"
     inkscape:pageshadow="2"
     inkscape:window-width="1536"
     inkscape:window-height="801"
     id="namedview16"
     showgrid="false"
     inkscape:zoom="2.3017545"
     inkscape:cx="300.8603"
     inkscape:cy="290"
     inkscape:window-x="-8"
     inkscape:window-y="32"
     inkscape:window-maximized="1"
     inkscape:current-layer="svg2" />
  <metadata
     id="metadata2975">
    <rdf:RDF>
      <cc:Work
         rdf:about="">
        <dc:format>image/svg+xml</dc:format>
        <dc:type
           rdf:resource="http://purl.org/dc/dcmitype/StillImage" />
      </cc:Work>
    </rdf:RDF>
  </metadata>
  <defs
     id="defs4">
    <symbol
       viewBox="244.5 110 489 219.9"
       id="symbol-university">
      <path
         id="path4460"
         d="M79,43l57,119c0,0,21-96,104-96s124,106,124,106l43-133l82-17L0,17L79,43z" />
      <path
         id="path4462"
         d="M94,176l-21,39"
         stroke-width="20"
         stroke="#000000"
         fill="none" />
      <path
         id="path4464"
         d="M300,19c0,10.5-22.6,19-50.5,19S199,29.5,199,19s22.6-19,50.5-19S300,8.5,300,19z" />
      <path
         id="path4466"
         d="M112,216l-16-38L64,88c0,0-9-8-4-35s16-24,16-24"
         stroke-width="20"
         stroke="#000000"
         ill="none" />
    </symbol>
  </defs>
  <path
     inkscape:connector-curvature="0"
     style="fill:#666666;stroke:none;stroke-width:5.19999981;stroke-opacity:1"
     sodipodi:nodetypes="ccccccccc"
     id="path6056"
     d="m 273.12431,374.65841 c 0,7.045 -5.711,12.756 -12.756,12.756 l -60.988,0 c -7.045,0 -12.756,-5.711 -12.756,-12.756 l 0,-130.487 c 0,-7.045 4.62602,-14.92596 12.756,-12.756 l 57.53049,18.88727 c 8.94371,2.9837 12.21351,7.06723 12.21351,14.11223 l 4,110.2435 z" />
  <path
     inkscape:connector-curvature="0"
     style="fill:#666666;stroke:none;stroke-width:5.19999981;stroke-opacity:1"
     id="path6058"
     d="m 416.62381,374.65841 c 0,7.045 -5.711,12.756 -12.756,12.756 l -60.988,0.5 c -7.045,0 -12.756,-5.711 -12.756,-12.756 l 7.244,-93.4875 c 0,-7.045 5.711,-12.756 12.756,-12.756 l 52.744,3.7435 c 7.045,0 12.756,5.711 12.756,12.756 l 1,89.244 z" />
</svg>
