<?xml version="1.0" encoding="UTF-8"?>
<svg version="1.0" viewBox="0 0 580 580" xmlns="http://www.w3.org/2000/svg" xmlns:cc="http://creativecommons.org/ns#" xmlns:dc="http://purl.org/dc/elements/1.1/" xmlns:rdf="http://www.w3.org/1999/02/22-rdf-syntax-ns#">
<metadata>
<rdf:RDF>
<cc:Work rdf:about="">
<dc:format>image/svg+xml</dc:format>
<dc:type rdf:resource="http://purl.org/dc/dcmitype/StillImage"/>
</cc:Work>
</rdf:RDF>
</metadata>
<path d="m273.12 374.66c0 7.045-5.711 12.756-12.756 12.756h-60.988c-7.045 0-12.756-5.711-12.756-12.756v-130.49c0-7.045 4.626-14.926 12.756-12.756l57.53 18.887c8.9437 2.9837 12.214 7.0672 12.214 14.112l4 110.24z" fill="#666"/>
<path d="m416.62 374.66c0 7.045-5.711 12.756-12.756 12.756l-60.988 0.5c-7.045 0-12.756-5.711-12.756-12.756l7.244-93.488c0-7.045 5.711-12.756 12.756-12.756l52.744 3.7435c7.045 0 12.756 5.711 12.756 12.756l1 89.244z" fill="#666"/>
</svg>
