<?xml version="1.0" encoding="UTF-8"?>
<svg version="1.0" viewBox="0 0 580 580" xmlns="http://www.w3.org/2000/svg">
<path d="m290.87 202.63c-11.497 0.17497-22.851 5.0774-30.862 13.325-8.0108 8.248-12.58 19.74-12.42 31.237v117.39c9.6882 10.614 77.833 11.563 87.891 0v-117.39c0.16345-11.718-4.5949-23.427-12.886-31.71-8.2912-8.2824-20.005-13.028-31.723-12.853z" color="#000000"/>
<path d="m292.42 351.73c-16.717 0.14546-34.873-0.19008-49.484 3.8188-4.8651 1.3883-6.9019 3.756-6.9848 6.1959-0.0901 2.6512 0.26446 10.135 0.11657 16.532 0.38558 4.219 35.235-7.2176 48.586-6.7011 18.178 0.22827 63.089 10.779 62.884 7.1478-5e-3 -5.8108 0.042-11.325-0.0321-16.927-0.0198-1.4973-0.7219-2.9777-2.929-4.2391-6.3739-4.0245-18.713-4.8267-29.247-5.3873-7.5971-0.39124-15.263-0.47758-22.91-0.4407z" color="#000000" stroke-width="35"/>
<path d="m292.42 368.73c-16.717 0.14546-34.873-0.19008-49.484 3.8188-10.16 2.8992-9.0484 10.472 2.0312 12.74 11.699 3.1584 26.336 2.7702 39.687 3.2868 18.178 0.22827 37.235 0.0838 54.001-3.1937 8.0574-2.1891 11.979-7.3629 5.9219-10.824-6.3739-4.0245-18.713-4.8267-29.247-5.3873-7.5971-0.39124-15.263-0.47758-22.91-0.4407z" color="#000000" stroke-width="35"/>
</svg>
