<?xml version="1.0" encoding="UTF-8" standalone="no"?>
<svg
   xmlns:dc="http://purl.org/dc/elements/1.1/"
   xmlns:cc="http://creativecommons.org/ns#"
   xmlns:rdf="http://www.w3.org/1999/02/22-rdf-syntax-ns#"
   xmlns:svg="http://www.w3.org/2000/svg"
   xmlns="http://www.w3.org/2000/svg"
   xmlns:sodipodi="http://sodipodi.sourceforge.net/DTD/sodipodi-0.dtd"
   xmlns:inkscape="http://www.inkscape.org/namespaces/inkscape"
   version="1.0"
   width="580"
   height="580"
   id="svg2"
   inkscape:version="0.91 r13725"
   sodipodi:docname="bollard.svg">
  <sodipodi:namedview
     pagecolor="#ffffff"
     bordercolor="#666666"
     borderopacity="1"
     objecttolerance="10"
     gridtolerance="10"
     guidetolerance="10"
     inkscape:pageopacity="0"
     inkscape:pageshadow="2"
     inkscape:window-width="1536"
     inkscape:window-height="801"
     id="namedview23"
     showgrid="false"
     inkscape:zoom="0.40689655"
     inkscape:cx="-478.00847"
     inkscape:cy="290"
     inkscape:window-x="-8"
     inkscape:window-y="32"
     inkscape:window-maximized="1"
     inkscape:current-layer="svg2" />
  <defs
     id="defs22">
    <marker
       viewBox="0 0 10 10"
       refY="5"
       refX="10"
       orient="auto"
       markerWidth="4"
       markerUnits="strokeWidth"
       markerHeight="3"
       id="ArrowStart">
      <path
         id="path3568"
         d="M 10 0 L 0 5 L 10 10 z" />
    </marker>
    <marker
       viewBox="0 0 10 10"
       refY="5"
       orient="auto"
       markerWidth="4"
       markerUnits="strokeWidth"
       markerHeight="3"
       id="ArrowEnd">
      <path
         id="path3565"
         d="M 0 0 L 10 5 L 0 10 z" />
    </marker>
    <marker
       viewBox="0 0 10 10"
       refY="5"
       refX="10"
       orient="auto"
       markerWidth="4"
       markerUnits="strokeWidth"
       markerHeight="3"
       id="marker2959">
      <path
         id="path2626"
         d="M 10 0 L 0 5 L 10 10 z" />
    </marker>
    <marker
       viewBox="0 0 10 10"
       refY="5"
       orient="auto"
       markerWidth="4"
       markerUnits="strokeWidth"
       markerHeight="3"
       id="marker2956">
      <path
         id="path2623"
         d="M 0 0 L 10 5 L 0 10 z" />
    </marker>
    <marker
       viewBox="0 0 10 10"
       refY="5"
       refX="10"
       orient="auto"
       markerWidth="4"
       markerUnits="strokeWidth"
       markerHeight="3"
       id="marker3077">
      <path
         id="path3298"
         d="M 10 0 L 0 5 L 10 10 z" />
    </marker>
    <marker
       viewBox="0 0 10 10"
       refY="5"
       orient="auto"
       markerWidth="4"
       markerUnits="strokeWidth"
       markerHeight="3"
       id="marker3074">
      <path
         id="path3295"
         d="M 0 0 L 10 5 L 0 10 z" />
    </marker>
  </defs>
  <metadata
     id="metadata10">
    <rdf:RDF>
      <cc:Work
         rdf:about="">
        <dc:format>image/svg+xml</dc:format>
        <dc:type
           rdf:resource="http://purl.org/dc/dcmitype/StillImage" />
      </cc:Work>
    </rdf:RDF>
  </metadata>
  <path
     d="m 290.86856,202.63061 c -11.49662,0.17497 -22.85071,5.07745 -30.86155,13.32544 -8.01085,8.24799 -12.5801,19.74023 -12.4197,31.23706 l 0,117.39063 c 9.68816,10.61413 77.83289,11.56316 87.89063,0 l 0,-117.39063 c 0.16345,-11.71815 -4.59487,-23.4274 -12.88601,-31.70983 -8.29115,-8.28243 -20.00539,-13.02844 -31.72337,-12.85267 z"
     id="path4689"
     sodipodi:nodetypes="csccccsc"
     style="color:#000000;fill:#666666;fill-opacity:1;stroke:none;stroke-width:175.80000305;stroke-opacity:1"
     inkscape:connector-curvature="0" />
  <path
     d="m 292.41544,351.72954 c -16.71668,0.14546 -34.87347,-0.19008 -49.48438,3.8188 -4.86512,1.38828 -6.90191,3.75599 -6.98481,6.19593 -0.0901,2.65119 0.26446,10.13537 0.11657,16.53239 0.38558,4.21902 35.23513,-7.21763 48.58624,-6.70106 18.17842,0.22827 63.08872,10.77879 62.88378,7.14775 -0.005,-5.81076 0.042,-11.3247 -0.0321,-16.92675 -0.0198,-1.49734 -0.7219,-2.97767 -2.92905,-4.23906 -6.37394,-4.0245 -18.71331,-4.82669 -29.24654,-5.3873 -7.59714,-0.39124 -15.26347,-0.47758 -22.90971,-0.4407 z"
     id="path4725"
     sodipodi:nodetypes="ccscccsccc"
     style="color:#000000;fill:#666666;stroke-width:35"
     inkscape:connector-curvature="0" />
  <path
     id="path4739"
     d="m 292.41544,368.72954 c -16.71668,0.14546 -34.87347,-0.19008 -49.48438,3.8188 -10.15991,2.89918 -9.04844,10.47214 2.03125,12.74044 11.69929,3.15835 26.33564,2.77025 39.68675,3.28682 18.17842,0.22827 37.23513,0.0838 54.00075,-3.19368 8.05736,-2.18906 11.97866,-7.3629 5.92188,-10.82438 -6.37394,-4.0245 -18.71331,-4.82669 -29.24654,-5.3873 -7.59714,-0.39124 -15.26347,-0.47758 -22.90971,-0.4407 z"
     style="color:#000000;fill:#666666;stroke-width:35"
     inkscape:connector-curvature="0" />
</svg>
