<?xml version="1.0" encoding="UTF-8"?>
<svg version="1.0" viewBox="0 0 580 580" xmlns="http://www.w3.org/2000/svg" xmlns:cc="http://creativecommons.org/ns#" xmlns:dc="http://purl.org/dc/elements/1.1/" xmlns:rdf="http://www.w3.org/1999/02/22-rdf-syntax-ns#">
<metadata>
<rdf:RDF>
<cc:Work rdf:about="">
<dc:format>image/svg+xml</dc:format>
<dc:type rdf:resource="http://purl.org/dc/dcmitype/StillImage"/>
<dc:title/>
</cc:Work>
</rdf:RDF>
</metadata>
<g transform="translate(-25.179 4.4443)">
<path d="m303.77 111.53c39.191-0.0221 78.383-0.0416 117.57-5e-3 -8e-3 11.019 0.0168 22.038-0.013 33.057-31.626-0.022-63.252-5e-3 -94.877-9e-3 -7.565-11.012-15.15-22.009-22.683-33.043z" fill="#0092da"/>
<path d="m156.1 129.69c21.81 6e-3 43.621-0.0307 65.431 0.0168 6.8639 0.21641 14.19 5.2235 14.595 12.524 0.0322 23.308-7e-3 46.617 0.0193 69.926 0.01 4.2311-1.3382 8.8721-5.0024 11.361-4.34 2.9784-9.8742 2.3019-14.851 2.6023 0.15852 8.0183 0.0111 16.04 0.0818 24.06 0.0975 3.9496-1.2196 8.417-4.7596 10.601-2.7457 1.8264-6.5035 1.0811-8.87-1.0329-15.555-12.154-31.116-24.3-46.644-36.488-2e-3 -31.19-3e-3 -62.38 2.3e-4 -93.57z" fill="#0092da" stroke="#000" stroke-miterlimit="10" stroke-width=".093068"/>
<path d="m173.48 139.49c15.717-0.0611 31.434-0.0251 47.151-0.0211 3.0441-0.0633 6.5758 2.1759 6.4309 5.5292 0.0265 21.743-0.0131 43.488 0.0193 65.231 0.0681 1.7342-0.22223 3.6782-1.6749 4.8245-2.4543 2.4226-6.2124 1.0929-9.2704 1.4131-0.0286-13.303 0.0504-26.609-0.0357-39.91-0.14132-4.8388-3.2808-8.9306-7.0608-11.67-11.841-8.4815-23.768-16.847-35.559-25.397z" fill="none"/>
<path d="m327.3 154.64c31.421-0.14232 62.845-0.0134 94.267-0.0645 0.0206 8.2917-6e-3 16.583 0.0171 24.875-0.15878 12.296-5.7146 24.385-14.963 32.497-10.579 9.6071-25.796 13.995-39.832 11.082-13.321-2.4952-25.423-11.356-31.353-23.606-3.1902-6.3275-4.8036-13.439-4.636-20.524-7.4877-0.29876-14.987-7e-3 -22.478-0.15284 6.2132-8.1232 12.755-15.991 18.977-24.108z" fill="#0092da"/>
<path d="m276.91 255.29c7.0326-8.9847 17.564-15.776 29.273-15.763 36.972-0.0548 73.945-9e-3 110.92-0.0222-35.847 47.537-71.631 95.129-107.64 142.54-0.0577-32.597-2e-3 -65.194-0.0278-97.79-15.735 20.854-31.322 41.823-46.986 62.731-3.9035 4.5204-9.9434 7.0522-15.889 7.0066-6.0038-0.12479-11.689-2.7066-16.414-6.2835-21.678-17.122-43.408-34.179-65.089-51.297-4.6674-3.7149-8.1164-9.3841-8.0526-15.474-0.5827-11.736 9.9531-22.646 21.693-22.572 5.0119 0.0373 9.8936 1.9752 13.81 5.0543 16.411 12.971 32.766 26.014 49.191 38.967 11.767-15.679 23.402-31.456 35.218-47.097z" fill="#0092da"/>
<path d="m334.38 386.54c36.359-49.01 72.805-97.957 109.26-146.9 8.6027 0.26976 17.645 3.1182 23.283 9.9558 6.5216 7.5386 7.7107 18.017 7.4738 27.611-0.0165 60.8-3e-3 121.6-7e-3 182.4h-164.73c2e-3 -16.596-5e-3 -33.19 3e-3 -49.785 39.941-0.0147 79.882 7e-3 119.82-0.0108 2e-3 -7.7534 2e-3 -15.506-5e-5 -23.258-31.702-0.0226-63.404 0.0125-95.106-0.0175z" fill="#0092da"/>
</g>
</svg>
