<?xml version="1.0" encoding="UTF-8"?>
<svg version="1.0" viewBox="0 0 580 580" xmlns="http://www.w3.org/2000/svg" xmlns:cc="http://creativecommons.org/ns#" xmlns:dc="http://purl.org/dc/elements/1.1/" xmlns:rdf="http://www.w3.org/1999/02/22-rdf-syntax-ns#">
<metadata>
<rdf:RDF>
<cc:Work rdf:about="">
<dc:format>image/svg+xml</dc:format>
<dc:type rdf:resource="http://purl.org/dc/dcmitype/StillImage"/>
</cc:Work>
</rdf:RDF>
</metadata>
<path d="m208.57 265.98 184.76-41.19" fill="none" stroke="#666" stroke-linecap="round" stroke-width="27.343"/>
<path d="m375.33 278.9c-1.8615-1e-3 -3.7118 0.76512-5.028 2.0814s-2.0822 3.1666-2.0814 5.028v85.266c-1e-3 1.8615 0.76512 3.7118 2.0814 5.028 1.3162 1.3163 3.1666 2.0822 5.028 2.0814h25.922c1.8615 1e-3 3.7118-0.76511 5.028-2.0814 1.3163-1.3162 2.0822-3.1666 2.0814-5.028v-85.266c1e-3 -1.8615-0.76511-3.7118-2.0814-5.028-1.3162-1.3162-3.1666-2.0822-5.028-2.0814z" color="#000000" fill="none" stroke="#666" stroke-width="14.211"/>
<path d="m187.08 207.4c-2.3194 9e-5 -4.6256 0.95372-6.2656 2.5938-1.64 1.64-2.5937 3.9463-2.5938 6.2656v153.27c9e-5 2.3194 0.95372 4.6256 2.5938 6.2656 1.64 1.64 3.9463 2.5937 6.2656 2.5938h22.422c2.3194-9e-5 4.6256-0.95372 6.2656-2.5938 1.64-1.64 2.5937-3.9463 2.5938-6.2656v-77.234c-11.208 3.4412-24.651 0.39303-31.891-9.125-10.98-13.134-5.3777-36.345 10.812-42.469 7.0248-1.6269 14.052-3.239 21.078-4.8594v-19.578c-9e-5 -2.3194-0.95372-4.6256-2.5938-6.2656-1.64-1.64-3.9463-2.5937-6.2656-2.5938z" color="#000000" fill="none" stroke="#666" stroke-width="17.718"/>
</svg>
