<?xml version="1.0" encoding="UTF-8" standalone="no"?>
<svg
   xmlns:dc="http://purl.org/dc/elements/1.1/"
   xmlns:cc="http://creativecommons.org/ns#"
   xmlns:rdf="http://www.w3.org/1999/02/22-rdf-syntax-ns#"
   xmlns:svg="http://www.w3.org/2000/svg"
   xmlns="http://www.w3.org/2000/svg"
   xmlns:sodipodi="http://sodipodi.sourceforge.net/DTD/sodipodi-0.dtd"
   xmlns:inkscape="http://www.inkscape.org/namespaces/inkscape"
   version="1.0"
   width="580"
   height="580"
   id="svg2"
   inkscape:version="0.91 r13725"
   sodipodi:docname="lift_gate.svg">
  <sodipodi:namedview
     pagecolor="#ffffff"
     bordercolor="#666666"
     borderopacity="1"
     objecttolerance="10"
     gridtolerance="10"
     guidetolerance="10"
     inkscape:pageopacity="0"
     inkscape:pageshadow="2"
     inkscape:window-width="1536"
     inkscape:window-height="801"
     id="namedview23"
     showgrid="false"
     inkscape:zoom="0.40689655"
     inkscape:cx="-478.00847"
     inkscape:cy="290"
     inkscape:window-x="-8"
     inkscape:window-y="32"
     inkscape:window-maximized="1"
     inkscape:current-layer="svg2" />
  <defs
     id="defs22">
    <marker
       viewBox="0 0 10 10"
       refY="5"
       refX="10"
       orient="auto"
       markerWidth="4"
       markerUnits="strokeWidth"
       markerHeight="3"
       id="ArrowStart">
      <path
         id="path3568"
         d="M 10 0 L 0 5 L 10 10 z" />
    </marker>
    <marker
       viewBox="0 0 10 10"
       refY="5"
       orient="auto"
       markerWidth="4"
       markerUnits="strokeWidth"
       markerHeight="3"
       id="ArrowEnd">
      <path
         id="path3565"
         d="M 0 0 L 10 5 L 0 10 z" />
    </marker>
    <marker
       viewBox="0 0 10 10"
       refY="5"
       refX="10"
       orient="auto"
       markerWidth="4"
       markerUnits="strokeWidth"
       markerHeight="3"
       id="marker2959">
      <path
         id="path2626"
         d="M 10 0 L 0 5 L 10 10 z" />
    </marker>
    <marker
       viewBox="0 0 10 10"
       refY="5"
       orient="auto"
       markerWidth="4"
       markerUnits="strokeWidth"
       markerHeight="3"
       id="marker2956">
      <path
         id="path2623"
         d="M 0 0 L 10 5 L 0 10 z" />
    </marker>
    <marker
       viewBox="0 0 10 10"
       refY="5"
       refX="10"
       orient="auto"
       markerWidth="4"
       markerUnits="strokeWidth"
       markerHeight="3"
       id="marker3077">
      <path
         id="path3298"
         d="M 10 0 L 0 5 L 10 10 z" />
    </marker>
    <marker
       viewBox="0 0 10 10"
       refY="5"
       orient="auto"
       markerWidth="4"
       markerUnits="strokeWidth"
       markerHeight="3"
       id="marker3074">
      <path
         id="path3295"
         d="M 0 0 L 10 5 L 0 10 z" />
    </marker>
  </defs>
  <metadata
     id="metadata10">
    <rdf:RDF>
      <cc:Work
         rdf:about="">
        <dc:format>image/svg+xml</dc:format>
        <dc:type
           rdf:resource="http://purl.org/dc/dcmitype/StillImage" />
      </cc:Work>
    </rdf:RDF>
  </metadata>
  <g
     id="g1327" />
  <g
     id="g4184"
     transform="matrix(0.5,0,0,0.5,146.20931,146.44531)">
    <path
       style="fill:none;stroke:#666666;stroke-width:54.68500137;stroke-linecap:round;stroke-opacity:1"
       id="path3732"
       d="M 124.72631,239.07157 494.25422,156.69163"
       sodipodi:nodetypes="cc"
       inkscape:connector-curvature="0" />
    <path
       style="color:#000000;opacity:1;fill:#ffffff;stroke:#666666;stroke-width:28.42200089;stroke-opacity:1"
       sodipodi:nodetypes="csccsccsccscc"
       id="rect3827"
       d="m 458.25,264.90625 c -3.72291,-0.002 -7.42352,1.53023 -10.05602,4.16273 -2.6325,2.6325 -4.16438,6.33311 -4.16273,10.05602 l 0,170.53125 c -0.002,3.72291 1.53023,7.42352 4.16273,10.05602 2.6325,2.6325 6.33311,4.16438 10.05602,4.16273 l 51.84375,0 c 3.72291,0.002 7.42352,-1.53023 10.05602,-4.16273 2.6325,-2.6325 4.16438,-6.33311 4.16273,-10.05602 l 0,-170.53125 c 0.002,-3.72291 -1.53023,-7.42352 -4.16273,-10.05602 -2.6325,-2.6325 -6.33311,-4.16438 -10.05602,-4.16273 l -51.84375,0 z"
       inkscape:connector-curvature="0" />
    <path
       style="color:#000000;opacity:1;fill:#ffffff;stroke:#666666;stroke-width:35.43500137;stroke-opacity:1"
       id="rect3925"
       d="m 81.75,121.90625 c -4.638711,1.7e-4 -9.251186,1.90744 -12.53125,5.1875 -3.280064,3.28007 -5.187328,7.89254 -5.1875,12.53125 l 0,306.53125 c 1.72e-4,4.63871 1.907436,9.25118 5.1875,12.53125 3.280064,3.28006 7.892539,5.18733 12.53125,5.1875 l 44.84375,0 c 4.63871,-1.7e-4 9.25118,-1.90744 12.53125,-5.1875 3.28006,-3.28007 5.18733,-7.89254 5.1875,-12.53125 l 0,-154.46875 c -22.41541,6.88237 -49.301098,0.78606 -63.78125,-18.25 -21.960654,-26.26887 -10.755335,-72.68933 21.625,-84.9375 14.04957,-3.25379 28.10405,-6.47794 42.15625,-9.71875 l 0,-39.15625 c -1.7e-4,-4.63871 -1.90744,-9.25118 -5.1875,-12.53125 -3.28007,-3.28006 -7.89254,-5.18733 -12.53125,-5.1875 l -44.84375,0 z"
       inkscape:connector-curvature="0" />
  </g>
</svg>
