<?xml version="1.0" encoding="UTF-8" standalone="no"?>
<!-- Created with Inkscape (http://www.inkscape.org/) -->

<svg
   xmlns:dc="http://purl.org/dc/elements/1.1/"
   xmlns:cc="http://creativecommons.org/ns#"
   xmlns:rdf="http://www.w3.org/1999/02/22-rdf-syntax-ns#"
   xmlns:svg="http://www.w3.org/2000/svg"
   xmlns="http://www.w3.org/2000/svg"
   xmlns:sodipodi="http://sodipodi.sourceforge.net/DTD/sodipodi-0.dtd"
   xmlns:inkscape="http://www.inkscape.org/namespaces/inkscape"
   width="16"
   height="16"
   id="svg2"
   version="1.1"
   inkscape:version="0.48.1 r9760"
   sodipodi:docname="toll_booth.svg"
   inkscape:export-filename="/home/manchito/Downloads/mapnik/symbols/toll_booth.png"
   inkscape:export-xdpi="92.800003"
   inkscape:export-ydpi="92.800003">
  <defs
     id="defs4" />
  <sodipodi:namedview
     id="base"
     pagecolor="#ffffff"
     bordercolor="#666666"
     borderopacity="1.0"
     inkscape:pageopacity="0.0"
     inkscape:pageshadow="2"
     inkscape:zoom="23.201941"
     inkscape:cx="-9.1348657"
     inkscape:cy="8.2245734"
     inkscape:document-units="px"
     inkscape:current-layer="layer1"
     showgrid="true"
     inkscape:window-width="1280"
     inkscape:window-height="742"
     inkscape:window-x="0"
     inkscape:window-y="26"
     inkscape:window-maximized="1">
    <inkscape:grid
       type="xygrid"
       id="grid2985"
       empspacing="5"
       visible="true"
       enabled="true"
       snapvisiblegridlinesonly="true" />
  </sodipodi:namedview>
  <metadata
     id="metadata7">
    <rdf:RDF>
      <cc:Work
         rdf:about="">
        <dc:format>image/svg+xml</dc:format>
        <dc:type
           rdf:resource="http://purl.org/dc/dcmitype/StillImage" />
        <dc:title></dc:title>
      </cc:Work>
    </rdf:RDF>
  </metadata>
  <g
     inkscape:label="Ebene 1"
     inkscape:groupmode="layer"
     id="layer1"
     transform="translate(0,-1036.3622)">
    <path
       style="fill:#0092da;fill-rule:evenodd;stroke:none;fill-opacity:1"
       d="M 2,0 C 1,0 0,1 0,2 l 0,14 9,0 0,-6.46875 6.25,-1.5625 C 15.768502,7.85735 16.146297,7.2678 16.03125,6.75 15.916202,6.2323 15.329401,5.8813 14.8125,6 14.79131,6.01 14.77046,6.02025 14.75,6.03125 L 9,7.46875 9,2 C 9,1 8,0 7,0 z M 2,2 7,2 7,6 2,6 z M 4,8 5,8 5,8.53125 C 6.0923043,8.631379 7,9 7,9 l 0,1 C 7,10 6.2051737,9.624866 5,9.53125 L 5,10.5 c 0,0 0.4363817,-3.5e-4 0.90625,0.15625 C 6.1411842,10.73465 6.4058076,10.8433 6.625,11.0625 6.8441924,11.2817 7,11.625 7,12 7,12.866337 6.0916722,13.321703 5,13.4375 L 5,14 4,14 4,13.46875 C 2.9076957,13.368621 2,13 2,13 l 0,-1 c 0,0 0.7948263,0.375134 2,0.46875 L 4,11.5 c 0,0 -0.4363817,3.5e-4 -0.90625,-0.15625 C 2.8588158,11.26535 2.5941924,11.1567 2.375,10.9375 2.1558076,10.7183 2,10.375 2,10 2,9.1336634 2.9083278,8.6782975 4,8.5625 z M 4,9.53125 C 2.9951172,9.6269531 3,10 3,10 c 0,0.125 0.031692,0.15695 0.09375,0.21875 0.062058,0.062 0.1724342,0.1405 0.3125,0.1875 C 3.6863817,10.49985 4,10.5 4,10.5 z M 5,11.5 5,12.46875 C 6.0048828,12.373047 6,12 6,12 6,11.8745 5.968308,11.84325 5.90625,11.78125 5.8441924,11.71925 5.7338158,11.64075 5.59375,11.59375 5.3136183,11.50015 5,11.5 5,11.5 z"
       transform="translate(0,1036.3622)"
       id="rect2987"
       inkscape:connector-curvature="0"
       sodipodi:nodetypes="ssccccccccssscccccccccccccsscccccccccsscccccccccccscc" />
    <g
       style="font-size:14.7029562px;font-style:normal;font-weight:normal;line-height:125%;letter-spacing:0px;word-spacing:0px;fill:#e3dbdb;fill-opacity:1;stroke:none;font-family:Sans"
       id="text3761"
       transform="matrix(0.43393058,0,0,0.37504594,3.0364748,653.49255)" />
  </g>
</svg>
