<?xml version="1.0" encoding="UTF-8"?>
<svg version="1.1" viewBox="0 0 14 14" xmlns="http://www.w3.org/2000/svg">
<rect width="14" height="14" fill="none" visibility="hidden"/>
<path d="m0 2v7c0 0.62712 0.42373 1 1 1h12c0.57627 0 1-0.42373 1-1v-7h-14zm3 1h8c0 1 1 2 2 2v2c-1 0-2 1-2 2h-8c0-1-1-2-2-2v-2c1 0 2-1 2-2zm4 1c-1.6569 0-3 0.89543-3 2 0 1.1046 1.3431 2 3 2s3-0.89543 3-2c0-1.1046-1.3431-2-3-2zm-7 6.5c0 1.1266 0.4487 1.5 1 1.5h12c0.5513 0 1-0.44533 1-1.5-0.28814 0.27119-0.55932 0.5-1 0.5h-12c-0.44068 0-0.72881-0.24576-1-0.5z"/>
</svg>
