<?xml version="1.0" encoding="UTF-8"?>
<svg enable-background="new 0 0 1000 1000" version="1.1" viewBox="0 0 1e3 1e3" xml:space="preserve" xmlns="http://www.w3.org/2000/svg"><g transform="matrix(.8 0 0 .8 100 100.01)"><path d="m989 478.6c0.1 2.7 0.2 5.5 0.4 8.2h-88.3c-7-211.3-176.6-380.9-387.9-387.8v-88.3c2.6 0.2 5.3 0.3 7.9 0.4 1.8-0.3 3.4-1.1 5.3-1.1 3.2 0 5.9 1.1 8.9 1.8 242.5 17.3 435.9 210.9 453 453.4 0.6 2.8 1.7 5.4 1.7 8.3 0 1.8-0.8 3.4-1 5.1zm-515.5 511.4c-2.9 0-5.5-1.1-8.3-1.7-242.6-17.1-436.1-210.5-453.4-453-0.7-2.9-1.8-5.7-1.8-8.8 0-1.9 0.8-3.5 1.1-5.3-0.1-2.6-0.2-5.3-0.4-7.9h88.3c6.9 211.3 176.6 380.9 387.8 387.8v88.3c-2.7-0.2-5.4-0.3-8.2-0.4-1.7 0.2-3.3 1-5.1 1zm-43.1-635.7c16.5 0 29.8 11.8 29.8 26.5 0 14.6-13.4 26.5-29.8 26.5h-129.1v92.7c0 22-17.8 39.7-39.7 39.7s-39.7-17.7-39.7-39.7v-92.7h-129.1c-16.5 0-29.8-11.8-29.8-26.5 0-14.6 13.3-26.5 29.8-26.5h129.1v-79.5h-129.1c-16.5 0.1-29.8-11.8-29.8-26.4s13.3-26.5 29.8-26.5h103.3l-93-93c-15.5-15.5-15.5-40.7 0-56.2s40.7 11 56.2 26.5l103 82.2 103-82.2c15.5-15.5 40.7-42 56.2-26.5s15.5 40.7 0 56.2l-93 93h101.8c16.5 0 29.8 11.9 29.8 26.5s-13.4 26.5-29.8 26.5h-129.1v79.5c63.3-0.1 118.8-0.1 129.2-0.1zm109.3 238.4c0-69.9 63.5-126.5 158.9-131.5v-24.1c0-16.5 11.8-29.9 26.5-29.9s26.5 13.4 26.5 29.9v26.7c69.9 11.6 117.4 53.2 128.5 105.5 2.3 4.2 3.9 8.8 3.9 13.9 0 16.9-14.5 30.6-32.3 30.6s-32.3-13.7-32.3-30.6c0-0.2 0.1-0.4 0.1-0.6h-1.5c-5-26.2-29-47.8-66.5-56.7v148.1c95.9 8.8 158.9 63.6 158.9 130.7s-63 121.9-158.9 130.7v24.9c0 16.4-11.8 29.8-26.5 29.8-14.6 0-26.5-13.3-26.5-29.8v-24.8c-84.1-7.7-141.8-51.4-154.7-107.4-2.5-4.2-4.2-8.8-4.2-13.8 0-16.9 15.6-30.6 34.7-30.6 19.2 0 34.8 13.7 34.8 30.6 0 0.2-0.1 0.4-0.2 0.6h1.6c6.1 29.5 38.2 53.1 87.9 59.4v-150c-95.2-5.1-158.7-61.7-158.7-131.6zm158.9-70.5c-58.1 4.1-94.3 33.9-94.3 70.5s36.2 66.5 94.3 70.5v-141zm142.4 282.4c0-34.2-33.8-62.7-89.4-69.7v139.3c55.6-6.9 89.4-35.4 89.4-69.6z" fill="#734a08"/></g></svg>
