<?xml version="1.0" encoding="UTF-8" standalone="no"?>
<!-- Svg Vector Icons : http://www.onlinewebfonts.com/icon -->

<svg
   xmlns:dc="http://purl.org/dc/elements/1.1/"
   xmlns:cc="http://creativecommons.org/ns#"
   xmlns:rdf="http://www.w3.org/1999/02/22-rdf-syntax-ns#"
   xmlns:svg="http://www.w3.org/2000/svg"
   xmlns="http://www.w3.org/2000/svg"
   version="1.1"
   x="0px"
   y="0px"
   viewBox="0 0 1000 1000"
   enable-background="new 0 0 1000 1000"
   xml:space="preserve"
   id="svg2"><defs
     id="defs12" /><g
     id="g6"
     transform="matrix(0.8,0,0,0.8,100,100.01)"><path
       d="m 989,478.6 c 0.1,2.7 0.2,5.5 0.4,8.2 l -88.3,0 C 894.1,275.5 724.5,105.9 513.2,99 l 0,-88.3 c 2.6,0.2 5.3,0.3 7.9,0.4 1.8,-0.3 3.4,-1.1 5.3,-1.1 3.2,0 5.9,1.1 8.9,1.8 242.5,17.3 435.9,210.9 453,453.4 0.6,2.8 1.7,5.4 1.7,8.3 0,1.8 -0.8,3.4 -1,5.1 z M 473.5,990 c -2.9,0 -5.5,-1.1 -8.3,-1.7 C 222.6,971.2 29.1,777.8 11.8,535.3 11.1,532.4 10,529.6 10,526.5 c 0,-1.9 0.8,-3.5 1.1,-5.3 -0.1,-2.6 -0.2,-5.3 -0.4,-7.9 l 88.3,0 c 6.9,211.3 176.6,380.9 387.8,387.8 l 0,88.3 c -2.7,-0.2 -5.4,-0.3 -8.2,-0.4 -1.7,0.2 -3.3,1 -5.1,1 z M 430.4,354.3 c 16.5,0 29.8,11.8 29.8,26.5 0,14.6 -13.4,26.5 -29.8,26.5 -10.6,0 -66,0 -129.1,0 l 0,92.7 c 0,22 -17.8,39.7 -39.7,39.7 -21.9,0 -39.7,-17.7 -39.7,-39.7 l 0,-92.7 c -60.4,0 -114.2,0 -129.1,0 -16.5,0 -29.8,-11.8 -29.8,-26.5 0,-14.6 13.3,-26.5 29.8,-26.5 14.9,0 68.7,0 129.1,0 l 0,-79.5 c -60.4,0 -114.2,0 -129.1,0 C 76.3,274.9 63,263 63,248.4 c 0,-14.6 13.3,-26.5 29.8,-26.5 12.7,0 54,0 103.3,0 l -93,-93 c -15.5,-15.5 -15.5,-40.7 0,-56.2 15.5,-15.5 40.7,11 56.2,26.5 l 103,82.2 103,-82.2 c 15.5,-15.5 40.7,-42 56.2,-26.5 15.5,15.5 15.5,40.7 0,56.2 l -93,93 c 51.2,0 92.9,0 101.8,0 16.5,0 29.8,11.9 29.8,26.5 0,14.6 -13.4,26.5 -29.8,26.5 -10.6,0 -66,0 -129.1,0 l 0,79.5 c 63.3,-0.1 118.8,-0.1 129.2,-0.1 z m 109.3,238.4 c 0,-69.9 63.5,-126.5 158.9,-131.5 0,-12.7 0,-21.3 0,-24.1 0,-16.5 11.8,-29.9 26.5,-29.9 14.7,0 26.5,13.4 26.5,29.9 0,3 0,12.5 0,26.7 69.9,11.6 117.4,53.2 128.5,105.5 2.3,4.2 3.9,8.8 3.9,13.9 0,16.9 -14.5,30.6 -32.3,30.6 -17.8,0 -32.3,-13.7 -32.3,-30.6 0,-0.2 0.1,-0.4 0.1,-0.6 l -1.5,0 c -5,-26.2 -29,-47.8 -66.5,-56.7 0,41.8 0,94.3 0,148.1 95.9,8.8 158.9,63.6 158.9,130.7 0,67.1 -63,121.9 -158.9,130.7 0,12.2 0,21.1 0,24.9 0,16.4 -11.8,29.8 -26.5,29.8 -14.6,0 -26.5,-13.3 -26.5,-29.8 0,-3.8 0,-12.7 0,-24.8 -84.1,-7.7 -141.8,-51.4 -154.7,-107.4 -2.5,-4.2 -4.2,-8.8 -4.2,-13.8 0,-16.9 15.6,-30.6 34.7,-30.6 19.2,0 34.8,13.7 34.8,30.6 0,0.2 -0.1,0.4 -0.2,0.6 l 1.6,0 c 6.1,29.5 38.2,53.1 87.9,59.4 0,-42.2 0,-95.3 0,-150 -95.2,-5.1 -158.7,-61.7 -158.7,-131.6 z m 158.9,-70.5 c -58.1,4.1 -94.3,33.9 -94.3,70.5 0,36.6 36.2,66.5 94.3,70.5 0,-51.6 0,-101.3 0,-141 z M 841,804.6 c 0,-34.2 -33.8,-62.7 -89.4,-69.7 0,50.9 0,99.9 0,139.3 55.6,-6.9 89.4,-35.4 89.4,-69.6 z"
       id="path8"
       style="fill:#734a08;fill-opacity:1" /></g></svg>