<?xml version="1.0" encoding="UTF-8"?>
<svg version="1.1" viewBox="0 0 16 16" xmlns="http://www.w3.org/2000/svg" xmlns:cc="http://creativecommons.org/ns#" xmlns:dc="http://purl.org/dc/elements/1.1/" xmlns:rdf="http://www.w3.org/1999/02/22-rdf-syntax-ns#">
<metadata>
<rdf:RDF>
<cc:Work rdf:about="">
<dc:format>image/svg+xml</dc:format>
<dc:type rdf:resource="http://purl.org/dc/dcmitype/StillImage"/>
<dc:title/>
</cc:Work>
</rdf:RDF>
</metadata>
<rect width="16" height="16" fill="none" visibility="hidden"/>
<path transform="translate(1,1)" d="m1 1v6c0 2 2 3 4.5 3s4.5-1 4.5-3h2c1 0 2-1 2-2v-1c0-1-1-2-2-2h-2v-1zm9 2.25h1.75c0.66779 0 1 0.56284 1 1.25s-0.3882 1.25-1 1.25h-1.75zm-10 7.75c0 1 1 2 2 2h7c1 0 2-1 2-2z" fill="#734a08"/>
</svg>
