<?xml version="1.0" encoding="UTF-8"?>
<svg enable-background="new 0 0 48 48" version="1.1" viewBox="0 0 96 96" xml:space="preserve" xmlns="http://www.w3.org/2000/svg"><g transform="matrix(1.2,0,0,1.2,-19.2,0)" stroke-width=".83333"><path d="m84.069 0.8085c-1.6748-0.53655-3.4062-0.8085-5.146-0.8085-7.4823 0-14.023 4.8594-16.278 12.091-2.835 9.093 2.1609 18.828 11.137 21.702 1.6758 0.5355 3.4083 0.8085 5.1492 0.8085 7.4792 0 14.022-4.8584 16.277-12.092 2.8308-9.093-2.1641-18.828-11.139-21.7z" fill="#0092da"/><path d="m80.193 26.457 0.04725 3.3532-2.0066 0.0315-0.04095-3.2571c-1.849-0.0063-3.7674-0.55912-4.892-1.3466l0.73395-2.1719c1.156 0.756 2.8192 1.345 4.6053 1.3199 2.2586-0.03308 3.7674-1.3781 3.7406-3.2146-0.0252-1.7782-1.2805-2.8523-3.6508-3.7863-3.2634-1.2427-5.2904-2.698-5.3282-5.5062-0.03937-2.6728 1.8097-4.7329 4.7313-5.2574l-0.0441-3.2571 1.9735-0.0315 0.04253 3.128c1.912 0.039375 3.224 0.53708 4.1548 1.071l-0.76388 2.1388c-0.67568-0.3717-1.9924-1.0678-4.0273-1.0364-2.4523 0.036225-3.3532 1.5325-3.3343 2.8208 0.02363 1.6758 1.2128 2.498 3.9989 3.6178 3.2965 1.3104 4.9738 2.9657 5.0148 5.8322 0.03465 2.5468-1.6837 4.955-4.955 5.5519z" fill="#fff"/></g></svg>
