<?xml version="1.0" encoding="UTF-8" standalone="no"?>
<svg
   xmlns:dc="http://purl.org/dc/elements/1.1/"
   xmlns:cc="http://creativecommons.org/ns#"
   xmlns:rdf="http://www.w3.org/1999/02/22-rdf-syntax-ns#"
   xmlns:svg="http://www.w3.org/2000/svg"
   xmlns="http://www.w3.org/2000/svg"
   xmlns:sodipodi="http://sodipodi.sourceforge.net/DTD/sodipodi-0.dtd"
   xmlns:inkscape="http://www.inkscape.org/namespaces/inkscape"
   enable-background="new 0 0 48 48"
   version="1.1"
   viewBox="0 0 96 96"
   xml:space="preserve"
   id="svg10"
   sodipodi:docname="fee.svg"
   inkscape:version="0.92.4 (5da689c313, 2019-01-14)"
   width="96"
   height="96"><metadata
     id="metadata16"><rdf:RDF><cc:Work
         rdf:about=""><dc:format>image/svg+xml</dc:format><dc:type
           rdf:resource="http://purl.org/dc/dcmitype/StillImage" /><dc:title></dc:title></cc:Work></rdf:RDF></metadata><defs
     id="defs14" /><sodipodi:namedview
     pagecolor="#ffffff"
     bordercolor="#666666"
     borderopacity="1"
     objecttolerance="10"
     gridtolerance="10"
     guidetolerance="10"
     inkscape:pageopacity="0"
     inkscape:pageshadow="2"
     inkscape:window-width="2204"
     inkscape:window-height="939"
     id="namedview12"
     showgrid="false"
     inkscape:zoom="4.9166665"
     inkscape:cx="46.939323"
     inkscape:cy="56.161708"
     inkscape:window-x="0"
     inkscape:window-y="27"
     inkscape:window-maximized="0"
     inkscape:current-layer="svg10" /><g
     id="g817"
     transform="matrix(1.2,0,0,1.2,-19.2,0)"
     style="stroke-width:0.83333331"><path
       id="path852"
       d="M 84.068586,0.8085 C 82.393836,0.27195 80.662386,0 78.922536,0 c -7.4823,0 -14.02275,4.8594 -16.278,12.09075 -2.835,9.093 2.1609,18.828 11.13735,21.702 1.6758,0.5355 3.4083,0.8085 5.1492,0.8085 7.47915,0 14.0217,-4.85835 16.276501,-12.0918 2.8308,-9.093 -2.164051,-18.828 -11.139451,-21.7005 z"
       style="fill:#0092da;stroke-width:0.83333331"
       inkscape:connector-curvature="0" /><path
       inkscape:connector-curvature="0"
       id="path8"
       d="m 80.193475,26.457412 0.04725,3.353175 -2.00655,0.0315 -0.04095,-3.2571 c -1.84905,-0.0063 -3.7674,-0.559125 -4.89195,-1.346625 l 0.73395,-2.171925 c 1.15605,0.756 2.81925,1.34505 4.6053,1.319851 2.25855,-0.03308 3.7674,-1.378125 3.740625,-3.214575 -0.0252,-1.778176 -1.280475,-2.852325 -3.65085,-3.786301 -3.2634,-1.242674 -5.290425,-2.697974 -5.328225,-5.506199 -0.03937,-2.6727755 1.809675,-4.7328755 4.7313,-5.2573505 l -0.0441,-3.2571 1.973475,-0.0315 0.04253,3.12795 c 1.91205,0.039375 3.224025,0.537075 4.15485,1.071 l -0.763875,2.13885 c -0.675675,-0.3717 -1.992375,-1.06785 -4.027275,-1.03635 -2.45228,0.036225 -3.35318,1.5324755 -3.33428,2.8208255 0.02363,1.6758 1.21275,2.49795 3.998925,3.617775 3.296475,1.3104 4.97385,2.965725 5.0148,5.832225 0.03465,2.546775 -1.683675,4.95495 -4.95495,5.551874 z"
       style="fill:#ffffff;fill-opacity:1;stroke-width:0.83333331" /></g></svg>