<?xml version="1.0" encoding="UTF-8" standalone="no"?>
<svg
   xmlns:osb="http://www.openswatchbook.org/uri/2009/osb"
   xmlns:dc="http://purl.org/dc/elements/1.1/"
   xmlns:cc="http://creativecommons.org/ns#"
   xmlns:rdf="http://www.w3.org/1999/02/22-rdf-syntax-ns#"
   xmlns:svg="http://www.w3.org/2000/svg"
   xmlns="http://www.w3.org/2000/svg"
   xmlns:xlink="http://www.w3.org/1999/xlink"
   xmlns:sodipodi="http://sodipodi.sourceforge.net/DTD/sodipodi-0.dtd"
   xmlns:inkscape="http://www.inkscape.org/namespaces/inkscape"
   enable-background="new 0 0 48 48"
   version="1.1"
   viewBox="0 0 96 96"
   xml:space="preserve"
   id="svg10"
   sodipodi:docname="wheelchair.svg"
   inkscape:version="0.92.4 (5da689c313, 2019-01-14)"
   width="96"
   height="96"><metadata
     id="metadata16"><rdf:RDF><cc:Work
         rdf:about=""><dc:format>image/svg+xml</dc:format><dc:type
           rdf:resource="http://purl.org/dc/dcmitype/StillImage" /><dc:title /></cc:Work></rdf:RDF></metadata><defs
     id="defs14"><linearGradient
       id="linearGradient835"
       osb:paint="solid"><stop
         style="stop-color:#ffffff;stop-opacity:1;"
         offset="0"
         id="stop833" /></linearGradient><linearGradient
       inkscape:collect="always"
       xlink:href="#linearGradient835"
       id="linearGradient837"
       x1="0"
       y1="275.71533"
       x2="483.22266"
       y2="275.71533"
       gradientUnits="userSpaceOnUse" /><linearGradient
       inkscape:collect="always"
       xlink:href="#linearGradient835"
       id="linearGradient845"
       gradientUnits="userSpaceOnUse"
       x1="0"
       y1="275.71533"
       x2="483.22266"
       y2="275.71533" /><linearGradient
       inkscape:collect="always"
       xlink:href="#linearGradient835"
       id="linearGradient847"
       gradientUnits="userSpaceOnUse"
       x1="0"
       y1="275.71533"
       x2="483.22266"
       y2="275.71533" /></defs><sodipodi:namedview
     pagecolor="#ffffff"
     bordercolor="#666666"
     borderopacity="1"
     objecttolerance="10"
     gridtolerance="10"
     guidetolerance="10"
     inkscape:pageopacity="0"
     inkscape:pageshadow="2"
     inkscape:window-width="2204"
     inkscape:window-height="939"
     id="namedview12"
     showgrid="false"
     inkscape:zoom="4.9166665"
     inkscape:cx="11.880967"
     inkscape:cy="54.469031"
     inkscape:window-x="0"
     inkscape:window-y="27"
     inkscape:window-maximized="0"
     inkscape:current-layer="svg10" /><g
     id="g843"
     transform="matrix(1.2,0,0,1.2,-19.2,54.4785)"
     style="stroke-width:0.83333337"><path
       id="path852"
       d="M 84.068586,0.8085 C 82.393836,0.27195 80.662386,0 78.922536,0 c -7.4823,0 -14.02275,4.8594 -16.278,12.09075 -2.835,9.093 2.1609,18.828 11.13735,21.702 1.6758,0.5355 3.4083,0.8085 5.1492,0.8085 7.47915,0 14.0217,-4.85835 16.276501,-12.0918 2.8308,-9.093 -2.164051,-18.828 -11.139451,-21.7005 z"
       style="fill:#0092da;stroke-width:0.83333337"
       inkscape:connector-curvature="0" /><g
       style="fill:url(#linearGradient837);fill-opacity:1;stroke-width:16.46090698"
       transform="matrix(0.050625,0,0,0.050625,66.940419,2.7261013)"
       id="g830"><path
         style="clip-rule:evenodd;fill:url(#linearGradient845);fill-opacity:1;fill-rule:evenodd;stroke-width:16.46090698"
         inkscape:connector-curvature="0"
         d="M 161.98828,98.124023 C 186.95117,95.819336 206.3457,74.312988 206.3457,49.158203 206.3457,22.083008 184.2627,0 157.1875,0 c -27.0752,0 -49.15723,22.083008 -49.15723,49.158203 0,8.256836 2.30371,16.705567 6.14453,23.810547 l 17.51563,246.4668 180.39648,0.0488 73.99121,173.36524 97.14454,-38.09766 -15.04297,-35.82031 -54.36621,19.625 -71.59082,-165.28027 -167.7295,1.12695 -2.30273,-31.21289 121.42285,0.0483 V 197.0556 l -126.05469,-0.0493 z"
         id="path2-7" /><path
         style="clip-rule:evenodd;fill:url(#linearGradient847);fill-opacity:1;fill-rule:evenodd;stroke-width:16.46090698"
         inkscape:connector-curvature="0"
         d="m 343.41992,451.59082 c -30.44726,60.1875 -94.1748,99.83984 -162.15039,99.83984 C 81.429687,551.43066 0,470.00098 0,370.16113 0,300.06055 42.485352,234.91748 105.88184,206.04004 l 4.10254,53.5376 c -37.497075,23.62841 -60.61231,66.2622 -60.61231,110.95068 0,72.42676 59.07129,131.49707 131.49707,131.49707 66.26172,0 122.76465,-50.85156 130.46973,-116.08691 z"
         id="path4-5" /></g></g></svg>