<?xml version="1.0" encoding="UTF-8" standalone="no"?>
<svg
   xmlns:osb="http://www.openswatchbook.org/uri/2009/osb"
   xmlns:dc="http://purl.org/dc/elements/1.1/"
   xmlns:cc="http://creativecommons.org/ns#"
   xmlns:rdf="http://www.w3.org/1999/02/22-rdf-syntax-ns#"
   xmlns:svg="http://www.w3.org/2000/svg"
   xmlns="http://www.w3.org/2000/svg"
   xmlns:xlink="http://www.w3.org/1999/xlink"
   xmlns:sodipodi="http://sodipodi.sourceforge.net/DTD/sodipodi-0.dtd"
   xmlns:inkscape="http://www.inkscape.org/namespaces/inkscape"
   enable-background="new 0 0 48 48"
   version="1.1"
   viewBox="0 0 96 96"
   xml:space="preserve"
   id="svg10"
   sodipodi:docname="wheelchair-no.svg"
   inkscape:version="0.92.4 (5da689c313, 2019-01-14)"
   width="96"
   height="96"><metadata
     id="metadata16"><rdf:RDF><cc:Work
         rdf:about=""><dc:format>image/svg+xml</dc:format><dc:type
           rdf:resource="http://purl.org/dc/dcmitype/StillImage" /><dc:title></dc:title></cc:Work></rdf:RDF></metadata><defs
     id="defs14"><linearGradient
       id="linearGradient835"
       osb:paint="solid"><stop
         style="stop-color:#ffffff;stop-opacity:1;"
         offset="0"
         id="stop833" /></linearGradient><linearGradient
       inkscape:collect="always"
       xlink:href="#linearGradient835"
       id="linearGradient837"
       x1="0"
       y1="275.71533"
       x2="483.22266"
       y2="275.71533"
       gradientUnits="userSpaceOnUse" /><linearGradient
       inkscape:collect="always"
       xlink:href="#linearGradient835"
       id="linearGradient845"
       gradientUnits="userSpaceOnUse"
       x1="0"
       y1="275.71533"
       x2="483.22266"
       y2="275.71533" /><linearGradient
       inkscape:collect="always"
       xlink:href="#linearGradient835"
       id="linearGradient847"
       gradientUnits="userSpaceOnUse"
       x1="0"
       y1="275.71533"
       x2="483.22266"
       y2="275.71533" /></defs><sodipodi:namedview
     pagecolor="#ffffff"
     bordercolor="#666666"
     borderopacity="1"
     objecttolerance="10"
     gridtolerance="10"
     guidetolerance="10"
     inkscape:pageopacity="0"
     inkscape:pageshadow="2"
     inkscape:window-width="2204"
     inkscape:window-height="939"
     id="namedview12"
     showgrid="false"
     inkscape:zoom="9.8333331"
     inkscape:cx="52.593261"
     inkscape:cy="34.770109"
     inkscape:window-x="0"
     inkscape:window-y="27"
     inkscape:window-maximized="0"
     inkscape:current-layer="svg10" /><path
     inkscape:connector-curvature="0"
     style="fill:#ff5555;stroke-width:1"
     d="m 81.682303,55.4487 c -2.0097,-0.64386 -4.08744,-0.9702 -6.17526,-0.9702 -8.97876,0 -16.8273,5.83128 -19.5336,14.5089 -3.402,10.9116 2.59308,22.5936 13.36482,26.0424 2.01096,0.6426 4.08996,0.9702 6.17904,0.9702 8.97498,0 16.82604,-5.83002 19.531801,-14.51016 3.39696,-10.9116 -2.596861,-22.5936 -13.367341,-26.0406 z"
     id="path852" /><g
     id="g855"
     transform="translate(-1.2114878,-0.3789223)"><g
       style="fill:url(#linearGradient837);fill-opacity:1;stroke-width:16.46090698"
       transform="matrix(0.06075,0,0,0.06075,62.043757,58.868466)"
       id="g830"><path
         style="clip-rule:evenodd;fill:url(#linearGradient845);fill-opacity:1;fill-rule:evenodd;stroke-width:16.46090698"
         inkscape:connector-curvature="0"
         d="M 161.98828,98.124023 C 186.95117,95.819336 206.3457,74.312988 206.3457,49.158203 206.3457,22.083008 184.2627,0 157.1875,0 c -27.0752,0 -49.15723,22.083008 -49.15723,49.158203 0,8.256836 2.30371,16.705567 6.14453,23.810547 l 17.51563,246.4668 180.39648,0.0488 73.99121,173.36524 97.14454,-38.09766 -15.04297,-35.82031 -54.36621,19.625 -71.59082,-165.28027 -167.7295,1.12695 -2.30273,-31.21289 121.42285,0.0483 V 197.0556 l -126.05469,-0.0493 z"
         id="path2-7" /><path
         style="clip-rule:evenodd;fill:url(#linearGradient847);fill-opacity:1;fill-rule:evenodd;stroke-width:16.46090698"
         inkscape:connector-curvature="0"
         d="m 343.41992,451.59082 c -30.44726,60.1875 -94.1748,99.83984 -162.15039,99.83984 C 81.429687,551.43066 0,470.00098 0,370.16113 0,300.06055 42.485352,234.91748 105.88184,206.04004 l 4.10254,53.5376 c -37.497075,23.62841 -60.61231,66.2622 -60.61231,110.95068 0,72.42676 59.07129,131.49707 131.49707,131.49707 66.26172,0 122.76465,-50.85156 130.46973,-116.08691 z"
         id="path4-5" /></g></g></svg>