<?xml version="1.0" encoding="UTF-8"?>
<svg enable-background="new 0 0 48 48" version="1.1" viewBox="0 0 96 96" xml:space="preserve" xmlns="http://www.w3.org/2000/svg"><defs><linearGradient id="a" x2="483.22" y1="275.72" y2="275.72" gradientUnits="userSpaceOnUse"><stop stop-color="#fff" offset="0"/></linearGradient></defs><path d="m81.682 55.449c-2.0097-0.64386-4.0874-0.9702-6.1753-0.9702-8.9788 0-16.827 5.8313-19.534 14.509-3.402 10.912 2.5931 22.594 13.365 26.042 2.011 0.6426 4.09 0.9702 6.179 0.9702 8.975 0 16.826-5.83 19.532-14.51 3.397-10.912-2.5969-22.594-13.367-26.041z" fill="#f55"/><g transform="translate(-1.2115 -.37892)"><g transform="matrix(.06075 0 0 .06075 62.044 58.868)" clip-rule="evenodd" fill="url(#a)" fill-rule="evenodd" stroke-width="16.461"><path d="m161.99 98.124c24.963-2.3047 44.357-23.811 44.357-48.966 0-27.075-22.083-49.158-49.158-49.158s-49.157 22.083-49.157 49.158c0 8.2568 2.3037 16.706 6.1445 23.811l17.516 246.47 180.4 0.0488 73.991 173.37 97.145-38.098-15.043-35.82-54.366 19.625-71.591-165.28-167.73 1.127-2.3027-31.213 121.42 0.0483v-46.183l-126.05-0.0493z"/><path d="m343.42 451.59c-30.447 60.188-94.175 99.84-162.15 99.84-99.84 0-181.27-81.43-181.27-181.27 0-70.101 42.485-135.24 105.88-164.12l4.1025 53.538c-37.497 23.628-60.612 66.262-60.612 110.95 0 72.427 59.071 131.5 131.5 131.5 66.262 0 122.76-50.852 130.47-116.09z"/></g></g></svg>
