<?xml version="1.0" encoding="UTF-8"?>
<svg enable-background="new 0 0 48 48" version="1.1" viewBox="0 0 96 96" xml:space="preserve" xmlns="http://www.w3.org/2000/svg"><defs><linearGradient id="a" x2="483.22" y1="275.72" y2="275.72" gradientUnits="userSpaceOnUse"><stop stop-color="#fff" offset="0"/></linearGradient></defs><g transform="matrix(1.2 0 0 1.2 -19.2 54.478)"><path d="m84.069 0.8085c-1.6748-0.53655-3.4062-0.8085-5.146-0.8085-7.4823 0-14.023 4.8594-16.278 12.091-2.835 9.093 2.1609 18.828 11.137 21.702 1.6758 0.5355 3.4083 0.8085 5.1492 0.8085 7.4792 0 14.022-4.8584 16.277-12.092 2.8308-9.093-2.1641-18.828-11.139-21.7z" fill="#0092da" stroke-width=".83333"/><g transform="matrix(.050625 0 0 .050625 66.94 2.7261)" clip-rule="evenodd" fill="url(#a)" fill-rule="evenodd" stroke-width="16.461"><path d="m161.99 98.124c24.963-2.3047 44.357-23.811 44.357-48.966 0-27.075-22.083-49.158-49.158-49.158s-49.157 22.083-49.157 49.158c0 8.2568 2.3037 16.706 6.1445 23.811l17.516 246.47 180.4 0.0488 73.991 173.37 97.145-38.098-15.043-35.82-54.366 19.625-71.591-165.28-167.73 1.127-2.3027-31.213 121.42 0.0483v-46.183l-126.05-0.0493z"/><path d="m343.42 451.59c-30.447 60.188-94.175 99.84-162.15 99.84-99.84 0-181.27-81.43-181.27-181.27 0-70.101 42.485-135.24 105.88-164.12l4.1025 53.538c-37.497 23.628-60.612 66.262-60.612 110.95 0 72.427 59.071 131.5 131.5 131.5 66.262 0 122.76-50.852 130.47-116.09z"/></g></g></svg>
