<?xml version="1.0" encoding="UTF-8"?>
<svg version="1.1" viewBox="0 0 32 32" xmlns="http://www.w3.org/2000/svg">
<path d="m25.363 0.36449-0.25032 0.12375-0.10124 0.18563 0.02532 0.21937 0.24751 0.11531 0.19688-0.075937 0.135-0.14625-0.06187-0.23344-0.19125-0.18844z"/>
<path d="m11.402 1.6227-0.11532 0.14907-0.21375 0.10125 0.0056 0.26156 0.21937 0.12938 0.27563-0.078751 0.10406-0.22781 0.02251-0.25312-0.29812-0.081563z"/>
<path d="m3.0398 2.2524-0.20812 0.0225-0.16593 0.14344 0.045 0.27 0.17437 0.11812 0.19688 0.030937 0.15751-0.18563 0.045-0.26437-0.24468-0.135z"/>
<path d="m16.98 2.8729-0.30937 0.25312 0.10687 0.38249 0.32907 0.10688 0.30937-0.19407-0.028128-0.43312-0.40781-0.11531z"/>
<path d="m3.9859 4.0346-0.10969 0.15751-0.064687 0.18281 0.10688 0.28968 0.25875-0.008436 0.21375-0.18281 0.045-0.19688-0.16312-0.12656-0.28688-0.11531z"/>
<path d="m27.06 4.0652-0.37406 0.12938-0.030948 0.43032 0.40219 0.1125 0.24751-0.34875-0.24468-0.32344z"/>
<path d="m18.839 4.1401-0.17437 0.11812-0.07876 0.20532 0.16593 0.21937 0.20812 0.0225 0.18844-0.0675 0.05344-0.23344-0.08156-0.25875-0.28125-0.00563z"/>
<path d="m11.632 4.2917-0.37125 0.22219 0.135 0.39375 0.42751 0.00563 0.12656-0.38532-0.31781-0.23625z"/>
<path d="m18.008 4.2918-0.17156 0.12375-0.09563 0.17156 0.11532 0.21093 0.23344 0.14062 0.21093-0.18281 0.05344-0.20249-0.07594-0.20532-0.27-0.056249z"/>
<path d="m9.6524 4.6366-0.15468 0.39656 0.31219 0.25593 0.33468-0.21375-0.075937-0.42468-0.41625-0.014069z"/>
<path d="m26.15 5.2804-0.20249 0.16032-0.02251 0.28407 0.17437 0.18 0.23063 0.10969 0.18-0.25032-0.09563-0.16032-0.01968-0.23625-0.24468-0.087187z"/>
<path d="m10.904 5.4174-0.14625 0.14344-0.14907 0.27281 0.14344 0.12656 0.17437 0.087187 0.29812-0.070313 0.02251-0.25593-0.15468-0.23625-0.18844-0.0675z"/>
<path d="m3.1006 5.5107-0.14625 0.14625-0.14907 0.27 0.14344 0.12938 0.17437 0.087187 0.29812-0.073124 0.025313-0.25593-0.15751-0.23625-0.18844-0.0675z"/>
<path d="m27.351 5.5938-0.36563 0.15188-0.06749 0.34032 0.23063 0.28688 0.42751-0.081563 0.06468-0.41907-0.28968-0.27844z"/>
<path d="m18.874 5.7454-0.19688 0.028124-0.06187 0.19407-0.0056 0.30937 0.18563 0.047813 0.19407-0.00281 0.23063-0.20532-0.09844-0.23625-0.24751-0.135z"/>
<path d="m23.207 6.0851-0.08437 0.24188 0.09563 0.26719 0.16594 0.10969 0.17719-0.10688 0.20812-0.22781-0.10688-0.15751-0.14907-0.12656h-0.30656z"/>
<path d="m2.3111 6.3144-0.25593 0.036563-0.10406 0.23625 0.1125 0.26156 0.23625 0.078751 0.25593-0.011244 0.045-0.30375-0.16032-0.098437-0.12938-0.19968z"/>
<path d="m10.329 6.3455-0.30937 0.25312 0.10687 0.38249 0.32907 0.10688 0.31219-0.19407-0.02813-0.43312-0.41063-0.11531z"/>
<path d="m6.3634 6.4169-0.19407 0.14062-0.10969 0.24751 0.20532 0.19125 0.20812 0.028124 0.19688-0.10125 0.019687-0.27281-0.14062-0.15751-0.18563-0.075937z"/>
<path d="m19.857 6.51-0.38812 0.081563-0.08437 0.38812 0.24188 0.24468 0.36563-0.028124 0.17437-0.39375-0.30937-0.29249z"/>
<path d="m17.992 6.689-0.21656 0.27 0.07313 0.36 0.41344 0.12656 0.25312-0.34312-0.12656-0.37688z"/>
<path d="m9.2251 6.9444-0.29812 0.0675-0.036563 0.18563-0.14062 0.19125 0.12656 0.22781 0.25593 0.011244 0.20532-0.19688-0.011244-0.25032-0.10125-0.23625z"/>
<path d="m11.869 7.2453-0.30656 0.030937-0.02532 0.19125 0.02813 0.19125 0.22781 0.20532 0.225-0.12656 0.10687-0.26156-0.05344-0.19407-0.20249-0.036563z"/>
<path d="m26.499 7.2904-0.19968 0.028124-0.06187 0.19688-0.0056 0.30937 0.18563 0.045 0.19688-0.00281 0.23063-0.20249-0.09844-0.23907-0.24751-0.135z"/>
<path d="m16.264 7.292-0.32625 0.27281 0.03376 0.39656 0.37407 0.12938 0.27563-0.21093 0.01411-0.36563-0.37125-0.22219z"/>
<path d="m0.94304 7.3332-0.11531 0.28407 0.13219 0.135 0.075937 0.22219 0.25875 0.028124 0.15751-0.20249-0.047813-0.28125-0.21093-0.135-0.25032-0.050624z"/>
<path d="m25.405 7.5449-0.16032 0.39093 0.21093 0.33751 0.39375-0.059063 0.14344-0.315-0.15468-0.33188-0.43312-0.0225z"/>
<path d="m29.179 7.6211-0.23907 0.033751-0.21093 0.16875 0.09281 0.26156 0.17156 0.12375h0.21937l0.14624-0.23063-0.053439-0.20532-0.12656-0.15188z"/>
<path d="m18.568 7.7878-0.30937 0.033751-0.02251 0.19125 0.02532 0.19125 0.23063 0.20532 0.225-0.12656 0.10406-0.26156-0.05344-0.19407-0.19968-0.039376z"/>
<path d="m10.375 7.8404-0.26437 0.078749-0.09563 0.18563-0.0056 0.19968 0.20249 0.13219 0.27 0.014069 0.10406-0.25875-0.04781-0.20532z"/>
<path d="m1.8343 7.8677-0.39375 0.18 0.039375 0.42188 0.34593 0.19968 0.32063-0.23625-0.019688-0.34312-0.29249-0.22219z"/>
<path d="m24.332 8.028-0.23625 0.18 0.05063 0.28968 0.23063 0.10125 0.22781-0.042187 0.12656-0.28125-0.17437-0.21093-0.225-0.036563z"/>
<path d="m3.8526 8.0358-0.37407 0.18 0.045 0.42468 0.39656 0.081563 0.19688-0.34312-0.26437-0.34312z"/>
<path d="m11.316 8.1729-0.25312 0.050624-0.15188 0.23907 0.07032 0.23907 0.15188 0.20532 0.27563-0.135-0.0085-0.18844 0.09-0.21656-0.17437-0.19407z"/>
<path d="m17.696 8.2683-0.19688 0.061876-0.25875 0.17156 0.06749 0.18 0.11532 0.15751 0.29812 0.075937 0.14063-0.21656-0.03094-0.28125-0.135-0.14907z"/>
<path d="m2.5123 8.4915-0.27281 0.019687-0.16032 0.16312 0.014069 0.29812 0.27 0.12375 0.21375-0.13219 0.092813-0.21093-0.15751-0.26156z"/>
<path d="m20.414 8.6445-0.23063 0.098437-0.18563 0.17719 0.16875 0.25593 0.18563-0.033751 0.22781 0.064687 0.16875-0.19688-0.07876-0.24468z"/>
<path d="m8.2054 8.6651-0.25312 0.047813-0.15188 0.24188 0.070313 0.23907 0.15188 0.20532 0.27563-0.13781-0.00844-0.18563 0.09-0.21937-0.17437-0.19125z"/>
<path d="m3.4482 8.9519-0.37407 0.12938-0.028125 0.43032 0.39937 0.1125 0.24751-0.34875-0.24468-0.32344z"/>
<path d="m25.79 8.9831-0.28407 0.011244-0.15749 0.19407-0.08156 0.24188 0.26719 0.14907 0.14907-0.1125 0.23344-0.050624 0.05624-0.25312-0.18281-0.18z"/>
<path d="m17.631 9.1237-0.23625 0.18 0.05063 0.28968 0.23344 0.10125 0.225-0.042187 0.12656-0.28125-0.17437-0.21093-0.225-0.036563z"/>
<path d="m9.8107 9.2637-0.23907 0.033751-0.21093 0.16875 0.092813 0.26156 0.17156 0.12094 0.21937 0.002808 0.14625-0.23344-0.053437-0.20249-0.12656-0.15188z"/>
<path d="m26.953 9.3614-0.16875 0.09-0.14344 0.12938-0.03937 0.30656 0.23344 0.1125 0.27281-0.061876 0.13219-0.15188-0.08437-0.18844z"/>
<path d="m16.343 9.3888-0.17156 0.073124-0.23625-0.00563-0.11813 0.23063 0.135 0.21937 0.27844 0.056249 0.19968-0.14907 0.13781-0.21656-0.225-0.20812z"/>
<path d="m2.7496 9.3918-0.26437 0.050624-0.039376 0.27563 0.095624 0.18844 0.19125 0.10406 0.23907-0.13781 0.047813-0.20532-0.042187-0.19407-0.22781-0.081563z"/>
<path d="m10.049 9.4642-0.19125 0.24188 0.11812 0.24751 0.20812 0.09 0.27281-0.11812 0.02249-0.29532-0.20249-0.15468-0.22781-0.011244z"/>
<path d="m13.089 9.5568-0.17437 0.075937-0.23625-0.00844-0.11532 0.23063 0.135 0.21937 0.27844 0.05624 0.19968-0.14907 0.135-0.21656-0.22219-0.20812z"/>
<path d="m4.8938 9.7254-0.21375 0.34032 0.25032 0.30656 0.41344-0.12656-0.033751-0.41344-0.41625-0.10688z"/>
<path d="m10.542 9.9303-0.11532 0.28407 0.13219 0.135 0.07594 0.225 0.25875 0.02813 0.15751-0.20532-0.045-0.28125-0.21375-0.13219z"/>
<path d="m26.468 9.9516-0.20812 0.022512-0.16593 0.14625 0.045 0.27 0.17437 0.11813 0.19688 0.02813 0.15468-0.18281 0.04781-0.26719z"/>
<path d="m9.2247 9.9981-0.39375 0.18281 0.039376 0.42188 0.34593 0.19968 0.31781-0.23625-0.016876-0.34593-0.29249-0.22219z"/>
<path d="m8.0304 10.193-0.23063 0.09844-0.18281 0.17719 0.16875 0.25595 0.18281-0.03376 0.22781 0.06468 0.16875-0.19688-0.078751-0.24468-0.25593-0.12093z"/>
<path d="m2.2132 10.258-0.17437 0.07594-0.23625-0.0085-0.11531 0.23344 0.135 0.21937 0.27844 0.05624 0.19968-0.15188 0.135-0.21656-0.22219-0.20812z"/>
<path d="m23.797 10.321-0.13781 0.23625 0.045 0.225 0.25312 0.15751 0.25312-0.15188 0.01411-0.25312-0.12093-0.19406-0.30656-0.01968z"/>
<path d="m16.84 10.344-0.39093 0.07876-0.08437 0.38812 0.24188 0.24751 0.36563-0.02813 0.17719-0.39656-0.30937-0.28968z"/>
<path d="m18.792 10.394-0.41625 0.08719-0.15468 0.36844 0.27 0.28968 0.34312-0.05906 0.18281-0.31781z"/>
<path d="m25.697 10.399-0.32625 0.27281 0.03094 0.39656 0.37688 0.12937 0.27563-0.20812 0.01411-0.36844-0.37125-0.22219z"/>
<path d="m28.804 10.473-0.18844 0.17719-0.03937 0.27844 0.09563 0.17719 0.20532-0.01128 0.29249-0.10687-0.02251-0.18844-0.07313-0.18-0.27-0.14625z"/>
<path d="m2.7423 10.51-0.37688 0.18 0.047813 0.42468 0.39656 0.08156 0.19688-0.34312-0.26437-0.34312z"/>
<path d="m-0.011269 10.535-0.042188 0.03656v0.68907l0.042188 0.02813 0.23344-0.10687 0.09-0.27-0.12656-0.21656z"/>
<path d="m32.032 10.571-0.19125 0.16032 0.05344 0.18-0.03656 0.23344 0.17437 0.11532z"/>
<path d="m17.785 10.66-0.21093 0.09844-0.05624 0.30093 0.21937 0.16312 0.22781-0.01687 0.18563-0.23063-0.11813-0.27-0.24751-0.045z"/>
<path d="m26.511 10.875-0.22781 0.36844 0.30375 0.28688 0.37968-0.19407-0.06468-0.39937-0.39093-0.06187z"/>
<path d="m20.985 11.003-0.405 0.01687-0.10968 0.38249 0.34032 0.26719 0.32063-0.26437-0.14625-0.40219z"/>
<path d="m10.985 11.026-0.38812 0.07876-0.08437 0.38812 0.24188 0.24751 0.36563-0.02813 0.17437-0.39656-0.30937-0.28968z"/>
<path d="m10.13 11.103-0.19688 0.01687-0.10969 0.21656 0.019687 0.27 0.27 0.07313 0.19688-0.07313 0.12656-0.18-0.10687-0.25312z"/>
<path d="m8.1758 11.167-0.084376 0.24468 0.095624 0.26437 0.16593 0.11251 0.17719-0.10687 0.20812-0.22781-0.10688-0.15751-0.14907-0.12656-0.30656-0.0029z"/>
<path d="m25.416 11.207-0.16312 0.39093 0.21375 0.33751 0.39093-0.05906 0.14625-0.315-0.15751-0.33188-0.43032-0.02251z"/>
<path d="m17.435 11.24-0.27281 0.01968-0.15751 0.16312 0.01128 0.29812 0.27 0.12375 0.21375-0.13219 0.09281-0.21093-0.15751-0.26156z"/>
<path d="m1.6682 11.308-0.28125 0.12656-0.011244 0.27281 0.14344 0.17719 0.29812 0.022512 0.15468-0.25032-0.10688-0.23063z"/>
<path d="m9.3533 11.288-0.20812 0.02249-0.16593 0.14344 0.045 0.27 0.15468 0.10406-0.092813-0.0056-0.24468 0.07032 0.030937 0.30375 0.17719 0.05905 0.17156 0.16312 0.24188-0.09844 0.045-0.25312-0.15188-0.19968 0.039376 0.0056 0.15468-0.18563 0.047813-0.26437-0.24468-0.135z"/>
<path d="m15.878 11.39-0.19688 0.18844 0.0029 0.21093 0.08719 0.18 0.23907 0.02532 0.24751-0.11251-0.02813-0.27844-0.13781-0.16032-0.21375-0.05344z"/>
<path d="m12.916 11.361-0.39093 0.18281 0.03656 0.42188 0.34593 0.19968 0.32063-0.23625-0.01687-0.34593z"/>
<path d="m3.8448 11.467-0.16032 0.22781-0.00281 0.21093 0.12375 0.18 0.27281-0.01128 0.13781-0.16027 0.053437-0.19125-0.16312-0.17719z"/>
<path d="m18.506 11.467-0.39093 0.08156-0.08437 0.38812 0.24188 0.24468 0.36563-0.02813 0.17719-0.39375-0.30937-0.29249z"/>
<path d="m16.637 11.546-0.16312 0.11813 0.03656 0.20249 0.13781 0.27563 0.18844-0.045 0.16875-0.09281 0.11251-0.28688-0.19968-0.16593-0.28125-0.0056z"/>
<path d="m17.739 11.76-0.25032 0.12656-0.09 0.18 0.12656 0.16032 0.25032 0.18 0.14344-0.12375 0.10968-0.16312-0.03656-0.30656z"/>
<path d="m2.3291 11.772-0.18844 0.05063-0.17719 0.25312 0.15188 0.20812 0.27281 0.07313 0.18563-0.07594 0.014069-0.20531-0.0675-0.30093z"/>
<path d="m5.2452 11.827-0.25312 0.12656-0.09 0.18 0.12656 0.16032 0.25032 0.18 0.14625-0.12656 0.10688-0.16032-0.036563-0.30656z"/>
<path d="m27.08 11.841-0.27281 0.28688 0.17437 0.39656 0.40781-0.08719 0.05624-0.42188-0.36563-0.17437z"/>
<path d="m3.0475 11.892-0.26437 0.34312 0.23063 0.35719 0.39937 0.01687 0.17437-0.36-0.17719-0.29532z"/>
<path d="m10.262 11.854-0.24751 0.14344-0.030946 0.15468-0.25312 0.05624-0.036563 0.18563-0.14062 0.18844 0.12656 0.22781 0.25593 0.01411 0.20532-0.19688-0.0056-0.12937 0.17719 0.0029 0.07876-0.16875 0.18281-0.15188-0.06468-0.25032-0.24751-0.07595z"/>
<path d="m25.007 11.901-0.39093 0.07876-0.08156 0.38812 0.24188 0.24751 0.36563-0.02813 0.17437-0.39656-0.30937-0.28968z"/>
<path d="m26.382 12.009-0.43312 0.02251-0.06468 0.41063 0.37688 0.20532 0.28968-0.28125-0.16875-0.35719z"/>
<path d="m18.246 12.23-0.21375 0.05063-0.08719 0.26156 0.10124 0.18563 0.16032 0.11813 0.22219-0.09 0.16594-0.21375-0.15468-0.23344z"/>
<path d="m1.4261 12.283-0.13781 0.23625 0.047813 0.22219 0.25032 0.15751 0.25593-0.14907 0.011244-0.25312-0.12094-0.19688-0.30656-0.01687z"/>
<path d="m8.6188 12.377-0.19141 0.19922 0.12109 0.27539 0.2832-0.05859 0.039062-0.29492-0.25195-0.12109z"/>
<path d="m2.6774 12.398-0.18359 0.23633 0.16016 0.24805 0.27734 0.01172 0.12109-0.24805-0.12305-0.20703-0.25195-0.04101z"/>
<path d="m25.702 12.447-0.27344 0.125 0.02734 0.29492 0.24023 0.13867 0.2207-0.16406-0.01172-0.24024-0.20312-0.1543z"/>
<path d="m18.9 12.525-0.14648 0.10547 0.0098 0.13867-0.11133-0.02148-0.12305 0.125-0.02734 0.1582 0.15039 0.15039 0.17969-0.06055 0.08008-0.13672-0.02148-0.07617 0.0293 0.02539 0.17188-0.0293 0.1543-0.08789-0.07227-0.20117-0.12891-0.0098-0.14453-0.08008z"/>
<path d="m10.31 12.629-0.14453 0.01563-0.11523 0.09961 0.03125 0.1875 0.12109 0.08203 0.13672 0.02148 0.10742-0.12891 0.0332-0.18359-0.16992-0.09375z"/>
<path d="m17.767 12.656-0.18359 0.23828 0.16016 0.24805 0.27734 0.01172 0.12109-0.24805-0.12305-0.20703z"/>
<path d="m11.583 12.697-0.0957 0.16406 0.03125 0.1543 0.17578 0.10938 0.17578-0.10352 0.0098-0.17578-0.08398-0.13476-0.21289-0.01367z"/>
<path d="m3.2552 12.715-0.16211 0.13867 0.037109 0.125-0.025391 0.16211 0.15039 0.09961 0.16211-0.07422 0.0625-0.1875-0.085938-0.15039z"/>
<path d="m26.847 12.717-0.16016 0.09961-0.04492 0.15234 0.10547 0.17773 0.20312-0.0098 0.08984-0.15039-0.01172-0.16016-0.18164-0.10938z"/>
<path d="m10.624 12.797-0.12305 0.125-0.02734 0.1582 0.11133 0.10938-0.14844 0.125 0.03906 0.125-0.02539 0.16211 0.15039 0.09961 0.16211-0.07422 0.0625-0.1875-0.08789-0.15039-0.08398-0.06836 0.15234-0.05078 0.07812-0.13672-0.05859-0.19922-0.20117-0.03711z"/>
<path d="m1.2609 12.799-0.21484 0.17383 0.074219 0.26758 0.22852 0.07422 0.2168-0.13672-0.019531-0.29883-0.28516-0.08008z"/>
<path d="m9.2785 12.826-0.26172 0.125 0.033203 0.29492 0.27539 0.05664 0.13672-0.23828-0.18359-0.23828z"/>
<path d="m31.582 12.871-0.21484 0.17383 0.07422 0.26758 0.22852 0.07422 0.2168-0.13672-0.01953-0.29883-0.28516-0.08008z"/>
<path d="m23.023 12.877-0.08008 0.19727 0.08984 0.09375 0.05469 0.1543 0.17773 0.01953 0.10938-0.14258-0.03125-0.19336-0.14648-0.09375-0.17383-0.03516z"/>
<path d="m24.716 12.906-0.21875 0.0957-0.07227 0.24609 0.21484 0.21094 0.26562-0.12891 0.04297-0.27344-0.23242-0.15039z"/>
<path d="m17.173 12.928-0.11914 0.06055-0.09961 0.0918-0.02734 0.21094 0.16211 0.07813 0.18945-0.04297 0.0918-0.10547-0.05859-0.13086z"/>
<path d="m15.601 12.936-0.24219 0.14062 0.05664 0.26953 0.29492 0.05469 0.11133-0.26562-0.2207-0.19922z"/>
<path d="m27.318 12.937-0.1582 0.25586 0.12891 0.12109-0.14062-2e-3 -0.12109 0.08203-0.05469 0.14062 0.11524 0.15234 0.14453 0.01563 0.13086-0.04492 0.03711-0.16406-0.0332-0.10547 0.0039 0.0039 0.26367-0.13477-0.04492-0.27734-0.27148-0.04297z"/>
<path d="m28.57 12.939-0.13476 0.09766-0.07617 0.17188 0.14258 0.13281 0.14453 0.01953 0.13672-0.07031 0.01367-0.19141-0.09766-0.10742-0.12891-0.05274z"/>
<path d="m10.957 13.008-0.14844 0.1875 0.04883 0.25 0.28711 0.08594 0.17578-0.23633-0.08789-0.26367-0.27539-0.02344z"/>
<path d="m1.8105 13.084-0.10156 0.09961-0.10352 0.18945 0.099609 0.08789 0.00195 2e-3 -0.16602 0.0059-0.10938 0.13672-0.041016 0.12109-0.11133 0.02539-0.023438 0.12695-0.097656 0.13281 0.085938 0.1582 0.083984 0.0039-0.00586 0.01367 0.14844 0.23242 0.027344-0.0039-0.041016 0.05273 0.16016 0.24805 0.27734 0.01172 0.12109-0.24805-0.12305-0.20703-0.09375-0.01563 0.044922-0.09766-0.10938-0.23047-0.17578-0.0098-0.00195-0.04687 0.00586 0.0039 0.10352-0.08008 0.16016-0.0332 0.041016-0.17578-0.089844-0.08984 0.046875 0.02344 0.20898-0.05078 0.015625-0.17773-0.10742-0.16211-0.13086-0.04687z"/>
<path d="m7.6367 13.123-0.16211 0.10156-0.044922 0.15234 0.10547 0.17774 0.20508-0.0098 0.087891-0.15039-0.00977-0.16016-0.18164-0.11133z"/>
<path d="m19.088 13.172-0.17578 0.0332-0.10547 0.16797 0.04883 0.16602 0.10547 0.14258 0.19141-0.0957-0.0078-0.12891 0.06445-0.15234-0.12109-0.13281z"/>
<path d="m26.674 13.346-0.15039 0.04883-0.08789 0.1875 0.125 0.16406 0.17578-0.01367 0.125-0.09961-0.01367-0.21289-0.17383-0.07422z"/>
<path d="m19.918 13.369-0.13672 0.13281v0.14453l0.06055 0.125 0.16797 0.01758 0.16992-0.07812-0.01953-0.19336-0.09375-0.11133-0.14844-0.03711z"/>
<path d="m2.2457 13.387-0.18945 0.19922 0.12109 0.27539 0.28125-0.06055 0.00195-0.01563 0.1582 0.12695 0.22266-0.18359-0.00195-0.0039 0.1582-0.03516 0.039062-0.17578-0.12695-0.125-0.19727 0.0078-0.044922 0.05664-0.20898 0.0078-0.00586 0.02344-0.20703-0.09766z"/>
<path d="m9.6949 13.426-0.18945 0.01563-0.11133 0.11328 0.00977 0.20703 0.1875 0.08594 0.14844-0.0918 0.064453-0.14648-0.10938-0.18359z"/>
<path d="m16.963 13.434-0.26172 0.08789-0.01758 0.27148-0.04297-0.07031-0.21289-0.01367-0.09375 0.16602 0.03125 0.1543 0.17578 0.10938 0.17578-0.10547 0.0078-0.17383-0.01953-0.0293 0.25391 0.07031 0.17188-0.24219-0.16797-0.22461z"/>
<path d="m25.705 13.445-0.16211 0.10156-0.04297 0.15234 0.10352 0.17773 0.12305-0.0059-0.09375 0.0293-0.05078 0.16797 0.04883 0.15234 0.20312 0.0625 0.13281-0.13672 0.0059-0.1582-0.14453-0.14844-0.0039 2e-3 0.07226-0.12695-0.0098-0.1582-0.18164-0.11133z"/>
<path d="m17.939 13.471-0.11914 0.05273-0.16406-0.0059-0.08203 0.16016 0.09375 0.15234 0.19336 0.04102 0.13867-0.10547 0.0957-0.15039-0.15625-0.14453z"/>
<path d="m12.191 13.547-0.28906 0.06055-0.10938 0.25391 0.18945 0.20117 0.23633-0.03906 0.12891-0.2207-0.15625-0.25586z"/>
<path d="m3.1208 13.646-0.22461 0.19336 0.10742 0.25391-0.095703-0.04687-0.16016 0.07031-0.12695 0.12305 0.11719 0.17774 0.12695-0.02344 0.1582 0.04492 0.11719-0.13672-0.054688-0.16992-0.074219-0.03516 0.26953-0.02344 0.091797-0.28516-0.25195-0.14258z"/>
<path d="m26.203 13.648-0.15039 0.05078-0.08594 0.1875 0.125 0.16211 0.17383-0.01172 0.125-0.10156-0.01172-0.21094-0.17578-0.07617z"/>
<path d="m18.193 13.66-0.14062 0.11133-0.01563 0.19727 0.12109 0.125 0.16016 0.07617 0.125-0.17383-0.06641-0.11133-0.01563-0.16406-0.16797-0.06055z"/>
<path d="m18.922 13.67-0.17383 0.08594-0.06836 0.12891 0.01758 0.15234 0.17188 0.08008 0.13672-0.05273 0.09375-0.10156-0.04297-0.16211z"/>
<path d="m26.851 13.705-0.15625 0.25586 0.20898 0.19922 0.26562-0.13476-0.04687-0.27734-0.27148-0.04297z"/>
<path d="m24.783 13.742-0.30078 0.01562-0.04492 0.28516 0.26172 0.14258 0.20312-0.19531-0.11914-0.24805z"/>
<path d="m8.9348 13.787-0.13867 0.11133-0.015625 0.19726 0.12109 0.12305 0.064453 0.0293-0.12695 0.0625-0.0625 0.125 0.087891 0.11328 0.17578 0.125 0.099609-0.08789 0.074219-0.11133-0.025391-0.21289-0.089844-0.01953 0.087891-0.11914-0.066406-0.11133-0.015625-0.16406-0.16992-0.06055z"/>
<path d="m17.087 13.879-0.15039 0.1875 0.05078 0.25 0.28711 0.08789 0.17578-0.23828-0.08789-0.26172z"/>
<path d="m2.1571 13.896-0.18359 0.03516-0.027344 0.19141 0.066406 0.13086 0.13281 0.07227 0.16602-0.0957 0.033203-0.14258-0.029297-0.13477-0.1582-0.05664z"/>
<path d="m9.8739 13.92-0.16406 0.125 0.035156 0.20117 0.16016 0.07031 0.15625-0.03125 0.08789-0.19336-0.11914-0.14844-0.15625-0.02344z"/>
<path d="m10.808 13.949-0.13672 0.04101-0.17969 0.11914 0.04687 0.125 0.07813 0.11133 0.20898 0.05078 0.0957-0.15039-0.01953-0.19531-0.09375-0.10156z"/>
<path d="m24.074 13.986-0.18945 0.19922 0.12109 0.27539 0.23438-0.05078-2e-3 0.01563 0.06641 0.13086 0.13477 0.07226 0.07617-0.04492-0.01172 0.03516 0.07031 0.12891 0.02344 0.01758-0.02734 0.04102 0.03516 0.12109-0.11914 0.11524 0.0332 0.17383 0.11523 0.11133 0.20898-0.03906 0.05273-0.18164-0.0293-0.0625 0.04883-0.02344-0.0059-0.13086 0.0625-0.15234-0.05859-0.06445 0.02734-0.03711 0.10156-0.07617 0.0957-0.15039-0.15625-0.14453-0.11914 0.05273-0.16406-0.0059-0.05469 0.10742-0.01563 0.0039 0.0078-0.0332-0.0293-0.13477-0.1582-0.05664-0.13672 0.02539 0.01563-0.11719-0.25391-0.12109z"/>
<path d="m3.9795 14.012-0.10742 0.27734 0.2168 0.17774 0.23242-0.14844-0.052734-0.29688-0.28906-0.0098z"/>
<path d="m0.71705 17.641-0.1582 0.25586 0.21094 0.19727 0.099609-0.05078-0.0625 0.19336 0.10938 0.13672 0.15234 0.04492 0.16797-0.13086-0.037109-0.18555-0.12695-0.0957-0.19727 0.03516 0.1582-0.08203-0.044922-0.27734-0.27148-0.04102z"/>
<path d="m10.871 17.826-0.18555 0.03516-0.02734 0.19141 0.06641 0.13086 0.13086 0.07031-0.06445 0.01758 0.01953 0.21094 0.125 0.04102 0.11914 0.11328 0.16797-0.06641 0.0293-0.17578-0.11719-0.1582-0.17383-0.01367-0.08789 0.02539 0.15039-0.08789 0.0332-0.14258-0.0293-0.13477-0.15625-0.05664z"/>
<path d="m5.8128 17.889-0.17383 0.08789-0.0625 0.125 0.085937 0.11328 0.17578 0.125 0.099609-0.08789 0.076172-0.11328-0.025391-0.21289-0.17578-0.03711z"/>
<path d="m2.512 17.973-0.14844 0.23828 0.17383 0.21289 0.28711-0.08789-0.023438-0.28711-0.28906-0.07617z"/>
<path d="m24.862 17.975-0.21484 0.17383 0.07422 0.26758 0.22852 0.07422 0.2168-0.13672-0.01953-0.29883-0.28516-0.08008z"/>
<path d="m16.899 17.982-0.25976 0.125 0.03125 0.29492 0.27539 0.05664 0.13867-0.23828z"/>
<path d="m25.497 18.043-0.10156 0.09961-0.10156 0.18945 0.07617 0.06836-0.18945 0.08203-0.07226 0.24609 0.21484 0.21094 0.26367-0.13086 0.04492-0.27148-0.0957-0.0625 0.13867-0.0332-0.0039 0.11914 0.13867 0.09375 0.1875 0.0098 0.07227-0.17969-0.0332-0.14258-0.11328-0.10156-0.18164 0.05274-0.0098 0.01953 0.0059-0.06055-0.10938-0.16211-0.13086-0.04687z"/>
<path d="m18.173 18.125-0.05859 0.16797 0.06641 0.18359 0.11719 0.07813 0.12109-0.07422 0.14453-0.1582-0.07422-0.10938-0.10156-0.08789h-0.21484z"/>
<path d="m3.0746 18.15-0.2207 0.0957-0.072266 0.24414 0.21484 0.21094 0.26562-0.12891 0.042969-0.27344-0.23047-0.14844z"/>
<path d="m27.251 18.154-0.28906 0.06836-0.02344 0.2793 0.25391 0.10742 0.21484-0.21094-0.15625-0.24414z"/>
<path d="m10.247 18.205-0.14844 0.1875 0.04883 0.25 0.28711 0.08594 0.17578-0.23633-0.08789-0.26367-0.27539-0.02344z"/>
<path d="m30.319 18.221-0.16211 0.13867 0.03711 0.125-0.02539 0.16211 0.15039 0.09961 0.16211-0.07422 0.0625-0.1875-0.08789-0.15039-0.13672-0.11328z"/>
<path d="m23.705 18.223-0.14844 0.03516-0.06055 0.18164 0.07031 0.12891 0.11133 0.08203 0.15625-0.0625 0.11524-0.14844-0.10742-0.16211-0.13672-0.05469z"/>
<path d="m1.6253 18.244-0.13086 0.03516-0.12305 0.17578 0.10547 0.14453 0.18945 0.05078 0.12891-0.05273 0.00977-0.14258-0.046875-0.20898z"/>
<path d="m9.4417 18.246-0.10156 0.10156-0.10352 0.1875 0.099609 0.08789 0.12109 0.0625 0.20703-0.05078 0.015625-0.17774-0.10742-0.16406-0.13086-0.04687z"/>
<path d="m26.477 18.383-0.24219 0.14258 0.05664 0.26953 0.0078 2e-3 -0.2168 0.04492-0.10742 0.25586 0.1875 0.20117 0.23828-0.04102 0.12695-0.2207-0.13672-0.22461 0.19531 0.03711 0.11133-0.26562-0.2207-0.20117z"/>
<path d="m28.781 18.43-0.30078 0.01562-0.04492 0.28516 0.26172 0.14258 0.20117-0.19531-0.11719-0.24805z"/>
<path d="m17.836 18.496-0.24219 0.14062 0.05664 0.26953 0.29492 0.05664 0.11133-0.26758-0.2207-0.19922z"/>
<path d="m2.5064 18.52-0.15039 0.1875 0.048828 0.25 0.28906 0.08789 0.17383-0.23828-0.087891-0.26172-0.27344-0.02539z"/>
<path d="m11.946 18.525-0.21484 0.02344-0.01758 0.13086 0.01953 0.13476 0.16016 0.14062 0.15625-0.08789 0.07227-0.18164-0.03711-0.13477-0.13867-0.02539z"/>
<path d="m10.014 18.531-0.25977 0.125 0.029297 0.27539-0.15625-0.08203-0.12695 0.11914-0.14258-0.03906-0.082031 0.10352-0.14844 0.07031 0.00391 0.18164 0.1543 0.08984 0.18945-0.05469 0.037109-0.07812 0.025391 0.04492 0.14258-0.0078 0.20117-0.07227-0.015625-0.13281-0.044922-0.11328 0.24023 0.04883 0.13672-0.24024-0.18359-0.23828z"/>
<path d="m7.7604 18.539-0.16992 0.09766-0.035156 0.17188 0.029297 0.17383 0.21289 0.0059 0.054688-0.11914 0.12695-0.10352-0.046875-0.17578-0.17188-0.05078z"/>
<path d="m24.557 18.605-0.17188 0.09766-0.0332 0.16992 0.02734 0.17578 0.21289 0.0059 0.05469-0.11914 0.12695-0.10547-0.04492-0.17383-0.17187-0.05078z"/>
<path d="m16.708 18.639-0.25977 0.08984-0.02148 0.29883 0.2793 0.07813 0.17188-0.24219-0.16992-0.22461z"/>
<path d="m0.098847 18.666-0.095703 0.04102v0.35547l0.017578 0.0039 0.13867-0.10547 0.09375-0.15039-0.1543-0.14453z"/>
<path d="m32.003 18.707-0.02539 0.01172-0.16406-0.0059-0.08008 0.16211 0.09375 0.15234 0.17578 0.03516v-0.35547z"/>
<path d="m17.274 18.727-0.17188 0.08789-0.07031 0.12891 0.01758 0.15039 0.17188 0.08203 0.13672-0.05469 0.09375-0.09961-0.04297-0.16211-0.13477-0.13281z"/>
<path d="m3.1978 18.809-0.11133 0.1582-0.00195 0.14648 0.085938 0.125 0.18945-0.0078 0.095703-0.11133 0.037109-0.13281-0.11328-0.12305-0.18164-0.05469z"/>
<path d="m27.089 18.824-0.0957 0.16406 0.03125 0.1543 0.17578 0.10938 0.17773-0.10352 0.0078-0.17578-0.08398-0.13672-0.21289-0.01172z"/>
<path d="m1.2298 18.875-0.18164 0.05273-0.066406 0.13086-0.003906 0.13672 0.13867 0.09375 0.1875 0.0098 0.017578-0.04297 0.027344 0.16602 0.21289 0.0039 0.054687-0.11719 0.12695-0.10547-0.046875-0.17383-0.17188-0.05273-0.16016 0.09375-0.021484-0.09375-0.11328-0.10156z"/>
<path d="m2.004 18.872-0.084376 0.24188 0.095624 0.26719 0.16875 0.10968 0.17437-0.10687 0.21093-0.22781-0.10969-0.15749-0.14625-0.12656h-0.30937z"/>
<path d="m13.502 18.935-0.23063 0.09844-0.18563 0.17719 0.16875 0.25593 0.18563-0.03376 0.22781 0.06468 0.16875-0.19688-0.07876-0.24468z"/>
<path d="m19.993 19.013-0.15751 0.39937 0.315 0.25593 0.33188-0.21375-0.07313-0.42751-0.41625-0.01411z"/>
<path d="m11.685 19.049-0.37405 0.12656-0.02813 0.43312 0.39937 0.11251 0.24751-0.34875-0.24468-0.32344z"/>
<path d="m10.21 19.092-0.25312 0.30375 0.098436 0.33188 0.33751 0.14625 0.33751-0.27-0.13781-0.40219-0.38249-0.10968z"/>
<path d="m27.005 19.134-0.19968 0.16312-0.02251 0.28125 0.17437 0.18 0.23063 0.10968 0.18-0.24751-0.09563-0.16312-0.02251-0.23344-0.24468-0.09z"/>
<path d="m17.596 19.226-0.14625 0.14344-0.14625 0.27281 0.14063 0.12656 0.17437 0.08719 0.29812-0.07313 0.02532-0.25593-0.15468-0.23344-0.19125-0.06749z"/>
<path d="m18.257 19.251-0.29249 0.05063-0.09 0.28125 0.15751 0.19688 0.22219 0.06468 0.23907-0.18844-0.05344-0.26719-0.18281-0.13781z"/>
<path d="m26.327 19.296-0.19688 0.02813-0.06187 0.19688-0.0056 0.30937 0.18563 0.04781 0.19407-0.0056 0.23063-0.20249-0.09844-0.23625-0.24749-0.13781z"/>
<path d="m2.41 19.33-0.36563 0.15188-0.0675 0.34032 0.23063 0.28406 0.42468-0.07876 0.064687-0.42188-0.28688-0.27563z"/>
<path d="m18.889 19.437-0.28125 0.08719-0.07313 0.24188 0.07032 0.21937 0.29249 0.09 0.19125-0.19688 0.0085-0.22781-0.20812-0.21375z"/>
<path d="m0.58575 19.491-0.23625 0.18 0.050625 0.28968 0.23063 0.10124 0.22781-0.045 0.12656-0.27844-0.17437-0.21093-0.225-0.03656z"/>
<path d="m1.5634 19.564-0.21093 0.20812 0.047813 0.24751 0.16593 0.16032 0.30093-0.05344 0.075937-0.26437-0.095624-0.20532-0.28407-0.09281z"/>
<path d="m25.323 19.589-0.40219 0.01687-0.10968 0.38249 0.33751 0.26719 0.32063-0.26437-0.14625-0.40219z"/>
<path d="m15.932 19.612-0.20812 0.02813-0.16594 0.10687 0.0029 0.24188 0.14344 0.23063 0.27-0.06187 0.14344-0.15468 0.02813-0.21937-0.21375-0.17156z"/>
<path d="m18.27 19.719-0.19688 0.19125 0.0029 0.21093 0.08719 0.18 0.23907 0.02251 0.24751-0.11251-0.02813-0.27844-0.13781-0.15751-0.21375-0.05624z"/>
<path d="m2.7813 19.738-0.10969 0.15751-0.064687 0.18281 0.10688 0.28688 0.25875-0.0085 0.21375-0.18281 0.045-0.19407-0.16312-0.12937-0.28688-0.11251z"/>
<path d="m10.41 19.775-0.18844 0.17437-0.03937 0.27844 0.09563 0.17719 0.20532-0.01128 0.29249-0.10405-0.02251-0.19125-0.07313-0.18-0.27-0.14344z"/>
<path d="m5.2305 19.8-0.10969 0.15751-0.064687 0.18281 0.10688 0.28968 0.25875-0.0085 0.21375-0.18281 0.045-0.19688-0.16312-0.12656-0.28688-0.11532z"/>
<path d="m8.9714 19.836-0.14344 0.14344-0.14907 0.27281 0.14344 0.12656 0.17156 0.08719 0.30093-0.07032 0.0225-0.25875-0.15468-0.23344-0.19125-0.06749z"/>
<path d="m11.582 19.831-0.37407 0.12656-0.03094 0.43312 0.40219 0.11251 0.24751-0.34875-0.24468-0.32344z"/>
<path d="m25.706 19.855-0.25032 0.12375-0.10124 0.18563 0.02532 0.21937 0.24749 0.11532 0.19688-0.07595 0.135-0.14625-0.06187-0.23344z"/>
<path d="m23.912 19.859-0.11532 0.28405 0.13219 0.135 0.07594 0.22219 0.25875 0.02813 0.15751-0.20249-0.045-0.28125-0.21375-0.135z"/>
<path d="m27.045 19.921-0.13781 0.23625 0.045 0.225 0.25312 0.15749 0.25312-0.15188 0.01411-0.25312-0.12093-0.19406-0.30656-0.01968z"/>
<path d="m8.5212 19.917-0.37407 0.12656-0.028124 0.43312 0.39937 0.11251 0.24751-0.34875z"/>
<path d="m9.7948 19.948-0.19407 0.06187-0.25875 0.17156 0.0675 0.18 0.1125 0.15751 0.29812 0.07594 0.14062-0.21656-0.028124-0.28125-0.13781-0.14907z"/>
<path d="m17.734 20.128-0.24468 0.07032 0.02813 0.30375 0.18 0.05905 0.17156 0.16312 0.24188-0.09563 0.04219-0.25593-0.16875-0.225z"/>
<path d="m10.905 20.362-0.39093 0.08156-0.08156 0.38812 0.24188 0.24468 0.36563-0.02813 0.17437-0.39375-0.30937-0.29249z"/>
<path d="m1.4016 20.393-0.30937 0.25032 0.10688 0.38249 0.32907 0.10687 0.30937-0.19406-0.028124-0.43312-0.40781-0.11251z"/>
<path d="m11.859 20.417-0.19688 0.14063-0.10968 0.24751 0.20532 0.19125 0.21093 0.02813 0.19405-0.10124 0.01968-0.27281-0.14063-0.15751-0.18281-0.07594z"/>
<path d="m26.109 20.44-0.24751 0.14344-0.04781 0.24468 0.03937 0.25312 0.30656 0.0056 0.07876-0.16875 0.18281-0.15188-0.06468-0.25032-0.24751-0.07595z"/>
<path d="m3.5638 20.447-0.10969 0.15468-0.064687 0.18281 0.10969 0.28968 0.25593-0.0085 0.21375-0.18281 0.045-0.19688-0.16032-0.12656-0.28968-0.11251z"/>
<path d="m2.8546 20.538-0.13781 0.23625 0.047813 0.225 0.25032 0.15751 0.25593-0.15188 0.011244-0.25312-0.12094-0.19407-0.30656-0.01968z"/>
<path d="m29.404 20.575-0.16312 0.22781-0.0029 0.21093 0.12375 0.18 0.27563-0.01128 0.13781-0.16032 0.05344-0.19125-0.16593-0.17719-0.25875-0.07876z"/>
<path d="m18.298 20.751-0.24468 0.07032 0.02813 0.30656 0.18 0.05624 0.17156 0.16312 0.24188-0.09563 0.04219-0.25312-0.16875-0.22781z"/>
<path d="m24.561 20.785-0.19968 0.01687-0.10687 0.21656 0.01687 0.27 0.27 0.07313 0.19968-0.07313 0.12656-0.18-0.10968-0.25312z"/>
<path d="m31.865 20.956-0.19968 0.16032-0.02251 0.28406 0.17437 0.18 0.23063 0.10968 0.01968-0.02813v-0.63281z"/>
<path d="m17.18 20.958-0.25312 0.04781-0.15188 0.24188 0.07032 0.23907 0.15188 0.20532 0.27563-0.135-0.01128-0.18844 0.09281-0.21937-0.17437-0.19125z"/>
<path d="m-0.022536 21.022v0.63281l0.16032-0.21937-0.095625-0.16312-0.0225-0.23625-0.042188-0.01411z"/>
<path d="m9.971 21.044-0.18844 0.24188 0.11531 0.24751 0.21093 0.09 0.27281-0.11813 0.01968-0.29532-0.19968-0.15468-0.23063-0.01128z"/>
<path d="m21.135 21.18-0.25593 0.26156 0.13219 0.41344 0.42468 0.01128 0.23907-0.31781-0.19406-0.34595-0.34594-0.02251z"/>
<path d="m25.661 21.2-0.20812 0.02251-0.16595 0.14625 0.045 0.27 0.17437 0.11532 0.19688 0.03094 0.15468-0.18281 0.04781-0.26719-0.24468-0.135z"/>
<path d="m2.2889 21.449-0.17156 0.07313-0.23625-0.0056-0.11812 0.23063 0.135 0.21937 0.27844 0.05624 0.19968-0.14907 0.13781-0.21656-0.225-0.20812z"/>
<path d="m9.4853 21.448-0.30937 0.25032 0.10688 0.38532 0.32907 0.10406 0.30937-0.19407-0.028124-0.43032-0.40781-0.11532z"/>
<path d="m17.446 21.649-0.16312 0.11813 0.03656 0.20249 0.14063 0.27563 0.18563-0.045 0.16875-0.09281 0.11251-0.28968-0.19968-0.16312-0.28125-0.0056z"/>
<path d="m11.292 21.736-0.40219 0.01687-0.10968 0.37968 0.34032 0.27 0.32063-0.26437z"/>
<path d="m13.093 21.779-0.25593 0.30656 0.10124 0.33188 0.33468 0.14344 0.34032-0.26719-0.13781-0.40219-0.38249-0.11249z"/>
<path d="m2.7719 21.814-0.19688 0.14063-0.10969 0.24751 0.20532 0.18844 0.21093 0.02813 0.19407-0.10124 0.019687-0.27281-0.14062-0.15468-0.18281-0.07594z"/>
<path d="m1.3111 21.861-0.27281 0.28688 0.17437 0.39375 0.40781-0.08437 0.056249-0.42468-0.36563-0.17156z"/>
<path d="m26.531 21.928-0.23063 0.14625-0.06468 0.21656 0.15188 0.25875 0.29532-0.01687 0.12656-0.21656-0.01687-0.23063z"/>
<path d="m19.204 21.954-0.37125 0.22219 0.13219 0.39093 0.42751 0.0056 0.12937-0.38249-0.31781-0.23625z"/>
<path d="m25.59 22.002-0.37405 0.18281 0.045 0.42468 0.39656 0.08156 0.19688-0.34594-0.26437-0.34312z"/>
<path d="m16.318 22.059-0.27281 0.14063 0.03656 0.25593 0.20812 0.19125 0.19968 0.01968 0.10687-0.17437 0.08156-0.30093-0.17156-0.09z"/>
<path d="m9.5029 22.092-0.22781 0.09844-0.18563 0.17719 0.16875 0.25593 0.18563-0.03094 0.22781 0.06468 0.16875-0.19688-0.078749-0.24751-0.25875-0.12093z"/>
<path d="m5.2443 22.091-0.23344 0.14625-0.061876 0.21937 0.14907 0.25594 0.29532-0.01411 0.12656-0.21937-0.014069-0.22781-0.26156-0.16032z"/>
<path d="m18.624 22.338-0.37688 0.12656-0.02813 0.43312 0.40219 0.11251 0.24751-0.34875-0.24468-0.32344z"/>
<path d="m10.851 22.458-0.18844 0.05063-0.17719 0.25032 0.15188 0.20812 0.27281 0.07313 0.18844-0.07313 0.01128-0.20532-0.06749-0.30375h-0.19125z"/>
<path d="m9.0312 22.449-0.40219 0.016872-0.10969 0.38249 0.34032 0.26719 0.31781-0.26437-0.14625-0.40219z"/>
<path d="m1.4355 22.457-0.41625 0.09563-0.033751 0.40219 0.36563 0.15468 0.30937-0.30375-0.225-0.34875z"/>
<path d="m27.253 22.57-0.28125 0.08437-0.07313 0.24188 0.07032 0.21937 0.29249 0.09281 0.19125-0.19688 0.0085-0.22781-0.20812-0.21375z"/>
<path d="m0.096724 22.624-0.16312 0.08156v0.42468l0.19968 0.14063 0.14344-0.12656 0.10969-0.16032-0.036563-0.30656z"/>
<path d="m32.03 22.714-0.08719 0.04219-0.09 0.18 0.12375 0.16312 0.05344 0.03937z"/>
<path d="m17.66 22.734-0.21656 0.07032-0.12656 0.27 0.18 0.23344 0.25312-0.01687 0.18-0.14344-0.01968-0.30656z"/>
<path d="m9.855 22.964-0.34875 0.20249 0.081563 0.38812 0.42468 0.07876 0.16032-0.38249z"/>
<path d="m1.1916 23.092-0.21656 0.34312 0.25312 0.30656 0.41344-0.12656-0.036563-0.41344z"/>
<path d="m22.529 23.161-0.08437 0.24468 0.09563 0.26437 0.16875 0.11251 0.17437-0.10687 0.20812-0.22781-0.10687-0.15751-0.14625-0.12656-0.30937-0.0029z"/>
<path d="m29.163 23.297-0.23907 0.03376-0.21093 0.16875 0.09563 0.26437 0.17156 0.12093h0.21937l0.14344-0.23063-0.05063-0.20249z"/>
<path d="m10.671 23.382-0.18844 0.05063-0.17719 0.25312 0.15468 0.20812 0.27281 0.07313 0.18563-0.07594 0.01411-0.20532-0.07032-0.30093-0.19125-0.0029z"/>
<path d="m17.926 23.396-0.15751 0.39937 0.31219 0.25593 0.33468-0.21375-0.07594-0.42751-0.41344-0.01411z"/>
<path d="m26.924 23.513-0.28688 0.01128-0.15751 0.19407-0.08156 0.24468 0.27 0.14907 0.14907-0.11532 0.23063-0.05063 0.05906-0.25312-0.18281-0.18z"/>
<path d="m19.144 23.606-0.24751 0.07313 0.03094 0.30375 0.17719 0.05906 0.17437 0.16032 0.23907-0.09563 0.045-0.25312-0.17156-0.22781-0.24751-0.01968z"/>
<path d="m2.1769 23.98-0.23063 0.10124-0.18563 0.17437 0.16875 0.25595 0.18563-0.03095 0.22781 0.06468 0.16875-0.19688-0.078749-0.24468-0.25593-0.12375z"/>
<path d="m15.701 24.013-0.16312 0.11813 0.03656 0.20249 0.14063 0.27563 0.18563-0.045 0.17156-0.09281 0.10968-0.28688-0.19968-0.16593-0.28125-0.0056z"/>
<path d="m26.123 24.005-0.15751 0.39937 0.315 0.25312 0.33468-0.21093-0.07594-0.42751-0.41625-0.01411z"/>
<path d="m11.662 24.195-0.21093 0.20532 0.04781 0.24751 0.16593 0.16312 0.30093-0.05624 0.07595-0.26156-0.09844-0.20532-0.28125-0.09281z"/>
<path d="m25.486 24.259-0.27281 0.28407 0.17437 0.39656 0.40781-0.08437 0.05624-0.42468-0.36563-0.17156z"/>
<path d="m0.97764 24.568-0.41625 0.08719-0.15751 0.36844 0.27281 0.28968 0.34032-0.05906 0.18563-0.31781z"/>
<path d="m7.7597 24.602-0.24468 0.14344-0.050624 0.24468 0.039376 0.25312 0.30656 0.0056 0.081563-0.16875 0.18-0.15188-0.064687-0.25032-0.24751-0.07594z"/>
<path d="m4.5086 24.791-0.25312 0.30656 0.098437 0.32907 0.33751 0.14625 0.33751-0.26719-0.13781-0.40219-0.38249-0.11251z"/>
<path d="m19.285 24.852-0.39093 0.08156-0.08156 0.38812 0.24188 0.24468 0.36563-0.02813 0.17437-0.39375-0.30937-0.29249z"/>
<path d="m26.572 25.015-0.39375 0.18 0.03937 0.42468 0.34593 0.19688 0.31781-0.23625-0.01687-0.34312-0.29249-0.22219z"/>
<path d="m11.169 25.236-0.17156 0.12093-0.09844 0.17437 0.11532 0.21093 0.23344 0.13781 0.21093-0.18 0.05344-0.20249-0.07595-0.20812-0.26719-0.05344z"/>
<path d="m19.637 25.369-0.19688 0.19125 0.0029 0.21093 0.08719 0.18 0.23907 0.02251 0.24751-0.11251-0.02813-0.27844-0.13781-0.15751-0.21375-0.05624z"/>
<path d="m2.058 25.644-0.20812 0.20812 0.047813 0.24751 0.16312 0.16032 0.30093-0.05344 0.078749-0.26437-0.098437-0.20532-0.28407-0.09281z"/>
<path d="m23.62 25.782-0.37405 0.18 0.045 0.42468 0.39656 0.08156 0.19688-0.34312-0.26437-0.34312z"/>
<path d="m30.217 26.159-0.13781 0.23625 0.045 0.225 0.25312 0.15751 0.25312-0.15188 0.01411-0.25312-0.12093-0.19407-0.30656-0.01968z"/>
<path d="m11.434 26.215-0.21093 0.20532 0.04781 0.24751 0.16312 0.16032 0.30093-0.05344 0.07876-0.26156-0.09844-0.20812-0.28125-0.09z"/>
<path d="m1.2963 26.48-0.19125 0.23907 0.11812 0.25032 0.20812 0.08719 0.27563-0.11813 0.019687-0.29249-0.19968-0.15468-0.23063-0.01128z"/>
<path d="m3.5126 26.575-0.26437 0.07594-0.095624 0.18844-0.00563 0.19968 0.20249 0.13219 0.27 0.01411 0.10406-0.25875-0.047815-0.20532-0.16312-0.14625z"/>
<path d="m15.613 26.95-0.25593 0.03656-0.10406 0.23625 0.11251 0.26156 0.23907 0.07595 0.25312-0.0085 0.045-0.30375-0.16032-0.09844-0.12937-0.19968z"/>
<path d="m19.482 27.056-0.27281 0.28688 0.17437 0.39375 0.40781-0.08437 0.05624-0.42468-0.36563-0.17156z"/>
<path d="m8.659 27.142-0.39375 0.18 0.039376 0.42188 0.34593 0.19968 0.32063-0.23625-0.019687-0.34593-0.29249-0.21937z"/>
<path d="m26.552 27.255-0.37125 0.22219 0.135 0.39375 0.42751 0.0056 0.12656-0.38532-0.31781-0.23625z"/>
<path d="m3.6866 27.705-0.20812 0.09563-0.056249 0.30093 0.21656 0.16594 0.22781-0.01968 0.18844-0.23063-0.11812-0.27-0.25032-0.04219z"/>
<path d="m27.177 27.985-0.16593 0.11813 0.03656 0.20249 0.14063 0.27563 0.18563-0.045 0.17156-0.09281 0.10968-0.28968-0.19688-0.16312-0.28125-0.0056z"/>
<path d="m1.5003 28.126-0.29532 0.05063-0.09 0.28125 0.16032 0.19688 0.21937 0.06468 0.24188-0.18844-0.056249-0.26719-0.18-0.13781z"/>
<path d="m18.649 28.309-0.27844 0.12375-0.01411 0.27563 0.14625 0.17437 0.29532 0.02251 0.15751-0.25032-0.10687-0.23063-0.19968-0.11532z"/>
<path d="m11.552 28.79-0.25312 0.04781-0.15188 0.24188 0.07032 0.23907 0.15188 0.20532 0.27563-0.13781-0.0085-0.18563 0.09-0.21937-0.17437-0.19125z"/>
<path d="m26.096 29.747-0.32625 0.27281 0.03094 0.39656 0.37688 0.12937 0.27281-0.21093 0.01687-0.36563-0.37125-0.22219z"/>
<path d="m19.653 29.913-0.24751 0.06751-0.16593 0.22781 0.0029 0.20249 0.18844 0.08437 0.30656 0.04219 0.06749-0.17719 0.02251-0.19405-0.17437-0.25312z"/>
<path d="m11.089 30.219-0.39093 0.18 0.03656 0.42468 0.34593 0.19968 0.32063-0.23625-0.01687-0.34593z"/>
<path d="m9.9267 30.445-0.23907 0.03376-0.21093 0.16875 0.095624 0.26156 0.17156 0.12093 0.21937 0.0029 0.14625-0.23344-0.05344-0.20249-0.12938-0.15188z"/>
<path d="m17.443 14.319-0.25195 0.20117-0.02734 0.35547 0.2168 0.22461 0.28906 0.13672 0.22461-0.31055-0.11914-0.20117-0.02734-0.29492z"/>
<path d="m18.919 14.457-0.24609 0.23633 0.0039 0.26367 0.10742 0.22461 0.30078 0.0293 0.30859-0.14062-0.03711-0.34766-0.17188-0.19922z"/>
<path d="m25.251 14.47-0.13672 0.19531-0.08203 0.22852 0.13476 0.36133 0.32227-0.0098 0.26758-0.22852 0.05469-0.24414-0.20117-0.16016z"/>
<path d="m5.0106 14.48-0.30859 0.08984 0.03906 0.38086 0.22266 0.07227 0.21484 0.20312 0.30273-0.11914 0.05469-0.31836-0.21484-0.2832z"/>
<path d="m3.4247 14.537-0.2832 0.46094 0.37695 0.35742 0.47656-0.24219-0.08203-0.49805z"/>
<path d="m15.628 14.519-0.29492 0.22656 0.0625 0.36328 0.28906 0.125 0.2832-0.05469 0.1582-0.34766-0.2168-0.26758z"/>
<path d="m31.69 14.691-0.3418 0.02734-0.19727 0.20508 0.01563 0.37109 0.33594 0.1543 0.26758-0.16602 0.11719-0.26367z"/>
<path d="m14.387 14.726-0.24609 0.17773-0.13672 0.30859 0.25781 0.23633 0.26172 0.03516 0.24219-0.12695 0.02734-0.33984-0.17773-0.19531z"/>
<path d="m27.831 14.838-0.30078 0.0957-0.17383 0.23047 0.11328 0.36523 0.33789 0.05664 0.24023-0.15234 0.07227-0.36523z"/>
<path d="m2.2567 14.719-0.17188 0.29492 0.05664 0.2793 0.31641 0.19726 0.31836-0.18945 0.01563-0.31445-0.15234-0.24414z"/>
<path d="m31.285 16.334-0.32227 0.04492-0.12891 0.29492 0.14062 0.32812 0.29688 0.09766 0.31836-0.01367 0.05469-0.37891-0.19922-0.12305z"/>
<path d="m17.7 16.601-0.20312 0.14648 0.04492 0.25391 0.17383 0.3457 0.23242-0.05664 0.21484-0.11719 0.13672-0.35938-0.24805-0.20508z"/>
<path d="m22.001 16.609-0.21289 0.11133-0.17969 0.16406-0.04687 0.38086 0.28906 0.14258 0.34375-0.07812 0.16211-0.19141-0.10352-0.23438z"/>
<path d="m5.7885 16.785-0.40625 0.34961 0.19922 0.46484 0.49414-0.04102 0.16406-0.51562z"/>
<path d="m24.967 16.64-0.21484 0.15234-0.12305 0.2168 0.14648 0.26562 0.29102 0.17188 0.26562-0.22656 0.06641-0.25391-0.0957-0.25781z"/>
<path d="m29.454 16.675-0.25976 0.03516-0.20898 0.13476 0.0059 0.30078 0.17578 0.28906 0.3418-0.07813 0.17773-0.19336 0.03516-0.27344z"/>
<path d="m27.426 16.701-0.21875 0.14648-0.09961 0.25586 0.20703 0.27344 0.26172 0.0293 0.23438-0.08203 0.06641-0.29297-0.10156-0.32226z"/>
<path d="m13.206 16.82-0.52148 0.12109-0.04102 0.50391 0.45703 0.19141 0.38476-0.37891z"/>
<path d="m-0.01866 16.826v0.75781l0.04297 0.05273 0.51758-0.1582-0.04492-0.51758z"/>
<path d="m31.979 16.826-0.26953 0.42774 0.27148 0.33008v-0.75781z"/>
<path d="m12.043 16.607-0.45898 0.18945-0.08398 0.42578 0.28906 0.35547 0.53125-0.09961 0.08008-0.52539z"/>
<path d="m19.946 16.58-0.51953 0.11133-0.19531 0.45898 0.33984 0.36133 0.42774-0.07422 0.23047-0.39648z"/>
<path d="m25.94 16.99-0.21289 0.10938-0.17969 0.16602-0.04687 0.38086 0.28906 0.14062 0.34375-0.07617 0.16211-0.19141-0.10352-0.23438z"/>
<path d="m2.909 16.992-0.24609 0.07617-0.32227 0.21484 0.08398 0.22461 0.14258 0.19727 0.37305 0.09375 0.17578-0.27148-0.03711-0.34961z"/>
<path d="m4.4344 17.074-0.14258 0.35547 0.16406 0.16797 0.0957 0.2793 0.32227 0.03516 0.19727-0.25586-0.05859-0.35156-0.26367-0.16602z"/>
<path d="m23.713 16.904-0.26953 0.33789 0.08984 0.44922 0.51758 0.1582 0.31445-0.42773-0.1582-0.47266z"/>
<path d="m1.5223 17.298-0.32812 0.0957-0.11914 0.23438-0.0078 0.25 0.25195 0.16602 0.33789 0.01758 0.12891-0.32422-0.05859-0.25586z"/>
<path d="m30.376 17.341-0.26172 0.12109-0.06836 0.37695 0.27344 0.20703 0.2832-0.02344 0.23438-0.29102-0.14844-0.33789z"/>
<path d="m18.495 17.421-0.28711 0.125-0.23047 0.2207 0.20898 0.32031 0.23242-0.04102 0.28516 0.08008 0.21094-0.24609-0.09961-0.30664z"/>
<path d="m0.67897 15.376-0.20312 0.14648 0.04492 0.25391 0.17383 0.3457 0.23242-0.05664 0.21484-0.11719 0.13672-0.35938-0.24805-0.20508z"/>
<path d="m4.98 15.384-0.21289 0.11133-0.17969 0.16406-0.04687 0.38086 0.28906 0.14258 0.34375-0.07812 0.16211-0.19141-0.10352-0.23438z"/>
<path d="m3.249 15.759-0.51953 0.11133-0.19531 0.45898 0.33984 0.36133 0.42774-0.07422 0.23047-0.39648z"/>
<path d="m1.9773 15.525-0.28711 0.125-0.23047 0.2207 0.20898 0.32031 0.23242-0.04102 0.28516 0.08008 0.21094-0.24609-0.09961-0.30664z"/>
<path d="m9.558 14.639-0.25195 0.20117-0.02734 0.35547 0.2168 0.22461 0.28906 0.13672 0.22461-0.31055-0.11914-0.20117-0.02734-0.29492z"/>
<path d="m12.131 14.745-0.24609 0.23633 0.0039 0.26367 0.10742 0.22461 0.30078 0.0293 0.30859-0.14062-0.03711-0.34766-0.17188-0.19922z"/>
<path d="m7.8262 15.366-0.29492 0.22656 0.0625 0.36328 0.28906 0.125 0.2832-0.05469 0.1582-0.34766-0.2168-0.26758z"/>
<path d="m6.5862 15.442-0.24609 0.17773-0.13672 0.30859 0.25781 0.23633 0.26172 0.03516 0.24219-0.12695 0.02734-0.33984-0.17773-0.19531z"/>
<path d="m29.765 15.119-0.25195 0.20117-0.02734 0.35547 0.2168 0.22461 0.28906 0.13672 0.22461-0.31055-0.11914-0.20117-0.02734-0.29492z"/>
<path d="m31.445 15.461-0.24609 0.23633 0.0039 0.26367 0.10742 0.22461 0.30078 0.0293 0.30859-0.14062-0.03711-0.34766-0.17188-0.19922z"/>
<path d="m28.153 15.654-0.29492 0.22656 0.0625 0.36328 0.28906 0.125 0.2832-0.05469 0.1582-0.34766-0.2168-0.26758z"/>
<path d="m26.913 15.73-0.24609 0.17773-0.13672 0.30859 0.25781 0.23633 0.26172 0.03516 0.24219-0.12695 0.02734-0.33984-0.17773-0.19531z"/>
<path d="m21.241 14.604-0.17188 0.29492 0.05664 0.2793 0.31641 0.19726 0.31836-0.18945 0.01563-0.31445-0.15234-0.24414z"/>
<path d="m19.663 15.094-0.20312 0.14648 0.04492 0.25391 0.17383 0.3457 0.23242-0.05664 0.21484-0.11719 0.13672-0.35938-0.24805-0.20508z"/>
<path d="m23.964 15.102-0.21289 0.11133-0.17969 0.16406-0.04687 0.38086 0.28906 0.14258 0.34375-0.07812 0.16211-0.19141-0.10352-0.23438z"/>
<path d="m22.233 15.477-0.51953 0.11133-0.19531 0.45898 0.33984 0.36133 0.42774-0.07422 0.23047-0.39648z"/>
<path d="m20.458 15.914-0.28711 0.125-0.23047 0.2207 0.20898 0.32031 0.23242-0.04102 0.28516 0.08008 0.21094-0.24609-0.09961-0.30664z"/>
<path d="m15.967 15.179-0.17188 0.29492 0.05664 0.2793 0.31641 0.19726 0.31836-0.18945 0.01563-0.31445-0.15234-0.24414z"/>
<path d="m14.39 15.669-0.20312 0.14648 0.04492 0.25391 0.17383 0.3457 0.23242-0.05664 0.21484-0.11719 0.13672-0.35938-0.24805-0.20508z"/>
<path d="m18.691 15.677-0.21289 0.11133-0.17969 0.16406-0.04687 0.38086 0.28906 0.14258 0.34375-0.07812 0.16211-0.19141-0.10352-0.23438z"/>
<path d="m16.96 16.052-0.51953 0.11133-0.19531 0.45898 0.33984 0.36133 0.42774-0.07422 0.23047-0.39648z"/>
<path d="m15.185 16.489-0.28711 0.125-0.23047 0.2207 0.20898 0.32031 0.23242-0.04102 0.28516 0.08008 0.21094-0.24609-0.09961-0.30664z"/>
<path d="m10.43 14.963-0.17188 0.29492 0.05664 0.2793 0.31641 0.19726 0.31836-0.18945 0.01563-0.31445-0.15234-0.24414z"/>
<path d="m9.0241 15.604-0.20312 0.14648 0.04492 0.25391 0.17383 0.3457 0.23242-0.05664 0.21484-0.11719 0.13672-0.35938-0.24805-0.20508z"/>
<path d="m13.226 15.725-0.21289 0.11133-0.17969 0.16406-0.04687 0.38086 0.28906 0.14258 0.34375-0.07812 0.16211-0.19141-0.10352-0.23438z"/>
<path d="m11.245 16.123-0.51953 0.11133-0.19531 0.45898 0.33984 0.36133 0.42774-0.07422 0.23047-0.39648z"/>
<path d="m9.7196 16.537-0.28711 0.125-0.23047 0.2207 0.20898 0.32031 0.23242-0.04102 0.28516 0.08008 0.21094-0.24609-0.09961-0.30664z"/>
<path d="m23.445 16.149-0.52148 0.12109-0.04102 0.50391 0.45703 0.19141 0.38476-0.37891z"/>
<path d="m25.581 15.539-0.52148 0.12109-0.04102 0.50391 0.45703 0.19141 0.38476-0.37891z"/>
<path d="m8.2924 16.623-0.52148 0.12109-0.04102 0.50391 0.45703 0.19141 0.38476-0.37891z"/>
<path d="m7.106 17.234-0.52148 0.12109-0.04102 0.50391 0.45703 0.19141 0.38476-0.37891z"/>
<path d="m18.287 14.869-0.29492 0.22656 0.0625 0.36328 0.28906 0.125 0.2832-0.05469 0.1582-0.34766-0.2168-0.26758z"/>
<path d="m17.095 15.158-0.24609 0.17773-0.13672 0.30859 0.25781 0.23633 0.26172 0.03516 0.24219-0.12695 0.02734-0.33984-0.17773-0.19531z"/>
<path d="m19.204 15.806-0.20312 0.14648 0.04492 0.25391 0.17383 0.3457 0.23242-0.05664 0.21484-0.11719 0.13672-0.35938-0.24805-0.20508z"/>
<path d="m11.931 15.735-0.29492 0.22656 0.0625 0.36328 0.28906 0.125 0.2832-0.05469 0.1582-0.34766-0.2168-0.26758z"/>
<path d="m11.386 14.35-0.24609 0.17773-0.13672 0.30859 0.25781 0.23633 0.26172 0.03516 0.24219-0.12695 0.02734-0.33984-0.17773-0.19531z"/>
<path d="m13.235 14.854-0.20312 0.14648 0.04492 0.25391 0.17383 0.3457 0.23242-0.05664 0.21484-0.11719 0.13672-0.35938-0.24805-0.20508z"/>
<path d="m10.326 15.623-0.52148 0.12109-0.04102 0.50391 0.45703 0.19141 0.38476-0.37891z"/>
<path d="m6.9716 16.24-0.14258 0.35547 0.16406 0.16797 0.0957 0.2793 0.32227 0.03516 0.19727-0.25586-0.05859-0.35156-0.26367-0.16602z"/>
<path d="m15.226 15.647-0.14258 0.35547 0.16406 0.16797 0.0957 0.2793 0.32227 0.03516 0.19727-0.25586-0.05859-0.35156-0.26367-0.16602z"/>
<path d="m4.0471 15.374-0.28711 0.125-0.23047 0.2207 0.20898 0.32031 0.23242-0.04102 0.28516 0.08008 0.21094-0.24609-0.09961-0.30664z"/>
<path d="m4.0601 16.328-0.32812 0.0957-0.11914 0.23438-0.0078 0.25 0.25195 0.16602 0.33789 0.01758 0.12891-0.32422-0.05859-0.25586z"/>
<path d="m5.6976 15.129-0.24609 0.23633 0.0039 0.26367 0.10742 0.22461 0.30078 0.0293 0.30859-0.14062-0.03711-0.34766-0.17188-0.19922z"/>
<path d="m4.8505 16.256-0.17188 0.29492 0.05664 0.2793 0.31641 0.19726 0.31836-0.18945 0.01563-0.31445-0.15234-0.24414z"/>
<path d="m21.167 16.556-0.30078 0.0957-0.17383 0.23047 0.11328 0.36523 0.33789 0.05664 0.24023-0.15234 0.07227-0.36523z"/>
<path d="m24.129 16.016-0.17188 0.29492 0.05664 0.2793 0.31641 0.19726 0.31836-0.18945 0.01563-0.31445-0.15234-0.24414z"/>
<path d="m26.298 16.139-0.32227 0.04492-0.12891 0.29492 0.14062 0.32812 0.29688 0.09766 0.31836-0.01367 0.05469-0.37891-0.19922-0.12305z"/>
<path d="m23.115 15.136-0.3418 0.02734-0.19727 0.20508 0.01563 0.37109 0.33594 0.1543 0.26758-0.16602 0.11719-0.26367z"/>
<path d="m20.989 15.32-0.25195 0.20117-0.02734 0.35547 0.2168 0.22461 0.28906 0.13672 0.22461-0.31055-0.11914-0.20117-0.02734-0.29492z"/>
<path d="m29.075 15.829-0.29492 0.22656 0.0625 0.36328 0.28906 0.125 0.2832-0.05469 0.1582-0.34766-0.2168-0.26758z"/>
<path d="m28.454 16.603-0.30078 0.0957-0.17383 0.23047 0.11328 0.36523 0.33789 0.05664 0.24023-0.15234 0.07227-0.36523z"/>
<path d="m30.755 15.309-0.30078 0.0957-0.17383 0.23047 0.11328 0.36523 0.33789 0.05664 0.24023-0.15234 0.07227-0.36523z"/>
<path d="m26.469 14.971-0.28711 0.125-0.23047 0.2207 0.20898 0.32031 0.23242-0.04102 0.28516 0.08008 0.21094-0.24609-0.09961-0.30664z"/>
<path d="m17.768 15.762-0.28711 0.125-0.23047 0.2207 0.20898 0.32031 0.23242-0.04102 0.28516 0.08008 0.21094-0.24609-0.09961-0.30664z"/>
<path d="m8.4915 15.858-0.28711 0.125-0.23047 0.2207 0.20898 0.32031 0.23242-0.04102 0.28516 0.08008 0.21094-0.24609-0.09961-0.30664z"/>
<path d="m28.914 14.995-0.28711 0.125-0.23047 0.2207 0.20898 0.32031 0.23242-0.04102 0.28516 0.08008 0.21094-0.24609-0.09961-0.30664z"/>
<path d="m13.957 16.194-0.28711 0.125-0.23047 0.2207 0.20898 0.32031 0.23242-0.04102 0.28516 0.08008 0.21094-0.24609-0.09961-0.30664z"/>
<path d="m13.698 15.426-0.24609 0.23633 0.0039 0.26367 0.10742 0.22461 0.30078 0.0293 0.30859-0.14062-0.03711-0.34766-0.17188-0.19922z"/>
<path d="m5.9794 16.001-0.24609 0.23633 0.0039 0.26367 0.10742 0.22461 0.30078 0.0293 0.30859-0.14062-0.03711-0.34766-0.17188-0.19922z"/>
<path d="m30.3 16.148-0.30078 0.0957-0.17383 0.23047 0.11328 0.36523 0.33789 0.05664 0.24023-0.15234 0.07227-0.36523z"/>
<path d="m1.078 16.171-0.21289 0.11133-0.17969 0.16406-0.04687 0.38086 0.28906 0.14258 0.34375-0.07812 0.16211-0.19141-0.10352-0.23438z"/>
<path d="m1.7652 16.352-0.17188 0.29492 0.05664 0.2793 0.31641 0.19726 0.31836-0.18945 0.01563-0.31445-0.15234-0.24414z"/>
</svg>
