<?xml version="1.0" encoding="UTF-8"?>
<svg version="1.1" viewBox="0 0 512 512" xmlns="http://www.w3.org/2000/svg">
<g transform="matrix(10.5 0 0 10.5 222.43 -29.855)" fill="#779c51">
<g fill="#779c51">
<path d="m2.5 14.75h8v0.75h-8zm0-7.75c-0.125 0 0 0.5 0.25 1.75 0.25 1.75 0.25 1.5 0 3.25 0.5 0 1-0.25 1.5-0.25 0-1.5-0.25-1.75-0.75-3.5-0.25-1-0.875-1.25-1-1.25zm4.25 0.75c-0.25 0-0.5 0-1 0.5-0.75 1-0.75 1.5-1 3.5 0.5 0 1 0.25 1.5 0.25-5e-3 -1.6198 0-3 0.5-4.25zm-6.5 1.75c0 0.25 0.25 0.5 0.5 1 0.23629 0.7 0.22479-0.01 0.25 1.75 0.75-0.25 1-0.25 1.25-0.25 0-1.25-0.5-1.75-1-2.25-0.5-0.25-0.5-0.25-1-0.25zm8.5 0.25c0 0.25-0.25 0.25-0.5 0.75-0.25 1-0.25 0.75-0.25 1.75-0.75-0.25-1-0.25-1.25-0.23 0.011-1.59 0.75-1.77 1-2.02 0.5-0.25 0.5-0.25 1-0.25zm-7.25 3.25h8v0.75h-8c-2e-5 -0.5 0-0.25 0-0.75z" fill="#779c51"/>
</g>
</g>
<g transform="matrix(10.5 0 0 10.5 368.79 279.73)" fill="#779c51">
<g fill="#779c51">
<path d="m2.5 14.75h8v0.75h-8zm0-7.75c-0.125 0 0 0.5 0.25 1.75 0.25 1.75 0.25 1.5 0 3.25 0.5 0 1-0.25 1.5-0.25 0-1.5-0.25-1.75-0.75-3.5-0.25-1-0.875-1.25-1-1.25zm4.25 0.75c-0.25 0-0.5 0-1 0.5-0.75 1-0.75 1.5-1 3.5 0.5 0 1 0.25 1.5 0.25-5e-3 -1.6198 0-3 0.5-4.25zm-6.5 1.75c0 0.25 0.25 0.5 0.5 1 0.23629 0.7 0.22479-0.01 0.25 1.75 0.75-0.25 1-0.25 1.25-0.25 0-1.25-0.5-1.75-1-2.25-0.5-0.25-0.5-0.25-1-0.25zm8.5 0.25c0 0.25-0.25 0.25-0.5 0.75-0.25 1-0.25 0.75-0.25 1.75-0.75-0.25-1-0.25-1.25-0.23 0.011-1.59 0.75-1.77 1-2.02 0.5-0.25 0.5-0.25 1-0.25zm-7.25 3.25h8v0.75h-8c-2e-5 -0.5 0-0.25 0-0.75z" fill="#779c51"/>
</g>
</g>
<g transform="matrix(10.5 0 0 10.5 -2.625 33.399)" fill="#779c51">
<g fill="#779c51">
<path d="m2.5 14.75h8v0.75h-8zm0-7.75c-0.125 0 0 0.5 0.25 1.75 0.25 1.75 0.25 1.5 0 3.25 0.5 0 1-0.25 1.5-0.25 0-1.5-0.25-1.75-0.75-3.5-0.25-1-0.875-1.25-1-1.25zm4.25 0.75c-0.25 0-0.5 0-1 0.5-0.75 1-0.75 1.5-1 3.5 0.5 0 1 0.25 1.5 0.25-5e-3 -1.6198 0-3 0.5-4.25zm-6.5 1.75c0 0.25 0.25 0.5 0.5 1 0.23629 0.7 0.22479-0.01 0.25 1.75 0.75-0.25 1-0.25 1.25-0.25 0-1.25-0.5-1.75-1-2.25-0.5-0.25-0.5-0.25-1-0.25zm8.5 0.25c0 0.25-0.25 0.25-0.5 0.75-0.25 1-0.25 0.75-0.25 1.75-0.75-0.25-1-0.25-1.25-0.23 0.011-1.59 0.75-1.77 1-2.02 0.5-0.25 0.5-0.25 1-0.25zm-7.25 3.25h8v0.75h-8c-2e-5 -0.5 0-0.25 0-0.75z" fill="#779c51"/>
</g>
</g>
<g transform="matrix(10.5 0 0 10.5 46.855 322.71)" fill="#779c51">
<g fill="#779c51">
<path d="m2.5 14.75h8v0.75h-8zm0-7.75c-0.125 0 0 0.5 0.25 1.75 0.25 1.75 0.25 1.5 0 3.25 0.5 0 1-0.25 1.5-0.25 0-1.5-0.25-1.75-0.75-3.5-0.25-1-0.875-1.25-1-1.25zm4.25 0.75c-0.25 0-0.5 0-1 0.5-0.75 1-0.75 1.5-1 3.5 0.5 0 1 0.25 1.5 0.25-5e-3 -1.6198 0-3 0.5-4.25zm-6.5 1.75c0 0.25 0.25 0.5 0.5 1 0.23629 0.7 0.22479-0.01 0.25 1.75 0.75-0.25 1-0.25 1.25-0.25 0-1.25-0.5-1.75-1-2.25-0.5-0.25-0.5-0.25-1-0.25zm8.5 0.25c0 0.25-0.25 0.25-0.5 0.75-0.25 1-0.25 0.75-0.25 1.75-0.75-0.25-1-0.25-1.25-0.23 0.011-1.59 0.75-1.77 1-2.02 0.5-0.25 0.5-0.25 1-0.25zm-7.25 3.25h8v0.75h-8c-2e-5 -0.5 0-0.25 0-0.75z" fill="#779c51"/>
</g>
</g>
<g transform="matrix(10.5 0 0 10.5 190.88 145.47)" fill="#779c51">
<g fill="#779c51">
<path d="m2.5 14.75h8v0.75h-8zm0-7.75c-0.125 0 0 0.5 0.25 1.75 0.25 1.75 0.25 1.5 0 3.25 0.5 0 1-0.25 1.5-0.25 0-1.5-0.25-1.75-0.75-3.5-0.25-1-0.875-1.25-1-1.25zm4.25 0.75c-0.25 0-0.5 0-1 0.5-0.75 1-0.75 1.5-1 3.5 0.5 0 1 0.25 1.5 0.25-5e-3 -1.6198 0-3 0.5-4.25zm-6.5 1.75c0 0.25 0.25 0.5 0.5 1 0.23629 0.7 0.22479-0.01 0.25 1.75 0.75-0.25 1-0.25 1.25-0.25 0-1.25-0.5-1.75-1-2.25-0.5-0.25-0.5-0.25-1-0.25zm8.5 0.25c0 0.25-0.25 0.25-0.5 0.75-0.25 1-0.25 0.75-0.25 1.75-0.75-0.25-1-0.25-1.25-0.23 0.011-1.59 0.75-1.77 1-2.02 0.5-0.25 0.5-0.25 1-0.25zm-7.25 3.25h8v0.75h-8c-2e-5 -0.5 0-0.25 0-0.75z" fill="#779c51"/>
</g>
</g>
<g transform="matrix(5.2 0 0 5.2 15.22 36.353)" fill="#3d7099" stroke-width=".096154">
<g fill="#3d7099" stroke-width=".096154">
<path d="m1 7h14v2h-14v-2z" fill="#3d7099" stroke-width=".096154"/>
</g>
</g>
<g transform="matrix(5.2 0 0 5.2 .0203 -36.4)" fill="#3d7099" stroke-width=".096154">
<g fill="#3d7099" stroke-width=".096154">
<path d="m1 7h14v2h-14v-2z" fill="#3d7099" stroke-width=".096154"/>
</g>
</g>
<g transform="matrix(5.2 0 0 5.2 109.78 1.8983)" fill="#3d7099" stroke-width=".096154">
<g fill="#3d7099" stroke-width=".096154">
<path d="m1 7h14v2h-14v-2z" fill="#3d7099" stroke-width=".096154"/>
</g>
</g>
<g transform="matrix(5.2 0 0 5.2 287.22 -15.647)" fill="#3d7099" stroke-width=".096154">
<g fill="#3d7099" stroke-width=".096154">
<path d="m1 7h14v2h-14v-2z" fill="#3d7099" stroke-width=".096154"/>
</g>
</g>
<g transform="matrix(5.2 0 0 5.2 412.02 15.553)" fill="#3d7099" stroke-width=".096154">
<g fill="#3d7099" stroke-width=".096154">
<path d="m1 7h14v2h-14v-2z" fill="#3d7099" stroke-width=".096154"/>
</g>
</g>
<g transform="matrix(4.5027 0 0 5.2 89.68 67.553)" fill="#3d7099" stroke-width=".10333">
<g fill="#3d7099" stroke-width=".10333">
<path d="m1 7h14v2h-14v-2z" fill="#3d7099" stroke-width=".10333"/>
</g>
</g>
<g transform="matrix(5.2 0 0 5.2 141.62 119.55)" fill="#3d7099" stroke-width=".096154">
<g fill="#3d7099" stroke-width=".096154">
<path d="m1 7h14v2h-14v-2z" fill="#3d7099" stroke-width=".096154"/>
</g>
</g>
<g transform="matrix(5.2 0 0 5.2 357.84 116.41)" fill="#3d7099" stroke-width=".096154">
<g fill="#3d7099" stroke-width=".096154">
<path d="m1 7h14v2h-14v-2z" fill="#3d7099" stroke-width=".096154"/>
</g>
</g>
<g transform="matrix(4.8126 0 0 5.2 368.12 57.383)" fill="#3d7099" stroke-width=".099949">
<g fill="#3d7099" stroke-width=".099949">
<path d="m1 7h14v2h-14v-2z" fill="#3d7099" stroke-width=".099949"/>
</g>
</g>
<g transform="matrix(2.1782 0 0 5.2 161.44 177.95)" fill="#3d7099" stroke-width=".14857">
<g fill="#3d7099" stroke-width=".14857">
<path d="m1 7h14v2h-14v-2z" fill="#3d7099" stroke-width=".14857"/>
</g>
</g>
<g transform="matrix(5.2 0 0 5.2 256.02 140.35)" fill="#3d7099" stroke-width=".096154">
<g fill="#3d7099" stroke-width=".096154">
<path d="m1 7h14v2h-14v-2z" fill="#3d7099" stroke-width=".096154"/>
</g>
</g>
<g transform="matrix(5.2 0 0 5.2 308.02 181.95)" fill="#3d7099" stroke-width=".096154">
<g fill="#3d7099" stroke-width=".096154">
<path d="m1 7h14v2h-14v-2z" fill="#3d7099" stroke-width=".096154"/>
</g>
</g>
<g transform="matrix(5.2 0 0 5.2 422.42 202.75)" fill="#3d7099" stroke-width=".096154">
<g fill="#3d7099" stroke-width=".096154">
<path d="m1 7h14v2h-14v-2z" fill="#3d7099" stroke-width=".096154"/>
</g>
</g>
<g transform="matrix(3.255 0 0 5.2 463.17 154.75)" fill="#3d7099" stroke-width=".12153">
<g fill="#3d7099" stroke-width=".12153">
<path d="m1 7h14v2h-14v-2z" fill="#3d7099" stroke-width=".12153"/>
</g>
</g>
<g transform="matrix(4.5425 0 0 5.2 -4.5425 254.35)" fill="#3d7099" stroke-width=".10288">
<g fill="#3d7099" stroke-width=".10288">
<path d="m1 7h14v2h-14v-2z" fill="#3d7099" stroke-width=".10288"/>
</g>
</g>
<g transform="matrix(5.2 0 0 5.2 46.678 195.84)" fill="#3d7099" stroke-width=".096154">
<g fill="#3d7099" stroke-width=".096154">
<path d="m1 7h14v2h-14v-2z" fill="#3d7099" stroke-width=".096154"/>
</g>
</g>
<g transform="matrix(4.3477 0 0 5.2 111.27 265.15)" fill="#3d7099" stroke-width=".10516">
<g fill="#3d7099" stroke-width=".10516">
<path d="m1 7h14v2h-14v-2z" fill="#3d7099" stroke-width=".10516"/>
</g>
</g>
<g transform="matrix(5.2 0 0 5.2 308.02 285.95)" fill="#3d7099" stroke-width=".096154">
<g fill="#3d7099" stroke-width=".096154">
<path d="m1 7h14v2h-14v-2z" fill="#3d7099" stroke-width=".096154"/>
</g>
</g>
<g transform="matrix(5.2 0 0 5.2 349.62 244.35)" fill="#3d7099" stroke-width=".096154">
<g fill="#3d7099" stroke-width=".096154">
<path d="m1 7h14v2h-14v-2z" fill="#3d7099" stroke-width=".096154"/>
</g>
</g>
<g transform="matrix(.54303 0 0 5.2 503.85 254.35)" fill="#3d7099" stroke-width=".29755">
<g fill="#3d7099" stroke-width=".29755">
<path d="m1 7h14v2h-14v-2z" fill="#3d7099" stroke-width=".29755"/>
</g>
</g>
<g transform="matrix(5.2 0 0 5.2 9.2949 317.34)" fill="#3d7099" stroke-width=".096154">
<g fill="#3d7099" stroke-width=".096154">
<path d="m1 7h14v2h-14v-2z" fill="#3d7099" stroke-width=".096154"/>
</g>
</g>
<g transform="matrix(5.2 0 0 5.2 131.22 337.95)" fill="#3d7099" stroke-width=".096154">
<g fill="#3d7099" stroke-width=".096154">
<path d="m1 7h14v2h-14v-2z" fill="#3d7099" stroke-width=".096154"/>
</g>
</g>
<g transform="matrix(5.2 0 0 5.2 214.42 306.75)" fill="#3d7099" stroke-width=".096154">
<g fill="#3d7099" stroke-width=".096154">
<path d="m1 7h14v2h-14v-2z" fill="#3d7099" stroke-width=".096154"/>
</g>
</g>
<g transform="matrix(5.2 0 0 5.2 256.02 358.75)" fill="#3d7099" stroke-width=".096154">
<g fill="#3d7099" stroke-width=".096154">
<path d="m1 7h14v2h-14v-2z" fill="#3d7099" stroke-width=".096154"/>
</g>
</g>
<g transform="matrix(5.2 0 0 5.2 424.78 295.27)" fill="#3d7099" stroke-width=".096154">
<g fill="#3d7099" stroke-width=".096154">
<path d="m1 7h14v2h-14v-2z" fill="#3d7099" stroke-width=".096154"/>
</g>
</g>
<g transform="matrix(2.4332 0 0 5.2 -2.4332 394.35)" fill="#3d7099" stroke-width=".14057">
<g fill="#3d7099" stroke-width=".14057">
<path d="m1 7h14v2h-14v-2z" fill="#3d7099" stroke-width=".14057"/>
</g>
</g>
<g transform="matrix(3.8053 0 0 5.2 172.94 410.75)" fill="#3d7099" stroke-width=".1124">
<g fill="#3d7099" stroke-width=".1124">
<path d="m1 7h14v2h-14v-2z" fill="#3d7099" stroke-width=".1124"/>
</g>
</g>
<g transform="matrix(5.2 0 0 5.2 266.42 431.55)" fill="#3d7099" stroke-width=".096154">
<g fill="#3d7099" stroke-width=".096154">
<path d="m1 7h14v2h-14v-2z" fill="#3d7099" stroke-width=".096154"/>
</g>
</g>
<g transform="matrix(5.2 0 0 5.2 422.42 427.55)" fill="#3d7099" stroke-width=".096154">
<g fill="#3d7099" stroke-width=".096154">
<path d="m1 7h14v2h-14v-2z" fill="#3d7099" stroke-width=".096154"/>
</g>
</g>
<g transform="matrix(5.2 0 0 5.2 162.42 465.2)" fill="#3d7099" stroke-width=".096154">
<g fill="#3d7099" stroke-width=".096154">
<path d="m1 7h14v2h-14v-2z" fill="#3d7099" stroke-width=".096154"/>
</g>
</g>
<g transform="matrix(5.2 0 0 5.2 364.09 455.04)" fill="#3d7099" stroke-width=".096154">
<g fill="#3d7099" stroke-width=".096154">
<path d="m1 7h14v2h-14v-2z" fill="#3d7099" stroke-width=".096154"/>
</g>
</g>
</svg>
