<?xml version="1.0" encoding="UTF-8"?>
<svg version="1.1" viewBox="0 0 512 512" xmlns="http://www.w3.org/2000/svg">
<g transform="translate(-2.9661 -2.0847)" fill="#666">
<path d="m410.05 75.932v32h-16v8h64v-8h-16v-32c0-24-16-24-16-24s-16 0-16 24z"/>
<path d="m240.71 75.932v32h-16v8h64v-8h-16v-32c0-24-16-24-16-24s-16 0-16 24z"/>
<path d="m75.881 75.932v32h-16v8h64v-8h-16v-32c0-24-16-24-16-24s-16 0-16 24z"/>
<path d="m410.05 249.44v32h-16v8h64v-8h-16v-32c0-24-16-24-16-24s-16 0-16 24z"/>
<path d="m240.71 249.44v32h-16v8h64v-8h-16v-32c0-24-16-24-16-24s-16 0-16 24z"/>
<path d="m75.881 249.44v32h-16v8h64v-8h-16v-32c0-24-16-24-16-24s-16 0-16 24z"/>
<path d="m410.05 424.24v32h-16v8h64v-8h-16v-32c0-24-16-24-16-24s-16 0-16 24z"/>
<path d="m240.71 424.24v32h-16v8h64v-8h-16v-32c0-24-16-24-16-24s-16 0-16 24z"/>
<path d="m75.881 424.24v32h-16v8h64v-8h-16v-32c0-24-16-24-16-24s-16 0-16 24z"/>
</g>
</svg>
