<?xml version="1.0" encoding="UTF-8"?>
<svg version="1.1" viewBox="0 0 512 512" xmlns="http://www.w3.org/2000/svg">
<g transform="matrix(.19469 .11561 -.11561 .19469 -48.883 -57.455)" fill="#99d088" fill-rule="evenodd" stroke-width=".48225">
<path d="m922.97 588.96c24.024 2.8053 52.379 8.1762 65.063 31.408 9.2623 13.695 17.325 28.384 28.876 40.366 20.474 10.36 40.873 22.802 55.562 40.704 18.435 27.565 12.853 67.049-8.5754 91.255-23.994 21.967-58.528 32.942-90.509 24.815-20.441-4.0866-40.823-16.113-62.091-9.3945-19.673 5.5212-39.198 14.22-60.149 11.887-19.917-0.67497-37.787-10.415-54.541-20.209-19.534-12.539-31.74-35.211-30.417-58.508 0.067-34.973 26.36-63.966 55.971-79.316 12.637-6.1417 25.904-12.813 31.912-26.452 8.5894-15.734 16.124-35.497 35.208-40.863 10.77-3.919 22.27-5.4898 33.69-5.6922z"/>
<path d="m706.83 545.97c5.1298-18.015 19.671-34.679 38.977-37.117 13.803-1.7803 28.086 1.7246 40.237 8.242 22.161 14.759 35.06 39.741 42.353 64.68 3.676 11.925 6.1767 24.675 3.1477 37.04-2.7993 14.602-13.391 26.974-27.02 32.667-17.704 10.643-41.18 9.2035-58.06-2.43-10.04-6.6499-18.938-15.329-24.338-26.209-12.789-23.063-21.415-50.467-15.297-76.872z"/>
<path transform="translate(452.86,333.79)" d="m421.74 81.463s29.464 0.17857 45.714 37.857c0 0 11.213 24.437 7.3214 61.964 0 0-0.60865 37.78-23.085 53.184 0 0-30.557 27.779-65.66-9.5964 0 0-24.496-26.264-29.294-63.387 0 0-5.3033-38.386 18.435-61.367 0 0 20.139-18.834 46.568-18.656z"/>
<path transform="translate(452.86,333.79)" d="m576.52 89.717s36.25 10.714 32.321 52.143c0 0 2.0584 33.277-17.64 63.582 0 0-19.951 37.376-46.467 41.416 0 0-29.294 9.0914-50.508-35.86 0 0-15.152-51.013 8.3338-85.358 0 0 27.421-50.946 73.959-35.922z"/>
<path d="m1117.8 529.43c17.013 5.1996 29.025 21.655 30.538 39.148 1.6415 15.719-2.0788 31.519-7.3703 46.232-8.6097 21.512-24.127 40.317-43.758 52.636-14.836 8.0975-33.334 4.6611-46.913-4.4171-5.555-2.6612-8.9406-7.703-11.333-13.196-9.0423-17.992-10.311-39.892-2.093-58.419 6.9469-17.446 15.495-35.253 30.147-47.54 11.109-10.096 25.627-18.343 41.156-16.725 3.2906 0.33413 6.5337 1.1109 9.6264 2.2818z"/>
</g>
<g transform="matrix(.19469 .11561 -.11561 .19469 177.32 -120.71)" fill="#99d088" fill-rule="evenodd" stroke-width=".48225">
<path d="m922.97 588.96c24.024 2.8053 52.379 8.1762 65.063 31.408 9.2623 13.695 17.325 28.384 28.876 40.366 20.474 10.36 40.873 22.802 55.562 40.704 18.435 27.565 12.853 67.049-8.5754 91.255-23.994 21.967-58.528 32.942-90.509 24.815-20.441-4.0866-40.823-16.113-62.091-9.3945-19.673 5.5212-39.198 14.22-60.149 11.887-19.917-0.67497-37.787-10.415-54.541-20.209-19.534-12.539-31.74-35.211-30.417-58.508 0.067-34.973 26.36-63.966 55.971-79.316 12.637-6.1417 25.904-12.813 31.912-26.452 8.5894-15.734 16.124-35.497 35.208-40.863 10.77-3.919 22.27-5.4898 33.69-5.6922z"/>
<path d="m706.83 545.97c5.1298-18.015 19.671-34.679 38.977-37.117 13.803-1.7803 28.086 1.7246 40.237 8.242 22.161 14.759 35.06 39.741 42.353 64.68 3.676 11.925 6.1767 24.675 3.1477 37.04-2.7993 14.602-13.391 26.974-27.02 32.667-17.704 10.643-41.18 9.2035-58.06-2.43-10.04-6.6499-18.938-15.329-24.338-26.209-12.789-23.063-21.415-50.467-15.297-76.872z"/>
<path transform="translate(452.86,333.79)" d="m421.74 81.463s29.464 0.17857 45.714 37.857c0 0 11.213 24.437 7.3214 61.964 0 0-0.60865 37.78-23.085 53.184 0 0-30.557 27.779-65.66-9.5964 0 0-24.496-26.264-29.294-63.387 0 0-5.3033-38.386 18.435-61.367 0 0 20.139-18.834 46.568-18.656z"/>
<path transform="translate(452.86,333.79)" d="m576.52 89.717s36.25 10.714 32.321 52.143c0 0 2.0584 33.277-17.64 63.582 0 0-19.951 37.376-46.467 41.416 0 0-29.294 9.0914-50.508-35.86 0 0-15.152-51.013 8.3338-85.358 0 0 27.421-50.946 73.959-35.922z"/>
<path d="m1117.8 529.43c17.013 5.1996 29.025 21.655 30.538 39.148 1.6415 15.719-2.0788 31.519-7.3703 46.232-8.6097 21.512-24.127 40.317-43.758 52.636-14.836 8.0975-33.334 4.6611-46.913-4.4171-5.555-2.6612-8.9406-7.703-11.333-13.196-9.0423-17.992-10.311-39.892-2.093-58.419 6.9469-17.446 15.495-35.253 30.147-47.54 11.109-10.096 25.627-18.343 41.156-16.725 3.2906 0.33413 6.5337 1.1109 9.6264 2.2818z"/>
</g>
<g transform="matrix(.19469 .11561 -.11561 .19469 147.48 52.126)" fill="#99d088" fill-rule="evenodd" stroke-width=".48225">
<path d="m922.97 588.96c24.024 2.8053 52.379 8.1762 65.063 31.408 9.2623 13.695 17.325 28.384 28.876 40.366 20.474 10.36 40.873 22.802 55.562 40.704 18.435 27.565 12.853 67.049-8.5754 91.255-23.994 21.967-58.528 32.942-90.509 24.815-20.441-4.0866-40.823-16.113-62.091-9.3945-19.673 5.5212-39.198 14.22-60.149 11.887-19.917-0.67497-37.787-10.415-54.541-20.209-19.534-12.539-31.74-35.211-30.417-58.508 0.067-34.973 26.36-63.966 55.971-79.316 12.637-6.1417 25.904-12.813 31.912-26.452 8.5894-15.734 16.124-35.497 35.208-40.863 10.77-3.919 22.27-5.4898 33.69-5.6922z"/>
<path d="m706.83 545.97c5.1298-18.015 19.671-34.679 38.977-37.117 13.803-1.7803 28.086 1.7246 40.237 8.242 22.161 14.759 35.06 39.741 42.353 64.68 3.676 11.925 6.1767 24.675 3.1477 37.04-2.7993 14.602-13.391 26.974-27.02 32.667-17.704 10.643-41.18 9.2035-58.06-2.43-10.04-6.6499-18.938-15.329-24.338-26.209-12.789-23.063-21.415-50.467-15.297-76.872z"/>
<path transform="translate(452.86,333.79)" d="m421.74 81.463s29.464 0.17857 45.714 37.857c0 0 11.213 24.437 7.3214 61.964 0 0-0.60865 37.78-23.085 53.184 0 0-30.557 27.779-65.66-9.5964 0 0-24.496-26.264-29.294-63.387 0 0-5.3033-38.386 18.435-61.367 0 0 20.139-18.834 46.568-18.656z"/>
<path transform="translate(452.86,333.79)" d="m576.52 89.717s36.25 10.714 32.321 52.143c0 0 2.0584 33.277-17.64 63.582 0 0-19.951 37.376-46.467 41.416 0 0-29.294 9.0914-50.508-35.86 0 0-15.152-51.013 8.3338-85.358 0 0 27.421-50.946 73.959-35.922z"/>
<path d="m1117.8 529.43c17.013 5.1996 29.025 21.655 30.538 39.148 1.6415 15.719-2.0788 31.519-7.3703 46.232-8.6097 21.512-24.127 40.317-43.758 52.636-14.836 8.0975-33.334 4.6611-46.913-4.4171-5.555-2.6612-8.9406-7.703-11.333-13.196-9.0423-17.992-10.311-39.892-2.093-58.419 6.9469-17.446 15.495-35.253 30.147-47.54 11.109-10.096 25.627-18.343 41.156-16.725 3.2906 0.33413 6.5337 1.1109 9.6264 2.2818z"/>
</g>
<g transform="matrix(.19469 .11561 -.11561 .19469 .79142 234.16)" fill="#99d088" fill-rule="evenodd" stroke-width=".48225">
<path d="m922.97 588.96c24.024 2.8053 52.379 8.1762 65.063 31.408 9.2623 13.695 17.325 28.384 28.876 40.366 20.474 10.36 40.873 22.802 55.562 40.704 18.435 27.565 12.853 67.049-8.5754 91.255-23.994 21.967-58.528 32.942-90.509 24.815-20.441-4.0866-40.823-16.113-62.091-9.3945-19.673 5.5212-39.198 14.22-60.149 11.887-19.917-0.67497-37.787-10.415-54.541-20.209-19.534-12.539-31.74-35.211-30.417-58.508 0.067-34.973 26.36-63.966 55.971-79.316 12.637-6.1417 25.904-12.813 31.912-26.452 8.5894-15.734 16.124-35.497 35.208-40.863 10.77-3.919 22.27-5.4898 33.69-5.6922z"/>
<path d="m706.83 545.97c5.1298-18.015 19.671-34.679 38.977-37.117 13.803-1.7803 28.086 1.7246 40.237 8.242 22.161 14.759 35.06 39.741 42.353 64.68 3.676 11.925 6.1767 24.675 3.1477 37.04-2.7993 14.602-13.391 26.974-27.02 32.667-17.704 10.643-41.18 9.2035-58.06-2.43-10.04-6.6499-18.938-15.329-24.338-26.209-12.789-23.063-21.415-50.467-15.297-76.872z"/>
<path transform="translate(452.86,333.79)" d="m421.74 81.463s29.464 0.17857 45.714 37.857c0 0 11.213 24.437 7.3214 61.964 0 0-0.60865 37.78-23.085 53.184 0 0-30.557 27.779-65.66-9.5964 0 0-24.496-26.264-29.294-63.387 0 0-5.3033-38.386 18.435-61.367 0 0 20.139-18.834 46.568-18.656z"/>
<path transform="translate(452.86,333.79)" d="m576.52 89.717s36.25 10.714 32.321 52.143c0 0 2.0584 33.277-17.64 63.582 0 0-19.951 37.376-46.467 41.416 0 0-29.294 9.0914-50.508-35.86 0 0-15.152-51.013 8.3338-85.358 0 0 27.421-50.946 73.959-35.922z"/>
<path d="m1117.8 529.43c17.013 5.1996 29.025 21.655 30.538 39.148 1.6415 15.719-2.0788 31.519-7.3703 46.232-8.6097 21.512-24.127 40.317-43.758 52.636-14.836 8.0975-33.334 4.6611-46.913-4.4171-5.555-2.6612-8.9406-7.703-11.333-13.196-9.0423-17.992-10.311-39.892-2.093-58.419 6.9469-17.446 15.495-35.253 30.147-47.54 11.109-10.096 25.627-18.343 41.156-16.725 3.2906 0.33413 6.5337 1.1109 9.6264 2.2818z"/>
</g>
<g transform="matrix(.19469 .11561 -.11561 .19469 325.51 184.01)" fill="#99d088" fill-rule="evenodd" stroke-width=".48225">
<path d="m922.97 588.96c24.024 2.8053 52.379 8.1762 65.063 31.408 9.2623 13.695 17.325 28.384 28.876 40.366 20.474 10.36 40.873 22.802 55.562 40.704 18.435 27.565 12.853 67.049-8.5754 91.255-23.994 21.967-58.528 32.942-90.509 24.815-20.441-4.0866-40.823-16.113-62.091-9.3945-19.673 5.5212-39.198 14.22-60.149 11.887-19.917-0.67497-37.787-10.415-54.541-20.209-19.534-12.539-31.74-35.211-30.417-58.508 0.067-34.973 26.36-63.966 55.971-79.316 12.637-6.1417 25.904-12.813 31.912-26.452 8.5894-15.734 16.124-35.497 35.208-40.863 10.77-3.919 22.27-5.4898 33.69-5.6922z"/>
<path d="m706.83 545.97c5.1298-18.015 19.671-34.679 38.977-37.117 13.803-1.7803 28.086 1.7246 40.237 8.242 22.161 14.759 35.06 39.741 42.353 64.68 3.676 11.925 6.1767 24.675 3.1477 37.04-2.7993 14.602-13.391 26.974-27.02 32.667-17.704 10.643-41.18 9.2035-58.06-2.43-10.04-6.6499-18.938-15.329-24.338-26.209-12.789-23.063-21.415-50.467-15.297-76.872z"/>
<path transform="translate(452.86,333.79)" d="m421.74 81.463s29.464 0.17857 45.714 37.857c0 0 11.213 24.437 7.3214 61.964 0 0-0.60865 37.78-23.085 53.184 0 0-30.557 27.779-65.66-9.5964 0 0-24.496-26.264-29.294-63.387 0 0-5.3033-38.386 18.435-61.367 0 0 20.139-18.834 46.568-18.656z"/>
<path transform="translate(452.86,333.79)" d="m576.52 89.717s36.25 10.714 32.321 52.143c0 0 2.0584 33.277-17.64 63.582 0 0-19.951 37.376-46.467 41.416 0 0-29.294 9.0914-50.508-35.86 0 0-15.152-51.013 8.3338-85.358 0 0 27.421-50.946 73.959-35.922z"/>
<path d="m1117.8 529.43c17.013 5.1996 29.025 21.655 30.538 39.148 1.6415 15.719-2.0788 31.519-7.3703 46.232-8.6097 21.512-24.127 40.317-43.758 52.636-14.836 8.0975-33.334 4.6611-46.913-4.4171-5.555-2.6612-8.9406-7.703-11.333-13.196-9.0423-17.992-10.311-39.892-2.093-58.419 6.9469-17.446 15.495-35.253 30.147-47.54 11.109-10.096 25.627-18.343 41.156-16.725 3.2906 0.33413 6.5337 1.1109 9.6264 2.2818z"/>
</g>
</svg>
