<?xml version="1.0" encoding="UTF-8"?>
<svg version="1.1" viewBox="0 0 512 512" xmlns="http://www.w3.org/2000/svg">
<g transform="matrix(5.2 0 0 5.2 15.22 36.353)" fill="#3d7099" stroke-width=".096154">
<g fill="#3d7099" stroke-width=".096154">
<path d="m1 7h14v2h-14v-2z" fill="#3d7099" stroke-width=".096154"/>
</g>
</g>
<g transform="matrix(5.2 0 0 5.2 .0203 -36.4)" fill="#3d7099" stroke-width=".096154">
<g fill="#3d7099" stroke-width=".096154">
<path d="m1 7h14v2h-14v-2z" fill="#3d7099" stroke-width=".096154"/>
</g>
</g>
<g transform="matrix(5.2 0 0 5.2 109.78 1.8983)" fill="#3d7099" stroke-width=".096154">
<g fill="#3d7099" stroke-width=".096154">
<path d="m1 7h14v2h-14v-2z" fill="#3d7099" stroke-width=".096154"/>
</g>
</g>
<g transform="matrix(5.2 0 0 5.2 287.22 -15.647)" fill="#3d7099" stroke-width=".096154">
<g fill="#3d7099" stroke-width=".096154">
<path d="m1 7h14v2h-14v-2z" fill="#3d7099" stroke-width=".096154"/>
</g>
</g>
<g transform="matrix(5.2 0 0 5.2 412.02 15.553)" fill="#3d7099" stroke-width=".096154">
<g fill="#3d7099" stroke-width=".096154">
<path d="m1 7h14v2h-14v-2z" fill="#3d7099" stroke-width=".096154"/>
</g>
</g>
<g transform="matrix(4.5027 0 0 5.2 89.68 67.553)" fill="#3d7099" stroke-width=".10333">
<g fill="#3d7099" stroke-width=".10333">
<path d="m1 7h14v2h-14v-2z" fill="#3d7099" stroke-width=".10333"/>
</g>
</g>
<g transform="matrix(5.2 0 0 5.2 141.62 119.55)" fill="#3d7099" stroke-width=".096154">
<g fill="#3d7099" stroke-width=".096154">
<path d="m1 7h14v2h-14v-2z" fill="#3d7099" stroke-width=".096154"/>
</g>
</g>
<g transform="matrix(5.2 0 0 5.2 357.84 116.41)" fill="#3d7099" stroke-width=".096154">
<g fill="#3d7099" stroke-width=".096154">
<path d="m1 7h14v2h-14v-2z" fill="#3d7099" stroke-width=".096154"/>
</g>
</g>
<g transform="matrix(4.8126 0 0 5.2 368.12 57.383)" fill="#3d7099" stroke-width=".099949">
<g fill="#3d7099" stroke-width=".099949">
<path d="m1 7h14v2h-14v-2z" fill="#3d7099" stroke-width=".099949"/>
</g>
</g>
<g transform="matrix(2.1782 0 0 5.2 161.44 177.95)" fill="#3d7099" stroke-width=".14857">
<g fill="#3d7099" stroke-width=".14857">
<path d="m1 7h14v2h-14v-2z" fill="#3d7099" stroke-width=".14857"/>
</g>
</g>
<g transform="matrix(5.2 0 0 5.2 256.02 140.35)" fill="#3d7099" stroke-width=".096154">
<g fill="#3d7099" stroke-width=".096154">
<path d="m1 7h14v2h-14v-2z" fill="#3d7099" stroke-width=".096154"/>
</g>
</g>
<g transform="matrix(5.2 0 0 5.2 308.02 181.95)" fill="#3d7099" stroke-width=".096154">
<g fill="#3d7099" stroke-width=".096154">
<path d="m1 7h14v2h-14v-2z" fill="#3d7099" stroke-width=".096154"/>
</g>
</g>
<g transform="matrix(5.2 0 0 5.2 422.42 202.75)" fill="#3d7099" stroke-width=".096154">
<g fill="#3d7099" stroke-width=".096154">
<path d="m1 7h14v2h-14v-2z" fill="#3d7099" stroke-width=".096154"/>
</g>
</g>
<g transform="matrix(3.255 0 0 5.2 463.17 154.75)" fill="#3d7099" stroke-width=".12153">
<g fill="#3d7099" stroke-width=".12153">
<path d="m1 7h14v2h-14v-2z" fill="#3d7099" stroke-width=".12153"/>
</g>
</g>
<g transform="matrix(4.5425 0 0 5.2 -4.5425 254.35)" fill="#3d7099" stroke-width=".10288">
<g fill="#3d7099" stroke-width=".10288">
<path d="m1 7h14v2h-14v-2z" fill="#3d7099" stroke-width=".10288"/>
</g>
</g>
<g transform="matrix(5.2 0 0 5.2 46.678 195.84)" fill="#3d7099" stroke-width=".096154">
<g fill="#3d7099" stroke-width=".096154">
<path d="m1 7h14v2h-14v-2z" fill="#3d7099" stroke-width=".096154"/>
</g>
</g>
<g transform="matrix(4.3477 0 0 5.2 111.27 265.15)" fill="#3d7099" stroke-width=".10516">
<g fill="#3d7099" stroke-width=".10516">
<path d="m1 7h14v2h-14v-2z" fill="#3d7099" stroke-width=".10516"/>
</g>
</g>
<g transform="matrix(5.2 0 0 5.2 308.02 285.95)" fill="#3d7099" stroke-width=".096154">
<g fill="#3d7099" stroke-width=".096154">
<path d="m1 7h14v2h-14v-2z" fill="#3d7099" stroke-width=".096154"/>
</g>
</g>
<g transform="matrix(5.2 0 0 5.2 349.62 244.35)" fill="#3d7099" stroke-width=".096154">
<g fill="#3d7099" stroke-width=".096154">
<path d="m1 7h14v2h-14v-2z" fill="#3d7099" stroke-width=".096154"/>
</g>
</g>
<g transform="matrix(.54303 0 0 5.2 503.85 254.35)" fill="#3d7099" stroke-width=".29755">
<g fill="#3d7099" stroke-width=".29755">
<path d="m1 7h14v2h-14v-2z" fill="#3d7099" stroke-width=".29755"/>
</g>
</g>
<g transform="matrix(5.2 0 0 5.2 9.2949 317.34)" fill="#3d7099" stroke-width=".096154">
<g fill="#3d7099" stroke-width=".096154">
<path d="m1 7h14v2h-14v-2z" fill="#3d7099" stroke-width=".096154"/>
</g>
</g>
<g transform="matrix(5.2 0 0 5.2 131.22 337.95)" fill="#3d7099" stroke-width=".096154">
<g fill="#3d7099" stroke-width=".096154">
<path d="m1 7h14v2h-14v-2z" fill="#3d7099" stroke-width=".096154"/>
</g>
</g>
<g transform="matrix(5.2 0 0 5.2 214.42 306.75)" fill="#3d7099" stroke-width=".096154">
<g fill="#3d7099" stroke-width=".096154">
<path d="m1 7h14v2h-14v-2z" fill="#3d7099" stroke-width=".096154"/>
</g>
</g>
<g transform="matrix(5.2 0 0 5.2 256.02 358.75)" fill="#3d7099" stroke-width=".096154">
<g fill="#3d7099" stroke-width=".096154">
<path d="m1 7h14v2h-14v-2z" fill="#3d7099" stroke-width=".096154"/>
</g>
</g>
<g transform="matrix(5.2 0 0 5.2 424.78 295.27)" fill="#3d7099" stroke-width=".096154">
<g fill="#3d7099" stroke-width=".096154">
<path d="m1 7h14v2h-14v-2z" fill="#3d7099" stroke-width=".096154"/>
</g>
</g>
<g transform="matrix(2.4332 0 0 5.2 -2.4332 394.35)" fill="#3d7099" stroke-width=".14057">
<g fill="#3d7099" stroke-width=".14057">
<path d="m1 7h14v2h-14v-2z" fill="#3d7099" stroke-width=".14057"/>
</g>
</g>
<g transform="matrix(3.8053 0 0 5.2 172.94 410.75)" fill="#3d7099" stroke-width=".1124">
<g fill="#3d7099" stroke-width=".1124">
<path d="m1 7h14v2h-14v-2z" fill="#3d7099" stroke-width=".1124"/>
</g>
</g>
<g transform="matrix(5.2 0 0 5.2 266.42 431.55)" fill="#3d7099" stroke-width=".096154">
<g fill="#3d7099" stroke-width=".096154">
<path d="m1 7h14v2h-14v-2z" fill="#3d7099" stroke-width=".096154"/>
</g>
</g>
<g transform="matrix(5.2 0 0 5.2 422.42 427.55)" fill="#3d7099" stroke-width=".096154">
<g fill="#3d7099" stroke-width=".096154">
<path d="m1 7h14v2h-14v-2z" fill="#3d7099" stroke-width=".096154"/>
</g>
</g>
<g transform="matrix(5.2 0 0 5.2 162.42 465.2)" fill="#3d7099" stroke-width=".096154">
<g fill="#3d7099" stroke-width=".096154">
<path d="m1 7h14v2h-14v-2z" fill="#3d7099" stroke-width=".096154"/>
</g>
</g>
<g transform="matrix(5.2 0 0 5.2 364.09 455.04)" fill="#3d7099" stroke-width=".096154">
<g fill="#3d7099" stroke-width=".096154">
<path d="m1 7h14v2h-14v-2z" fill="#3d7099" stroke-width=".096154"/>
</g>
</g>
<g transform="matrix(8.505 0 0 8.505 72.081 359.41)" fill="#779c51" stroke-width="1.4286">
<g fill="#779c51" stroke-width="1.4286">
<path d="m4 5c-2.2091 0-4 1.7909-4 4 0 1.0247 0.39777 1.9241 1.0312 2.625l0.5625-0.5c-0.51563-0.5771-0.84375-1.3469-0.84375-2.375 0-1.7949 1.4551-3 3.25-3 1.25 0 2.75 1.4551 2.75 3.25 0 0.8715-0.25039 1.6242-0.71875 2.1875l0.65625 0.75c0.80063-0.7244 1.3125-1.7688 1.3125-2.9375 0-2.2091-1.7909-4-4-4zm-1.25 5.5c-0.25 2.25-0.75 3.25-1.5 4.5h-1.25c1.5-1.5 2.25-3.25 2.75-4.5zm1.25 0c0 2.25 0.5 3.75 0 5h-1.25c1-1.5 0.5-3.5 1.25-5zm0.75 0c0.75 2 1.5 3 2.5 4.5h-1.5c-0.25-1-1.5-3.25-1-4.5z" fill="#6a8b48" stroke-width="1.4286"/>
</g>
</g>
<g transform="matrix(8.505 0 0 8.505 22.601 70.096)" fill="#6a8b48" stroke-width="1.4286">
<g fill="#6a8b48" stroke-width="1.4286">
<path d="m4 5c-2.2091 0-4 1.7909-4 4 0 1.0247 0.39777 1.9241 1.0312 2.625l0.5625-0.5c-0.51563-0.5771-0.84375-1.3469-0.84375-2.375 0-1.7949 1.4551-3 3.25-3 1.25 0 2.75 1.4551 2.75 3.25 0 0.8715-0.25039 1.6242-0.71875 2.1875l0.65625 0.75c0.80063-0.7244 1.3125-1.7688 1.3125-2.9375 0-2.2091-1.7909-4-4-4zm-1.25 5.5c-0.25 2.25-0.75 3.25-1.5 4.5h-1.25c1.5-1.5 2.25-3.25 2.75-4.5zm1.25 0c0 2.25 0.5 3.75 0 5h-1.25c1-1.5 0.5-3.5 1.25-5zm0.75 0c0.75 2 1.5 3 2.5 4.5h-1.5c-0.25-1-1.5-3.25-1-4.5z" fill="#6a8b48" stroke-width="1.4286"/>
</g>
</g>
<g transform="matrix(8.505 0 0 8.505 247.66 6.8428)" fill="#6a8b48" stroke-width="1.4286">
<g fill="#6a8b48" stroke-width="1.4286">
<path d="m4 5c-2.2091 0-4 1.7909-4 4 0 1.0247 0.39777 1.9241 1.0312 2.625l0.5625-0.5c-0.51563-0.5771-0.84375-1.3469-0.84375-2.375 0-1.7949 1.4551-3 3.25-3 1.25 0 2.75 1.4551 2.75 3.25 0 0.8715-0.25039 1.6242-0.71875 2.1875l0.65625 0.75c0.80063-0.7244 1.3125-1.7688 1.3125-2.9375 0-2.2091-1.7909-4-4-4zm-1.25 5.5c-0.25 2.25-0.75 3.25-1.5 4.5h-1.25c1.5-1.5 2.25-3.25 2.75-4.5zm1.25 0c0 2.25 0.5 3.75 0 5h-1.25c1-1.5 0.5-3.5 1.25-5zm0.75 0c0.75 2 1.5 3 2.5 4.5h-1.5c-0.25-1-1.5-3.25-1-4.5z" fill="#6a8b48" stroke-width="1.4286"/>
</g>
</g>
<g transform="matrix(8.505 0 0 8.505 216.11 182.17)" fill="#6a8b48" stroke-width="1.4286">
<g fill="#6a8b48" stroke-width="1.4286">
<path d="m4 5c-2.2091 0-4 1.7909-4 4 0 1.0247 0.39777 1.9241 1.0312 2.625l0.5625-0.5c-0.51563-0.5771-0.84375-1.3469-0.84375-2.375 0-1.7949 1.4551-3 3.25-3 1.25 0 2.75 1.4551 2.75 3.25 0 0.8715-0.25039 1.6242-0.71875 2.1875l0.65625 0.75c0.80063-0.7244 1.3125-1.7688 1.3125-2.9375 0-2.2091-1.7909-4-4-4zm-1.25 5.5c-0.25 2.25-0.75 3.25-1.5 4.5h-1.25c1.5-1.5 2.25-3.25 2.75-4.5zm1.25 0c0 2.25 0.5 3.75 0 5h-1.25c1-1.5 0.5-3.5 1.25-5zm0.75 0c0.75 2 1.5 3 2.5 4.5h-1.5c-0.25-1-1.5-3.25-1-4.5z" fill="#6a8b48" stroke-width="1.4286"/>
</g>
</g>
<g transform="matrix(8.505 0 0 8.505 394.01 316.43)" fill="#6a8b48" stroke-width="1.4286">
<g fill="#6a8b48" stroke-width="1.4286">
<path d="m4 5c-2.2091 0-4 1.7909-4 4 0 1.0247 0.39777 1.9241 1.0312 2.625l0.5625-0.5c-0.51563-0.5771-0.84375-1.3469-0.84375-2.375 0-1.7949 1.4551-3 3.25-3 1.25 0 2.75 1.4551 2.75 3.25 0 0.8715-0.25039 1.6242-0.71875 2.1875l0.65625 0.75c0.80063-0.7244 1.3125-1.7688 1.3125-2.9375 0-2.2091-1.7909-4-4-4zm-1.25 5.5c-0.25 2.25-0.75 3.25-1.5 4.5h-1.25c1.5-1.5 2.25-3.25 2.75-4.5zm1.25 0c0 2.25 0.5 3.75 0 5h-1.25c1-1.5 0.5-3.5 1.25-5zm0.75 0c0.75 2 1.5 3 2.5 4.5h-1.5c-0.25-1-1.5-3.25-1-4.5z" fill="#6a8b48" stroke-width="1.4286"/>
</g>
</g>
</svg>
