<?xml version="1.0" encoding="UTF-8"?>
<svg version="1.1" viewBox="0 0 512 512" xmlns="http://www.w3.org/2000/svg">
<g transform="matrix(5.2 0 0 5.2 15.22 36.353)" fill="#3d7099" stroke-width=".096154">
<g fill="#3d7099" stroke-width=".096154">
<path d="m1 7h14v2h-14v-2z" fill="#3d7099" stroke-width=".096154"/>
</g>
</g>
<g transform="matrix(5.2 0 0 5.2 .0203 -36.4)" fill="#3d7099" stroke-width=".096154">
<g fill="#3d7099" stroke-width=".096154">
<path d="m1 7h14v2h-14v-2z" fill="#3d7099" stroke-width=".096154"/>
</g>
</g>
<g transform="matrix(5.2 0 0 5.2 109.78 1.8983)" fill="#3d7099" stroke-width=".096154">
<g fill="#3d7099" stroke-width=".096154">
<path d="m1 7h14v2h-14v-2z" fill="#3d7099" stroke-width=".096154"/>
</g>
</g>
<g transform="matrix(5.2 0 0 5.2 287.22 -15.647)" fill="#3d7099" stroke-width=".096154">
<g fill="#3d7099" stroke-width=".096154">
<path d="m1 7h14v2h-14v-2z" fill="#3d7099" stroke-width=".096154"/>
</g>
</g>
<g transform="matrix(5.2 0 0 5.2 412.02 15.553)" fill="#3d7099" stroke-width=".096154">
<g fill="#3d7099" stroke-width=".096154">
<path d="m1 7h14v2h-14v-2z" fill="#3d7099" stroke-width=".096154"/>
</g>
</g>
<g transform="matrix(4.5027 0 0 5.2 89.68 67.553)" fill="#3d7099" stroke-width=".10333">
<g fill="#3d7099" stroke-width=".10333">
<path d="m1 7h14v2h-14v-2z" fill="#3d7099" stroke-width=".10333"/>
</g>
</g>
<g transform="matrix(5.2 0 0 5.2 141.62 119.55)" fill="#3d7099" stroke-width=".096154">
<g fill="#3d7099" stroke-width=".096154">
<path d="m1 7h14v2h-14v-2z" fill="#3d7099" stroke-width=".096154"/>
</g>
</g>
<g transform="matrix(5.2 0 0 5.2 357.84 116.41)" fill="#3d7099" stroke-width=".096154">
<g fill="#3d7099" stroke-width=".096154">
<path d="m1 7h14v2h-14v-2z" fill="#3d7099" stroke-width=".096154"/>
</g>
</g>
<g transform="matrix(4.8126 0 0 5.2 368.12 57.383)" fill="#3d7099" stroke-width=".099949">
<g fill="#3d7099" stroke-width=".099949">
<path d="m1 7h14v2h-14v-2z" fill="#3d7099" stroke-width=".099949"/>
</g>
</g>
<g transform="matrix(2.1782 0 0 5.2 161.44 177.95)" fill="#3d7099" stroke-width=".14857">
<g fill="#3d7099" stroke-width=".14857">
<path d="m1 7h14v2h-14v-2z" fill="#3d7099" stroke-width=".14857"/>
</g>
</g>
<g transform="matrix(5.2 0 0 5.2 256.02 140.35)" fill="#3d7099" stroke-width=".096154">
<g fill="#3d7099" stroke-width=".096154">
<path d="m1 7h14v2h-14v-2z" fill="#3d7099" stroke-width=".096154"/>
</g>
</g>
<g transform="matrix(5.2 0 0 5.2 308.02 181.95)" fill="#3d7099" stroke-width=".096154">
<g fill="#3d7099" stroke-width=".096154">
<path d="m1 7h14v2h-14v-2z" fill="#3d7099" stroke-width=".096154"/>
</g>
</g>
<g transform="matrix(5.2 0 0 5.2 422.42 202.75)" fill="#3d7099" stroke-width=".096154">
<g fill="#3d7099" stroke-width=".096154">
<path d="m1 7h14v2h-14v-2z" fill="#3d7099" stroke-width=".096154"/>
</g>
</g>
<g transform="matrix(3.255 0 0 5.2 463.17 154.75)" fill="#3d7099" stroke-width=".12153">
<g fill="#3d7099" stroke-width=".12153">
<path d="m1 7h14v2h-14v-2z" fill="#3d7099" stroke-width=".12153"/>
</g>
</g>
<g transform="matrix(4.5425 0 0 5.2 -4.5425 254.35)" fill="#3d7099" stroke-width=".10288">
<g fill="#3d7099" stroke-width=".10288">
<path d="m1 7h14v2h-14v-2z" fill="#3d7099" stroke-width=".10288"/>
</g>
</g>
<g transform="matrix(5.2 0 0 5.2 46.678 195.84)" fill="#3d7099" stroke-width=".096154">
<g fill="#3d7099" stroke-width=".096154">
<path d="m1 7h14v2h-14v-2z" fill="#3d7099" stroke-width=".096154"/>
</g>
</g>
<g transform="matrix(4.3477 0 0 5.2 111.27 265.15)" fill="#3d7099" stroke-width=".10516">
<g fill="#3d7099" stroke-width=".10516">
<path d="m1 7h14v2h-14v-2z" fill="#3d7099" stroke-width=".10516"/>
</g>
</g>
<g transform="matrix(5.2 0 0 5.2 308.02 285.95)" fill="#3d7099" stroke-width=".096154">
<g fill="#3d7099" stroke-width=".096154">
<path d="m1 7h14v2h-14v-2z" fill="#3d7099" stroke-width=".096154"/>
</g>
</g>
<g transform="matrix(5.2 0 0 5.2 349.62 244.35)" fill="#3d7099" stroke-width=".096154">
<g fill="#3d7099" stroke-width=".096154">
<path d="m1 7h14v2h-14v-2z" fill="#3d7099" stroke-width=".096154"/>
</g>
</g>
<g transform="matrix(.54303 0 0 5.2 503.85 254.35)" fill="#3d7099" stroke-width=".29755">
<g fill="#3d7099" stroke-width=".29755">
<path d="m1 7h14v2h-14v-2z" fill="#3d7099" stroke-width=".29755"/>
</g>
</g>
<g transform="matrix(5.2 0 0 5.2 9.2949 317.34)" fill="#3d7099" stroke-width=".096154">
<g fill="#3d7099" stroke-width=".096154">
<path d="m1 7h14v2h-14v-2z" fill="#3d7099" stroke-width=".096154"/>
</g>
</g>
<g transform="matrix(5.2 0 0 5.2 131.22 337.95)" fill="#3d7099" stroke-width=".096154">
<g fill="#3d7099" stroke-width=".096154">
<path d="m1 7h14v2h-14v-2z" fill="#3d7099" stroke-width=".096154"/>
</g>
</g>
<g transform="matrix(5.2 0 0 5.2 214.42 306.75)" fill="#3d7099" stroke-width=".096154">
<g fill="#3d7099" stroke-width=".096154">
<path d="m1 7h14v2h-14v-2z" fill="#3d7099" stroke-width=".096154"/>
</g>
</g>
<g transform="matrix(5.2 0 0 5.2 256.02 358.75)" fill="#3d7099" stroke-width=".096154">
<g fill="#3d7099" stroke-width=".096154">
<path d="m1 7h14v2h-14v-2z" fill="#3d7099" stroke-width=".096154"/>
</g>
</g>
<g transform="matrix(5.2 0 0 5.2 424.78 295.27)" fill="#3d7099" stroke-width=".096154">
<g fill="#3d7099" stroke-width=".096154">
<path d="m1 7h14v2h-14v-2z" fill="#3d7099" stroke-width=".096154"/>
</g>
</g>
<g transform="matrix(2.4332 0 0 5.2 -2.4332 394.35)" fill="#3d7099" stroke-width=".14057">
<g fill="#3d7099" stroke-width=".14057">
<path d="m1 7h14v2h-14v-2z" fill="#3d7099" stroke-width=".14057"/>
</g>
</g>
<g transform="matrix(3.8053 0 0 5.2 172.94 410.75)" fill="#3d7099" stroke-width=".1124">
<g fill="#3d7099" stroke-width=".1124">
<path d="m1 7h14v2h-14v-2z" fill="#3d7099" stroke-width=".1124"/>
</g>
</g>
<g transform="matrix(5.2 0 0 5.2 266.42 431.55)" fill="#3d7099" stroke-width=".096154">
<g fill="#3d7099" stroke-width=".096154">
<path d="m1 7h14v2h-14v-2z" fill="#3d7099" stroke-width=".096154"/>
</g>
</g>
<g transform="matrix(5.2 0 0 5.2 422.42 427.55)" fill="#3d7099" stroke-width=".096154">
<g fill="#3d7099" stroke-width=".096154">
<path d="m1 7h14v2h-14v-2z" fill="#3d7099" stroke-width=".096154"/>
</g>
</g>
<g transform="matrix(5.2 0 0 5.2 162.42 465.2)" fill="#3d7099" stroke-width=".096154">
<g fill="#3d7099" stroke-width=".096154">
<path d="m1 7h14v2h-14v-2z" fill="#3d7099" stroke-width=".096154"/>
</g>
</g>
<g transform="matrix(5.2 0 0 5.2 364.09 455.04)" fill="#3d7099" stroke-width=".096154">
<g fill="#3d7099" stroke-width=".096154">
<path d="m1 7h14v2h-14v-2z" fill="#3d7099" stroke-width=".096154"/>
</g>
</g>
<g transform="matrix(9.45 0 0 9.45 66.142 340.51)" fill="#779c51" stroke-width="1.4286">
<g fill="#779c51" stroke-width="1.4286">
<path d="m0.25 9.75c0 0.25 0.25 1.25 0.5 2.5s0.25 1.75 0 3.25c0.25 0 0.8662-0.17 1.25-0.25-0.5-0.5 0.25-1.5-0.75-4-0.25-0.75-0.25-1-1-1.5zm8.5 0.75c0 0.25-0.25 0.5-0.5 1.25-0.25 2-0.22479 1.99-0.25 3.75-0.5-0.25-0.8662-0.17-1.25-0.25 0-1.25 0-3.25 1.25-4.25 0.25-0.25 0.25-0.25 0.75-0.5zm-6.25-1.75c0.25 0 0.5 0.25 0.75 0.75 0.75 2 0.5 4.25 0.75 5.5-0.5 0-1 0.25-1.5 0.25 0.5-1 0.25-1.5 0.25-4.75 0-1 0-0.75-0.25-1.75zm4-1c0 0.75 0 1-0.25 2.25 0 1-0.75 3.75 0 5.25-0.5 0-1-0.25-1.5-0.25-0.25-2.5 0.25-4 1-6 0.25-0.75 0.25-1 0.75-1.25z" fill="#779c51" stroke-width="1.4286"/>
</g>
</g>
<g transform="matrix(9.45 0 0 9.45 15.514 51.196)" fill="#779c51" stroke-width="1.4286">
<g fill="#779c51" stroke-width="1.4286">
<path d="m0.25 9.75c0 0.25 0.25 1.25 0.5 2.5s0.25 1.75 0 3.25c0.25 0 0.8662-0.17 1.25-0.25-0.5-0.5 0.25-1.5-0.75-4-0.25-0.75-0.25-1-1-1.5zm8.5 0.75c0 0.25-0.25 0.5-0.5 1.25-0.25 2-0.22479 1.99-0.25 3.75-0.5-0.25-0.8662-0.17-1.25-0.25 0-1.25 0-3.25 1.25-4.25 0.25-0.25 0.25-0.25 0.75-0.5zm-6.25-1.75c0.25 0 0.5 0.25 0.75 0.75 0.75 2 0.5 4.25 0.75 5.5-0.5 0-1 0.25-1.5 0.25 0.5-1 0.25-1.5 0.25-4.75 0-1 0-0.75-0.25-1.75zm4-1c0 0.75 0 1-0.25 2.25 0 1-0.75 3.75 0 5.25-0.5 0-1-0.25-1.5-0.25-0.25-2.5 0.25-4 1-6 0.25-0.75 0.25-1 0.75-1.25z" fill="#779c51" stroke-width="1.4286"/>
</g>
</g>
<g transform="matrix(9.45 0 0 9.45 241.72 -12.057)" fill="#779c51" stroke-width="1.4286">
<g fill="#779c51" stroke-width="1.4286">
<path d="m0.25 9.75c0 0.25 0.25 1.25 0.5 2.5s0.25 1.75 0 3.25c0.25 0 0.8662-0.17 1.25-0.25-0.5-0.5 0.25-1.5-0.75-4-0.25-0.75-0.25-1-1-1.5zm8.5 0.75c0 0.25-0.25 0.5-0.5 1.25-0.25 2-0.22479 1.99-0.25 3.75-0.5-0.25-0.8662-0.17-1.25-0.25 0-1.25 0-3.25 1.25-4.25 0.25-0.25 0.25-0.25 0.75-0.5zm-6.25-1.75c0.25 0 0.5 0.25 0.75 0.75 0.75 2 0.5 4.25 0.75 5.5-0.5 0-1 0.25-1.5 0.25 0.5-1 0.25-1.5 0.25-4.75 0-1 0-0.75-0.25-1.75zm4-1c0 0.75 0 1-0.25 2.25 0 1-0.75 3.75 0 5.25-0.5 0-1-0.25-1.5-0.25-0.25-2.5 0.25-4 1-6 0.25-0.75 0.25-1 0.75-1.25z" fill="#779c51" stroke-width="1.4286"/>
</g>
</g>
<g transform="matrix(9.45 0 0 9.45 209.98 163.63)" fill="#779c51" stroke-width="1.4286">
<g fill="#779c51" stroke-width="1.4286">
<path d="m0.25 9.75c0 0.25 0.25 1.25 0.5 2.5s0.25 1.75 0 3.25c0.25 0 0.8662-0.17 1.25-0.25-0.5-0.5 0.25-1.5-0.75-4-0.25-0.75-0.25-1-1-1.5zm8.5 0.75c0 0.25-0.25 0.5-0.5 1.25-0.25 2-0.22479 1.99-0.25 3.75-0.5-0.25-0.8662-0.17-1.25-0.25 0-1.25 0-3.25 1.25-4.25 0.25-0.25 0.25-0.25 0.75-0.5zm-6.25-1.75c0.25 0 0.5 0.25 0.75 0.75 0.75 2 0.5 4.25 0.75 5.5-0.5 0-1 0.25-1.5 0.25 0.5-1 0.25-1.5 0.25-4.75 0-1 0-0.75-0.25-1.75zm4-1c0 0.75 0 1-0.25 2.25 0 1-0.75 3.75 0 5.25-0.5 0-1-0.25-1.5-0.25-0.25-2.5 0.25-4 1-6 0.25-0.75 0.25-1 0.75-1.25z" fill="#779c51" stroke-width="1.4286"/>
</g>
</g>
<g transform="matrix(9.45 0 0 9.45 387.89 295.89)" fill="#779c51" stroke-width="1.4286">
<g fill="#779c51" stroke-width="1.4286">
<path d="m0.25 9.75c0 0.25 0.25 1.25 0.5 2.5s0.25 1.75 0 3.25c0.25 0 0.8662-0.17 1.25-0.25-0.5-0.5 0.25-1.5-0.75-4-0.25-0.75-0.25-1-1-1.5zm8.5 0.75c0 0.25-0.25 0.5-0.5 1.25-0.25 2-0.22479 1.99-0.25 3.75-0.5-0.25-0.8662-0.17-1.25-0.25 0-1.25 0-3.25 1.25-4.25 0.25-0.25 0.25-0.25 0.75-0.5zm-6.25-1.75c0.25 0 0.5 0.25 0.75 0.75 0.75 2 0.5 4.25 0.75 5.5-0.5 0-1 0.25-1.5 0.25 0.5-1 0.25-1.5 0.25-4.75 0-1 0-0.75-0.25-1.75zm4-1c0 0.75 0 1-0.25 2.25 0 1-0.75 3.75 0 5.25-0.5 0-1-0.25-1.5-0.25-0.25-2.5 0.25-4 1-6 0.25-0.75 0.25-1 0.75-1.25z" fill="#779c51" stroke-width="1.4286"/>
</g>
</g>
</svg>
