<?xml version="1.0" encoding="UTF-8"?>
<svg version="1.1" viewBox="0 0 512 512" xmlns="http://www.w3.org/2000/svg">
<g transform="translate(0 -161.53)" fill="#90b36c">
<g transform="translate(-19.193 -22.413)">
<circle cx="47.909" cy="205.35" r="12.005"/>
<circle cx="47.909" cy="413.68" r="12.005"/>
<circle cx="47.909" cy="309.52" r="12.005"/>
<circle cx="45.888" cy="622.02" r="12.005"/>
<circle cx="47.909" cy="517.85" r="12.005"/>
</g>
<g transform="translate(80.452 -22.413)">
<circle cx="47.909" cy="205.35" r="12.005"/>
<circle cx="47.909" cy="413.68" r="12.005"/>
<circle cx="47.909" cy="309.52" r="12.005"/>
<circle cx="45.888" cy="622.02" r="12.005"/>
<circle cx="47.909" cy="517.85" r="12.005"/>
</g>
<g transform="translate(180.1 -22.413)">
<circle cx="47.909" cy="205.35" r="12.005"/>
<circle cx="47.909" cy="413.68" r="12.005"/>
<circle cx="47.909" cy="309.52" r="12.005"/>
<circle cx="45.888" cy="622.02" r="12.005"/>
<circle cx="47.909" cy="517.85" r="12.005"/>
</g>
<g transform="translate(279.74 -22.413)">
<circle cx="47.909" cy="205.35" r="12.005"/>
<circle cx="47.909" cy="413.68" r="12.005"/>
<circle cx="47.909" cy="309.52" r="12.005"/>
<circle cx="45.888" cy="622.02" r="12.005"/>
<circle cx="47.909" cy="517.85" r="12.005"/>
</g>
<g transform="translate(379.39 -22.413)">
<circle cx="47.909" cy="205.35" r="12.005"/>
<circle cx="47.909" cy="413.68" r="12.005"/>
<circle cx="47.909" cy="309.52" r="12.005"/>
<circle cx="45.888" cy="622.02" r="12.005"/>
<circle cx="47.909" cy="517.85" r="12.005"/>
</g>
<g transform="translate(30.883 30.546)">
<circle cx="47.909" cy="205.35" r="12.005"/>
<circle cx="47.909" cy="413.68" r="12.005"/>
<circle cx="47.909" cy="309.52" r="12.005"/>
<circle cx="45.888" cy="622.02" r="12.005"/>
<circle cx="47.909" cy="517.85" r="12.005"/>
</g>
<g transform="translate(130.89 28.526)">
<circle cx="47.909" cy="205.35" r="12.005"/>
<circle cx="47.909" cy="413.68" r="12.005"/>
<circle cx="47.909" cy="309.52" r="12.005"/>
<circle cx="45.888" cy="622.02" r="12.005"/>
<circle cx="47.909" cy="517.85" r="12.005"/>
</g>
<g transform="translate(227.86 27.516)">
<circle cx="47.909" cy="205.35" r="12.005"/>
<circle cx="47.909" cy="413.68" r="12.005"/>
<circle cx="47.909" cy="309.52" r="12.005"/>
<circle cx="45.888" cy="622.02" r="12.005"/>
<circle cx="47.909" cy="517.85" r="12.005"/>
</g>
<g transform="translate(329.89 27.516)">
<circle cx="47.909" cy="205.35" r="12.005"/>
<circle cx="47.909" cy="413.68" r="12.005"/>
<circle cx="47.909" cy="309.52" r="12.005"/>
<circle cx="45.888" cy="622.02" r="12.005"/>
<circle cx="47.909" cy="517.85" r="12.005"/>
</g>
<g transform="translate(430.9 26.505)">
<circle cx="47.909" cy="205.35" r="12.005"/>
<circle cx="47.909" cy="413.68" r="12.005"/>
<circle cx="47.909" cy="309.52" r="12.005"/>
<circle cx="45.888" cy="622.02" r="12.005"/>
<circle cx="47.909" cy="517.85" r="12.005"/>
</g>
</g>
</svg>
