<?xml version="1.0" encoding="UTF-8"?>
<svg version="1.1" viewBox="0 0 32 32" xmlns="http://www.w3.org/2000/svg">
<path d="m16.964 0.94502-0.37324 0.1625-0.29961 0.28691 0.27422 0.41641 0.29961-0.053321 0.3707 0.1041 0.27422-0.31992-0.12949-0.39863z"/>
<path d="m22.94 1.9041-0.39863 0.23105-0.08125 0.39863 0.06601 0.41133 0.5002 0.010153 0.12696-0.27676 0.29707-0.24629-0.10917-0.40625z"/>
<path d="m6.1706 2.7445-0.32246 0.045703-0.10156 0.31992-0.0076172 0.50273 0.30215 0.076172 0.31484-0.0050781 0.37578-0.33008-0.15996-0.38848z"/>
<path d="m28.413 4.6217-0.4291 0.55605 0.37324 0.58145 0.64746 0.02539 0.28438-0.58145-0.28691-0.48496z"/>
<path d="m13.623 4.7646-0.44434 0.23105 0.06348 0.41387 0.3377 0.30977 0.325 0.035547 0.17266-0.28691 0.12949-0.48496-0.27422-0.14727z"/>
<path d="m9.8021 4.9606-0.28438 0.19043-0.12949 0.33262 0.26914 0.35547 0.34023 0.038086 0.30469-0.10664 0.088868-0.38086-0.13457-0.41895z"/>
<path d="m2.1138 5.6319-0.38848 0.12695-0.22852 0.29707 0.14727 0.4748 0.43926 0.073633 0.3123-0.19805 0.093945-0.4748z"/>
<path d="m20.959 6.3512-0.51543 0.22344-0.16758 0.57383 0.50019 0.49258 0.62207-0.30215 0.1041-0.6373z"/>
<path d="m27.048 8.7026-0.34023 0.3377 0.07617 0.40117 0.26914 0.26406 0.49004-0.088867 0.12441-0.4291-0.15996-0.33262z"/>
<path d="m10.907 8.7916-0.25645 0.64746 0.51035 0.41387 0.54082-0.34531-0.12188-0.69316z"/>
<path d="m19.236 9.0653-0.5002 0.053321-0.04062 0.30723 0.04316 0.31484 0.37324 0.33262 0.36562-0.20566 0.17012-0.42656-0.08378-0.31484z"/>
<path d="m3.2439 9.1815-0.31738 0.22852-0.17773 0.40117 0.33262 0.30723 0.34023 0.0457 0.31738-0.1625 0.035547-0.44434-0.23105-0.25391z"/>
<path d="m22.515 10.033-0.38594 0.29199 0.08125 0.47227 0.37578 0.16504 0.36816-0.0711 0.20566-0.45449-0.28184-0.34531z"/>
<path d="m14.61 10.494-0.22344 0.38594 0.07363 0.36055 0.41133 0.25644 0.41387-0.24375 0.02032-0.41133-0.19805-0.31738z"/>
<path d="m6.4188 10.634-0.3377 0.04571-0.27168 0.1752 0.00762 0.39356 0.22852 0.37324 0.44434-0.09902 0.23105-0.25391 0.045703-0.35293z"/>
<path d="m8.2634 10.695-0.28691 0.29453-0.066016 0.36816 0.35293 0.35293 0.42402-0.13965 0.18535-0.31992-0.13965-0.46465z"/>
<path d="m1.0471 11.035-0.40879 0.20566-0.14727 0.29199 0.20566 0.26406 0.40879 0.29199 0.23359-0.20566 0.17773-0.26152-0.060937-0.49766z"/>
<path d="m28.168 11.132-0.6043 0.35801 0.21582 0.63984 0.6957 0.01014 0.2082-0.62461z"/>
<path d="m17.745 11.422-0.26406 0.6373 0.34531 0.54844 0.63984-0.09649 0.23359-0.51035-0.25137-0.54082z"/>
<path d="m24.885 11.72-0.44434 0.46465 0.28438 0.64492 0.66016-0.13965 0.09395-0.68809z"/>
<path d="m4.3067 12.396-0.70078 0.03809-0.1041 0.66524 0.61191 0.33262 0.47227-0.45703z"/>
<path d="m30.457 12.44-0.44434 0.46719 0.28438 0.64238 0.66016-0.13965 0.09395-0.68809z"/>
<path d="m11.737 12.535-0.2666 0.6373 0.34531 0.54844 0.63984-0.09649 0.23613-0.51035-0.25391-0.54082z"/>
<path d="m14.773 12.663-0.59668 0.24883-0.10664 0.55098 0.37578 0.46465 0.69062-0.13203 0.1041-0.68301z"/>
<path d="m10.252 12.699-0.6373 0.29199 0.060937 0.68809 0.56113 0.325 0.52051-0.3834-0.02792-0.56113z"/>
<path d="m20.458 12.769-0.46211 0.02032-0.25644 0.31484-0.13203 0.39355 0.43672 0.24121 0.24121-0.18535 0.37832-0.07872 0.09395-0.41133z"/>
<path d="m26.375 12.881-0.30723 0.07872-0.28438 0.41133 0.24883 0.33769 0.4418 0.11934 0.30215-0.12188 0.02285-0.33262-0.11426-0.49258z"/>
<path d="m29.249 13.21-0.51543 0.22598-0.16758 0.57129 0.5002 0.49512 0.61953-0.30215 0.1041-0.63984z"/>
<path d="m6.4787 13.33-0.63984 0.29453 0.060938 0.68809 0.56113 0.32246 0.52051-0.3834-0.027929-0.56113z"/>
<path d="m0.93984 13.566-0.39863 0.23105-0.08125 0.39863 0.066016 0.41133 0.5002 0.01014 0.12695-0.27676 0.29707-0.24629-0.10918-0.40625z"/>
<path d="m8.6005 13.721-0.60938 0.2082-0.048242 0.70078 0.65 0.18535 0.40371-0.56875z"/>
<path d="m17.258 13.965-0.25195 0.20117-0.02734 0.35547 0.2168 0.22461 0.28906 0.13672 0.22461-0.31055-0.11914-0.20117-0.02734-0.29492z"/>
<path d="m23.398 14.049-0.52148 0.12109-0.04102 0.50391 0.45703 0.19141 0.38476-0.37891z"/>
<path d="m18.938 14.307-0.24609 0.23633 0.0039 0.26367 0.10742 0.22461 0.30078 0.0293 0.30859-0.14062-0.03711-0.34766-0.17188-0.19922z"/>
<path d="m24.998 14.32-0.13672 0.19531-0.08203 0.22852 0.13476 0.36133 0.32227-0.0098 0.26758-0.22852 0.05469-0.24414-0.20117-0.16016z"/>
<path d="m5.0293 14.33-0.30859 0.08984 0.039063 0.38086 0.22266 0.07227 0.21484 0.20312 0.30273-0.11914 0.054688-0.31836-0.21484-0.2832z"/>
<path d="m3.4434 14.387-0.2832 0.46094 0.37695 0.35742 0.47656-0.24219-0.082031-0.49805z"/>
<path d="m15.646 14.369-0.29492 0.22656 0.0625 0.36328 0.28906 0.125 0.2832-0.05469 0.1582-0.34766-0.2168-0.26758z"/>
<path d="m31.709 14.541-0.3418 0.02734-0.19727 0.20508 0.01563 0.37109 0.33594 0.1543 0.26758-0.16602 0.11719-0.26367z"/>
<path d="m14.406 14.576-0.24609 0.17773-0.13672 0.30859 0.25781 0.23633 0.26172 0.03516 0.24219-0.12695 0.02734-0.33984-0.17773-0.19531z"/>
<path d="m27.85 14.688-0.30078 0.0957-0.17383 0.23047 0.11328 0.36523 0.33789 0.05664 0.24023-0.15234 0.07227-0.36523z"/>
<path d="m2.2754 14.568-0.17188 0.29492 0.056641 0.2793 0.31641 0.19726 0.31836-0.18945 0.015625-0.31445-0.15234-0.24414z"/>
<path d="m31.304 16.184-0.32227 0.04492-0.12891 0.29492 0.14062 0.32812 0.29688 0.09766 0.31836-0.01367 0.05469-0.37891-0.19922-0.12305z"/>
<path d="m17.719 16.451-0.20312 0.14648 0.04492 0.25391 0.17383 0.3457 0.23242-0.05664 0.21484-0.11719 0.13672-0.35938-0.24805-0.20508z"/>
<path d="m22.02 16.459-0.21289 0.11133-0.17969 0.16406-0.04687 0.38086 0.28906 0.14258 0.34375-0.07812 0.16211-0.19141-0.10352-0.23438z"/>
<path d="m5.8072 16.635-0.40625 0.34961 0.19922 0.46484 0.49414-0.04102 0.16406-0.51562z"/>
<path d="m24.986 16.49-0.21484 0.15234-0.12305 0.2168 0.14648 0.26562 0.29102 0.17188 0.26562-0.22656 0.06641-0.25391-0.0957-0.25781z"/>
<path d="m29.473 16.525-0.25976 0.03516-0.20898 0.13476 0.0059 0.30078 0.17578 0.28906 0.3418-0.07813 0.17773-0.19336 0.03516-0.27344z"/>
<path d="m27.445 16.551-0.21875 0.14648-0.09961 0.25586 0.20703 0.27344 0.26172 0.0293 0.23438-0.08203 0.06641-0.29297-0.10156-0.32226z"/>
<path d="m13.225 16.67-0.52148 0.12109-0.04102 0.50391 0.45703 0.19141 0.38476-0.37891z"/>
<path d="m0 16.676v0.75781l0.042969 0.05273 0.51758-0.1582-0.044922-0.51758z"/>
<path d="m31.998 16.676-0.26953 0.42774 0.27148 0.33008v-0.75781z"/>
<path d="m11.316 16.83-0.45898 0.18945-0.08398 0.42578 0.28906 0.35547 0.53125-0.09961 0.08008-0.52539z"/>
<path d="m20.289 16.834-0.51953 0.11133-0.19531 0.45898 0.33984 0.36133 0.42774-0.07422 0.23047-0.39648z"/>
<path d="m25.959 16.84-0.21289 0.10938-0.17969 0.16602-0.04687 0.38086 0.28906 0.14062 0.34375-0.07617 0.16211-0.19141-0.10352-0.23438z"/>
<path d="m2.9277 16.842-0.24609 0.07617-0.32227 0.21484 0.083984 0.22461 0.14258 0.19727 0.37305 0.09375 0.17578-0.27148-0.037109-0.34961z"/>
<path d="m4.4531 16.924-0.14258 0.35547 0.16406 0.16797 0.095703 0.2793 0.32227 0.03516 0.19727-0.25586-0.058594-0.35156-0.26367-0.16602z"/>
<path d="m23.732 17.059-0.26953 0.33789 0.08984 0.44922 0.51758 0.1582 0.31445-0.42773-0.1582-0.47266z"/>
<path d="m1.541 17.148-0.32812 0.0957-0.11914 0.23438-0.00781 0.25 0.25195 0.16602 0.33789 0.01758 0.12891-0.32422-0.058594-0.25586z"/>
<path d="m30.395 17.191-0.26172 0.12109-0.06836 0.37695 0.27344 0.20703 0.2832-0.02344 0.23438-0.29102-0.14844-0.33789z"/>
<path d="m18.514 17.271-0.28711 0.125-0.23047 0.2207 0.20898 0.32031 0.23242-0.04102 0.28516 0.08008 0.21094-0.24609-0.09961-0.30664z"/>
<path d="m28.448 17.683-0.6043 0.35801 0.21836 0.63984 0.69316 0.01014 0.2082-0.62461z"/>
<path d="m12.521 17.951-0.46211 0.01777-0.25644 0.31484-0.13203 0.3961 0.43672 0.24121 0.24375-0.18535 0.37578-0.08125 0.09395-0.41133z"/>
<path d="m9.5314 17.988-0.40879 0.20566-0.14727 0.29199 0.20566 0.26406 0.40879 0.29199 0.23359-0.20566 0.17773-0.26152-0.060938-0.49766z"/>
<path d="m20.767 18.182-0.63223 0.12949-0.13711 0.63223 0.39356 0.40117 0.59414-0.04571 0.28438-0.64238z"/>
<path d="m22.346 18.414-0.47734 0.08125-0.14727 0.45449 0.25644 0.32246 0.35801 0.10664 0.39356-0.30469-0.08887-0.43926z"/>
<path d="m3.9813 18.429-0.27676 0.14219-0.23359 0.21328-0.060937 0.49766 0.37578 0.18281 0.44688-0.10157 0.21074-0.24883-0.13457-0.30469z"/>
<path d="m25.722 18.768-0.4291 0.12696-0.15234 0.30469-0.01014 0.32246 0.32754 0.21582 0.43672 0.02285 0.17012-0.42148-0.07871-0.33262z"/>
<path d="m6.9911 18.834-0.34023 0.03554-0.26914 0.23613 0.073633 0.43926 0.28438 0.19043 0.31992 0.04824 0.25391-0.29961 0.076172-0.43164z"/>
<path d="m14.672 18.864-0.34531 0.24375 0.03047 0.41895 0.35801 0.29199 0.40117-0.06601 0.36055-0.2082-0.16504-0.46973-0.30469-0.02285z"/>
<path d="m30.623 19.036-0.32754 0.26152-0.03554 0.45957 0.28184 0.29199 0.37578 0.18027 0.29199-0.40371-0.15488-0.26406-0.03554-0.3834z"/>
<path d="m17.439 19.189-0.45449 0.20566-0.02032 0.44434 0.23359 0.28691 0.48242 0.03554 0.25391-0.40879-0.17266-0.3707z"/>
<path d="m1.8707 19.721-0.40371 0.11172-0.2666 0.3707 0.00762 0.32754 0.30215 0.13711 0.49766 0.06855 0.11426-0.28945 0.033008-0.31484z"/>
<path d="m23.36 20.515-0.38848 0.05586-0.34531 0.27168 0.15234 0.4291 0.2793 0.19805 0.35801 0.0026 0.23613-0.37832-0.08633-0.33008z"/>
<path d="m9.6393 20.887-0.40625 0.20566-0.16504 0.29961 0.040625 0.35547 0.40371 0.19043 0.31738-0.12696 0.22344-0.23359-0.10156-0.38086z"/>
<path d="m27.221 20.96-0.39102 0.12696-0.22852 0.29707 0.14726 0.4748 0.4418 0.07363 0.3123-0.19805 0.09395-0.47481z"/>
<path d="m11.343 21.019-0.44434 0.23106 0.06348 0.41387 0.3377 0.30977 0.325 0.03301 0.17266-0.28438 0.12949-0.4875-0.27422-0.14473z"/>
<path d="m6.3715 21.559-0.34785 0.08378-0.13965 0.42148 0.1625 0.30215 0.26152 0.19043 0.36309-0.14473 0.26914-0.35039-0.24883-0.37832z"/>
<path d="m19.068 21.891-0.43164 0.55606 0.37578 0.58144 0.64746 0.02539 0.28184-0.58144-0.28438-0.48242z"/>
<path d="m14.003 22.286-0.2666 0.36816-0.0051 0.34277 0.20312 0.29453 0.44434-0.01777 0.22344-0.26152 0.08633-0.30977-0.26662-0.28946z"/>
<path d="m2.5188 22.473-0.4291 0.55605 0.37324 0.58144 0.64746 0.02539 0.28438-0.58144-0.28691-0.48242z"/>
<path d="m30.333 23.396-0.30723 0.39102 0.19043 0.40371 0.34023 0.14473 0.44434-0.19297 0.03301-0.47734-0.325-0.25137z"/>
<path d="m27.034 24.313-0.6043 0.36055 0.21582 0.63984 0.6957 0.01014 0.2082-0.62461z"/>
<path d="m16.717 25.177-0.27676 0.14219-0.23359 0.21328-0.06093 0.49766 0.37578 0.18281 0.44688-0.10157 0.21328-0.24883-0.13711-0.30469z"/>
<path d="m21.131 26.318-0.47734 0.08125-0.14727 0.45703 0.25644 0.31992 0.35801 0.10917 0.39356-0.30723-0.08633-0.43672z"/>
<path d="m5.7312 26.462-0.52812 0.4418 0.050782 0.64492 0.61191 0.21074 0.44434-0.34277 0.027929-0.59414z"/>
<path d="m1.7712 27.964-0.31992 0.02792-0.1752 0.35293 0.027929 0.43672 0.43926 0.11679 0.32246-0.11679 0.20312-0.29199-0.1752-0.40879z"/>
<path d="m23.893 28.478-0.22344 0.38594 0.07363 0.36309 0.41133 0.25391 0.41133-0.24375 0.02032-0.40879-0.19805-0.31992z"/>
<path d="m13.108 28.717-0.26406 0.6373 0.34531 0.5459 0.63984-0.09649 0.23613-0.51035-0.25391-0.53828z"/>
<path d="m9.9846 28.869-0.65508 0.027924-0.17773 0.61953 0.55098 0.43672 0.52051-0.4291z"/>
<path d="m0.69763 15.226-0.20312 0.14648 0.04492 0.25391 0.17383 0.3457 0.23242-0.05664 0.21484-0.11719 0.13672-0.35938-0.24805-0.20508z"/>
<path d="m4.9986 15.234-0.21289 0.11133-0.17969 0.16406-0.04687 0.38086 0.28906 0.14258 0.34375-0.07812 0.16211-0.19141-0.10352-0.23438z"/>
<path d="m3.2676 15.609-0.51953 0.11133-0.19531 0.45898 0.33984 0.36133 0.42774-0.07422 0.23047-0.39648z"/>
<path d="m1.996 15.375-0.28711 0.125-0.23047 0.2207 0.20898 0.32031 0.23242-0.04102 0.28516 0.08008 0.21094-0.24609-0.09961-0.30664z"/>
<path d="m9.5767 14.489-0.25195 0.20117-0.02734 0.35547 0.2168 0.22461 0.28906 0.13672 0.22461-0.31055-0.11914-0.20117-0.02734-0.29492z"/>
<path d="m12.15 14.595-0.24609 0.23633 0.0039 0.26367 0.10742 0.22461 0.30078 0.0293 0.30859-0.14062-0.03711-0.34766-0.17188-0.19922z"/>
<path d="m7.8448 15.216-0.29492 0.22656 0.0625 0.36328 0.28906 0.125 0.2832-0.05469 0.1582-0.34766-0.2168-0.26758z"/>
<path d="m6.6048 15.292-0.24609 0.17773-0.13672 0.30859 0.25781 0.23633 0.26172 0.03516 0.24219-0.12695 0.02734-0.33984-0.17773-0.19531z"/>
<path d="m29.783 14.968-0.25195 0.20117-0.02734 0.35547 0.2168 0.22461 0.28906 0.13672 0.22461-0.31055-0.11914-0.20117-0.02734-0.29492z"/>
<path d="m31.463 15.31-0.24609 0.23633 0.0039 0.26367 0.10742 0.22461 0.30078 0.0293 0.30859-0.14062-0.03711-0.34766-0.17188-0.19922z"/>
<path d="m28.171 15.503-0.29492 0.22656 0.0625 0.36328 0.28906 0.125 0.2832-0.05469 0.1582-0.34766-0.2168-0.26758z"/>
<path d="m26.931 15.579-0.24609 0.17773-0.13672 0.30859 0.25781 0.23633 0.26172 0.03516 0.24219-0.12695 0.02734-0.33984-0.17773-0.19531z"/>
<path d="m21.259 14.454-0.17188 0.29492 0.05664 0.2793 0.31641 0.19726 0.31836-0.18945 0.01563-0.31445-0.15234-0.24414z"/>
<path d="m19.682 14.943-0.20312 0.14648 0.04492 0.25391 0.17383 0.3457 0.23242-0.05664 0.21484-0.11719 0.13672-0.35938-0.24805-0.20508z"/>
<path d="m23.983 14.951-0.21289 0.11133-0.17969 0.16406-0.04687 0.38086 0.28906 0.14258 0.34375-0.07812 0.16211-0.19141-0.10352-0.23438z"/>
<path d="m22.252 15.326-0.51953 0.11133-0.19531 0.45898 0.33984 0.36133 0.42774-0.07422 0.23047-0.39648z"/>
<path d="m20.477 15.763-0.28711 0.125-0.23047 0.2207 0.20898 0.32031 0.23242-0.04102 0.28516 0.08008 0.21094-0.24609-0.09961-0.30664z"/>
<path d="m15.986 15.029-0.17188 0.29492 0.05664 0.2793 0.31641 0.19726 0.31836-0.18945 0.01563-0.31445-0.15234-0.24414z"/>
<path d="m14.408 15.518-0.20312 0.14648 0.04492 0.25391 0.17383 0.3457 0.23242-0.05664 0.21484-0.11719 0.13672-0.35938-0.24805-0.20508z"/>
<path d="m18.709 15.526-0.21289 0.11133-0.17969 0.16406-0.04687 0.38086 0.28906 0.14258 0.34375-0.07812 0.16211-0.19141-0.10352-0.23438z"/>
<path d="m16.978 15.901-0.51953 0.11133-0.19531 0.45898 0.33984 0.36133 0.42774-0.07422 0.23047-0.39648z"/>
<path d="m15.203 16.338-0.28711 0.125-0.23047 0.2207 0.20898 0.32031 0.23242-0.04102 0.28516 0.08008 0.21094-0.24609-0.09961-0.30664z"/>
<path d="m10.449 14.813-0.17188 0.29492 0.05664 0.2793 0.31641 0.19726 0.31836-0.18945 0.01563-0.31445-0.15234-0.24414z"/>
<path d="m9.0428 15.454-0.20312 0.14648 0.04492 0.25391 0.17383 0.3457 0.23242-0.05664 0.21484-0.11719 0.13672-0.35938-0.24805-0.20508z"/>
<path d="m13.244 15.574-0.21289 0.11133-0.17969 0.16406-0.04687 0.38086 0.28906 0.14258 0.34375-0.07812 0.16211-0.19141-0.10352-0.23438z"/>
<path d="m11.263 15.973-0.51953 0.11133-0.19531 0.45898 0.33984 0.36133 0.42774-0.07422 0.23047-0.39648z"/>
<path d="m9.7382 16.386-0.28711 0.125-0.23047 0.2207 0.20898 0.32031 0.23242-0.04102 0.28516 0.08008 0.21094-0.24609-0.09961-0.30664z"/>
<path d="m23.464 15.999-0.52148 0.12109-0.04102 0.50391 0.45703 0.19141 0.38476-0.37891z"/>
<path d="m25.599 15.388-0.52148 0.12109-0.04102 0.50391 0.45703 0.19141 0.38476-0.37891z"/>
<path d="m8.3111 16.473-0.52148 0.12109-0.04102 0.50391 0.45703 0.19141 0.38476-0.37891z"/>
<path d="m7.1247 17.083-0.52148 0.12109-0.04102 0.50391 0.45703 0.19141 0.38476-0.37891z"/>
<path d="m18.305 14.719-0.29492 0.22656 0.0625 0.36328 0.28906 0.125 0.2832-0.05469 0.1582-0.34766-0.2168-0.26758z"/>
<path d="m17.113 15.007-0.24609 0.17773-0.13672 0.30859 0.25781 0.23633 0.26172 0.03516 0.24219-0.12695 0.02734-0.33984-0.17773-0.19531z"/>
<path d="m19.223 15.655-0.20312 0.14648 0.04492 0.25391 0.17383 0.3457 0.23242-0.05664 0.21484-0.11719 0.13672-0.35938-0.24805-0.20508z"/>
<path d="m11.95 15.585-0.29492 0.22656 0.0625 0.36328 0.28906 0.125 0.2832-0.05469 0.1582-0.34766-0.2168-0.26758z"/>
<path d="m11.405 14.2-0.24609 0.17773-0.13672 0.30859 0.25781 0.23633 0.26172 0.03516 0.24219-0.12695 0.02734-0.33984-0.17773-0.19531z"/>
<path d="m13.253 14.703-0.20312 0.14648 0.04492 0.25391 0.17383 0.3457 0.23242-0.05664 0.21484-0.11719 0.13672-0.35938-0.24805-0.20508z"/>
<path d="m10.345 15.473-0.52148 0.12109-0.04102 0.50391 0.45703 0.19141 0.38476-0.37891z"/>
<path d="m6.9902 16.09-0.14258 0.35547 0.16406 0.16797 0.095703 0.2793 0.32227 0.03516 0.19727-0.25586-0.058594-0.35156-0.26367-0.16602z"/>
<path d="m15.244 15.496-0.14258 0.35547 0.16406 0.16797 0.0957 0.2793 0.32227 0.03516 0.19727-0.25586-0.05859-0.35156-0.26367-0.16602z"/>
<path d="m4.0658 15.224-0.28711 0.125-0.23047 0.2207 0.20898 0.32031 0.23242-0.04102 0.28516 0.08008 0.21094-0.24609-0.09961-0.30664z"/>
<path d="m4.0787 16.177-0.32812 0.0957-0.11914 0.23438-0.00781 0.25 0.25195 0.16602 0.33789 0.01758 0.12891-0.32422-0.058594-0.25586z"/>
<path d="m5.7163 14.979-0.24609 0.23633 0.0039 0.26367 0.10742 0.22461 0.30078 0.0293 0.30859-0.14062-0.03711-0.34766-0.17188-0.19922z"/>
<path d="m4.8692 16.106-0.17188 0.29492 0.056641 0.2793 0.31641 0.19726 0.31836-0.18945 0.015625-0.31445-0.15234-0.24414z"/>
<path d="m21.186 16.405-0.30078 0.0957-0.17383 0.23047 0.11328 0.36523 0.33789 0.05664 0.24023-0.15234 0.07227-0.36523z"/>
<path d="m24.148 15.866-0.17188 0.29492 0.05664 0.2793 0.31641 0.19726 0.31836-0.18945 0.01563-0.31445-0.15234-0.24414z"/>
<path d="m26.317 15.989-0.32227 0.04492-0.12891 0.29492 0.14062 0.32812 0.29688 0.09766 0.31836-0.01367 0.05469-0.37891-0.19922-0.12305z"/>
<path d="m23.134 14.986-0.3418 0.02734-0.19727 0.20508 0.01563 0.37109 0.33594 0.1543 0.26758-0.16602 0.11719-0.26367z"/>
<path d="m21.007 15.17-0.25195 0.20117-0.02734 0.35547 0.2168 0.22461 0.28906 0.13672 0.22461-0.31055-0.11914-0.20117-0.02734-0.29492z"/>
<path d="m29.094 15.679-0.29492 0.22656 0.0625 0.36328 0.28906 0.125 0.2832-0.05469 0.1582-0.34766-0.2168-0.26758z"/>
<path d="m28.473 16.453-0.30078 0.0957-0.17383 0.23047 0.11328 0.36523 0.33789 0.05664 0.24023-0.15234 0.07227-0.36523z"/>
<path d="m30.774 15.159-0.30078 0.0957-0.17383 0.23047 0.11328 0.36523 0.33789 0.05664 0.24023-0.15234 0.07227-0.36523z"/>
<path d="m26.487 14.821-0.28711 0.125-0.23047 0.2207 0.20898 0.32031 0.23242-0.04102 0.28516 0.08008 0.21094-0.24609-0.09961-0.30664z"/>
<path d="m17.786 15.612-0.28711 0.125-0.23047 0.2207 0.20898 0.32031 0.23242-0.04102 0.28516 0.08008 0.21094-0.24609-0.09961-0.30664z"/>
<path d="m8.5101 15.708-0.28711 0.125-0.23047 0.2207 0.20898 0.32031 0.23242-0.04102 0.28516 0.08008 0.21094-0.24609-0.09961-0.30664z"/>
<path d="m28.932 14.845-0.28711 0.125-0.23047 0.2207 0.20898 0.32031 0.23242-0.04102 0.28516 0.08008 0.21094-0.24609-0.09961-0.30664z"/>
<path d="m13.975 16.043-0.28711 0.125-0.23047 0.2207 0.20898 0.32031 0.23242-0.04102 0.28516 0.08008 0.21094-0.24609-0.09961-0.30664z"/>
<path d="m13.716 15.276-0.24609 0.23633 0.0039 0.26367 0.10742 0.22461 0.30078 0.0293 0.30859-0.14062-0.03711-0.34766-0.17188-0.19922z"/>
<path d="m5.998 15.851-0.24609 0.23633 0.0039 0.26367 0.10742 0.22461 0.30078 0.0293 0.30859-0.14062-0.03711-0.34766-0.17188-0.19922z"/>
<path d="m30.319 15.998-0.30078 0.0957-0.17383 0.23047 0.11328 0.36523 0.33789 0.05664 0.24023-0.15234 0.07227-0.36523z"/>
<path d="m1.0967 16.02-0.21289 0.11133-0.17969 0.16406-0.04687 0.38086 0.28906 0.14258 0.34375-0.07812 0.16211-0.19141-0.10352-0.23438z"/>
<path d="m1.7839 16.202-0.17188 0.29492 0.056641 0.2793 0.31641 0.19726 0.31836-0.18945 0.015625-0.31445-0.15234-0.24414z"/>
</svg>
