<?xml version="1.0" encoding="UTF-8"?>
<svg version="1.1" viewBox="0 0 512 512" xmlns="http://www.w3.org/2000/svg" xmlns:xlink="http://www.w3.org/1999/xlink">
<defs>
<g id="e" transform="matrix(.125 0 0 .125 -.6094 -1.2188)">
<path d="m9 6.75 0.5 5.75-5.75 1.75-3.5-4.25 3-4.75z"/>
</g>
<g id="b" transform="matrix(.125 0 0 .125 -.6094 -1.2188)">
<path d="m8.75 6.0022 1.75 5.25-3.5 4.75-5.75-1.75-1-5 3-3.75z"/>
</g>
<g id="a" transform="matrix(.125 0 0 .125 -.6094 -1.2188)">
<path d="m8.5 8.0022 0.25 4.25-2.5 2-3.5 0.25-2.5-3.25 1.75-3.75 3-1z"/>
</g>
<g id="c" transform="matrix(.125 0 0 .125 -.6094 -1.2188)">
<path d="m8.5 6.5022 1.5 3.5-1.75 2.5-2.75 1-3.75-1-0.25-3.75 1.5-3 2.75-0.25z"/>
</g>
<g id="f" transform="matrix(.125 0 0 .125 -.6094 -1.2188)">
<path d="m9.75 6 0.5 4.25-1.5 2.25-2 1.75-3.5-2.5-1.75-2.25 1.25-2.5 3.5-1.75z"/>
</g>
<g id="d" transform="matrix(.125 0 0 .125 -.6094 -1.2188)">
<path d="m10.25 5 1.75 3-1.25 3.75-3.25 1.5-3-2 0.5-3.25-0.75-2.5 3.25-2.75z"/>
</g>
</defs>
<use transform="matrix(12.15,0,0,12.15,-1427.2,-1171.2)" x="120.90295" y="96.005554" width="100%" height="100%" fill="#000000" fill-opacity=".26556" xlink:href="#f"/>
<use transform="matrix(12.15,0,0,12.15,-1427.2,-1171.2)" x="137.62257" y="95.749603" width="100%" height="100%" fill="#000000" fill-opacity=".26556" xlink:href="#b"/>
<use transform="matrix(12.15,0,0,12.15,-1427.2,-1171.2)" x="154.23885" y="97.114662" width="100%" height="100%" fill="#000000" fill-opacity=".26556" xlink:href="#d"/>
<use transform="matrix(12.15,0,0,12.15,-1427.2,-1171.2)" x="119.34997" y="98.262199" width="100%" height="100%" fill="#000000" fill-opacity=".26556" xlink:href="#a"/>
<use transform="matrix(12.15,0,0,12.15,-1427.2,-1171.2)" x="125.66807" y="96.222946" width="100%" height="100%" fill="#000000" fill-opacity=".26556" xlink:href="#c"/>
<use transform="matrix(12.15,0,0,12.15,-1427.2,-1171.2)" x="128.31076" y="97.930191" width="100%" height="100%" fill="#000000" fill-opacity=".26556" xlink:href="#f"/>
<use transform="matrix(12.15,0,0,12.15,-1427.2,-1171.2)" x="130.49557" y="99.391289" width="100%" height="100%" fill="#000000" fill-opacity=".26556" xlink:href="#a"/>
<use transform="matrix(12.15,0,0,12.15,-1427.2,-1171.2)" x="133.5849" y="97.331429" width="100%" height="100%" fill="#000000" fill-opacity=".26556" xlink:href="#e"/>
<use transform="matrix(12.15,0,0,12.15,-1427.2,-1171.2)" x="138.42416" y="98.306839" width="100%" height="100%" fill="#000000" fill-opacity=".26556" xlink:href="#b"/>
<use transform="matrix(12.15,0,0,12.15,-1427.2,-1171.2)" x="140.99962" y="100.34724" width="100%" height="100%" fill="#000000" fill-opacity=".26556" xlink:href="#a"/>
<use transform="matrix(12.15,0,0,12.15,-1427.2,-1171.2)" x="142.50842" y="97.284515" width="100%" height="100%" fill="#000000" fill-opacity=".26556" xlink:href="#e"/>
<use transform="matrix(12.15,0,0,12.15,-1427.2,-1171.2)" x="146.40904" y="98.77607" width="100%" height="100%" fill="#000000" fill-opacity=".26556" xlink:href="#c"/>
<use transform="matrix(12.15,0,0,12.15,-1427.2,-1171.2)" x="150.22801" y="97.685104" width="100%" height="100%" fill="#000000" fill-opacity=".26556" xlink:href="#b"/>
<use transform="matrix(12.15,0,0,12.15,-1427.2,-1171.2)" x="157.09151" y="98.82164" width="100%" height="100%" fill="#000000" fill-opacity=".26556" xlink:href="#f"/>
<use transform="matrix(12.15,0,0,12.15,-1427.2,-1171.2)" x="159.39636" y="96.707108" width="100%" height="100%" fill="#000000" fill-opacity=".26556" xlink:href="#d"/>
<use transform="matrix(12.15,0,0,12.15,-1427.2,-1171.2)" x="118.74794" y="101.84313" width="100%" height="100%" fill="#000000" fill-opacity=".26556" xlink:href="#d"/>
<use transform="matrix(12.15,0,0,12.15,-1427.2,-1171.2)" x="122.04783" y="100.68491" width="100%" height="100%" fill="#000000" fill-opacity=".26556" xlink:href="#b"/>
<use transform="matrix(12.15,0,0,12.15,-1427.2,-1171.2)" x="124.52511" y="99.214638" width="100%" height="100%" fill="#000000" fill-opacity=".26556" xlink:href="#b"/>
<use transform="matrix(12.15,0,0,12.15,-1427.2,-1171.2)" x="126.73933" y="101.45813" width="100%" height="100%" fill="#000000" fill-opacity=".26556" xlink:href="#a"/>
<use transform="matrix(12.15,0,0,12.15,-1427.2,-1171.2)" x="131.28659" y="101.9193" width="100%" height="100%" fill="#000000" fill-opacity=".26556" xlink:href="#c"/>
<use transform="matrix(12.15,0,0,12.15,-1427.2,-1171.2)" x="134.66664" y="100.66965" width="100%" height="100%" fill="#000000" fill-opacity=".26556" xlink:href="#c"/>
<use transform="matrix(12.15,0,0,12.15,-1427.2,-1171.2)" x="137.96805" y="101.9992" width="100%" height="100%" fill="#000000" fill-opacity=".26556" xlink:href="#a"/>
<use transform="matrix(12.15,0,0,12.15,-1427.2,-1171.2)" x="142.10258" y="102.42794" width="100%" height="100%" fill="#000000" fill-opacity=".26556" xlink:href="#f"/>
<use transform="matrix(12.15,0,0,12.15,-1427.2,-1171.2)" x="145.20082" y="101.54934" width="100%" height="100%" fill="#000000" fill-opacity=".26556" xlink:href="#a"/>
<use transform="matrix(12.15,0,0,12.15,-1427.2,-1171.2)" x="149.20436" y="100.45832" width="100%" height="100%" fill="#000000" fill-opacity=".26556" xlink:href="#c"/>
<use transform="matrix(12.15,0,0,12.15,-1427.2,-1171.2)" x="152.51355" y="100.78845" width="100%" height="100%" fill="#000000" fill-opacity=".26556" xlink:href="#b"/>
<use transform="matrix(12.15,0,0,12.15,-1427.2,-1171.2)" x="155.01756" y="101.51714" width="100%" height="100%" fill="#000000" fill-opacity=".26556" xlink:href="#d"/>
<use transform="matrix(12.15,0,0,12.15,-1427.2,-1171.2)" x="158.05406" y="102.25105" width="100%" height="100%" fill="#000000" fill-opacity=".26556" xlink:href="#c"/>
<use transform="matrix(12.15,0,0,12.15,-1427.2,-1171.2)" x="118.78257" y="104.76569" width="100%" height="100%" fill="#000000" fill-opacity=".26556" xlink:href="#f"/>
<use transform="matrix(12.15,0,0,12.15,-1427.2,-1171.2)" x="123.46237" y="103.58443" width="100%" height="100%" fill="#000000" fill-opacity=".26556" xlink:href="#a"/>
<use transform="matrix(12.15,0,0,12.15,-1427.2,-1171.2)" x="126.39246" y="104.1925" width="100%" height="100%" fill="#000000" fill-opacity=".26556" xlink:href="#c"/>
<use transform="matrix(12.15,0,0,12.15,-1427.2,-1171.2)" x="128.66719" y="105.96146" width="100%" height="100%" fill="#000000" fill-opacity=".26556" xlink:href="#b"/>
<use transform="matrix(12.15,0,0,12.15,-1427.2,-1171.2)" x="131.58354" y="105.06681" width="100%" height="100%" fill="#000000" fill-opacity=".26556" xlink:href="#b"/>
<use transform="matrix(12.15,0,0,12.15,-1427.2,-1171.2)" x="134.37782" y="104.50793" width="100%" height="100%" fill="#000000" fill-opacity=".26556" xlink:href="#c"/>
<use transform="matrix(12.15,0,0,12.15,-1427.2,-1171.2)" x="137.28362" y="104.79842" width="100%" height="100%" fill="#000000" fill-opacity=".26556" xlink:href="#a"/>
<use transform="matrix(12.15,0,0,12.15,-1427.2,-1171.2)" x="141.24622" y="105.18542" width="100%" height="100%" fill="#000000" fill-opacity=".26556" xlink:href="#e"/>
<use transform="matrix(12.15,0,0,12.15,-1427.2,-1171.2)" x="145.48068" y="104.73341" width="100%" height="100%" fill="#000000" fill-opacity=".26556" xlink:href="#a"/>
<use transform="matrix(12.15,0,0,12.15,-1427.2,-1171.2)" x="148.97968" y="103.14344" width="100%" height="100%" fill="#000000" fill-opacity=".26556" xlink:href="#c"/>
<use transform="matrix(12.15,0,0,12.15,-1427.2,-1171.2)" x="152.46017" y="104.91608" width="100%" height="100%" fill="#000000" fill-opacity=".26556" xlink:href="#c"/>
<use transform="matrix(12.15,0,0,12.15,-1427.2,-1171.2)" x="155.02985" y="105.94326" width="100%" height="100%" fill="#000000" fill-opacity=".26556" xlink:href="#d"/>
<use transform="matrix(12.15,0,0,12.15,-1427.2,-1171.2)" x="158.09113" y="105.25952" width="100%" height="100%" fill="#000000" fill-opacity=".26556" xlink:href="#a"/>
<use transform="matrix(12.15,0,0,12.15,-1427.2,-1171.2)" x="117.91236" y="109.31924" width="100%" height="100%" fill="#000000" fill-opacity=".26556" xlink:href="#e"/>
<use transform="matrix(12.15,0,0,12.15,-1427.2,-1171.2)" x="121.47631" y="106.66625" width="100%" height="100%" fill="#000000" fill-opacity=".26556" xlink:href="#b"/>
<use transform="matrix(12.15,0,0,12.15,-1427.2,-1171.2)" x="124.43446" y="107.47383" width="100%" height="100%" fill="#000000" fill-opacity=".26556" xlink:href="#a"/>
<use transform="matrix(12.15,0,0,12.15,-1427.2,-1171.2)" x="128.01222" y="109.35715" width="100%" height="100%" fill="#000000" fill-opacity=".26556" xlink:href="#e"/>
<use transform="matrix(12.15,0,0,12.15,-1427.2,-1171.2)" x="131.05318" y="107.89032" width="100%" height="100%" fill="#000000" fill-opacity=".26556" xlink:href="#f"/>
<use transform="matrix(12.15,0,0,12.15,-1427.2,-1171.2)" x="134.78969" y="108.67075" width="100%" height="100%" fill="#000000" fill-opacity=".26556" xlink:href="#d"/>
<use transform="matrix(12.15,0,0,12.15,-1427.2,-1171.2)" x="138.28072" y="108.22878" width="100%" height="100%" fill="#000000" fill-opacity=".26556" xlink:href="#b"/>
<use transform="matrix(12.15,0,0,12.15,-1427.2,-1171.2)" x="141.47168" y="108.33366" width="100%" height="100%" fill="#000000" fill-opacity=".26556" xlink:href="#f"/>
<use transform="matrix(12.15,0,0,12.15,-1427.2,-1171.2)" x="144.84451" y="107.36208" width="100%" height="100%" fill="#000000" fill-opacity=".26556" xlink:href="#d"/>
<use transform="matrix(12.15,0,0,12.15,-1427.2,-1171.2)" x="148.94505" y="106.363" width="100%" height="100%" fill="#000000" fill-opacity=".26556" xlink:href="#a"/>
<use transform="matrix(12.15,0,0,12.15,-1427.2,-1171.2)" x="150.45647" y="108.08868" width="100%" height="100%" fill="#000000" fill-opacity=".26556" xlink:href="#e"/>
<use transform="matrix(12.15,0,0,12.15,-1427.2,-1171.2)" x="154.09714" y="109.18745" width="100%" height="100%" fill="#000000" fill-opacity=".26556" xlink:href="#a"/>
<use transform="matrix(12.15,0,0,12.15,-1427.2,-1171.2)" x="158.37193" y="108.7652" width="100%" height="100%" fill="#000000" fill-opacity=".26556" xlink:href="#d"/>
<use transform="matrix(12.15,0,0,12.15,-1427.2,-1171.2)" x="119.94667" y="112.69727" width="100%" height="100%" fill="#000000" fill-opacity=".26556" xlink:href="#a"/>
<use transform="matrix(12.15,0,0,12.15,-1427.2,-1171.2)" x="120.51086" y="109.61768" width="100%" height="100%" fill="#000000" fill-opacity=".26556" xlink:href="#c"/>
<use transform="matrix(12.15,0,0,12.15,-1427.2,-1171.2)" x="123.60388" y="111.15119" width="100%" height="100%" fill="#000000" fill-opacity=".26556" xlink:href="#c"/>
<use transform="matrix(12.15,0,0,12.15,-1427.2,-1171.2)" x="127.49202" y="111.94306" width="100%" height="100%" fill="#000000" fill-opacity=".26556" xlink:href="#f"/>
<use transform="matrix(12.15,0,0,12.15,-1427.2,-1171.2)" x="131.60263" y="111.01703" width="100%" height="100%" fill="#000000" fill-opacity=".26556" xlink:href="#d"/>
<use transform="matrix(12.15,0,0,12.15,-1427.2,-1171.2)" x="134.77425" y="112.39258" width="100%" height="100%" fill="#000000" fill-opacity=".26556" xlink:href="#d"/>
<use transform="matrix(12.15,0,0,12.15,-1427.2,-1171.2)" x="138.13007" y="111.57397" width="100%" height="100%" fill="#000000" fill-opacity=".26556" xlink:href="#d"/>
<use transform="matrix(12.15,0,0,12.15,-1427.2,-1171.2)" x="141.43149" y="111.63674" width="100%" height="100%" fill="#000000" fill-opacity=".26556" xlink:href="#f"/>
<use transform="matrix(12.15,0,0,12.15,-1427.2,-1171.2)" x="144.03778" y="112.68076" width="100%" height="100%" fill="#000000" fill-opacity=".26556" xlink:href="#b"/>
<use transform="matrix(12.15,0,0,12.15,-1427.2,-1171.2)" x="146.12511" y="109.80402" width="100%" height="100%" fill="#000000" fill-opacity=".26556" xlink:href="#d"/>
<use transform="matrix(12.15,0,0,12.15,-1427.2,-1171.2)" x="150.50467" y="110.99332" width="100%" height="100%" fill="#000000" fill-opacity=".26556" xlink:href="#a"/>
<use transform="matrix(12.15,0,0,12.15,-1427.2,-1171.2)" x="153.73605" y="112.35545" width="100%" height="100%" fill="#000000" fill-opacity=".26556" xlink:href="#a"/>
<use transform="matrix(12.15,0,0,12.15,-1427.2,-1171.2)" x="157.35988" y="111.34107" width="100%" height="100%" fill="#000000" fill-opacity=".26556" xlink:href="#a"/>
<use transform="matrix(12.15,0,0,12.15,-1427.2,-1171.2)" x="117.44266" y="114.35239" width="100%" height="100%" fill="#000000" fill-opacity=".26556" xlink:href="#b"/>
<use transform="matrix(12.15,0,0,12.15,-1427.2,-1171.2)" x="122.58008" y="115.25027" width="100%" height="100%" fill="#000000" fill-opacity=".26556" xlink:href="#c"/>
<use transform="matrix(12.15,0,0,12.15,-1427.2,-1171.2)" x="125.31435" y="113.89003" width="100%" height="100%" fill="#000000" fill-opacity=".26556" xlink:href="#e"/>
<use transform="matrix(12.15,0,0,12.15,-1427.2,-1171.2)" x="128.58839" y="114.60634" width="100%" height="100%" fill="#000000" fill-opacity=".26556" xlink:href="#b"/>
<use transform="matrix(12.15,0,0,12.15,-1427.2,-1171.2)" x="131.38876" y="115.88406" width="100%" height="100%" fill="#000000" fill-opacity=".26556" xlink:href="#e"/>
<use transform="matrix(12.15,0,0,12.15,-1427.2,-1171.2)" x="134.23853" y="115.13359" width="100%" height="100%" fill="#000000" fill-opacity=".26556" xlink:href="#e"/>
<use transform="matrix(12.15,0,0,12.15,-1427.2,-1171.2)" x="138.53276" y="114.29962" width="100%" height="100%" fill="#000000" fill-opacity=".26556" xlink:href="#b"/>
<use transform="matrix(12.15,0,0,12.15,-1427.2,-1171.2)" x="142.23592" y="115.27425" width="100%" height="100%" fill="#000000" fill-opacity=".26556" xlink:href="#c"/>
<use transform="matrix(12.15,0,0,12.15,-1427.2,-1171.2)" x="147.32957" y="112.51703" width="100%" height="100%" fill="#000000" fill-opacity=".26556" xlink:href="#b"/>
<use transform="matrix(12.15,0,0,12.15,-1427.2,-1171.2)" x="147.05067" y="115.05375" width="100%" height="100%" fill="#000000" fill-opacity=".26556" xlink:href="#d"/>
<use transform="matrix(12.15,0,0,12.15,-1427.2,-1171.2)" x="150.89952" y="114.95612" width="100%" height="100%" fill="#000000" fill-opacity=".26556" xlink:href="#f"/>
<use transform="matrix(12.15,0,0,12.15,-1427.2,-1171.2)" x="155.03984" y="114.64532" width="100%" height="100%" fill="#000000" fill-opacity=".26556" xlink:href="#d"/>
<use transform="matrix(12.15,0,0,12.15,-1427.2,-1171.2)" x="158.8938" y="114.71889" width="100%" height="100%" fill="#000000" fill-opacity=".26556" xlink:href="#d"/>
<use transform="matrix(12.15,0,0,12.15,-1427.2,-1171.2)" x="117.77981" y="117.13618" width="100%" height="100%" fill="#000000" fill-opacity=".26556" xlink:href="#b"/>
<use transform="matrix(12.15,0,0,12.15,-1427.2,-1171.2)" x="120.96884" y="117.60342" width="100%" height="100%" fill="#000000" fill-opacity=".26556" xlink:href="#b"/>
<use transform="matrix(12.15,0,0,12.15,-1427.2,-1171.2)" x="124.65038" y="117.82409" width="100%" height="100%" fill="#000000" fill-opacity=".26556" xlink:href="#b"/>
<use transform="matrix(12.15,0,0,12.15,-1427.2,-1171.2)" x="127.77642" y="118.01665" width="100%" height="100%" fill="#000000" fill-opacity=".26556" xlink:href="#a"/>
<use transform="matrix(12.15,0,0,12.15,-1427.2,-1171.2)" x="131.4575" y="119.02104" width="100%" height="100%" fill="#000000" fill-opacity=".26556" xlink:href="#a"/>
<use transform="matrix(12.15,0,0,12.15,-1427.2,-1171.2)" x="136.09782" y="117.60616" width="100%" height="100%" fill="#000000" fill-opacity=".26556" xlink:href="#b"/>
<use transform="matrix(12.15,0,0,12.15,-1427.2,-1171.2)" x="139.30055" y="117.45267" width="100%" height="100%" fill="#000000" fill-opacity=".26556" xlink:href="#d"/>
<use transform="matrix(12.15,0,0,12.15,-1427.2,-1171.2)" x="140.5182" y="119.67085" width="100%" height="100%" fill="#000000" fill-opacity=".26556" xlink:href="#e"/>
<use transform="matrix(12.15,0,0,12.15,-1427.2,-1171.2)" x="144.1077" y="117.5456" width="100%" height="100%" fill="#000000" fill-opacity=".26556" xlink:href="#f"/>
<use transform="matrix(12.15,0,0,12.15,-1427.2,-1171.2)" x="147.2803" y="117.86355" width="100%" height="100%" fill="#000000" fill-opacity=".26556" xlink:href="#c"/>
<use transform="matrix(12.15,0,0,12.15,-1427.2,-1171.2)" x="152.08655" y="118.13628" width="100%" height="100%" fill="#000000" fill-opacity=".26556" xlink:href="#d"/>
<use transform="matrix(12.15,0,0,12.15,-1427.2,-1171.2)" x="155.18265" y="117.11292" width="100%" height="100%" fill="#000000" fill-opacity=".26556" xlink:href="#b"/>
<use transform="matrix(12.15,0,0,12.15,-1427.2,-1171.2)" x="157.63936" y="119.33797" width="100%" height="100%" fill="#000000" fill-opacity=".26556" xlink:href="#a"/>
<use transform="matrix(12.15,0,0,12.15,-1427.2,-1171.2)" x="160.08348" y="118.01643" width="100%" height="100%" fill="#000000" fill-opacity=".26556" xlink:href="#b"/>
<use transform="matrix(12.15,0,0,12.15,-1427.2,-1171.2)" x="120.23541" y="120.69509" width="100%" height="100%" fill="#000000" fill-opacity=".26556" xlink:href="#f"/>
<use transform="matrix(12.15,0,0,12.15,-1427.2,-1171.2)" x="123.69653" y="120.93556" width="100%" height="100%" fill="#000000" fill-opacity=".26556" xlink:href="#c"/>
<use transform="matrix(12.15,0,0,12.15,-1427.2,-1171.2)" x="126.37142" y="122.29296" width="100%" height="100%" fill="#000000" fill-opacity=".26556" xlink:href="#c"/>
<use transform="matrix(12.15,0,0,12.15,-1427.2,-1171.2)" x="129.15262" y="121.30598" width="100%" height="100%" fill="#000000" fill-opacity=".26556" xlink:href="#a"/>
<use transform="matrix(12.15,0,0,12.15,-1427.2,-1171.2)" x="134.13316" y="120.36824" width="100%" height="100%" fill="#000000" fill-opacity=".26556" xlink:href="#c"/>
<use transform="matrix(12.15,0,0,12.15,-1427.2,-1171.2)" x="137.21135" y="121.36905" width="100%" height="100%" fill="#000000" fill-opacity=".26556" xlink:href="#c"/>
<use transform="matrix(12.15,0,0,12.15,-1427.2,-1171.2)" x="142.51244" y="121.24397" width="100%" height="100%" fill="#000000" fill-opacity=".26556" xlink:href="#e"/>
<use transform="matrix(12.15,0,0,12.15,-1427.2,-1171.2)" x="145.40454" y="122.6212" width="100%" height="100%" fill="#000000" fill-opacity=".26556" xlink:href="#e"/>
<use transform="matrix(12.15,0,0,12.15,-1427.2,-1171.2)" x="148.06081" y="120.75615" width="100%" height="100%" fill="#000000" fill-opacity=".26556" xlink:href="#a"/>
<use transform="matrix(12.15,0,0,12.15,-1427.2,-1171.2)" x="150.39856" y="119.90636" width="100%" height="100%" fill="#000000" fill-opacity=".26556" xlink:href="#c"/>
<use transform="matrix(12.15,0,0,12.15,-1427.2,-1171.2)" x="154.08014" y="121.2876" width="100%" height="100%" fill="#000000" fill-opacity=".26556" xlink:href="#d"/>
<use transform="matrix(12.15,0,0,12.15,-1427.2,-1171.2)" x="157.90987" y="122.65662" width="100%" height="100%" fill="#000000" fill-opacity=".26556" xlink:href="#a"/>
<use transform="matrix(12.15,0,0,12.15,-1427.2,-1171.2)" x="118.60365" y="125.07922" width="100%" height="100%" fill="#000000" fill-opacity=".26556" xlink:href="#a"/>
<use transform="matrix(12.15,0,0,12.15,-1427.2,-1171.2)" x="121.66742" y="124.12739" width="100%" height="100%" fill="#000000" fill-opacity=".26556" xlink:href="#d"/>
<use transform="matrix(12.15,0,0,12.15,-1427.2,-1171.2)" x="123.47747" y="125.73708" width="100%" height="100%" fill="#000000" fill-opacity=".26556" xlink:href="#d"/>
<use transform="matrix(12.15,0,0,12.15,-1427.2,-1171.2)" x="126.59095" y="125.55447" width="100%" height="100%" fill="#000000" fill-opacity=".26556" xlink:href="#d"/>
<use transform="matrix(12.15,0,0,12.15,-1427.2,-1171.2)" x="131.1385" y="123.87016" width="100%" height="100%" fill="#000000" fill-opacity=".26556" xlink:href="#a"/>
<use transform="matrix(12.15,0,0,12.15,-1427.2,-1171.2)" x="134.00273" y="123.44553" width="100%" height="100%" fill="#000000" fill-opacity=".26556" xlink:href="#a"/>
<use transform="matrix(12.15,0,0,12.15,-1427.2,-1171.2)" x="138.06975" y="125.35935" width="100%" height="100%" fill="#000000" fill-opacity=".26556" xlink:href="#a"/>
<use transform="matrix(12.15,0,0,12.15,-1427.2,-1171.2)" x="140.78868" y="124.08668" width="100%" height="100%" fill="#000000" fill-opacity=".26556" xlink:href="#c"/>
<use transform="matrix(12.15,0,0,12.15,-1427.2,-1171.2)" x="143.96703" y="125.14568" width="100%" height="100%" fill="#000000" fill-opacity=".26556" xlink:href="#b"/>
<use transform="matrix(12.15,0,0,12.15,-1427.2,-1171.2)" x="148.78998" y="124.04006" width="100%" height="100%" fill="#000000" fill-opacity=".26556" xlink:href="#b"/>
<use transform="matrix(12.15,0,0,12.15,-1427.2,-1171.2)" x="151.93068" y="124.37211" width="100%" height="100%" fill="#000000" fill-opacity=".26556" xlink:href="#e"/>
<use transform="matrix(12.15,0,0,12.15,-1427.2,-1171.2)" x="155.4873" y="124.56106" width="100%" height="100%" fill="#000000" fill-opacity=".26556" xlink:href="#a"/>
<use transform="matrix(12.15,0,0,12.15,-1427.2,-1171.2)" x="156.21657" y="127.01326" width="100%" height="100%" fill="#000000" fill-opacity=".26556" xlink:href="#e"/>
<use transform="matrix(12.15,0,0,12.15,-1427.2,-1171.2)" x="118.4492" y="128.418" width="100%" height="100%" fill="#000000" fill-opacity=".26556" xlink:href="#f"/>
<use transform="matrix(12.15,0,0,12.15,-1427.2,-1171.2)" x="121.47058" y="128.60194" width="100%" height="100%" fill="#000000" fill-opacity=".26556" xlink:href="#d"/>
<use transform="matrix(12.15,0,0,12.15,-1427.2,-1171.2)" x="125.61063" y="128.70512" width="100%" height="100%" fill="#000000" fill-opacity=".26556" xlink:href="#a"/>
<use transform="matrix(12.15,0,0,12.15,-1427.2,-1171.2)" x="129.24193" y="126.70486" width="100%" height="100%" fill="#000000" fill-opacity=".26556" xlink:href="#e"/>
<use transform="matrix(12.15,0,0,12.15,-1427.2,-1171.2)" x="133.64789" y="128.11673" width="100%" height="100%" fill="#000000" fill-opacity=".26556" xlink:href="#d"/>
<use transform="matrix(12.15,0,0,12.15,-1427.2,-1171.2)" x="135.81703" y="125.73069" width="100%" height="100%" fill="#000000" fill-opacity=".26556" xlink:href="#a"/>
<use transform="matrix(12.15,0,0,12.15,-1427.2,-1171.2)" x="137.09261" y="129.2355" width="100%" height="100%" fill="#000000" fill-opacity=".26556" xlink:href="#b"/>
<use transform="matrix(12.15,0,0,12.15,-1427.2,-1171.2)" x="140.23009" y="128.71419" width="100%" height="100%" fill="#000000" fill-opacity=".26556" xlink:href="#e"/>
<use transform="matrix(12.15,0,0,12.15,-1427.2,-1171.2)" x="144.17426" y="127.74873" width="100%" height="100%" fill="#000000" fill-opacity=".26556" xlink:href="#f"/>
<use transform="matrix(12.15,0,0,12.15,-1427.2,-1171.2)" x="148.04735" y="127.01609" width="100%" height="100%" fill="#000000" fill-opacity=".26556" xlink:href="#a"/>
<use transform="matrix(12.15,0,0,12.15,-1427.2,-1171.2)" x="151.59462" y="127.57812" width="100%" height="100%" fill="#000000" fill-opacity=".26556" xlink:href="#b"/>
<use transform="matrix(12.15,0,0,12.15,-1427.2,-1171.2)" x="153.13847" y="129.34221" width="100%" height="100%" fill="#000000" fill-opacity=".26556" xlink:href="#b"/>
<use transform="matrix(12.15,0,0,12.15,-1427.2,-1171.2)" x="156.5743" y="129.83211" width="100%" height="100%" fill="#000000" fill-opacity=".26556" xlink:href="#f"/>
<use transform="matrix(12.15,0,0,12.15,-1427.2,-1171.2)" x="159.58043" y="127.10159" width="100%" height="100%" fill="#000000" fill-opacity=".26556" xlink:href="#c"/>
<use transform="matrix(12.15,0,0,12.15,-1427.2,-1171.2)" x="118.21365" y="131.75682" width="100%" height="100%" fill="#000000" fill-opacity=".26556" xlink:href="#a"/>
<use transform="matrix(12.15,0,0,12.15,-1427.2,-1171.2)" x="122.2562" y="131.48837" width="100%" height="100%" fill="#000000" fill-opacity=".26556" xlink:href="#c"/>
<use transform="matrix(12.15,0,0,12.15,-1427.2,-1171.2)" x="124.30178" y="133.19798" width="100%" height="100%" fill="#000000" fill-opacity=".26556" xlink:href="#b"/>
<use transform="matrix(12.15,0,0,12.15,-1427.2,-1171.2)" x="128.18651" y="130.8373" width="100%" height="100%" fill="#000000" fill-opacity=".26556" xlink:href="#e"/>
<use transform="matrix(12.15,0,0,12.15,-1427.2,-1171.2)" x="130.71829" y="129.14586" width="100%" height="100%" fill="#000000" fill-opacity=".26556" xlink:href="#d"/>
<use transform="matrix(12.15,0,0,12.15,-1427.2,-1171.2)" x="136.19955" y="131.89769" width="100%" height="100%" fill="#000000" fill-opacity=".26556" xlink:href="#b"/>
<use transform="matrix(12.15,0,0,12.15,-1427.2,-1171.2)" x="140.79063" y="132.05536" width="100%" height="100%" fill="#000000" fill-opacity=".26556" xlink:href="#e"/>
<use transform="matrix(12.15,0,0,12.15,-1427.2,-1171.2)" x="144.15021" y="130.55385" width="100%" height="100%" fill="#000000" fill-opacity=".26556" xlink:href="#c"/>
<use transform="matrix(12.15,0,0,12.15,-1427.2,-1171.2)" x="145.7706" y="132.81844" width="100%" height="100%" fill="#000000" fill-opacity=".26556" xlink:href="#f"/>
<use transform="matrix(12.15,0,0,12.15,-1427.2,-1171.2)" x="148.517" y="129.99438" width="100%" height="100%" fill="#000000" fill-opacity=".26556" xlink:href="#e"/>
<use transform="matrix(12.15,0,0,12.15,-1427.2,-1171.2)" x="150.37965" y="132.21904" width="100%" height="100%" fill="#000000" fill-opacity=".26556" xlink:href="#c"/>
<use transform="matrix(12.15,0,0,12.15,-1427.2,-1171.2)" x="153.76944" y="132.604" width="100%" height="100%" fill="#000000" fill-opacity=".26556" xlink:href="#e"/>
<use transform="matrix(12.15,0,0,12.15,-1427.2,-1171.2)" x="158.43034" y="132.00122" width="100%" height="100%" fill="#000000" fill-opacity=".26556" xlink:href="#e"/>
<use transform="matrix(12.15,0,0,12.15,-1427.2,-1171.2)" x="118.31867" y="134.98561" width="100%" height="100%" fill="#000000" fill-opacity=".26556" xlink:href="#e"/>
<use transform="matrix(12.15,0,0,12.15,-1427.2,-1171.2)" x="121.23248" y="134.96039" width="100%" height="100%" fill="#000000" fill-opacity=".26556" xlink:href="#b"/>
<use transform="matrix(12.15,0,0,12.15,-1427.2,-1171.2)" x="125.71049" y="135.38591" width="100%" height="100%" fill="#000000" fill-opacity=".26556" xlink:href="#e"/>
<use transform="matrix(12.15,0,0,12.15,-1427.2,-1171.2)" x="128.3735" y="133.57385" width="100%" height="100%" fill="#000000" fill-opacity=".26556" xlink:href="#c"/>
<use transform="matrix(12.15,0,0,12.15,-1427.2,-1171.2)" x="131.15169" y="134.47528" width="100%" height="100%" fill="#000000" fill-opacity=".26556" xlink:href="#c"/>
<use transform="matrix(12.15,0,0,12.15,-1427.2,-1171.2)" x="132.7966" y="131.67354" width="100%" height="100%" fill="#000000" fill-opacity=".26556" xlink:href="#d"/>
<use transform="matrix(12.15,0,0,12.15,-1427.2,-1171.2)" x="136.07489" y="135.73914" width="100%" height="100%" fill="#000000" fill-opacity=".26556" xlink:href="#b"/>
<use transform="matrix(12.15,0,0,12.15,-1427.2,-1171.2)" x="139.1259" y="133.94485" width="100%" height="100%" fill="#000000" fill-opacity=".26556" xlink:href="#d"/>
<use transform="matrix(12.15,0,0,12.15,-1427.2,-1171.2)" x="143.86536" y="135.64903" width="100%" height="100%" fill="#000000" fill-opacity=".26556" xlink:href="#c"/>
<use transform="matrix(12.15,0,0,12.15,-1427.2,-1171.2)" x="148.25966" y="134.91631" width="100%" height="100%" fill="#000000" fill-opacity=".26556" xlink:href="#a"/>
<use transform="matrix(12.15,0,0,12.15,-1427.2,-1171.2)" x="151.67923" y="135.4516" width="100%" height="100%" fill="#000000" fill-opacity=".26556" xlink:href="#d"/>
<use transform="matrix(12.15,0,0,12.15,-1427.2,-1171.2)" x="153.74919" y="137.32024" width="100%" height="100%" fill="#000000" fill-opacity=".26556" xlink:href="#f"/>
<use transform="matrix(12.15,0,0,12.15,-1427.2,-1171.2)" x="157.69536" y="134.87442" width="100%" height="100%" fill="#000000" fill-opacity=".26556" xlink:href="#a"/>
<use transform="matrix(12.15,0,0,12.15,-1427.2,-1171.2)" x="118.08878" y="138.29819" width="100%" height="100%" fill="#000000" fill-opacity=".26556" xlink:href="#e"/>
<use transform="matrix(12.15,0,0,12.15,-1427.2,-1171.2)" x="123.78663" y="137.5968" width="100%" height="100%" fill="#000000" fill-opacity=".26556" xlink:href="#f"/>
<use transform="matrix(12.15,0,0,12.15,-1427.2,-1171.2)" x="128.26111" y="136.97409" width="100%" height="100%" fill="#000000" fill-opacity=".26556" xlink:href="#e"/>
<use transform="matrix(12.15,0,0,12.15,-1427.2,-1171.2)" x="131.85002" y="138.6129" width="100%" height="100%" fill="#000000" fill-opacity=".26556" xlink:href="#c"/>
<use transform="matrix(12.15,0,0,12.15,-1427.2,-1171.2)" x="133.8024" y="136.52478" width="100%" height="100%" fill="#000000" fill-opacity=".26556" xlink:href="#a"/>
<use transform="matrix(12.15,0,0,12.15,-1427.2,-1171.2)" x="138.53589" y="137.21344" width="100%" height="100%" fill="#000000" fill-opacity=".26556" xlink:href="#b"/>
<use transform="matrix(12.15,0,0,12.15,-1427.2,-1171.2)" x="141.80298" y="136.55872" width="100%" height="100%" fill="#000000" fill-opacity=".26556" xlink:href="#f"/>
<use transform="matrix(12.15,0,0,12.15,-1427.2,-1171.2)" x="146.42737" y="137.73183" width="100%" height="100%" fill="#000000" fill-opacity=".26556" xlink:href="#b"/>
<use transform="matrix(12.15,0,0,12.15,-1427.2,-1171.2)" x="150.24973" y="137.80496" width="100%" height="100%" fill="#000000" fill-opacity=".26556" xlink:href="#d"/>
<use transform="matrix(12.15,0,0,12.15,-1427.2,-1171.2)" x="156.65253" y="137.19005" width="100%" height="100%" fill="#000000" fill-opacity=".26556" xlink:href="#e"/>
<use transform="matrix(12.15,0,0,12.15,-1427.2,-1171.2)" x="160.05896" y="137.48515" width="100%" height="100%" fill="#000000" fill-opacity=".26556" xlink:href="#f"/>
</svg>
