<?xml version="1.0" encoding="UTF-8"?>
<svg version="1.0" viewBox="0 0 512 512" xmlns="http://www.w3.org/2000/svg">
<g fill="#3d7099">
<g transform="matrix(5.2 0 0 5.2 15.22 36.353)" stroke-width=".096154">
<g fill="#3d7099" stroke-width=".096154">
<path d="m1 7h14v2h-14v-2z" fill="#3d7099" stroke-width=".096154"/>
</g>
</g>
<g transform="matrix(5.2 0 0 5.2 .0203 -36.4)" stroke-width=".096154">
<g fill="#3d7099" stroke-width=".096154">
<path d="m1 7h14v2h-14v-2z" fill="#3d7099" stroke-width=".096154"/>
</g>
</g>
<g transform="matrix(5.2 0 0 5.2 109.78 1.8983)" stroke-width=".096154">
<g fill="#3d7099" stroke-width=".096154">
<path d="m1 7h14v2h-14v-2z" fill="#3d7099" stroke-width=".096154"/>
</g>
</g>
<g transform="matrix(5.2 0 0 5.2 249.32 25.315)" stroke-width=".096154">
<g fill="#3d7099" stroke-width=".096154">
<path d="m1 7h14v2h-14v-2z" fill="#3d7099" stroke-width=".096154"/>
</g>
</g>
<g transform="matrix(5.2 0 0 5.2 287.22 -15.647)" stroke-width=".096154">
<g fill="#3d7099" stroke-width=".096154">
<path d="m1 7h14v2h-14v-2z" fill="#3d7099" stroke-width=".096154"/>
</g>
</g>
<g transform="matrix(5.2 0 0 5.2 412.02 15.553)" stroke-width=".096154">
<g fill="#3d7099" stroke-width=".096154">
<path d="m1 7h14v2h-14v-2z" fill="#3d7099" stroke-width=".096154"/>
</g>
</g>
<g transform="matrix(5.2 0 0 5.2 79.22 67.553)" stroke-width=".096154">
<g fill="#3d7099" stroke-width=".096154">
<path d="m1 7h14v2h-14v-2z" fill="#3d7099" stroke-width=".096154"/>
</g>
</g>
<g transform="matrix(5.2 0 0 5.2 141.62 119.55)" stroke-width=".096154">
<g fill="#3d7099" stroke-width=".096154">
<path d="m1 7h14v2h-14v-2z" fill="#3d7099" stroke-width=".096154"/>
</g>
</g>
<g transform="matrix(5.2 0 0 5.2 225.91 79.485)" stroke-width=".096154">
<g fill="#3d7099" stroke-width=".096154">
<path d="m1 7h14v2h-14v-2z" fill="#3d7099" stroke-width=".096154"/>
</g>
</g>
<g transform="matrix(5.2 0 0 5.2 357.84 116.41)" stroke-width=".096154">
<g fill="#3d7099" stroke-width=".096154">
<path d="m1 7h14v2h-14v-2z" fill="#3d7099" stroke-width=".096154"/>
</g>
</g>
<g transform="matrix(5.2 0 0 5.2 362.31 57.383)" stroke-width=".096154">
<g fill="#3d7099" stroke-width=".096154">
<path d="m1 7h14v2h-14v-2z" fill="#3d7099" stroke-width=".096154"/>
</g>
</g>
<g transform="matrix(1.8031 0 0 5.2 -1.8031 154.75)" stroke-width=".16329">
<g fill="#3d7099" stroke-width=".16329">
<path d="m1 7h14v2h-14v-2z" fill="#3d7099" stroke-width=".16329"/>
</g>
</g>
<g transform="matrix(5.2 0 0 5.2 16.63 124.98)" stroke-width=".096154">
<g fill="#3d7099" stroke-width=".096154">
<path d="m1 7h14v2h-14v-2z" fill="#3d7099" stroke-width=".096154"/>
</g>
</g>
<g transform="matrix(5.2 0 0 5.2 158.42 177.95)" stroke-width=".096154">
<g fill="#3d7099" stroke-width=".096154">
<path d="m1 7h14v2h-14v-2z" fill="#3d7099" stroke-width=".096154"/>
</g>
</g>
<g transform="matrix(5.2 0 0 5.2 256.02 140.35)" stroke-width=".096154">
<g fill="#3d7099" stroke-width=".096154">
<path d="m1 7h14v2h-14v-2z" fill="#3d7099" stroke-width=".096154"/>
</g>
</g>
<g transform="matrix(5.2 0 0 5.2 308.02 181.95)" stroke-width=".096154">
<g fill="#3d7099" stroke-width=".096154">
<path d="m1 7h14v2h-14v-2z" fill="#3d7099" stroke-width=".096154"/>
</g>
</g>
<g transform="matrix(5.2 0 0 5.2 422.42 202.75)" stroke-width=".096154">
<g fill="#3d7099" stroke-width=".096154">
<path d="m1 7h14v2h-14v-2z" fill="#3d7099" stroke-width=".096154"/>
</g>
</g>
<g transform="matrix(3.255 0 0 5.2 463.17 154.75)" stroke-width=".12153">
<g fill="#3d7099" stroke-width=".12153">
<path d="m1 7h14v2h-14v-2z" fill="#3d7099" stroke-width=".12153"/>
</g>
</g>
<g transform="matrix(4.5425 0 0 5.2 -4.5425 254.35)" stroke-width=".10288">
<g fill="#3d7099" stroke-width=".10288">
<path d="m1 7h14v2h-14v-2z" fill="#3d7099" stroke-width=".10288"/>
</g>
</g>
<g transform="matrix(5.2 0 0 5.2 46.678 195.84)" stroke-width=".096154">
<g fill="#3d7099" stroke-width=".096154">
<path d="m1 7h14v2h-14v-2z" fill="#3d7099" stroke-width=".096154"/>
</g>
</g>
<g transform="matrix(5.2 0 0 5.2 110.42 265.15)" stroke-width=".096154">
<g fill="#3d7099" stroke-width=".096154">
<path d="m1 7h14v2h-14v-2z" fill="#3d7099" stroke-width=".096154"/>
</g>
</g>
<g transform="matrix(5.2 0 0 5.2 204.02 244.35)" stroke-width=".096154">
<g fill="#3d7099" stroke-width=".096154">
<path d="m1 7h14v2h-14v-2z" fill="#3d7099" stroke-width=".096154"/>
</g>
</g>
<g transform="matrix(5.2 0 0 5.2 308.02 285.95)" stroke-width=".096154">
<g fill="#3d7099" stroke-width=".096154">
<path d="m1 7h14v2h-14v-2z" fill="#3d7099" stroke-width=".096154"/>
</g>
</g>
<g transform="matrix(5.2 0 0 5.2 349.62 244.35)" stroke-width=".096154">
<g fill="#3d7099" stroke-width=".096154">
<path d="m1 7h14v2h-14v-2z" fill="#3d7099" stroke-width=".096154"/>
</g>
</g>
<g transform="matrix(.54303 0 0 5.2 503.85 254.35)" stroke-width=".29755">
<g fill="#3d7099" stroke-width=".29755">
<path d="m1 7h14v2h-14v-2z" fill="#3d7099" stroke-width=".29755"/>
</g>
</g>
<g transform="matrix(5.2 0 0 5.2 9.2949 317.34)" stroke-width=".096154">
<g fill="#3d7099" stroke-width=".096154">
<path d="m1 7h14v2h-14v-2z" fill="#3d7099" stroke-width=".096154"/>
</g>
</g>
<g transform="matrix(5.2 0 0 5.2 58.42 369.15)" stroke-width=".096154">
<g fill="#3d7099" stroke-width=".096154">
<path d="m1 7h14v2h-14v-2z" fill="#3d7099" stroke-width=".096154"/>
</g>
</g>
<g transform="matrix(5.2 0 0 5.2 131.22 337.95)" stroke-width=".096154">
<g fill="#3d7099" stroke-width=".096154">
<path d="m1 7h14v2h-14v-2z" fill="#3d7099" stroke-width=".096154"/>
</g>
</g>
<g transform="matrix(5.2 0 0 5.2 214.42 306.75)" stroke-width=".096154">
<g fill="#3d7099" stroke-width=".096154">
<path d="m1 7h14v2h-14v-2z" fill="#3d7099" stroke-width=".096154"/>
</g>
</g>
<g transform="matrix(5.2 0 0 5.2 256.02 358.75)" stroke-width=".096154">
<g fill="#3d7099" stroke-width=".096154">
<path d="m1 7h14v2h-14v-2z" fill="#3d7099" stroke-width=".096154"/>
</g>
</g>
<g transform="matrix(5.2 0 0 5.2 380.82 337.95)" stroke-width=".096154">
<g fill="#3d7099" stroke-width=".096154">
<path d="m1 7h14v2h-14v-2z" fill="#3d7099" stroke-width=".096154"/>
</g>
</g>
<g transform="matrix(5.2 0 0 5.2 424.78 295.27)" stroke-width=".096154">
<g fill="#3d7099" stroke-width=".096154">
<path d="m1 7h14v2h-14v-2z" fill="#3d7099" stroke-width=".096154"/>
</g>
</g>
<g transform="matrix(2.4332 0 0 5.2 -2.4332 394.35)" stroke-width=".14057">
<g fill="#3d7099" stroke-width=".14057">
<path d="m1 7h14v2h-14v-2z" fill="#3d7099" stroke-width=".14057"/>
</g>
</g>
<g transform="matrix(5.2 0 0 5.2 37.62 431.55)" stroke-width=".096154">
<g fill="#3d7099" stroke-width=".096154">
<path d="m1 7h14v2h-14v-2z" fill="#3d7099" stroke-width=".096154"/>
</g>
</g>
<g transform="matrix(5.2 0 0 5.2 152.02 410.75)" stroke-width=".096154">
<g fill="#3d7099" stroke-width=".096154">
<path d="m1 7h14v2h-14v-2z" fill="#3d7099" stroke-width=".096154"/>
</g>
</g>
<g transform="matrix(5.2 0 0 5.2 266.42 431.55)" stroke-width=".096154">
<g fill="#3d7099" stroke-width=".096154">
<path d="m1 7h14v2h-14v-2z" fill="#3d7099" stroke-width=".096154"/>
</g>
</g>
<g transform="matrix(5.2 0 0 5.2 339.22 400.35)" stroke-width=".096154">
<g fill="#3d7099" stroke-width=".096154">
<path d="m1 7h14v2h-14v-2z" fill="#3d7099" stroke-width=".096154"/>
</g>
</g>
<g transform="matrix(5.2 0 0 5.2 422.42 427.55)" stroke-width=".096154">
<g fill="#3d7099" stroke-width=".096154">
<path d="m1 7h14v2h-14v-2z" fill="#3d7099" stroke-width=".096154"/>
</g>
</g>
<g transform="matrix(2.5702 0 0 5.2 473.45 394.35)" stroke-width=".13677">
<g fill="#3d7099" stroke-width=".13677">
<path d="m1 7h14v2h-14v-2z" fill="#3d7099" stroke-width=".13677"/>
</g>
</g>
<g transform="matrix(5.2 0 0 5.2 162.42 465.2)" stroke-width=".096154">
<g fill="#3d7099" stroke-width=".096154">
<path d="m1 7h14v2h-14v-2z" fill="#3d7099" stroke-width=".096154"/>
</g>
</g>
<g transform="matrix(3.0633 0 0 5.2 -3.0633 88.569)" stroke-width=".12528">
<g fill="#3d7099" stroke-width=".12528">
<path d="m1 7h14v2h-14v-2z" fill="#3d7099" stroke-width=".12528"/>
</g>
</g>
<g transform="matrix(1.9949 0 0 5.2 482.08 88.569)" stroke-width=".15524">
<g fill="#3d7099" stroke-width=".15524">
<path d="m1 7h14v2h-14v-2z" fill="#3d7099" stroke-width=".15524"/>
</g>
</g>
<g transform="matrix(5.2 0 0 5.2 364.09 455.04)" stroke-width=".096154">
<g fill="#3d7099" stroke-width=".096154">
<path d="m1 7h14v2h-14v-2z" fill="#3d7099" stroke-width=".096154"/>
</g>
</g>
</g>
</svg>
