<?xml version="1.0" encoding="UTF-8"?>
<svg version="1.0" viewBox="0 0 580 580" xmlns="http://www.w3.org/2000/svg">
<path d="m267.7 48.2-202.7 85.8c-6.4843 3.3047-11.877 10.917-11.6 17.4l17.6 273.6c0.3 5.5 3.5 10.3 8.5 12.8l225.5 103.2c5.3 4.6 13 5 18.7 1l180.3-124c3.6-2.7 5.8-6.8 6-11.3l19-274.7c-0.3688-8.4518-5.4329-15.061-12.8-17.4l-239.2-67c-2.998-1.1263-6.7272-0.43981-9.3 0.6z" color="#000000" color-rendering="auto" fill="none" image-rendering="auto" opacity=".8" shape-rendering="auto" solid-color="#000000" stroke="#fff" stroke-linejoin="round" stroke-width="64" filter-blend-mode="normal" filter-gaussianBlur-deviation="0" isolation="auto" mix-blend-mode="normal"/>
<path d="m267.7 48.2-202.7 85.8c-6.4843 3.3047-11.877 10.917-11.6 17.4l17.6 273.6c0.3 5.5 3.5 10.3 8.5 12.8l225.5 103.2c5.3 4.6 13 5 18.7 1l180.3-124c3.6-2.7 5.8-6.8 6-11.3l19-274.7c-0.3688-8.4518-5.4329-15.061-12.8-17.4l-239.2-67c-2.998-1.1263-6.7272-0.43981-9.3 0.6z" fill="#39ac39"/>
<path d="m471 134-154 81-203-69 160-68z" fill="#fff" opacity=".2"/>
<path d="m480 397-149 103 2-258 164-85z" fill="#fff" opacity=".4"/>
<path d="m303 243-4 262-199-91-15-242z" fill="#fff" opacity=".1"/>
<path d="m297 112c-14 3-40 6-37 25l-61-22-37 17 177 62 32-15c3-3-10-4-14-7-2-2 22 1 30-1 17 0 47-18 23-33-28-17-62-25-95-27-6.0781-0.46316-12.456 0.95107-18 1zm64 44c-19 10-42 2-60.5-5s1.5-17 14.5-18c15 2 47 6 46 23z" fill="#fff"/>
<path d="m108 271 54 31c5 0 11-11 23-10 16 4 32 17 31 35-19 0-37-4-55-8-17-4-41-11-51 8-10 31 9 66 34 84 20 13 44 26 69 19 15-13 11 9 18 19l47 21c15 10 2-10 1-19-3-34-3-68-5-102-4-33-23-63-52-79-27-14-54-30-85-31-18 0-28 15-29 32zm88 89c12 1 23-1 22 16-4 20-17 31-33 21-13-5-27-24-17-32 9.0385-7.74 18.774-5.0829 28-5z" fill="#fff"/>
<path d="m437 320c-11.9-18.4-37 7.5-44 20.4-6 12.5-16.7 41 3.5 45 19.5-3.4 34.5-20.4 40.5-38.4l46-21c-15.6 49-60 83-107 101-14 6.2-35.8 2.2-38.6-15.4-5.7-42 20.9-81 52-106 21-15 44-31.5 71-34.4 11.2-0.9 21 6.2 23.6 17z" fill="#fff"/>
</svg>
