<?xml version="1.0" encoding="UTF-8"?>
<svg version="1.0" viewBox="0 0 580 580" xmlns="http://www.w3.org/2000/svg">
<path d="m284.93 46.526c-10.929 0.47418-7.8856 7.4301-17.209 27.312-9.5714 21.653-19.038 43.755-28.408 66.162h-166.31c-13.9 1.3-9.6008 16.999-10.301 26.699v258c1.3 13.9 17.001 9.6008 26.701 10.301h33.504c-9.356 24.055-18.658 47.799-27.904 71-4 15 18 26 27 13 11.436-27.485 22.789-55.59 34.096-84h268.52c11.536 28.637 23.261 56.458 35.383 83 9.2 12.9 31.6 2.0008 27-13.199-9.7119-22.839-19.292-46.186-28.801-69.801h53.201c13.9-1.3 9.5988-16.999 10.299-26.699v-258c-1.7-14.3-17.699-9.3008-26.699-10.301h-152.89c-12.189-29.724-24.526-58.846-37.105-87-2.8125-4.9688-9.1414-6.9484-20.071-6.4742zm6.0707 51.474c6.2547 13.821 12.372 27.842 18.385 42h-36.172c5.9118-14.177 11.836-28.219 17.787-42z" color="#000000" color-rendering="auto" fill="none" fill-rule="evenodd" image-rendering="auto" opacity=".8" shape-rendering="auto" solid-color="#000000" stroke="#fff" stroke-linejoin="round" stroke-width="64" filter-blend-mode="normal" filter-gaussianBlur-deviation="0" isolation="auto" mix-blend-mode="normal" white-space="normal"/>
<path d="m267 76c-61 138-117 292-172 430-4 15 18 26 27 13 57-137 112-289 169-421 62 137 111 293 169 420 9.2 12.9 31.6 2 27-13.2-62-145.8-119-310.8-182-451.8-3-5.3-10-7.2-16-7-15 1-17 13-22 30" color="#000000" color-rendering="auto" fill="#fff" fill-rule="evenodd" image-rendering="auto" shape-rendering="auto" solid-color="#000000" isolation="auto" mix-blend-mode="normal" white-space="normal"/>
<path d="m95 506c-4 15 18 26 27 13 57-137 112-289 169-421 62 137 111 293 169 420 9.2 12.9 31.6 2 27-13.2-62-145.8-119-310.8-182-451.8-3-5.3-10-7.2-16-7-15 1-11.957 7.9565-21.28 27.839-61 138-117.72 294.16-172.72 432.16z" color="#000000" color-rendering="auto" fill="#39ac39" fill-rule="evenodd" image-rendering="auto" opacity=".8" shape-rendering="auto" solid-color="#000000" isolation="auto" mix-blend-mode="normal" white-space="normal"/>
<path d="m62.7 166.7v258c1.3 13.9 17 9.6 26.7 10.3h422c13.9-1.3 9.6-17 10.3-26.7v-258c-1.7-14.3-17.7-9.3-26.7-10.3h-422c-13.9 1.3-9.6 17-10.3 26.7z" color="#000000" color-rendering="auto" fill="#39ac39" image-rendering="auto" shape-rendering="auto" solid-color="#000000" isolation="auto" mix-blend-mode="normal" white-space="normal"/>
<path d="m241 256v146h38c0-5-1-13 1-15 8 12 23 19 39 16 36-4 59-79 15-103-16-9-40-6-53 6v-50h-40zm58.5 68c18.5 0 19.5 25 16.5 39-7 17-32 15-34-3-3-13-1-36 17.5-36z" fill="#fff"/>
<path d="m156.68 176.89c-4.9717-0.03515-10.621 0.10547-17.184 0.10547-17.5 0-37.5 3-46.5 19-6 9-5 12 6 13 9 2 19 2 28 3 4-14 24-15 34-8 8 10-5 14-12 15-17 4-35 6-51 14-19 11-15 43 5 50 20 8 45 3 61-11 3 6 0 14 14 13 10 0 19 0 29-1-9-21-3-44-5-67 0-16-8-30-25-37-5.625-2.5-12.03-3.0469-20.316-3.1055zm5.3164 57.105c5 12-4 30-18 30-22 6-26-22-5-26 7-2 16-2 23-4z" fill="#fff"/>
<path d="m368 206.5c-9.6 22.5-6.3 54 15 68 19.5 14 45 13.6 67.9 8.6 16.6-4.1 27.9-18 33.5-33.6-20.4-3.5-33.4-5.5-37.4-5.5-4 14-24 21-35 12-14-11-11-35-1-47 13-13 34-5 38 8 25-3.5 45 7.9 27-17.6-11-17.4-28-23.4-52-22.4-25-0.5-46.6 8.3-56 29.5z" fill="#fff"/>
</svg>
