<?xml version="1.0" encoding="UTF-8"?>
<svg version="1.0" viewBox="0 0 580 580" xmlns="http://www.w3.org/2000/svg">
<path d="m42.6 243.7 288 3.5 209-109c4.2-2.2 2.8-8.5-2-8.7l-266-9.8-231 115.15c-4.3 2.35-2.8 8.85 2 8.85zm120 14c-2-0.1-3.9 1.2-4.5 3.1l-24.8 73c-1.2 3.4 1.8 6.7 5.4 6 73.483-36.284 149.89-27.809 217.4-2.4 43.286-48.431 83.196-67.218 140.8-74.1 3.7-0.4 5.4-4.8 3-7.6l-48.9-53.7c-0.9-1.1-116.7 60.5-116.7 60.5zm-51.6-9.7c-21 37.9-25 87-28.8 124-24.572 7.2337-16.974 47.734-19 72.6-0.37254 7.0079 7.375 6.7936 9.1 1.5-1.561 6.7875 2.9529 8.5349 7.2 6.3 1.9347 5.2977 6.7189 5.6644 9.3-0.2-0.61769 5.7519 5.8111 7.1147 8.6 3.1 0.02276 5.0836 6.3159 6.8864 9 0.8 8.7018-23.742 29.266-56.232 12.9-77.2 1.8-29.8 3.2-55 13.9-90 3.1-8.4 5-18.7 14.4-24l-3.6-17.7z" color="#000000" color-rendering="auto" fill="none" fill-rule="evenodd" image-rendering="auto" opacity=".8" shape-rendering="auto" solid-color="#000000" stroke="#fff" stroke-linejoin="round" stroke-width="64" filter-blend-mode="normal" filter-gaussianBlur-deviation="0" isolation="auto" mix-blend-mode="normal" white-space="normal"/>
<path d="m42.6 243.7 288 3.5 209-109c4.2-2.2 2.8-8.5-2-8.7l-266-9.8-231 115.15c-4.3 2.35-2.8 8.85 2 8.85zm120 14c-2-0.1-3.9 1.2-4.5 3.1l-24.8 73c-1.2 3.4 1.8 6.7 5.4 6 73.483-36.284 149.89-27.809 217.4-2.4 43.286-48.431 83.196-67.218 140.8-74.1 3.7-0.4 5.4-4.8 3-7.6l-48.9-53.7c-0.9-1.1-116.7 60.5-116.7 60.5zm-51.6-9.7c-21 37.9-25 87-28.8 124-24.572 7.2337-16.974 47.734-19 72.6-0.37254 7.0079 7.375 6.7936 9.1 1.5-1.561 6.7875 2.9529 8.5349 7.2 6.3 1.9347 5.2977 6.7189 5.6644 9.3-0.2-0.61769 5.7519 5.8111 7.1147 8.6 3.1 0.02276 5.0836 6.3159 6.8864 9 0.8 8.7018-23.742 29.266-56.232 12.9-77.2 1.8-29.8 3.2-55 13.9-90 3.1-8.4 5-18.7 14.4-24l-3.6-17.7z" color="#000000" color-rendering="auto" fill="#39ac39" fill-rule="evenodd" image-rendering="auto" shape-rendering="auto" solid-color="#000000" isolation="auto" mix-blend-mode="normal" white-space="normal"/>
</svg>
