<?xml version="1.0" encoding="UTF-8"?>
<svg version="1.1" viewBox="0 0 14 14" xmlns="http://www.w3.org/2000/svg">
<rect width="14" height="14" fill="none" visibility="hidden"/>
<path d="m3 0v1h1c0.59887 0 0.84114 1.0431 0.9375 1.9062-0.97227-0.75635-1.9125-1.0267-2.7188-0.875-1.0303 0.19381-1.7188 1.1431-1.7188 2.2188 0 0.84192 0.31212 1.5789 0.84375 2.3438 0.46462 0.66848 1.1198 1.4401 1.9375 2.375 0.36645 1.359 1.0411 2.6036 1.7188 3.2812v0.75l-1 0.5v0.5h6v-0.5l-1-0.5v-0.75c0.6777-0.6777 1.3523-1.9222 1.7188-3.2812 0.81766-0.93494 1.4729-1.7065 1.9375-2.375 0.53163-0.76489 0.84375-1.5018 0.84375-2.3438 0-1.0757-0.68844-2.0249-1.7188-2.2188-0.80624-0.15166-1.7465 0.11865-2.7188 0.875 0.096362-0.86318 0.33863-1.9062 0.9375-1.9062h1v-1h-8zm-0.625 3.0312c0.50984-0.095903 1.3604 0.10125 2.3438 1-1.115 0.13838-1.7188 1.1183-1.7188 2.9688 0 0.031196-4.828e-4 0.062438 0 0.09375-0.34052-0.39565-0.62381-0.74606-0.84375-1.0625-0.46837-0.67387-0.65625-1.1685-0.65625-1.7812 0-0.70032 0.31093-1.1126 0.875-1.2188zm8.75 0c0.18811-0.027114 0.35898-0.026526 0.5 0 0.56408 0.10611 0.875 0.51843 0.875 1.2188 0 0.61277-0.18788 1.1074-0.65625 1.7812-0.21994 0.31644-0.50323 0.66685-0.84375 1.0625 4.83e-4 -0.031312 0-0.062554 0-0.09375 0-1.8504-0.60374-2.8304-1.7188-2.9688 0.71136-0.65016 1.3518-0.92909 1.8438-1z"/>
</svg>
