<?xml version="1.0" encoding="UTF-8"?>
<svg version="1.1" viewBox="0 0 16 16" xmlns="http://www.w3.org/2000/svg" xmlns:cc="http://creativecommons.org/ns#" xmlns:dc="http://purl.org/dc/elements/1.1/" xmlns:rdf="http://www.w3.org/1999/02/22-rdf-syntax-ns#">
<metadata>
<rdf:RDF>
<cc:Work rdf:about="">
<dc:format>image/svg+xml</dc:format>
<dc:type rdf:resource="http://purl.org/dc/dcmitype/StillImage"/>
<dc:title/>
</cc:Work>
</rdf:RDF>
</metadata>
<rect width="16" height="16" fill="none" visibility="hidden"/>
<path d="m4.4 1.7v0.9h0.9c0.53898 0 0.75703 0.93879 0.84375 1.7156-0.87504-0.68072-1.7212-0.92403-2.4469-0.7875-0.92727 0.17443-1.5469 1.0288-1.5469 1.9969 0 0.75773 0.28091 1.421 0.75938 2.1094 0.41816 0.60163 1.0078 1.2961 1.7438 2.1375 0.3298 1.2231 0.93699 2.3432 1.5469 2.9531v0.675l-0.9 0.45v0.45h5.4v-0.45l-0.9-0.45v-0.675c0.60993-0.60993 1.2171-1.73 1.5469-2.9531 0.73589-0.84145 1.3256-1.5358 1.7438-2.1375 0.47847-0.6884 0.75938-1.3516 0.75938-2.1094 0-0.96813-0.6196-1.8224-1.5469-1.9969-0.72562-0.13649-1.5718 0.10678-2.4469 0.7875 0.086726-0.77686 0.30477-1.7156 0.84375-1.7156h0.9v-0.9h-7.2zm-0.5625 2.7281c0.45886-0.086313 1.2244 0.091125 2.1094 0.9-1.0035 0.12454-1.5469 1.0065-1.5469 2.6719 0 0.028076-4.345e-4 0.056194 0 0.084375-0.30647-0.35608-0.56143-0.67145-0.75938-0.95625-0.42153-0.60648-0.59062-1.0516-0.59062-1.6031 0-0.63029 0.27984-1.0013 0.7875-1.0969zm7.875 0c0.1693-0.024403 0.32308-0.023873 0.45 0 0.50767 0.095499 0.7875 0.46659 0.7875 1.0969 0 0.55149-0.16909 0.99666-0.59062 1.6031-0.19795 0.2848-0.45291 0.60016-0.75938 0.95625 4.35e-4 -0.028181 0-0.056299 0-0.084375 0-1.6654-0.54337-2.5474-1.5469-2.6719 0.64022-0.58514 1.2166-0.83618 1.6594-0.9z" fill="#734a08"/>
</svg>
