<?xml version="1.0" encoding="UTF-8"?>
<svg version="1.0" viewBox="0 0 580 580" xmlns="http://www.w3.org/2000/svg">
<path d="m217 211c-48.6 7.6-97 13.9-146 22-14.3 8.6-0.2 21.6 7.9 28.4l93 89c-7.6 48.6-16.4 97-23 146 3.8 16.2 20.5 7 29.5 1.3l114-61c43.7 22.4 87 46 131 68 16.6 1.5 13-17.3 10.4-27.6l-23.8-128.1c34.8-34.6 71-68 105-104 6.5-15.3-12.5-17.6-23-18.3l-128-17.7c-22-43-43-87-66-131-2-2.3-5-3.6-8.4-3.8-13 1.7-14 17.2-19.8 26.55z" color="#000000" color-rendering="auto" image-rendering="auto" shape-rendering="auto" solid-color="#000000" isolation="auto" mix-blend-mode="normal" white-space="normal"/>
</svg>
