<?xml version="1.0" encoding="UTF-8"?>
<svg version="1.1" viewBox="0 0 16 16" xmlns="http://www.w3.org/2000/svg" xmlns:cc="http://creativecommons.org/ns#" xmlns:dc="http://purl.org/dc/elements/1.1/" xmlns:rdf="http://www.w3.org/1999/02/22-rdf-syntax-ns#">
<metadata>
<rdf:RDF>
<cc:Work rdf:about="">
<dc:format>image/svg+xml</dc:format>
<dc:type rdf:resource="http://purl.org/dc/dcmitype/StillImage"/>
<dc:title/>
</cc:Work>
</rdf:RDF>
</metadata>
<path d="m8 1.7a1.8 1.8 0 0 0-1.8 1.8 1.8 1.8 0 0 0 1.8 1.8 1.8 1.8 0 0 0 1.8-1.8 1.8 1.8 0 0 0-1.8-1.8zm-0.038672 4.2135c-1.5001 0.0030963-2.9875 0.4817-4.4613 1.4273 1.2177 0.81299 2.2161 1.7873 2.192 3.157h4.5949c-0.062205-1.3861 1.1466-2.3944 2.2131-3.157-1.5259-0.95803-3.0386-1.4304-4.5387-1.4273zm-1.7613 5.6865v0.9h3.6v-0.9zm-1.8 1.8v0.9h7.2v-0.9z" fill="#734a08" fill-rule="evenodd" style="paint-order:markers stroke fill"/>
</svg>
