<?xml version="1.0" encoding="UTF-8"?>
<svg version="1.1" viewBox="0 0 14 14" xmlns="http://www.w3.org/2000/svg" xmlns:cc="http://creativecommons.org/ns#" xmlns:dc="http://purl.org/dc/elements/1.1/" xmlns:rdf="http://www.w3.org/1999/02/22-rdf-syntax-ns#">
<metadata>
<rdf:RDF>
<cc:Work rdf:about="">
<dc:format>image/svgxml</dc:format>
<dc:type rdf:resource="http://purl.org/dc/dcmitype/StillImage"/>
<dc:title/>
</cc:Work>
</rdf:RDF>
</metadata>
<rect width="14" height="14" fill="none" visibility="hidden"/>
<path d="m1 1-1 1.5v0.5h5v-0.5l-1-1.5h-3zm9 0-1 1.5v0.5h5v-0.5l-1-1.5h-3zm-10 3v9h5c0-1 0-3 2-3s2 2 2 3h5v-9h-5v2h-4v-2h-5zm2 2h1v1l-0.5 1-0.5-1v-1zm9 0h1v1l-0.5 1-0.5-1v-1z" fill="#734a08"/>
</svg>
