<?xml version="1.0" encoding="UTF-8"?>
<svg version="1.1" viewBox="0 0 14 14" xmlns="http://www.w3.org/2000/svg">
<path d="m5.8613-0.011719c1.6335 3.3528-6.9369 5.5498 0.51562 10.143l0.32227-0.11719c-1.8556-2.6853 5.6752-5.8332-0.83789-10.025zm3.3887 3.4355c1.0504 3.0877-2.5361 3.9724-1.4102 6.1738l1.6895-0.61328c0.6778-1.6535 2.4138-2.9867-0.2793-5.5605zm-7.7754 5.5742a0.50005 0.50005 0 0 0-0.14453 0.97266l4.2148 1.5332-4.2129 1.5312a0.49426 0.49426 0 0 0 0.33594 0.92969l5.3223-1.9355 5.3398 1.9414a0.50043 0.50043 0 0 0 0.33984-0.94141l-4.2148-1.5332 4.2129-1.5313a0.49422 0.49422 0 0 0-0.1582-0.96094 0.49422 0.49422 0 0 0-0.17774 0.03125l-5.3223 1.9355-5.3398-1.9414a0.50005 0.50005 0 0 0-0.19531-0.03125z"/>
</svg>
