<?xml version="1.0" encoding="UTF-8"?>
<svg version="1.0" viewBox="0 0 14 14" xmlns="http://www.w3.org/2000/svg">
<rect width="14" height="14" fill="none" visibility="hidden"/>
<path d="m7-1e-7c-3.8656 0-7 3.1344-7 7s3.1344 7 7 7c0.64556 0 1.166-0.52046 1.166-1.166 0-0.30333-0.11218-0.57709-0.30273-0.7832-0.18278-0.20611-0.29102-0.47399-0.29102-0.77344 0-0.64556 0.52046-1.166 1.166-1.166h1.373c2.1467 0 3.8887-1.742 3.8887-3.8887 0-3.4378-3.1344-6.2227-7-6.2227zm1.9336 1.3047a1.3892 1.3892 0 0 1 1.3887 1.3887 1.3892 1.3892 0 0 1-1.3887 1.3906 1.3892 1.3892 0 0 1-1.3887-1.3906 1.3892 1.3892 0 0 1 1.3887-1.3887zm-3.8945 0.019531a1.3892 1.3892 0 0 1 1.3906 1.3906 1.3892 1.3892 0 0 1-1.3906 1.3887 1.3892 1.3892 0 0 1-1.3887-1.3887 1.3892 1.3892 0 0 1 1.3887-1.3906zm-2.332 3.123a1.3892 1.3892 0 0 1 1.3887 1.3906 1.3892 1.3892 0 0 1-1.3887 1.3887 1.3892 1.3892 0 0 1-1.3887-1.3887 1.3892 1.3892 0 0 1 1.3887-1.3906zm8.5586 0a1.3892 1.3892 0 0 1 1.3887 1.3906 1.3892 1.3892 0 0 1-1.3887 1.3887 1.3892 1.3892 0 0 1-1.3887-1.3887 1.3892 1.3892 0 0 1 1.3887-1.3906z"/>
</svg>
