<?xml version="1.0" encoding="UTF-8"?>
<svg enable-background="new 0 0 512 512" version="1.1" viewBox="0 0 12 12" xml:space="preserve" xmlns="http://www.w3.org/2000/svg"><path d="m10.059 2.763-0.9082-0.8232c-0.0385-0.0385-0.0912-0.0608-0.146-0.0608h-2.4898v-0.8232c0-0.11354-0.09124-0.20681-0.20681-0.20681h-0.6184c-0.11354 0-0.20681 0.09124-0.20681 0.20681v0.8232h-2.3662c-0.11354 0-0.20681 0.093267-0.20681 0.20681v1.6484c0 0.11354 0.09124 0.20681 0.20681 0.20681h2.3682v1.03h-2.4898c-0.054744 0-0.10746 0.022303-0.14598 0.060827l-0.9084 0.8232c-0.081103 0.081103-0.081103 0.21087 0 0.29197l0.9084 0.8232c0.038524 0.038524 0.09124 0.060827 0.14598 0.060827h2.4898v3.9132c0 0.11354 0.09124 0.20681 0.20681 0.20681h0.6184c0.11354 0 0.20681-0.09124 0.20681-0.20681v-3.913h2.3682c0.11354 0 0.20681-0.09124 0.20681-0.20681v-1.6484c0-0.11354-0.091239-0.20681-0.20681-0.20681h-2.3702v-1.03h2.4898c0.054748 0 0.10746-0.022304 0.14598-0.060827l0.9082-0.8232c0.0811-0.081103 0.0811-0.21087 0-0.29197z" fill="#734a08" stroke-width=".020276"/></svg>
