<?xml version="1.0" encoding="UTF-8"?>
<svg version="1.1" viewBox="0 0 14 14" xmlns="http://www.w3.org/2000/svg">
<path d="m7 0a7 7 0 0 0-7 7 7 7 0 0 0 7 7 7 7 0 0 0 7-7 7 7 0 0 0-7-7zm0 1.5a5.5 5.5 0 0 1 5.5 5.5 5.5 5.5 0 0 1-5.5 5.5 5.5 5.5 0 0 1-5.5-5.5 5.5 5.5 0 0 1 5.5-5.5zm0 1.3691a1.04 1.04 0 0 0-1.0391 1.041 1.04 1.04 0 0 0 1.0391 1.0391 1.04 1.04 0 0 0 1.0391-1.0391 1.04 1.04 0 0 0-1.0391-1.041zm0.6875 2.7656-2.0605 0.6875v0.68555h0.63281l0.052734 3.4355h-0.68555v0.6875h2.7461v-0.6875h-0.68555v-4.8086z" fill-rule="evenodd" style="paint-order:markers stroke fill"/>
</svg>
