<?xml version="1.0" encoding="UTF-8" standalone="no"?>
<svg
   xmlns:ns="http://ns.adobe.com/SaveForWeb/1.0/"
   xmlns:dc="http://purl.org/dc/elements/1.1/"
   xmlns:cc="http://creativecommons.org/ns#"
   xmlns:rdf="http://www.w3.org/1999/02/22-rdf-syntax-ns#"
   xmlns:svg="http://www.w3.org/2000/svg"
   xmlns="http://www.w3.org/2000/svg"
   xmlns:sodipodi="http://sodipodi.sourceforge.net/DTD/sodipodi-0.dtd"
   xmlns:inkscape="http://www.inkscape.org/namespaces/inkscape"
   version="1.1"
   x="0px"
   y="0px"
   viewBox="0 0 12 12"
   enable-background="new 0 0 100 100"
   xml:space="preserve"
   id="svg12"
   sodipodi:docname="information_office.svg"
   width="12"
   height="12"
   inkscape:version="0.92.1 r15371"><defs
     id="defs16" /><sodipodi:namedview
     pagecolor="#ffffff"
     bordercolor="#666666"
     borderopacity="1"
     objecttolerance="10"
     gridtolerance="10"
     guidetolerance="10"
     inkscape:pageopacity="0"
     inkscape:pageshadow="2"
     inkscape:window-width="1920"
     inkscape:window-height="1016"
     id="namedview14"
     showgrid="false"
     inkscape:zoom="21.360282"
     inkscape:cx="10.769935"
     inkscape:cy="8.8984389"
     inkscape:window-x="0"
     inkscape:window-y="27"
     inkscape:window-maximized="1"
     inkscape:current-layer="svg12" /><metadata
     id="metadata2"><ns:sfw><ns:slices /><ns:sliceSourceBounds
         height="16383"
         width="16383"
         x="-8141"
         y="-8142"
         bottomLeftOrigin="true" /></ns:sfw><rdf:RDF><cc:Work
         rdf:about=""><dc:format>image/svg+xml</dc:format><dc:type
           rdf:resource="http://purl.org/dc/dcmitype/StillImage" /><dc:title></dc:title></cc:Work></rdf:RDF></metadata><g
     id="g6"
     transform="matrix(0.11549783,0,0,0.11549783,0.2251092,0.2251083)"
     style="fill:#734a08;fill-opacity:1"><path
       d="M 80,10 H 20 c -5.523,0 -10,4.477 -10,10 v 60 c 0,5.522 4.477,10 10,10 h 60 c 5.522,0 10,-4.478 10,-10 V 20 C 90,14.477 85.522,10 80,10 Z M 57.056,73.812 c 0,2.646 -1.882,4.703 -5.645,6.173 h -2.292 c -2.646,0 -4.704,-1.882 -6.174,-5.645 V 43.827 c 0,-2.646 1.881,-4.704 5.644,-6.174 h 2.292 c 2.647,0 4.705,1.881 6.174,5.644 v 30.515 z m 0,-45.859 c 0,2.646 -1.882,4.703 -5.645,6.173 h -2.292 c -2.646,0 -4.704,-1.881 -6.174,-5.645 v -2.292 c 0,-2.646 1.881,-4.704 5.644,-6.173 h 2.292 c 2.647,0 4.705,1.881 6.174,5.644 v 2.293 z"
       id="path4"
       inkscape:connector-curvature="0"
       style="fill:#734a08;fill-opacity:1" /></g></svg>