<?xml version="1.0" encoding="UTF-8" standalone="no"?>
<svg xmlns="http://www.w3.org/2000/svg" enable-background="new 0 0 100 100" xml:space="preserve" version="1.1" x="0px" y="0px" viewBox="0 0 12 12"><g fill="#734a08" transform="matrix(.11550 0 0 .11550 .22511 .22511)"><path fill="#734a08" d="m80 10h-60c-5.523 0-10 4.477-10 10v60c0 5.522 4.477 10 10 10h60c5.522 0 10-4.478 10-10v-60c0-5.523-4.478-10-10-10zm-22.944 63.812c0 2.646-1.882 4.703-5.645 6.173h-2.292c-2.646 0-4.704-1.882-6.174-5.645v-30.513c0-2.646 1.881-4.704 5.644-6.174h2.292c2.647 0 4.705 1.881 6.174 5.644v30.515zm0-45.859c0 2.646-1.882 4.703-5.645 6.173h-2.292c-2.646 0-4.704-1.881-6.174-5.645v-2.292c0-2.646 1.881-4.704 5.644-6.173h2.292c2.647 0 4.705 1.881 6.174 5.644v2.293z"/></g></svg>
