<?xml version="1.0" encoding="UTF-8"?>
<svg version="1.1" viewBox="0 0 14 14" xmlns="http://www.w3.org/2000/svg">
<rect width="14" height="14" fill="none" visibility="hidden"/>
<path d="m7.0003 0-3 1.5c-0.46505 1.5-0.46505 2.5 0 4.5h1l-1 8h6l-1-8h1c0.53019-2 0.53019-3 0-4.5l-3-1.5zm-6.2812 1.4688c-0.16727 0.084188-0.22937 0.37628 0 0.46875l1.875 0.75c0.30643 0.12354 0.49332-0.34545 0.1875-0.46875l-1.875-0.75c-0.07646-0.030824-0.13174-0.028062-0.1875 0zm12.375 0-1.875 0.75c-0.30582 0.1233-0.11893 0.59229 0.1875 0.46875l1.875-0.75c0.30582-0.1233 0.11832-0.59205-0.1875-0.46875zm-8.5938 0.53125h5c0.25908 1 0.25908 2 0 3h-5c-0.25908-1-0.25908-2 0-3zm-3.75 1.25c-0.32974 0-0.32974 0.5 0 0.5h2c0.3304 0 0.32974-0.5 0-0.5h-2zm10.5 0c-0.32974 0-0.3304 0.5 0 0.5h2c0.32974 0 0.32974-0.5 0-0.5h-2zm-8.6563 1.125-1.875 0.75c-0.30582 0.1233-0.11893 0.59229 0.1875 0.46875l1.875-0.75c0.30582-0.1233 0.11832-0.59205-0.1875-0.46875zm8.625 0c-0.16727 0.084187-0.22937 0.37628 0 0.46875l1.875 0.75c0.30643 0.12354 0.49332-0.34545 0.1875-0.46875l-1.875-0.75c-0.07645-0.030824-0.13174-0.028062-0.1875 0z"/>
</svg>
