<?xml version="1.0" encoding="UTF-8"?>
<svg enable-background="new 0 0 512 512" version="1.1" viewBox="0 0 12 12" xml:space="preserve" xmlns="http://www.w3.org/2000/svg" xmlns:cc="http://creativecommons.org/ns#" xmlns:dc="http://purl.org/dc/elements/1.1/" xmlns:rdf="http://www.w3.org/1999/02/22-rdf-syntax-ns#"><metadata><rdf:RDF><cc:Work rdf:about=""><dc:format>image/svg+xml</dc:format><dc:type rdf:resource="http://purl.org/dc/dcmitype/StillImage"/><dc:title/></cc:Work></rdf:RDF></metadata><path d="m4.0451 0.55603c-0.44472 0-0.82467 0.15436-1.1397 0.46326-0.3089 0.3152-0.46326 0.69185-0.46326 1.1303 0 0.23459 0.049259 0.46018 0.14802 0.67642 0.0063 0.03706 0.021679 0.070753 0.046325 0.1017 0.030945 0.061706 0.074337 0.1236 0.12993 0.1853l1.0472 1.8251c0.061706 0.086536 0.13898 0.12993 0.23163 0.12993 0.086536 0 0.15722-0.034056 0.21281-0.10206h0.00941l0.0185-0.0185c0.0124-0.0187 0.025-0.0403 0.0373-0.0651l1.0097-1.751c0.0434-0.068 0.0864-0.1357 0.1296-0.2037 0.0124-0.031 0.0278-0.065 0.0463-0.1021 0.0926-0.2162 0.139-0.4416 0.139-0.6764 0-0.4386-0.1573-0.8153-0.4723-1.1303-0.3026-0.30888-0.6795-0.46306-1.1303-0.46287zm-0.0188 0.83347c0.22848 0 0.41707 0.073791 0.56532 0.22222 0.15436 0.16677 0.23163 0.35518 0.23163 0.56532 0 0.21625-0.077271 0.40484-0.23163 0.56532-0.024646 0.030946-0.052296 0.058411-0.083241 0.083241-0.0742 0.0434-0.1452 0.0774-0.2132 0.1021-0.0866 0.0309-0.1763 0.0463-0.2689 0.0463-0.0866 0-0.1699-0.0154-0.2501-0.0463-0.0741-0.0247-0.1452-0.0589-0.2132-0.1021-0.0309-0.0248-0.0617-0.0523-0.0926-0.0832-0.1483-0.1605-0.2222-0.3491-0.2222-0.5653 0-0.21013 0.073975-0.39873 0.22222-0.56532 0.1606-0.1485 0.3459-0.2223 0.5559-0.2223zm2.1498 1.4452-0.572 1.0217h3.1169v1.3275c-0.061706-0.04929-0.13568-0.073832-0.22222-0.073832-0.11118 0-0.20987 0.039921-0.29641 0.12016-0.07412 0.080421-0.11111 0.17307-0.11111 0.27795 0 0.11137 0.036988 0.20694 0.11111 0.28736 0.086536 0.086536 0.18523 0.12957 0.29641 0.12957 0.086536 0 0.16051-0.024355 0.22222-0.073831v2.0118h-5.4518v-0.6774c0.012415 0.06782 0.04647 0.12953 0.10206 0.1853 0.080235 0.08005 0.17911 0.12016 0.29641 0.12016 0.10488 0 0.19753-0.039924 0.27795-0.12016 0.080236-0.080421 0.12052-0.176 0.12052-0.28736 0-0.10507-0.040283-0.20083-0.12052-0.28736-0.080421-0.08005-0.17307-0.12016-0.27795-0.12016-0.1173 0-0.21618 0.039921-0.29641 0.12016-0.05559 0.06189-0.089645 0.13275-0.10206 0.21317l0.0179-1.8993-1.0487-1.7937v5.161c0 0.11118 0.039921 0.20988 0.12016 0.29641 0.07412 0.080235 0.16677 0.12052 0.27795 0.12052h6.7172c0.10507 0 0.20083-0.040104 0.28736-0.12052 0.080235-0.086535 0.12052-0.18523 0.12052-0.29641v-5.2443c0-0.11137-0.040283-0.20402-0.12052-0.27795-0.0866-0.0803-0.1823-0.1202-0.2874-0.1202v-3.701e-4zm1.6138 1.6081c-0.11118 0-0.21024 0.040283-0.29677 0.12052-0.07412 0.074306-0.11111 0.17007-0.11111 0.28736 0 0.11137 0.036988 0.20677 0.11111 0.287 0.086536 0.074306 0.18559 0.11147 0.29677 0.11147s0.20658-0.03735 0.287-0.11147c0.086536-0.080235 0.12993-0.17563 0.12993-0.287 0-0.1173-0.043577-0.21324-0.12993-0.28736-0.080236-0.080236-0.17582-0.12052-0.287-0.12052zm-1.0025 0.00977c-0.11118 0-0.20987 0.039921-0.29641 0.12016-0.07412 0.07412-0.11111 0.16677-0.11111 0.27795 0 0.11748 0.036988 0.21635 0.11111 0.29677 0.086536 0.08005 0.18523 0.12016 0.29641 0.12016s0.20383-0.039921 0.27795-0.12016c0.086536-0.080421 0.12993-0.17929 0.12993-0.29677 0-0.11118-0.043578-0.20383-0.12993-0.27795-0.0742-0.0802-0.1669-0.1203-0.278-0.1203zm-0.8802 0.5923c-0.11118 0-0.20658 0.03735-0.287 0.11147-0.07412 0.086536-0.11147 0.18523-0.11147 0.29641 0 0.11137 0.03735 0.20402 0.11147 0.27795 0.080235 0.080236 0.17582 0.12052 0.287 0.12052 0.11748 0 0.21618-0.040099 0.29641-0.12052 0.07412-0.073935 0.11147-0.16659 0.11147-0.27795 0-0.11118-0.03735-0.20987-0.11147-0.29641-0.0803-0.0743-0.1791-0.1115-0.2964-0.1115zm-0.3658 0.9638c-0.10507 0-0.19772 0.037165-0.27795 0.11147-0.080236 0.080236-0.12052 0.176-0.12052 0.28736 0 0.11118 0.040097 0.20383 0.12052 0.27795 0.080236 0.086536 0.17289 0.12957 0.27795 0.12957 0.11748 0 0.21618-0.043031 0.29641-0.12957 0.080236-0.07412 0.12052-0.16677 0.12052-0.27795 0-0.11137-0.040098-0.20713-0.12052-0.28736-0.0802-0.0743-0.1791-0.1115-0.2964-0.1115zm-0.8523 0.6207c-0.1173 0-0.21618 0.040283-0.29641 0.12052-0.080236 0.086536-0.12052 0.18212-0.12052 0.287 0 0.11137 0.040283 0.20713 0.12052 0.28736 0.080236 0.086536 0.17911 0.12957 0.29641 0.12957 0.10488 0 0.19753-0.043028 0.27795-0.12957 0.080236-0.080421 0.12052-0.176 0.12052-0.28736 0-0.10507-0.040283-0.20047-0.12052-0.287-0.0804-0.08-0.173-0.1205-0.2779-0.1205zm1.6791-5.4862c-0.11354 0-0.20703 0.091461-0.20703 0.20703v1.4864h1.0253v-1.5059c-0.011-0.1032-0.0913-0.1875-0.1992-0.1875zm-0.2051 7.7344v2.3594c0 0.11354 0.091461 0.20703 0.20703 0.20703h0.61914c0.10445 0 0.18392-0.08123 0.19727-0.18359v-2.3824z" fill="#734a08" stroke-width=".1853"/></svg>
