<?xml version="1.0" encoding="UTF-8"?>
<svg version="1.1" viewBox="0 0 16 16" xmlns="http://www.w3.org/2000/svg" xmlns:cc="http://creativecommons.org/ns#" xmlns:dc="http://purl.org/dc/elements/1.1/" xmlns:rdf="http://www.w3.org/1999/02/22-rdf-syntax-ns#">
<metadata>
<rdf:RDF>
<cc:Work rdf:about="">
<dc:format>image/svg+xml</dc:format>
<dc:type rdf:resource="http://purl.org/dc/dcmitype/StillImage"/>
<dc:title/>
</cc:Work>
</rdf:RDF>
</metadata>
<rect width="16" height="16" fill="none" visibility="hidden"/>
<path transform="translate(1,1)" d="m7 1-6 2v1h12v-1zm-6 4v1h1v5h-1l-1 2h14l-1-2h-1v-5h1v-1zm4 1c0.49737 0 1 0.53259 1 1v4h-2v-4c0-0.52733 0.50263-1 1-1zm4 0c0.50336 0 1 0.47267 1 1v4h-2v-4c0-0.52733 0.49664-1 1-1z" fill="#734a08"/>
</svg>
