<?xml version="1.0" encoding="UTF-8"?>
<svg version="1.1" viewBox="0 0 16 16" xmlns="http://www.w3.org/2000/svg" xmlns:cc="http://creativecommons.org/ns#" xmlns:dc="http://purl.org/dc/elements/1.1/" xmlns:rdf="http://www.w3.org/1999/02/22-rdf-syntax-ns#">
<metadata>
<rdf:RDF>
<cc:Work rdf:about="">
<dc:format>image/svg+xml</dc:format>
<dc:type rdf:resource="http://purl.org/dc/dcmitype/StillImage"/>
<dc:title/>
</cc:Work>
</rdf:RDF>
</metadata>
<rect width="16" height="16" fill="none" visibility="hidden"/>
<path transform="translate(1,1)" d="m2.9995 2c-1.322 0-1.322 1.5 0 1.5h8c1.3391 0 1.339-1.5 0-1.5h-8zm1 2-0.75 3h-2.25c-1.322 0-1.322 1.5 0 1.5h1.875l-0.875 3.5h1.5l0.875-3.5h5.25l0.875 3.5h1.5l-0.875-3.5h1.875c1.3391 0 1.339-1.5 0-1.5h-2.25l-0.75-3h-1.5l0.75 3h-4.5l0.75-3h-1.5z" fill="#734a08"/>
</svg>
