<?xml version="1.0" encoding="UTF-8"?>
<svg version="1.1" viewBox="0 0 14 14" xmlns="http://www.w3.org/2000/svg">
<rect width="14" height="14" fill="none" visibility="hidden"/>
<path d="m2.5 2c-0.81124 0-1.5 0.68876-1.5 1.5v7c0 0.76929 0.66779 1.5 1.5 1.5h9c0.74832 0 1.5-0.70974 1.5-1.5v-7c0-0.76929-0.73071-1.5-1.5-1.5zm0 1c0.27614 0 0.5 0.22386 0.5 0.5s-0.22386 0.5-0.5 0.5-0.5-0.22386-0.5-0.5 0.22386-0.5 0.5-0.5zm9 0c0.27614 0 0.5 0.22386 0.5 0.5s-0.22386 0.5-0.5 0.5-0.5-0.22386-0.5-0.5 0.22386-0.5 0.5-0.5zm-6.5 1h1v1h-1zm2 0h2v1h-2zm-4 2h8v1h-8zm2 2h4v1h-4zm-2.5 2c0.27614 0 0.5 0.22386 0.5 0.5s-0.22386 0.5-0.5 0.5-0.5-0.22386-0.5-0.5 0.22386-0.5 0.5-0.5zm9 0c0.27614 0 0.5 0.22386 0.5 0.5s-0.22386 0.5-0.5 0.5-0.5-0.22386-0.5-0.5 0.22386-0.5 0.5-0.5z"/>
</svg>
