<?xml version="1.0" encoding="UTF-8"?>
<svg version="1.1" viewBox="0 0 14 14" xmlns="http://www.w3.org/2000/svg">
<path d="m7 0c-0.57353 0-1.0391 0.46554-1.0391 1.0391 0 0.57353 0.46554 1.0371 1.0391 1.0371s1.0391-0.46358 1.0391-1.0371c0-0.57353-0.46554-1.0391-1.0391-1.0391zm-1.0391 2.7695c-0.36508 0-0.69141 0.33173-0.69141 0.69141 0 0.69231 1.2109 2.7817 1.2109 3.4629v2.0762h1.0391v-2.0762c0-0.6677 1.2109-2.7706 1.2109-3.4629 0-0.38311-0.30973-0.69141-0.69141-0.69141h-2.0781zm-1.9609 7.2305v1h6v-1h-6zm1 2v2h4v-2h-4z" fill-rule="evenodd" style="paint-order:markers stroke fill"/>
</svg>
