<?xml version="1.0" encoding="UTF-8"?>
<svg version="1.1" viewBox="0 0 16 16" xmlns="http://www.w3.org/2000/svg" xmlns:cc="http://creativecommons.org/ns#" xmlns:dc="http://purl.org/dc/elements/1.1/" xmlns:rdf="http://www.w3.org/1999/02/22-rdf-syntax-ns#">
<metadata>
<rdf:RDF>
<cc:Work rdf:about="">
<dc:format>image/svg+xml</dc:format>
<dc:type rdf:resource="http://purl.org/dc/dcmitype/StillImage"/>
<dc:title/>
</cc:Work>
</rdf:RDF>
</metadata>
<rect width="16" height="16" fill="none" visibility="hidden"/>
<path transform="translate(1,1)" d="m0 0v7s0 4 4 4c0.48769 0 0.90523-0.08308 1.2812-0.1875-0.058388-0.48329-0.03125-0.8125-0.03125-0.8125v-0.21875c-0.34301 0.13393-0.75999 0.21875-1.25 0.21875-3 0-3-3-3-3v-5.5c2 0.95206 4 0.95206 6 0v1.1562c0.33449 0.13313 0.67663 0.2575 1 0.34375v-3c-3 1.3729-5 1.3051-8 0zm2.5 3c-0.55228 0-1 0.44772-1 1s0.44772 1 1 1 1-0.44772 1-1-0.44772-1-1-1zm3.5 0v7s0 4 4 4 4-4 4-4v-7c-3 1.3729-5 1.3051-8 0zm2.5 3c0.55228 0 1 0.44772 1 1 0 0.55228-0.44772 1-1 1s-1-0.44772-1-1c0-0.55228 0.44772-1 1-1zm3 0c0.55228 0 1 0.44772 1 1 0 0.55228-0.44772 1-1 1s-1-0.44772-1-1c0-0.55228 0.44772-1 1-1zm-7.5 0.5c-1.4622 0-2 1.0169-2 2h3.25v-1.6562c-0.3043-0.22155-0.70412-0.34375-1.25-0.34375zm4 3.5h4c0 1-1 2-2 2s-2-1-2-2z" fill="#734a08"/>
</svg>
