<?xml version="1.0" encoding="UTF-8"?>
<svg enable-background="new 0 0 100 100" version="1.1" viewBox="0 0 100 100" xml:space="preserve" xmlns="http://www.w3.org/2000/svg"><g transform="matrix(1.2246 0 0 1.2226 -12.403 17.471)" stroke-width=".81726"><path d="m85.16 32.515c-1.608 0.768-3.407 1.169-5.28 1.169-1.53 0-3.024-0.275-4.432-0.81-0.945-0.359-1.813-0.828-2.606-1.398-2.053 1.669-4.736 2.608-7.557 2.608-2.402 0-4.71-0.675-6.617-1.926-2.073 1.747-4.808 2.734-7.711 2.734-2.904 0-5.649-0.979-7.711-2.734-1.907 1.245-4.216 1.926-6.62 1.926-2.818 0-5.511-0.938-7.556-2.608-0.791 0.57-1.66 1.031-2.607 1.398-1.396 0.535-2.889 0.81-4.43 0.81-1.866 0-3.672-0.411-5.28-1.169l-5.086 33.404c-0.131 0.827 0.509 1.575 1.353 1.575l27.45 0.01c1.063 0 2.018-0.665 2.394-1.662l6.891-19.621c0.401-1.142 2.013-1.142 2.413 0l6.883 19.621c0.373 0.997 1.33 1.662 2.394 1.662l27.45-0.01c0.831 0 1.481-0.749 1.354-1.575z"/><path d="m17.16 29.84c1.387 0.808 3.065 1.288 4.873 1.288 2.504 0 4.754-0.912 6.331-2.371 0.214-0.194 0.485-0.299 0.756-0.299 0.3 0 0.599 0.121 0.82 0.351 1.586 1.661 3.986 2.719 6.686 2.719 2.346 0 4.473-0.801 6.023-2.096 0.214-0.18 0.46-0.265 0.718-0.265 0.296 0 0.595 0.121 0.815 0.358 1.578 1.713 4.03 2.811 6.774 2.811 2.742 0 5.197-1.098 6.773-2.811 0.221-0.238 0.518-0.358 0.817-0.358 0.255 0 0.511 0.085 0.716 0.265 1.551 1.295 3.678 2.096 6.021 2.096 2.701 0 5.102-1.059 6.69-2.719 0.22-0.23 0.516-0.351 0.817-0.351 0.271 0 0.537 0.097 0.756 0.299 1.576 1.459 3.827 2.371 6.331 2.371 1.806 0 3.483-0.479 4.873-1.288 2.265-1.33 3.748-3.562 3.748-6.083v-7.66h-75.086v7.66c0 2.532 1.483 4.754 3.748 6.083z"/><path d="m87.138 12.979-33.626-18.06v-6.653c0-1.414-1.141-2.556-2.555-2.556-1.415 0-2.558 1.142-2.558 2.556v6.653l-33.626 18.06c-0.195 0.111-0.382 0.239-0.545 0.393h73.456c-0.163-0.154-0.341-0.282-0.546-0.393z"/></g></svg>
