<?xml version="1.0" encoding="UTF-8"?>
<svg version="1.1" viewBox="0 0 16 16" xmlns="http://www.w3.org/2000/svg" xmlns:cc="http://creativecommons.org/ns#" xmlns:dc="http://purl.org/dc/elements/1.1/" xmlns:rdf="http://www.w3.org/1999/02/22-rdf-syntax-ns#">
<metadata>
<rdf:RDF>
<cc:Work rdf:about="">
<dc:format>image/svg+xml</dc:format>
<dc:type rdf:resource="http://purl.org/dc/dcmitype/StillImage"/>
<dc:title/>
</cc:Work>
</rdf:RDF>
</metadata>
<rect width="16" height="16" fill="none" visibility="hidden"/>
<path transform="translate(1,1)" d="m9.6562 0.59375c-0.30247 0.046264-0.57395 0.24857-0.75 0.5-0.41472 0.5605-0.52163 1.2542-0.71875 1.9062-0.22124 0.84206-0.43529 1.7006-0.5625 2.5625-0.0206 0.24816 0.16765 0.30198 0.40625 0.0625 0.82518-0.76845 1.6377-1.5803 2.4375-2.375 0.19432-0.20649 0.3892-0.41022 0.53125-0.65625 0.22114-0.36965 0.32502-0.85819 0.09375-1.25-0.23876-0.39604-0.67593-0.66523-1.125-0.75-0.10374-0.019757-0.21168-0.015421-0.3125 0zm-5.4375 0.0625c-0.46237 0.008185-0.92037 0.24759-1.2188 0.59375-0.2763 0.31951-0.26625 0.78513-0.09375 1.1562 0.27727 0.63975 0.81571 1.0964 1.2812 1.5938 0.61787 0.61339 1.2554 1.2081 1.9375 1.75 0.20444 0.14217 0.3377 0.013969 0.25-0.3125-0.25156-1.0992-0.52545-2.1909-0.8125-3.2812-0.08133-0.27163-0.17076-0.56629-0.3125-0.8125-0.20909-0.37659-0.57629-0.69132-1.0312-0.6875zm-3.2188 5c-0.32714 0.057138-0.64419 0.23442-0.8125 0.53125-0.22435 0.40438-0.24408 0.91218-0.09375 1.3438 0.1383 0.39913 0.56113 0.65108 0.96875 0.6875 0.69262 0.080182 1.3364-0.18965 2-0.34375 0.84029-0.22788 1.6894-0.46198 2.5-0.78125 0.22541-0.10582 0.17029-0.31875-0.15625-0.40625-1.0775-0.33239-2.1624-0.64025-3.25-0.9375-0.27586-0.065557-0.55966-0.093218-0.84375-0.09375-0.10767-0.0018652-0.20345-0.019046-0.3125 0zm11.688 0c-0.2841 5.322e-4 -0.56789 0.028193-0.84375 0.09375-1.0876 0.29725-2.1725 0.60511-3.25 0.9375-0.32654 0.087496-0.38166 0.30043-0.15625 0.40625 0.81058 0.31927 1.6597 0.55337 2.5 0.78125 0.66356 0.1541 1.3074 0.42394 2 0.34375 0.40762-0.03642 0.83045-0.28837 0.96875-0.6875 0.15032-0.43157 0.1306-0.93937-0.09375-1.3438-0.22441-0.39578-0.69432-0.53871-1.125-0.53125zm-6.4062 2.4062c-0.04018 0.0022215-0.10514 0.026957-0.15625 0.0625-0.68212 0.54193-1.3196 1.1679-1.9375 1.7812-0.46554 0.49732-1.004 0.92275-1.2812 1.5625-0.1725 0.37112-0.18255 0.83674 0.09375 1.1562 0.29838 0.34616 0.75638 0.61677 1.2188 0.625 0.45496 0.003823 0.82216-0.34216 1.0312-0.71875 0.14174-0.24621 0.23117-0.50962 0.3125-0.78125 0.28705-1.0903 0.56094-2.2133 0.8125-3.3125 0.065775-0.24485 0.02679-0.38166-0.09375-0.375zm1.4688 0.0625c-0.073591 0.013699-0.1353 0.09467-0.125 0.21875 0.12721 0.86185 0.34126 1.6892 0.5625 2.5312 0.19712 0.65207 0.30404 1.377 0.71875 1.9375 0.23473 0.33524 0.64755 0.54778 1.0625 0.46875 0.44907-0.08477 0.88624-0.35396 1.125-0.75 0.23127-0.39181 0.12739-0.88036-0.09375-1.25-0.14205-0.24603-0.33693-0.44976-0.53125-0.65625-0.79976-0.79474-1.6123-1.5753-2.4375-2.3438-0.1193-0.11974-0.20766-0.16995-0.28125-0.15625z" fill="#734a08"/>
</svg>
