<?xml version="1.0" encoding="UTF-8"?>
<svg version="1.1" viewBox="0 0 14 14" xmlns="http://www.w3.org/2000/svg">
<rect width="14" height="14" fill="none" visibility="hidden"/>
<path d="m3.8435 12.533c-0.73528-0.41343-1.3813-0.77323-1.4357-0.79957-0.095315-0.0462-0.13739-0.0262-1.1883 0.56366-0.59923 0.33635-1.1188 0.62625-1.1545 0.64423-0.061037 0.03069-0.064987-0.01697-0.064987-0.78431v-0.81698l1.1478-0.64564c0.63127-0.3551 1.1564-0.64564 1.1669-0.64564 0.010502 0 0.65958 0.36012 1.4424 0.80027 0.78283 0.44015 1.4484 0.8002 1.479 0.80009 0.030637-1e-4 0.69794-0.3608 1.4829-0.80156 0.78496-0.44075 1.4499-0.79322 1.4776-0.78326 0.027708 0.01 0.67399 0.37067 1.4362 0.80158 0.76219 0.4309 1.4121 0.78346 1.4442 0.78346 0.03211 0 0.67144-0.34489 1.4207-0.76642s1.3939-0.78221 1.4323-0.80151c0.06764-0.0339 0.06999-8e-3 0.06999 0.78192v0.81702l-1.4263 0.80219c-0.78449 0.4412-1.4545 0.80218-1.4888 0.80218-0.03437 0-0.69098-0.35351-1.4591-0.78559-0.76815-0.43207-1.4228-0.78743-1.4548-0.78968-0.031969-2e-3 -0.6899 0.35125-1.4621 0.78558-0.77216 0.43433-1.432 0.78968-1.4662 0.78967-0.034253-1e-5 -0.66387-0.33827-1.3991-0.75169zm-0.04933-2.7626c-0.78283-0.44015-1.446-0.80028-1.4736-0.80028-0.027647 0-0.5402 0.27588-1.139 0.61306-0.5988 0.33719-1.1096 0.62071-1.1352 0.63004-0.036947 0.0135-0.045953-0.66007-0.044137-3.301l0.0022827-3.318 1.4137-1.1308c0.77756-0.62196 1.4438-1.1308 1.4806-1.1308 0.036751 0 0.48668 0.33664 0.99985 0.7481 0.51316 0.41146 0.94977 0.75362 0.97024 0.76037 0.02047 7e-3 0.14069-0.08 0.26715-0.19282 1.0441-0.93132 2.4158-1.4182 3.8276-1.3586 2.4284 0.10255 4.4129 1.6853 4.932 3.9334 0.10817 0.46851 0.11729 1.4124 0.01814 1.8775-0.22269 1.0446-0.78587 1.9884-1.6148 2.7062-0.25309 0.21915-0.58886 0.4375-1.068 0.69448l-0.1509 0.0809-0.58253-0.32742c-0.32039-0.18007-0.5821-0.34315-0.58159-0.36238 4.642e-4 -0.0192 0.13935-0.0853 0.30851-0.14689 0.53559-0.19489 1.2128-0.59959 1.2414-0.74192 0.0056-0.028-0.3463-0.38448-0.78207-0.79225l-0.79231-0.74141-0.27605 0.13896c-0.15183 0.0764-0.35961 0.15788-0.46173 0.181-0.10212 0.0231-0.20656 0.0574-0.2321 0.0761-0.034429 0.0252-0.046419 0.21719-0.046419 0.74307 0 0.38998-0.00996 0.70905-0.022122 0.70905-0.012166 0-0.070654-0.0269-0.12997-0.0597l-0.10785-0.0597v-0.6211c0-0.62192-0.02345-0.75571-0.13245-0.75571-0.10994 0-0.50301-0.14223-0.68829-0.24904l-0.18907-0.10901-0.79483 0.74415c-0.43716 0.40927-0.79483 0.76263-0.79483 0.78523 0 0.0638 0.32218 0.30655 0.60147 0.45326 0.15451 0.0812 0.24871 0.15235 0.24295 0.18357-0.00795 0.0431-1.5539 0.9407-1.6201 0.94065-0.012479-1e-5 -0.66319-0.36014-1.446-0.80029zm2.8123-1.7538 0.79419-0.74474-0.11634-0.17716c-0.114-0.1736-0.26579-0.5419-0.26579-0.64491 0-0.0286-0.032323-0.0683-0.071829-0.0881-0.08883-0.0445-2.1519-0.0486-2.2265-4e-3 -0.12314 0.0731 0.072095 0.9396 0.32613 1.4475 0.21101 0.42192 0.61508 0.95645 0.72301 0.95645 0.023592 0 0.40028-0.33514 0.83708-0.74475zm5.3065 0.58367c0.201-0.22033 0.47108-0.64645 0.60602-0.95612 0.20679-0.47459 0.35363-1.2261 0.25142-1.2868-0.08605-0.0511-2.2081-0.04-2.2513 0.0118-0.01998 0.0239-0.05652 0.12179-0.0812 0.21747-0.02468 0.0957-0.11161 0.29038-0.19318 0.43264l-0.1483 0.25866 0.79094 0.74171c0.43502 0.40793 0.81068 0.7417 0.8348 0.7417s0.10998-0.0725 0.1908-0.16108zm-4.9295-2.5878c0.015784-0.0287 0.063129-0.157 0.10521-0.2851 0.042082-0.1281 0.12953-0.31365 0.19433-0.41232l0.11782-0.17941-0.80383-0.75318c-0.68594-0.64271-0.81336-0.74771-0.86886-0.71593-0.12765 0.0731-0.46229 0.52495-0.64279 0.86796-0.27693 0.52626-0.49656 1.4374-0.36542 1.516 0.028559 0.0171 0.54308 0.0273 1.1434 0.0226 0.92641-7e-3 1.0958-0.0164 1.1202-0.0606zm5.787 0.0379c0.11119-0.066-0.05637-0.85312-0.28952-1.3601-0.20388-0.44333-0.64092-1.0439-0.75967-1.0439-0.02359 0-0.40192 0.33668-0.84074 0.74818-0.70633 0.66236-0.79247 0.75515-0.75098 0.80899 0.10734 0.13929 0.30149 0.54498 0.32566 0.68049 0.0143 0.0802 0.04485 0.15732 0.06788 0.17138 0.05987 0.0366 2.1853 0.0318 2.2474-5e-3zm-4.8914-1.2535c0.14964-0.0753 0.35564-0.15588 0.45776-0.179 0.10212-0.0231 0.20656-0.0574 0.2321-0.0761 0.055034-0.0404 0.067158-2.0287 0.012859-2.109-0.08263-0.12224-1.0612 0.0844-1.6181 0.3417-0.36592 0.16905-0.84833 0.48267-0.92625 0.60216-0.033799 0.0518 0.078215 0.17135 0.75819 0.80899 0.43881 0.4115 0.80088 0.74818 0.8046 0.74818 0.00371 0 0.12919-0.0616 0.27884-0.13695zm2.8062-0.60215c0.43419-0.4065 0.78944-0.75718 0.78944-0.77929 0-0.11275-0.64165-0.52095-1.1283-0.71777-0.53301-0.21559-1.3669-0.36951-1.4374-0.26531-0.039302 0.0582-0.044442 2.0506-0.00543 2.1035 0.015006 0.0203 0.11919 0.0559 0.23153 0.0792 0.11233 0.0232 0.32122 0.10325 0.46419 0.17786 0.14297 0.0746 0.26816 0.13686 0.2782 0.13832 0.010038 1e-3 0.3735-0.32993 0.80769-0.73643z"/>
</svg>
