<?xml version="1.0" encoding="UTF-8"?>
<svg version="1.1" viewBox="0 0 14 14" xmlns="http://www.w3.org/2000/svg">
<rect width="14" height="14" fill="none" visibility="hidden"/>
<path d="m2.7188 0-1.7188 1.7188 4.9688 4.2812-4.9688 4.2812 1.7188 1.7188 4.2812-4.9688 4.2812 4.9688 1.7188-1.7188-4.9688-4.2812 4.9688-4.2812-1.7188-1.7188-4.2812 4.9688-4.2812-4.9688zm4.2812 2c-0.41539 0-0.76281 0.0902-1.0625 0.21875l1.0625 1.2188 1.0625-1.2188c-0.29801-0.13548-0.65209-0.21875-1.0625-0.21875zm0 3.5c0.27614 0 0.5 0.22386 0.5 0.5s-0.22386 0.5-0.5 0.5-0.5-0.22386-0.5-0.5 0.22386-0.5 0.5-0.5zm-2.8125 0.28125-0.03125 0.46875 0.28125-0.25-0.25-0.21875zm5.625 0-0.25 0.21875 0.28125 0.25-0.03125-0.46875zm-2.8125 2.7812-3.375 3.9062-0.125 1.5312h7l-0.125-1.5312-3.375-3.9062z"/>
</svg>
