<?xml version="1.0" encoding="UTF-8"?>
<svg version="1.1" viewBox="0 0 16 16" xmlns="http://www.w3.org/2000/svg" xmlns:cc="http://creativecommons.org/ns#" xmlns:dc="http://purl.org/dc/elements/1.1/" xmlns:rdf="http://www.w3.org/1999/02/22-rdf-syntax-ns#">
<metadata>
<rdf:RDF>
<cc:Work rdf:about="">
<dc:format>image/svg+xml</dc:format>
<dc:type rdf:resource="http://purl.org/dc/dcmitype/StillImage"/>
<dc:title/>
</cc:Work>
</rdf:RDF>
</metadata>
<rect width="16" height="16" fill="none" visibility="hidden"/>
<path transform="translate(1,1)" d="m7.0002 0.023159c-0.24614-0.00213-0.48457 0.32501-0.5 0.96875-2.897 0.25455-5.2437 2.6024-5.5 5.5-1.2704 0-1.2875 0.96914 0 1 0.22832 2.9166 2.5848 5.2193 5.5 5.4688 0 1.4046 1 1.356 1 0 2.9354-0.2223 5.2464-2.5319 5.4688-5.4688 1.3946 0 1.3559-1 0-1-0.2496-2.9178-2.5517-5.2732-5.4688-5.5 0-0.6352-0.25386-0.96662-0.5-0.96875zm-0.5 2.2812v3.5l-2.4688-2.4688c0.68849-0.56014 1.5365-0.92854 2.4688-1.0312zm1 0c0.93137 0.098765 1.774 0.47543 2.4688 1.0312l-2.4688 2.4688v-3.5zm3.1875 1.7188c0.55875 0.68765 0.92821 1.5367 1.0312 2.4688h-3.5l2.4688-2.4688zm-7.3438 0.03125 2.4375 2.4375h-3.4688c0.10768-0.91468 0.48289-1.7563 1.0312-2.4375zm3.6562 2.1875c0.41421 0 0.75 0.33579 0.75 0.75s-0.33579 0.75-0.75 0.75-0.75-0.33579-0.75-0.75 0.33579-0.75 0.75-0.75zm-4.6875 1.25h3.5312l-2.5 2.5c-0.56383-0.69724-0.9343-1.5589-1.0312-2.5zm5.8438 0h3.5625c-0.10016 0.95198-0.49367 1.8015-1.0625 2.5l-2.5-2.5zm-1.6562 0.71875v3.5c-0.93209-0.10304-1.7811-0.4725-2.4688-1.0312l2.4688-2.4688zm1 0 2.4688 2.5c-0.68769 0.54434-1.5388 0.90524-2.4688 1v-3.5z" fill="#444"/>
</svg>
