<?xml version="1.0" encoding="UTF-8"?>
<svg version="1.1" viewBox="0 0 16 16" xmlns="http://www.w3.org/2000/svg" xmlns:cc="http://creativecommons.org/ns#" xmlns:dc="http://purl.org/dc/elements/1.1/" xmlns:rdf="http://www.w3.org/1999/02/22-rdf-syntax-ns#">
<metadata>
<rdf:RDF>
<cc:Work rdf:about="">
<dc:format>image/svg+xml</dc:format>
<dc:type rdf:resource="http://purl.org/dc/dcmitype/StillImage"/>
<dc:title/>
</cc:Work>
</rdf:RDF>
</metadata>
<rect width="16" height="16" fill="none" visibility="hidden"/>
<path transform="translate(1,1)" d="m6 2s1.5983 2.8202 4 0.5c0.33098 0.5 1 1.5 1 1.5s-3.4434 2.3559-5-2zm-5 2c0.28862 0.60879 0.66053 1.3573 1 2 0.50445-1 2-1 2-1 1 0 1.7339 0.39181 1.7339 1.0271s-0.73386 0.97287-1.7339 0.97287v1.5c1.3109-0.24872 2.0026 0.78956 1.6821 1.507-0.6072 1.3594-4.1782 1.5197-5.6821-1.007 0 3.9878 3.4415 4 4 4 2 0 3-2 3-4 0.5208 0.54304 1.3549 0.54562 2 0 0.9048-0.76528 1.2587-2.0101 2.5-2 1.5137 0.01234 1.5 3 0.5 4-1 1-3.394 0.6447-4-1 0 1 0 3.0014 3 3 3-0.0014 3.6081-3.384 2.5-6-0.68487-1.6168-1.9671-2.0501-3.35-1.6217-1.0681 0.3309-1.0192 0.80435-1.65 1.6217-0.32944 0.39571-0.5 1-1.5 1-0.34712 0-0.77168-0.27448-1-0.5 1.2381-0.88484 1.0558-2.587 0-3.5-1.3879-1.2001-3.8401-0.95474-5 0zm6-2 1-1 1 1-1 1z"/>
</svg>
