<?xml version="1.0" encoding="UTF-8"?>
<svg version="1.1" viewBox="0 0 14 14" xmlns="http://www.w3.org/2000/svg">
<rect width="14" height="14" fill="none" visibility="hidden"/>
<path d="m7 0-2.0006 3.5h-3.9994l2.0006 3.5-2.0006 3.5h3.9994l2.0006 3.5 2.0006-3.5h3.9994l-2.0006-3.5 2.0006-3.5h-3.9994zm0 1.7517 0.99944 1.7483h-1.9989zm-4.4983 2.6233h1.9989l-0.99944 1.7483zm3 0h2.9966l1.5 2.625-1.5 2.625h-2.9966l-1.5-2.625zm3.9977 0h1.9989l-0.99944 1.7483zm-5.9983 3.5017 0.99944 1.7483h-1.9989zm6.9977 0 0.99944 1.7483h-1.9989zm-4.4983 2.6233h1.9989l-0.99944 1.7483z" stroke-width=".87041"/>
</svg>
