<?xml version="1.0" encoding="UTF-8"?>
<svg version="1.1" viewBox="0 0 16 16" xmlns="http://www.w3.org/2000/svg" xmlns:cc="http://creativecommons.org/ns#" xmlns:dc="http://purl.org/dc/elements/1.1/" xmlns:rdf="http://www.w3.org/1999/02/22-rdf-syntax-ns#">
<metadata>
<rdf:RDF>
<cc:Work rdf:about="">
<dc:format>image/svg+xml</dc:format>
<dc:type rdf:resource="http://purl.org/dc/dcmitype/StillImage"/>
<dc:title/>
</cc:Work>
</rdf:RDF>
</metadata>
<rect width="16" height="16" fill="none" visibility="hidden"/>
<path transform="translate(1,1)" d="m7.0312 0-2.0312 3.4688h-4l2 3.5-2 3.5h4l2.0312 3.5312 2-3.5312h3.9688l-1.9688-3.5 1.9688-3.5h-3.9688zm0 2.4375 0.59375 1.0312h-1.1875zm-3.9062 2.1875h1.2188l-0.625 1.0625zm2.6562 0h2.5l1.3125 2.3438-1.3125 2.3438h-2.5l-1.3125-2.3438zm3.9062 0h1.25l-0.625 1.0938zm0.625 3.5938 0.625 1.0938h-1.25zm-6.5938 0.03125 0.625 1.0625h-1.2188zm2.7188 2.2188h1.1875l-0.59375 1.0312z"/>
</svg>
