<?xml version="1.0" encoding="UTF-8"?>
<svg version="1.1" viewBox="0 0 16 16" xmlns="http://www.w3.org/2000/svg" xmlns:cc="http://creativecommons.org/ns#" xmlns:dc="http://purl.org/dc/elements/1.1/" xmlns:rdf="http://www.w3.org/1999/02/22-rdf-syntax-ns#">
<metadata>
<rdf:RDF>
<cc:Work rdf:about="">
<dc:format>image/svg+xml</dc:format>
<dc:type rdf:resource="http://purl.org/dc/dcmitype/StillImage"/>
<dc:title/>
</cc:Work>
</rdf:RDF>
</metadata>
<rect width="16" height="16" fill="none" visibility="hidden"/>
<path transform="translate(1,1)" d="m6 1c-3.3904 0-6 2.6096-6 6s2.6096 6 6 6c1.8957 0 3.8739-0.6497 5-2-0.7358 0.479-2.0566 1-3 1-2.5927 0-5-2.4073-5-5s2.4073-5 5-5c0.9434 0 2.2642 0.5211 3 1-1.1261-1.3502-3.1043-2-5-2zm4.5 3-1 2h-2.5l2 1.5-1 2.5 2.5-1.5 2.5 1.5-1-2.5 2-1.5h-2.5l-1-2z" fill="#444"/>
</svg>
