<?xml version="1.0" encoding="UTF-8"?>
<svg version="1.1" viewBox="0 0 16 16" xmlns="http://www.w3.org/2000/svg">
<rect width="14" height="14" fill="none" visibility="hidden"/>
<path d="m0 0c0 1 0.65454 1.6392 1 1.9844s0.84268 0.21218 0.84268 0.47248c0 0 0.15732 0.52752 0.65732 0.52752h1.25c0 0.28764 0.25 0.5 0.25 0.5s-0.25 0.14045-0.25 0.5h-1.25c-0.5 0-0.5 0.25-0.5 0.5v1c0 0.2397 0.2311 0.5 0.5 0.5h1.25v1h-0.75c0 0.40603 0.27061 0.73159 0.75 1v5.5c0 0.65865 1.5 0.71573 1.5 0v-7.5h3.5v7.5c0 0.69176 1.5 0.64382 1.5 0 0 0-1e-6 -5.1836 0-5.5 0.47939-0.31161 0.75-0.59252 0.75-1h-0.75v-1h1.25c0.22096 0 0.5-0.2603 0.5-0.5v-1c0-0.5-0.27434-0.5-0.5-0.5h-1.25c0.02397-0.26367-0.25-0.5-0.25-0.5s0.25-0.21236 0.25-0.5h1.25c0.5 0 0.5-0.5 0.5-0.5 0-0.23633 0.58284-0.13861 1-0.5s1-0.98439 1-1.9844c-6 1-9 1-14 0zm5.25 2.9844h1v1h-1c0-0.28764-0.25-0.5-0.25-0.5s0.25-0.18839 0.25-0.5zm2.5 0h1c0 0.26475 0.25 0.5 0.25 0.5s-0.25 0.23633-0.25 0.5h-1z"/>
</svg>
