<?xml version="1.0" encoding="UTF-8"?>
<svg version="1.1" viewBox="0 0 16 16" xmlns="http://www.w3.org/2000/svg" xmlns:cc="http://creativecommons.org/ns#" xmlns:dc="http://purl.org/dc/elements/1.1/" xmlns:rdf="http://www.w3.org/1999/02/22-rdf-syntax-ns#">
<metadata>
<rdf:RDF>
<cc:Work rdf:about="">
<dc:format>image/svg+xml</dc:format>
<dc:type rdf:resource="http://purl.org/dc/dcmitype/StillImage"/>
<dc:title/>
</cc:Work>
</rdf:RDF>
</metadata>
<rect width="16" height="16" fill="none" visibility="hidden"/>
<path transform="translate(1,1)" d="m6.9843 0-1.0026 1c0.06256 0.43679 0.07838 0.77495 0.12533 1.1562-1.2244 0.37983-2.1305 1.4976-2.1305 2.8438 0 1.3565 0.9229 2.4728 2.1619 2.8438-0.05102 0.3761-0.08535 0.72952-0.15666 1.1562l0.50131 0.5v0.40625c-0.92162-0.62071-1.9015-1.311-2.5065-1.9062-2.0328-2-1.4962-5.5 1.0026-7-1.999 0.5-3.9791 2.3084-3.9791 5 0 3 2.9765 4 2.9765 5l1.0026-1 1.2846 0.71875c-0.61417 0.37957-1.2846 0.78125-1.2846 0.78125l0.50131 0.5 1.0653-0.59375v0.71875c-0.32543 0.16525-0.56397 0.48581-0.56397 0.875 0 0.55228 0.44888 1 1.0026 1 0.55373 0 1.0026-0.44772 1.0026-1 0-0.38919-0.2072-0.70975-0.53264-0.875v-0.71875l1.0339 0.59375 0.5013-0.5s-0.70672-0.44273-1.2533-0.78125l1.2533-0.71875 1.0026 1c0-1 3.0078-2 3.0078-5 0-2.6916-2.0052-4.5-4.0104-5 2.5065 1.5 3.0417 5 1.0026 7-0.6148 0.60301-1.5712 1.311-2.5065 1.9375v-0.4375l0.5013-0.5c-0.06922-0.41422-0.10656-0.77489-0.15666-1.1562 1.239-0.37095 2.1619-1.4872 2.1619-2.8438s-0.9229-2.4728-2.1619-2.8438c0.0501-0.38136 0.08744-0.74203 0.15666-1.1562l-1.0026-1zm0.72063 3.125c0.75333 0.28777 1.2846 1.0224 1.2846 1.875s-0.53126 1.5872-1.2846 1.875c-0.12126-1.289-0.12126-2.461 0-3.75zm-1.5039 0.03125c9e-3 -0.0038 0.02227 0.00367 0.03133 0 0.13493 1.3899 0.15101 2.4826 0.03133 3.7188-0.75333-0.28777-1.2846-1.0224-1.2846-1.875 0-0.82843 0.50223-1.5401 1.2219-1.8438zm-1.7232 8.8438c-0.27686 0-0.50131 0.22386-0.50131 0.5s0.22444 0.5 0.50131 0.5c0.27686 0 0.5013-0.22386 0.5013-0.5s-0.22444-0.5-0.5013-0.5zm5.0131 0c-0.27686 0-0.50131 0.22386-0.50131 0.5s0.22444 0.5 0.50131 0.5 0.5013-0.22386 0.5013-0.5-0.22444-0.5-0.5013-0.5z"/>
</svg>
