<?xml version="1.0" encoding="UTF-8"?>
<svg version="1.1" viewBox="0 0 16 16" xmlns="http://www.w3.org/2000/svg" xmlns:cc="http://creativecommons.org/ns#" xmlns:dc="http://purl.org/dc/elements/1.1/" xmlns:rdf="http://www.w3.org/1999/02/22-rdf-syntax-ns#">
<metadata>
<rdf:RDF>
<cc:Work rdf:about="">
<dc:format>image/svg+xml</dc:format>
<dc:type rdf:resource="http://purl.org/dc/dcmitype/StillImage"/>
<dc:title/>
</cc:Work>
</rdf:RDF>
</metadata>
<rect width="16" height="16" fill="none" visibility="hidden"/>
<path transform="translate(1,1)" d="m6.4996 0c-0.82843 0-1.5 0.67157-1.5 1.5s0.67157 1.5 1.5 1.5 1.5-0.67157 1.5-1.5-0.67157-1.5-1.5-1.5zm-5.3322 4.5732 1.3322 2.4268 3-1 1 4-2 2c-0.27119 0.30508-0.4661 0.45872-0.5 1 0 1 1 1 1 1h6s1 0 1-1-1-1-1-1h-3l1-1c1-1 0.92898-1.4727 0.8125-2l-0.8125-4c-0.23939-0.89342-0.86221-1.3297-2-1.15l-1 0.15-3 1.5-1-1.5c-0.44116-0.58762-1.1832-0.081767-0.83221 0.57317z" fill="#444"/>
</svg>
