<?xml version="1.0" encoding="UTF-8"?>
<svg version="1.1" viewBox="0 0 16 16" xmlns="http://www.w3.org/2000/svg" xmlns:cc="http://creativecommons.org/ns#" xmlns:dc="http://purl.org/dc/elements/1.1/" xmlns:rdf="http://www.w3.org/1999/02/22-rdf-syntax-ns#">
<metadata>
<rdf:RDF>
<cc:Work rdf:about="">
<dc:format>image/svg+xml</dc:format>
<dc:type rdf:resource="http://purl.org/dc/dcmitype/StillImage"/>
<dc:title/>
</cc:Work>
</rdf:RDF>
</metadata>
<rect width="16" height="16" fill="none" visibility="hidden"/>
<path transform="translate(1,1)" d="m7 0c-3.8225 0-7 3.0889-7 7 0 3.9111 3.1775 7 7 7 3.8225 0 7-3.0889 7-7 0-3.9111-3.1775-7-7-7zm0 1.0578c3.3894 0 6.0583 2.7055 6.0583 5.9422 0 3.2367-2.6689 5.9422-6.0583 5.9422s-6.0583-2.7055-6.0583-5.9422c0-3.2367 2.6689-5.9422 6.0583-5.9422zm-2.009 0.96444v2.9867h-3.0135v3.9822h3.0135v2.9867h4.0179v-2.9867h3.0135v-3.9822h-3.0135v-2.9867h-4.0179z" fill="#da0092"/>
</svg>
