<?xml version="1.0" encoding="UTF-8"?>
<svg version="1.1" viewBox="0 0 14 14" xmlns="http://www.w3.org/2000/svg">
<rect width="14" height="14" fill="none" visibility="hidden"/>
<path d="m4.9391 0.125c-1.4191 0-1.6452 1.9305-1.2812 2.9063 0.23094 0.62298 0.93436 1.2248 1.6562 0.96875 0.93354-0.46154 1.1973-1.645 0.9375-2.5625-0.12599-0.61123-0.6136-1.3125-1.3125-1.3125zm3.9688 0c-0.6989 0-1.1865 0.70127-1.3125 1.3125-0.25981 0.91754 0.00396 2.101 0.9375 2.5625 0.72189 0.25604 1.4253-0.34577 1.6562-0.96875 0.36394-0.97578 0.13787-2.9063-1.2812-2.9063zm-8.0328 3.0938c-0.56058 0.56058-0.48717 2.1738 0.53125 2.8438 0.66008 0.33838 1.33-0.099142 1.5625-0.625 0.3926-0.74686 0.28472-1.8085-0.40625-2.3438-0.66138-0.44143-1.1694-0.39309-1.6875 0.125zm10.562-0.125c-0.48218 0.27839-0.79885 1.5969-0.40625 2.3438 0.23248 0.52586 0.93367 0.96338 1.5938 0.625 1.0184-0.66998 1.0715-2.2722 0.5-2.8438-0.53194-0.44527-1.1616-0.42861-1.6875-0.125zm-4.4375 1.4062c-2.4853 0-4.5 2.0147-4.5 4.5s2.0147 4.5 4.5 4.5 4.5-2.0147 4.5-4.5-2.0147-4.5-4.5-4.5zm-1 1.5h2v2h2v2l-2 0.03125v1.9688h-2v-2h-2v-2h2z"/>
</svg>
