<?xml version="1.0" encoding="UTF-8" standalone="no"?>
<!-- Created with Inkscape (http://www.inkscape.org/) -->

<svg
   xmlns:dc="http://purl.org/dc/elements/1.1/"
   xmlns:cc="http://creativecommons.org/ns#"
   xmlns:rdf="http://www.w3.org/1999/02/22-rdf-syntax-ns#"
   xmlns:svg="http://www.w3.org/2000/svg"
   xmlns="http://www.w3.org/2000/svg"
   xmlns:sodipodi="http://sodipodi.sourceforge.net/DTD/sodipodi-0.dtd"
   xmlns:inkscape="http://www.inkscape.org/namespaces/inkscape"
   width="64"
   height="64"
   id="svg2"
   inkscape:label="Pozadí"
   version="1.1"
   inkscape:version="0.92.1 r15371"
   sodipodi:docname="ammonit.svg">
  <defs
     id="defs3" />
  <sodipodi:namedview
     id="base"
     pagecolor="#ffffff"
     bordercolor="#666666"
     borderopacity="1.0"
     inkscape:pageopacity="0.0"
     inkscape:pageshadow="2"
     inkscape:zoom="5.6"
     inkscape:cx="6.4927452"
     inkscape:cy="23.928906"
     inkscape:document-units="px"
     inkscape:current-layer="layer1"
     showgrid="true"
     inkscape:window-width="2560"
     inkscape:window-height="1016"
     inkscape:window-x="0"
     inkscape:window-y="27"
     inkscape:window-maximized="1"
     inkscape:snap-grids="false">
    <inkscape:grid
       type="xygrid"
       id="grid2984"
       empspacing="4"
       visible="true"
       enabled="true"
       snapvisiblegridlinesonly="true"
       spacingx="5.3333"
       spacingy="5.3333"
       originx="0"
       originy="0" />
  </sodipodi:namedview>
  <metadata
     id="metadata6">
    <rdf:RDF>
      <cc:Work
         rdf:about="">
        <dc:format>image/svg+xml</dc:format>
        <dc:type
           rdf:resource="http://purl.org/dc/dcmitype/StillImage" />
        <dc:title />
      </cc:Work>
    </rdf:RDF>
  </metadata>
  <g
     inkscape:label="Vrstva 1"
     inkscape:groupmode="layer"
     id="layer1"
     transform="translate(0,-988.36218)">
    <path
       style="color:#000000;font-style:normal;font-variant:normal;font-weight:normal;font-stretch:normal;font-size:medium;line-height:normal;font-family:Sans;-inkscape-font-specification:Sans;text-indent:0;text-align:start;text-decoration:none;text-decoration-line:none;letter-spacing:normal;word-spacing:normal;text-transform:none;writing-mode:lr-tb;direction:ltr;baseline-shift:baseline;text-anchor:start;display:inline;overflow:visible;visibility:visible;fill:#000000;fill-opacity:1;stroke:none;stroke-width:6.4000001;marker:none;enable-background:accumulate"
       d="m 34.087849,997.81859 c -3.352884,-0.2694 -6.768734,0.0722 -9.972068,1.22699 -6.877186,2.47932 -13.291214,7.94742 -15.8616127,15.10312 -2.8137835,7.8333 -2.4969682,17.5302 3.1678607,25.0306 a 2.8578362,2.8578362 0 1 0 4.551011,-3.4579 c -4.283453,-5.6715 -4.621191,-13.3501 -2.364741,-19.6319 1.819419,-5.065 7.109778,-9.7429 12.448354,-11.6675 4.569985,-1.6476 10.58003,-1.0129 15.348508,1.0708 3.448023,1.5068 6.709424,4.5064 8.254284,7.7858 2.094057,4.4452 2.680509,10.3007 1.048518,14.6124 -1.332618,3.5206 -4.829866,6.9237 -8.410447,8.2765 -3.374964,1.2751 -7.997477,1.0019 -11.199057,-0.6469 -3.407647,-1.755 -6.539169,-5.4948 -7.295003,-9.0128 -0.608431,-2.8319 0.353452,-6.7732 2.230888,-8.8343 2.275473,-2.4982 7.688204,-2.8046 10.708261,-1.1825 3.287452,1.766 4.302295,4.6056 3.7702,7.072 -0.09599,0.445 -0.581564,1.2664 -1.316224,1.8516 -0.734658,0.5853 -1.625334,0.8775 -2.074725,0.8701 -0.156579,0 -1.103044,-0.3472 -1.896255,-1.0932 -0.79321,-0.746 -1.406798,-1.901 -1.405459,-1.8961 a 2.8576488,2.8576488 0 0 0 -5.510293,1.5169 c 0.507185,1.8321 1.591156,3.1927 3.011699,4.5287 1.420542,1.336 3.223146,2.6142 5.688764,2.6548 2.211417,0.036 4.150297,-0.8582 5.733381,-2.1194 1.583084,-1.2611 2.903446,-2.9523 3.368641,-5.1087 1.078989,-5.0015 -1.417465,-10.4745 -6.670355,-13.2961 -5.356231,-2.877 -13.016682,-2.6934 -17.624013,2.3647 -3.383252,3.7144 -4.646615,9.0701 -3.614038,13.8762 1.212485,5.6433 5.361479,10.3591 10.284393,12.8945 4.82003,2.4824 10.773667,2.8063 15.839303,0.8924 5.245466,-1.9819 9.727089,-6.2972 11.734469,-11.6007 2.348473,-6.2045 1.448523,-13.3249 -1.249297,-19.0517 -2.246805,-4.7695 -6.427407,-8.5185 -11.13213,-10.5744 -2.961704,-1.29429 -6.239934,-2.18461 -9.592817,-2.45401 z"
       id="path4019"
       inkscape:connector-curvature="0" />
  </g>
</svg>
