<?xml version="1.0" encoding="UTF-8"?>
<!-- Created with Inkscape (http://www.inkscape.org/) -->
<svg id="svg4152" width="32" height="32" version="1.1" viewBox="0 0 32 32" xmlns="http://www.w3.org/2000/svg" xmlns:cc="http://creativecommons.org/ns#" xmlns:dc="http://purl.org/dc/elements/1.1/" xmlns:rdf="http://www.w3.org/1999/02/22-rdf-syntax-ns#">
 <metadata id="metadata4157">
  <rdf:RDF>
   <cc:Work rdf:about="">
    <dc:format>image/svg+xml</dc:format>
    <dc:type rdf:resource="http://purl.org/dc/dcmitype/StillImage"/>
    <dc:title/>
   </cc:Work>
  </rdf:RDF>
 </metadata>
 <path id="path4019" d="m17.085 4.5241c-1.7167-0.13793-3.4656 0.036966-5.1057 0.62822-3.5211 1.2694-6.8051 4.0691-8.1211 7.7328-1.4407 4.0106-1.2784 8.9755 1.6219 12.816a1.4632 1.4632 0 1 0 2.3301-1.7704c-2.1931-2.9038-2.3661-6.8353-1.2107-10.052 0.93154-2.5933 3.6402-4.9884 6.3736-5.9738 2.3398-0.84357 5.417-0.5186 7.8584 0.54825 1.7654 0.77148 3.4352 2.3073 4.2262 3.9863 1.0722 2.2759 1.3724 5.274 0.53684 7.4815-0.6823 1.8025-2.4729 3.5449-4.3061 4.2376-1.728 0.65285-4.0947 0.51297-5.7339-0.33121-1.7447-0.89856-3.3481-2.8133-3.735-4.6146-0.31152-1.4499 0.18097-3.4679 1.1422-4.5232 1.165-1.2791 3.9364-1.436 5.4826-0.60544 1.6832 0.90419 2.2028 2.3581 1.9303 3.6209-0.04914 0.22784-0.29776 0.6484-0.67391 0.94802-0.37614 0.29967-0.83217 0.44928-1.0623 0.44549-0.08017 0-0.56476-0.17777-0.97088-0.55972s-0.72028-0.97331-0.7196-0.9708a1.4631 1.4631 0 0 0-2.8213 0.77665c0.25968 0.93804 0.81467 1.6347 1.542 2.3187s1.6503 1.3385 2.9126 1.3593c1.1322 0.01843 2.125-0.4394 2.9355-1.0851 0.81054-0.64568 1.4866-1.5116 1.7247-2.6157 0.55244-2.5608-0.72574-5.3629-3.4152-6.8076-2.7424-1.473-6.6645-1.379-9.0235 1.2107-1.7322 1.9018-2.3791 4.6439-1.8504 7.1046 0.62079 2.8894 2.7451 5.3039 5.2656 6.602 2.4679 1.271 5.5161 1.4368 8.1097 0.45691 2.6857-1.0147 4.9803-3.2242 6.008-5.9396 1.2024-3.1767 0.74164-6.8223-0.63964-9.7545-1.1504-2.442-3.2908-4.3615-5.6997-5.4141-1.5164-0.66268-3.1948-1.1185-4.9115-1.2565z" color="#000000" style="text-decoration-line:none;text-indent:0;text-transform:none"/>
</svg>
