<?xml version="1.0" encoding="UTF-8"?>
<svg id="svg4223" width="32" height="32" version="1.1" viewBox="0 0 32 32" xmlns="http://www.w3.org/2000/svg" xmlns:cc="http://creativecommons.org/ns#" xmlns:dc="http://purl.org/dc/elements/1.1/" xmlns:rdf="http://www.w3.org/1999/02/22-rdf-syntax-ns#">
 <metadata id="metadata4228">
  <rdf:RDF>
   <cc:Work rdf:about="">
    <dc:format>image/svg+xml</dc:format>
    <dc:type rdf:resource="http://purl.org/dc/dcmitype/StillImage"/>
    <dc:title/>
   </cc:Work>
  </rdf:RDF>
 </metadata>
 <g id="layer1" transform="matrix(.9 0 0 .9 1.6 1.6)">
  <g id="g4201" transform="matrix(.29925 0 0 .3 6.5001 1)">
   <path id="path5694" d="m29.77 15.722c4.343 0 7.85-3.53 7.85-7.873s-3.507-7.849-7.85-7.849-7.873 3.506-7.873 7.849 3.53 7.873 7.873 7.873z"/>
   <path id="path5696" d="m16.486 17.022c0.302-1.208-0.464-2.415-1.649-2.717l-6.549-1.579c-1.231-0.278-2.438 0.441-2.717 1.649l-5.504 22.782c-0.302 1.208 0.441 2.415 1.649 2.717l6.572 1.579c1.185 0.302 2.415-0.441 2.694-1.649z"/>
   <path id="path5698" d="m46.723 98.049c0 0.047-0.023 0.094-0.023 0.116 0 0.999 0.813 1.812 1.812 1.812 0.906 0 1.672-0.697 1.788-1.579l13.191-71.551v-0.14c0-0.975-0.79-1.788-1.788-1.788-0.906 0-1.603 0.697-1.789 1.579z"/>
   <path id="path5700" d="m2.831 93.357c-0.07 0.372-0.093 0.744-0.093 1.115 0 3.066 2.462 5.528 5.527 5.528 2.508 0 4.622-1.672 5.295-3.948l9.499-39.317 9.057 39.085c0.581 2.415 2.764 4.181 5.341 4.181 3.066 0 5.527-2.462 5.527-5.527 0-0.418-0.046-0.812-0.115-1.207l-12.425-51.93 1.045-4.575 0.812 3.6c0.743 2.345 2.88 2.578 2.88 2.578l12.796 3.251c0.256 0.047 0.511 0.07 0.767 0.07 2.09 0 3.785-1.672 3.785-3.762 0-1.788-1.23-3.298-2.902-3.692l-11.079-2.787-3.042-12.355c-1.44-6.897-8.035-6.735-8.035-6.735-6.41-0.163-8.012 6.572-8.012 6.572z"/>
  </g>
 </g>
</svg>
