<?xml version="1.0" encoding="UTF-8"?>
<svg id="svg4158" width="32" height="32" version="1.1" viewBox="0 0 32 32" xmlns="http://www.w3.org/2000/svg" xmlns:cc="http://creativecommons.org/ns#" xmlns:dc="http://purl.org/dc/elements/1.1/" xmlns:rdf="http://www.w3.org/1999/02/22-rdf-syntax-ns#">
 <metadata id="metadata4163">
  <rdf:RDF>
   <cc:Work rdf:about="">
    <dc:format>image/svg+xml</dc:format>
    <dc:type rdf:resource="http://purl.org/dc/dcmitype/StillImage"/>
    <dc:title/>
   </cc:Work>
  </rdf:RDF>
 </metadata>
 <g id="layer1" transform="matrix(.9 0 0 .9 1.6 1.6)">
  <path id="path4412" d="m22.728 12.674-2.6656-2.9413-2.6656-2.1141c-0.22979-0.82724-1.6085-2.3439-1.6085-2.3439-0.68937-1.8843-1.6085-2.0681-1.6085-2.0681l0.04596 0.41362c-0.04596 0.36766-0.13787 1.1949-0.22979 2.0681l-1.6085-1.8843c-0.50554-1.6085-0.78129-0.64341-0.78129-0.64341-0.78128 0.91916 0.09192 3.7686 0.09192 3.7686l-0.27575 0.32171c-1.1489 0.50554-2.4358 2.206-2.4358 2.206l1.3787-0.27575-2.2979 2.9873c-4.1362 5.2392-6.572 6.0665-6.572 6.0665-0.82724 0.45958-0.36766 2.3439-0.36766 2.3439-0.22979 1.149 0.50554 2.2979 0.50554 2.2979l1.7924 0.64341s1.8383-2.0222 2.8954-1.8843l-2.8954 1.8843c2.0681 0.91916 3.4468-1.2868 3.4468-1.2868 0.41362-0.27575 2.6656-0.22979 2.6656-0.22979l3.263-0.8732c1.5166 0.41362 3.9064-0.78129 3.9064-0.78129l1.9762 8.778 12.317-6.572zm-19.394 8.6401s-0.82724 0.78129-1.3328 0.04596c0 0-0.13787-2.8954 1.1949-2.5736 0 0 1.2868 1.2868 0.13787 2.5277zm9.4673-7.9048s-0.73533 0.22979-1.2409-0.78129c0 0 0.82724-1.5166 2.0681 0 0 0-0.32171 0.73533-0.82724 0.78129z"/>
 </g>
</svg>
