<?xml version="1.0" encoding="UTF-8"?>
<svg id="svg5349" width="32" height="32" version="1.1" viewBox="0 0 32 32" xmlns="http://www.w3.org/2000/svg" xmlns:cc="http://creativecommons.org/ns#" xmlns:dc="http://purl.org/dc/elements/1.1/" xmlns:rdf="http://www.w3.org/1999/02/22-rdf-syntax-ns#">
 <metadata id="metadata5354">
  <rdf:RDF>
   <cc:Work rdf:about="">
    <dc:format>image/svg+xml</dc:format>
    <dc:type rdf:resource="http://purl.org/dc/dcmitype/StillImage"/>
    <dc:title/>
   </cc:Work>
  </rdf:RDF>
 </metadata>
 <g id="layer1" transform="matrix(.8 0 0 .8 3.2 3.2)">
  <path id="path4138" d="m27.319 13.346c0.17433 0.1751 0.45676 0.1751 0.63109 0l2.9187-2.9384c0.17433-0.17548 0.17433-0.45979 0-0.63489l-2.991-3.0112c0.3597-0.23641 0.81341-0.47818 0.61548-0.67857l-2.0466-2.0595c-0.19793-0.19962-0.43849 0.25671-0.67372 0.61956l-2.9914-3.0112c-0.17395-0.1751-0.45638-0.1751-0.6307 0l-2.9191 2.9384c-0.17433 0.17549-0.17433 0.45979 0 0.63527l2.9571 2.9767-6.6093 6.3776-7.1048-6.855 2.229-2.2441c0.13665-0.13755 0.10734-0.39197-0.06699-0.56745l-2.9191-2.938c-0.17433-0.17587-0.42707-0.20537-0.56371-0.067818l-2.2632 2.2782c-0.23485-0.36285-0.47579-0.8188-0.67372-0.61956l-2.0466 2.0598c-0.19793 0.20001 0.2554 0.44216 0.6151 0.67857l-1.7048 1.7162c-0.057475 0.057857-0.07879 0.13755-0.079171 0.22223 0 7.659e-4 -7.611e-4 0.00115-7.611e-4 0.00231v0.0038c0 0.017625-0.00267 0.033715 0 0.051722v3.03c0 0.19005 0.15263 0.34331 0.34104 0.34292h3.0081c0.10658 0.01647 0.20935-0.0076 0.28052-0.07931l1.671-1.6817 6.76 7.098-10.625 10.253c-0.29918 0.30039-0.32963 0.75712-0.069275 1.02l2.0459 2.0587c0.26111 0.26284 0.71444 0.23143 1.0129-0.06935l10.133-10.64 9.6787 10.162c0.29841 0.30039 0.75174 0.3322 1.0125 0.06935l2.0463-2.0583c0.26073-0.26361 0.2299-0.71957-0.06966-1.02l-10.151-9.7958 6.2865-6.601 2.9564 2.9767z"/>
 </g>
</svg>
