<?xml version="1.0" encoding="UTF-8"?>
<!-- Created with Inkscape (http://www.inkscape.org/) -->
<svg id="svg4152" width="32" height="32" version="1.1" viewBox="0 0 32 32" xmlns="http://www.w3.org/2000/svg" xmlns:cc="http://creativecommons.org/ns#" xmlns:dc="http://purl.org/dc/elements/1.1/" xmlns:rdf="http://www.w3.org/1999/02/22-rdf-syntax-ns#">
 <metadata id="metadata4157">
  <rdf:RDF>
   <cc:Work rdf:about="">
    <dc:format>image/svg+xml</dc:format>
    <dc:type rdf:resource="http://purl.org/dc/dcmitype/StillImage"/>
    <dc:title/>
   </cc:Work>
  </rdf:RDF>
 </metadata>
 <path id="path4109" d="m15.709 4.7717-12.881 11.831c0.18321 0.54927 0.39058 1.0735 0.61 1.5889a0.9085 0.9085 0 0 1 0.43977-0.21284c1.5501-0.29322 2.5471-1.0624 3.1919-2.894a0.908 0.908 0 0 1 0.80861-0.62418 0.908 0.908 0 0 1 0.085116 0 0.908 0.908 0 0 1 0.8228 1.2342c-0.81323 2.3099-2.5137 3.6801-4.5821 4.0714a0.9085 0.9085 0 0 1-0.014186 0c0.62133 1.1551 1.3396 2.2041 2.1563 3.121a0.90949 0.90949 0 0 1 0.085117-0.07091c1.675-1.4804 3.0758-2.9763 3.6884-5.9866a0.908 0.908 0 0 1 0.79442-0.73769 0.908 0.908 0 0 1 0.99303 1.0924c-0.6996 3.4379-2.4892 5.416-4.2558 6.9796 0.79302 0.68419 1.6423 1.266 2.5677 1.7307a0.908 0.908 0 0 1 0.02838-0.05673c1.8644-2.8355 3.2049-3.6239 3.3479-10.796a0.908 0.908 0 0 1 0.8228-0.8937 0.908 0.908 0 0 1 0.99303 0.93624c-0.14368 7.2033-1.8009 8.9999-3.4898 11.519 1.2526 0.40745 2.5947 0.62428 4.0289 0.62418 1.4163-1.02e-4 2.7888-0.23219 4.0714-0.65254-0.9684-1.2041-1.8378-2.2883-2.4258-3.9012-0.64105-1.7584-0.94143-4.0662-0.9221-7.8591a0.908 0.908 0 0 1 0.80861-0.92211 0.908 0.908 0 0 1 0.08512 0 0.908 0.908 0 0 1 0.9221 0.93635c-0.0188 3.6893 0.28017 5.7712 0.80861 7.2207 0.52844 1.4495 1.3035 2.3512 2.3975 3.7168a0.90836 0.90836 0 0 1 0.07093 0.08509c0.96397-0.4779 1.8707-1.0688 2.6954-1.7591-2.4003-1.3146-3.955-3.081-4.2133-5.2772a0.908 0.908 0 0 1 0.78024-1.0214 0.908 0.908 0 0 1 0.08512-0.01382 0.908 0.908 0 0 1 0.93629 0.82278c0.17972 1.5284 1.2534 2.8292 3.4898 4.0005a0.91377 0.91377 0 0 1 0.25535 0.19866c0.56184-0.61271 1.0795-1.2636 1.5321-1.9719a0.91289 0.91289 0 0 1-0.11349-0.05678c-1.2931-0.83262-2.651-1.8024-3.8019-3.3905a0.908 0.908 0 0 1 0.68094-1.4611 0.908 0.908 0 0 1 0.78024 0.39716c0.95649 1.3199 2.0805 2.1242 3.3196 2.9224 0.40161-0.8407 0.73836-1.7163 0.97884-2.6386l-13.463-11.831z"/>
</svg>
