<?xml version="1.0" encoding="UTF-8"?>
<!-- Created with Inkscape (http://www.inkscape.org/) -->
<svg id="svg4152" width="32" height="32" version="1.1" viewBox="0 0 32 32" xmlns="http://www.w3.org/2000/svg" xmlns:cc="http://creativecommons.org/ns#" xmlns:dc="http://purl.org/dc/elements/1.1/" xmlns:rdf="http://www.w3.org/1999/02/22-rdf-syntax-ns#">
 <metadata id="metadata4157">
  <rdf:RDF>
   <cc:Work rdf:about="">
    <dc:format>image/svg+xml</dc:format>
    <dc:type rdf:resource="http://purl.org/dc/dcmitype/StillImage"/>
    <dc:title/>
   </cc:Work>
  </rdf:RDF>
 </metadata>
 <path id="path4109" d="m4.7717 16.291 11.831 12.881c0.54927-0.18321 1.0735-0.39058 1.5889-0.61a0.9085 0.9085 0 0 1-0.21284-0.43977c-0.29322-1.5501-1.0624-2.5471-2.894-3.1919a0.908 0.908 0 0 1-0.62418-0.80861 0.908 0.908 0 0 1 0-0.08512 0.908 0.908 0 0 1 1.2342-0.8228c2.3099 0.81323 3.6801 2.5136 4.0714 4.5821a0.9085 0.9085 0 0 1 0 0.01419c1.1551-0.62133 2.2041-1.3396 3.121-2.1563a0.90949 0.90949 0 0 1-0.07091-0.08512c-1.4804-1.675-2.9763-3.0758-5.9866-3.6884a0.908 0.908 0 0 1-0.73769-0.79442 0.908 0.908 0 0 1 1.0924-0.99303c3.4379 0.6996 5.416 2.4892 6.9796 4.2558 0.68419-0.79302 1.266-1.6423 1.7307-2.5677a0.908 0.908 0 0 1-0.05673-0.02838c-2.8355-1.8644-3.6239-3.2049-10.796-3.3479a0.908 0.908 0 0 1-0.8937-0.8228 0.908 0.908 0 0 1 0.93624-0.99303c7.2033 0.14368 8.9999 1.8009 11.519 3.4898 0.40745-1.2526 0.62428-2.5947 0.62418-4.0289-1.02e-4 -1.4163-0.23219-2.7888-0.65254-4.0714-1.2041 0.9684-2.2883 1.8378-3.9012 2.4258-1.7584 0.64105-4.0662 0.94143-7.8591 0.9221a0.908 0.908 0 0 1-0.92211-0.80861 0.908 0.908 0 0 1 0-0.08512 0.908 0.908 0 0 1 0.93635-0.9221c3.6893 0.0188 5.7712-0.28017 7.2207-0.80861 1.4495-0.52844 2.3512-1.3035 3.7168-2.3975a0.90836 0.90836 0 0 1 0.08509-0.07093c-0.4779-0.96397-1.0688-1.8707-1.7591-2.6954-1.3146 2.4003-3.081 3.955-5.2772 4.2133a0.908 0.908 0 0 1-1.0214-0.78024 0.908 0.908 0 0 1-0.01382-0.08512 0.908 0.908 0 0 1 0.82278-0.93629c1.5284-0.17972 2.8292-1.2534 4.0005-3.4898a0.91377 0.91377 0 0 1 0.19866-0.25535c-0.61271-0.56184-1.2636-1.0795-1.9719-1.5321a0.91289 0.91289 0 0 1-0.05678 0.11349c-0.83262 1.2931-1.8024 2.651-3.3905 3.8019a0.908 0.908 0 0 1-1.4611-0.68094 0.908 0.908 0 0 1 0.39716-0.78024c1.3199-0.95649 2.1242-2.0805 2.9224-3.3196-0.8407-0.40161-1.7163-0.73836-2.6386-0.97884l-11.831 13.463z"/>
</svg>
