<?xml version="1.0" encoding="UTF-8" standalone="no"?>
<!-- Created with Inkscape (http://www.inkscape.org/) -->

<svg
   xmlns:dc="http://purl.org/dc/elements/1.1/"
   xmlns:cc="http://creativecommons.org/ns#"
   xmlns:rdf="http://www.w3.org/1999/02/22-rdf-syntax-ns#"
   xmlns:svg="http://www.w3.org/2000/svg"
   xmlns="http://www.w3.org/2000/svg"
   xmlns:sodipodi="http://sodipodi.sourceforge.net/DTD/sodipodi-0.dtd"
   xmlns:inkscape="http://www.inkscape.org/namespaces/inkscape"
   width="64"
   height="64"
   id="svg2"
   inkscape:label="Pozadí"
   version="1.1"
   inkscape:version="0.92.1 r15371"
   sodipodi:docname="shell_modern.svg">
  <defs
     id="defs3" />
  <sodipodi:namedview
     id="base"
     pagecolor="#ffffff"
     bordercolor="#666666"
     borderopacity="1.0"
     inkscape:pageopacity="0.0"
     inkscape:pageshadow="2"
     inkscape:zoom="5.6"
     inkscape:cx="-29.935826"
     inkscape:cy="23.928906"
     inkscape:document-units="px"
     inkscape:current-layer="layer1"
     showgrid="true"
     inkscape:window-width="2560"
     inkscape:window-height="1016"
     inkscape:window-x="0"
     inkscape:window-y="27"
     inkscape:window-maximized="1"
     inkscape:snap-grids="false">
    <inkscape:grid
       type="xygrid"
       id="grid2984"
       empspacing="4"
       visible="true"
       enabled="true"
       snapvisiblegridlinesonly="true"
       spacingx="5.3333"
       spacingy="5.3333"
       originx="0"
       originy="0" />
  </sodipodi:namedview>
  <metadata
     id="metadata6">
    <rdf:RDF>
      <cc:Work
         rdf:about="">
        <dc:format>image/svg+xml</dc:format>
        <dc:type
           rdf:resource="http://purl.org/dc/dcmitype/StillImage" />
        <dc:title />
      </cc:Work>
    </rdf:RDF>
  </metadata>
  <g
     inkscape:label="Vrstva 1"
     inkscape:groupmode="layer"
     id="layer1"
     transform="translate(0,-988.36218)">
    <path
       style="fill:#000000;fill-opacity:1;stroke:none;stroke-width:0.80000001"
       d="m 7.373183,1021.323 26.193802,25.1583 c 1.216061,-0.3578 2.376533,-0.7628 3.51769,-1.1914 a 2.0113586,1.7744056 0 0 1 -0.471189,-0.8589 c -0.649201,-3.0275 -2.35214,-4.9748 -6.407128,-6.2342 a 2.010272,1.7734469 0 0 1 -1.381921,-1.5793 2.010272,1.7734469 0 0 1 0,-0.1662 2.010272,1.7734469 0 0 1 2.732465,-1.6071 c 5.114077,1.5884 8.147519,4.9095 9.013906,8.9495 a 2.0113586,1.7744056 0 0 1 0,0.028 c 2.557355,-1.2136 4.87975,-2.6164 6.909693,-4.2115 a 2.0135645,1.7763515 0 0 1 -0.157063,-0.1663 c -3.27747,-3.2715 -6.58931,-6.0074 -13.253978,-7.2039 a 2.010272,1.7734469 0 0 1 -1.633203,-1.5516 2.010272,1.7734469 0 0 1 2.418428,-1.9395 c 7.611219,1.3664 11.990763,4.8616 15.452411,8.3121 1.51468,-1.5488 2.802834,-3.2076 3.831635,-5.015 a 2.010272,1.7734469 0 0 1 -0.125506,-0.055 c -6.277632,-3.6414 -8.023192,-6.2595 -23.901087,-6.539 a 2.010272,1.7734469 0 0 1 -1.978616,-1.607 2.010272,1.7734469 0 0 1 2.072836,-1.9395 c 15.94763,0.2806 19.925356,3.5173 25.502823,6.816 0.902116,-2.4464 1.382102,-5.0678 1.381921,-7.8689 -2.72e-4,-2.7662 -0.514083,-5.4469 -1.444764,-7.952 -2.665813,1.8914 -5.066196,3.5895 -8.637027,4.738 -3.892937,1.252 -9.002388,1.8387 -17.399649,1.801 a 2.010272,1.7734469 0 0 1 -2.041458,-1.5794 2.010272,1.7734469 0 0 1 0,-0.1662 2.010272,1.7734469 0 0 1 2.072926,-1.801 c 8.168012,0.037 12.777166,-0.5472 15.986261,-1.5793 3.209095,-1.0321 5.205304,-2.546 8.22877,-4.6825 a 2.0110522,1.7741352 0 0 1 0.18844,-0.1386 c -1.058091,-1.8827 -2.366285,-3.6538 -3.894479,-5.2644 -2.910565,4.688 -6.821185,7.7246 -11.683526,8.2291 a 2.010272,1.7734469 0 0 1 -2.261457,-1.5239 2.010272,1.7734469 0 0 1 -0.03083,-0.1662 2.010272,1.7734469 0 0 1 1.821643,-1.8288 c 3.383662,-0.3509 6.263577,-2.448 8.856934,-6.8159 a 2.0230338,1.7847053 0 0 1 0.439722,-0.4988 c -1.356438,-1.0973 -2.797484,-2.10828 -4.365668,-2.99235 a 2.0210825,1.7829838 0 0 1 -0.125687,0.22166 c -1.843407,2.52559 -3.990421,5.17779 -7.506298,7.42559 a 2.010272,1.7734469 0 0 1 -3.23494,-1.33 2.010272,1.7734469 0 0 1 0.879355,-1.5239 c 2.922083,-1.8681 4.702737,-4.06348 6.469971,-6.4835 -1.861272,-0.78439 -3.799715,-1.4421 -5.84181,-1.9118 L 7.3736364,1021.323 Z"
       id="path4109"
       inkscape:connector-curvature="0" />
  </g>
</svg>
