<?xml version="1.0" encoding="UTF-8"?>
<!-- Created with Inkscape (http://www.inkscape.org/) -->
<svg id="svg5066" width="32" height="32" version="1.1" viewBox="0 0 32 32" xmlns="http://www.w3.org/2000/svg" xmlns:cc="http://creativecommons.org/ns#" xmlns:dc="http://purl.org/dc/elements/1.1/" xmlns:rdf="http://www.w3.org/1999/02/22-rdf-syntax-ns#">
 <metadata id="metadata5071">
  <rdf:RDF>
   <cc:Work rdf:about="">
    <dc:format>image/svg+xml</dc:format>
    <dc:type rdf:resource="http://purl.org/dc/dcmitype/StillImage"/>
    <dc:title/>
   </cc:Work>
  </rdf:RDF>
 </metadata>
 <path id="path4525" d="m16.068 3.8312c-6.7471 0-12.237 5.4895-12.237 12.237 0 6.7471 5.4895 12.237 12.237 12.237 6.7471 0 12.237-5.4895 12.237-12.237 0-6.7471-5.4895-12.237-12.237-12.237zm1.1575 2.3848c2.6327 0.30736 4.9533 1.6481 6.5442 3.6063l-6.5442 4.1425zm-2.315 0v7.7491l-6.5442-4.1428c1.591-1.9581 3.9116-3.2986 6.5442-3.6063zm-7.7867 14.143c-0.62597-1.2993-0.97715-2.7553-0.97715-4.2918 0-1.5365 0.35118-2.9924 0.97744-4.2918l6.7796 4.2918zm7.7867 5.56c-2.6327-0.30765-4.9533-1.6481-6.5442-3.6063l6.5442-4.1428zm1.1575-8.5604c-0.71332 0-1.2913-0.57829-1.2913-1.2913s0.5783-1.2913 1.2913-1.2913c0.71332 0 1.2913 0.5783 1.2913 1.2913s-0.578 1.2913-1.2913 1.2913zm1.1575 8.5604v-7.7491l6.5442 4.1428c-1.591 1.9581-3.9116 3.2986-6.5442 3.6063zm1.0068-9.8517 6.7799-4.2918c0.62626 1.2996 0.97745 2.7556 0.97745 4.2918 0 1.5362-0.35118 2.9924-0.97745 4.2918z" stroke-width=".29611"/>
</svg>
